<svg width="76" height="76" viewBox="0 0 76 76" fill="none" xmlns="http://www.w3.org/2000/svg">
<rect width="76" height="76" rx="16.8889" fill="#EAEEF2"/>
<path d="M54.5071 58.7354L26.4052 58.6944C25.3809 58.6929 24.5517 57.8616 24.5528 56.8373L24.5951 18.8525C24.5962 17.8288 25.4264 16.9995 26.4501 16.9995H47.9708L56.3648 25.4864V56.8803C56.3648 57.9059 55.5327 58.7369 54.5071 58.7354Z" fill="#FFA600"/>
<path d="M49.8175 25.4502L56.3668 25.4864L47.9727 16.9995L47.9727 23.5951C47.9727 24.6157 48.797 25.4445 49.8175 25.4502Z" fill="#4C6C8D"/>
<rect x="30.1602" y="31.6538" width="20.6838" height="1.66954" rx="0.834771" fill="#4C6C8D"/>
<rect x="30.1602" y="37.0337" width="20.6838" height="1.66954" rx="0.834771" fill="#4C6C8D"/>
<rect x="30.1602" y="42.043" width="20.6838" height="1.66954" rx="0.834771" fill="#4C6C8D"/>
<path d="M35.6811 16.9995C29.6844 18.391 25.2367 31.1984 24.5508 33.9268V18.8546C24.5508 17.83 25.3813 16.9995 26.4058 16.9995H35.6811Z" fill="#FBC157"/>
<path d="M27.7138 48.0996L22.0508 53.7869L25.0646 56.6792L30.7519 51.0891L27.7138 48.0996Z" fill="#FFA600"/>
<path d="M29.2168 49.6064L23.5781 55.2938L25.1093 56.6305L30.7237 51.0647L29.2168 49.6064Z" fill="#E49A15"/>
<circle cx="34.4719" cy="43.8455" r="9.5032" fill="#61729B"/>
<circle cx="34.4355" cy="43.8701" r="8.26365" fill="white"/>
<path d="M38.7253 49.4642H30.1802C29.8542 49.4642 29.5969 49.1845 29.6391 48.8613C30.0494 45.7193 31.4249 44.1153 32.099 43.6934H36.755C38.4598 45.0206 39.0991 47.4424 39.2563 48.8952C39.29 49.2063 39.0382 49.4642 38.7253 49.4642Z" fill="#4C6C8D"/>
<path d="M32.125 43.6943C32.7862 44.8365 34.7744 46.5666 37.4368 44.3501C36.7537 43.4429 34.735 42.0418 32.125 43.6943Z" fill="#435E7A"/>
<circle cx="34.425" cy="41.3" r="3.31169" fill="#FFA600"/>
<path d="M32.4261 44.1517C30.6293 45.7912 30.0598 48.3487 29.9997 49.4471C29.7792 49.4471 29.6056 49.2574 29.6311 49.0385C30.009 45.7935 31.4217 44.1329 32.1146 43.6763L32.4261 44.1517Z" fill="#5B81A9"/>
<path d="M36.4777 42.5466C34.5235 44.7238 32.3736 43.6833 31.543 42.8909C31.8709 43.5335 32.3572 43.9019 32.5594 44.0057C34.9202 45.5632 36.5597 43.7762 36.7564 43.6778C38.5008 41.6711 37.527 39.7267 36.822 39.0054C37.5958 40.6186 36.9149 42.0384 36.4777 42.5466Z" fill="#DC9002"/>
<path d="M32.522 39.1028C31.0662 40.3226 31.2596 42.1467 31.5383 42.9064C30.5284 41.1226 31.4983 39.4908 32.1541 38.8733C33.4657 37.6011 35.2909 37.9771 35.9904 38.3651C33.8755 37.7257 32.7679 38.9881 32.522 39.1028Z" fill="#FBC157"/>
<path d="M22.2156 53.5913L20.8208 54.9401C20.3724 55.3738 20.3679 56.0912 20.8107 56.5305L22.2307 57.939C22.6659 58.3706 23.3681 58.3692 23.8016 57.9358L25.1565 56.5808L22.2156 53.5913Z" fill="#61729B"/>
<path d="M23.7217 55.1226L21.5586 57.2614L22.2299 57.9326C22.6645 58.3673 23.3692 58.3673 23.8039 57.9326L25.1557 56.5808L23.7217 55.1226Z" fill="#47568C"/>
<path d="M44.4062 58.739C54.1039 52.5746 54.8826 34.1482 54.0525 25.4873H56.3713V56.884C56.3713 57.9085 55.5408 58.739 54.5163 58.739H44.4062Z" fill="#DC9002"/>
</svg>
