<svg width="76" height="76" viewBox="0 0 76 76" fill="none" xmlns="http://www.w3.org/2000/svg">
<rect width="76" height="76" rx="16.8889" fill="#EAEEF2"/>
<g clip-path="url(#clip0_3668_10457)">
<path d="M30.249 30.9776C26.8911 30.9776 23.5333 31.0118 20.1754 30.9776C18.5591 30.9549 17.4777 30.1012 17.068 28.6784C17.011 28.4849 16.9997 28.2914 16.9997 28.0865C16.9997 24.9449 17.0224 21.8033 16.9883 18.6503C16.9883 17.3982 17.8647 16.0779 19.2648 15.7136C19.3445 15.6909 19.4355 15.7022 19.4924 15.6226C22.9983 15.6226 26.4927 15.6226 29.9986 15.6226C30.34 15.7705 30.727 15.8274 31.0457 16.0323C32.1157 16.7039 32.5141 17.7283 32.5596 18.9349C30.6018 18.9349 28.644 18.9463 26.6748 18.9463C26.174 18.9463 25.8781 19.2081 25.8894 19.6406C25.9008 20.0048 26.1854 20.2325 26.6635 20.2325C28.6213 20.2325 30.5791 20.2325 32.5482 20.2325C33.2312 20.2325 33.9142 20.2325 34.5971 20.2439C34.4833 20.3577 34.3353 20.3236 34.1987 20.3236C33.7889 20.3236 33.3792 20.3463 32.9694 20.3236C32.6165 20.3008 32.5369 20.4374 32.5482 20.7675C32.571 21.2455 32.5596 21.735 32.5596 22.2131C32.5369 22.2131 32.5027 22.2244 32.48 22.2358C28.6326 22.2358 24.7853 22.2244 20.938 22.2244C20.551 22.2244 20.1868 22.5773 20.1868 22.9074C20.1868 23.2603 20.5169 23.5676 20.938 23.579C21.5527 23.5904 22.156 23.579 22.7706 23.579C26.0147 23.579 29.2473 23.5676 32.4913 23.5676C32.5141 23.579 32.5482 23.579 32.571 23.5904C32.571 24.057 32.5938 24.5237 32.5596 24.9904C32.5369 25.3547 32.6393 25.4799 33.0263 25.4799C33.5271 25.4685 34.0394 25.3774 34.5288 25.5482C33.8686 25.5482 33.2198 25.5595 32.5596 25.5595C28.7009 25.5595 24.8536 25.5595 20.9949 25.5595C20.4827 25.5595 20.164 25.8213 20.1868 26.2197C20.1982 26.6067 20.5055 26.8344 20.9949 26.8344C24.8536 26.8344 28.7009 26.8344 32.5596 26.8344C33.2198 26.8344 33.8686 26.8458 34.5288 26.8458C34.176 27.0051 33.8003 26.9141 33.4361 26.9141C32.5938 26.9254 32.5938 26.9141 32.5482 27.745C32.5369 27.9271 32.4913 28.1092 32.4686 28.2914C32.3661 29.4979 31.6832 30.2833 30.6132 30.7728C30.4766 30.7955 30.2831 30.7614 30.249 30.9776Z" fill="#4C6C8D"/>
<path d="M30.2465 30.9773C30.2693 30.761 30.4742 30.7952 30.6108 30.7383C31.6807 30.2488 32.3637 29.4634 32.4661 28.2569C32.4775 28.0747 32.5344 27.8926 32.5458 27.7105C32.5799 26.891 32.5799 26.9023 33.4336 26.8796C33.7979 26.8682 34.1735 26.9706 34.5264 26.8113C34.8792 26.7544 35.0841 26.5153 35.0955 26.1852C35.1069 25.8324 34.902 25.582 34.5264 25.5137C34.0369 25.3429 33.5247 25.4454 33.0239 25.4454C32.6368 25.4454 32.5344 25.3316 32.5572 24.9559C32.5913 24.4892 32.5686 24.0226 32.5686 23.5559C33.1377 23.5559 33.6954 23.5559 34.2646 23.5559C34.7312 23.5559 35.0955 23.2599 35.1182 22.8957C35.1296 22.5201 34.7426 22.2013 34.2646 22.19C33.6954 22.19 33.1377 22.19 32.5686 22.19C32.5686 21.7119 32.5799 21.2224 32.5572 20.7444C32.5458 20.4257 32.6255 20.2777 32.9783 20.3005C33.3881 20.3346 33.7979 20.3118 34.2076 20.3005C34.3442 20.3005 34.4922 20.346 34.606 20.2208C34.9703 20.0956 35.141 19.8224 35.0727 19.4695C35.0044 19.0939 34.7426 18.9118 34.3329 18.9232C33.741 18.9459 33.1491 18.9345 32.5572 18.9345V18.9232C32.5116 17.7166 32.1133 16.6922 31.0433 16.0206C30.7132 15.8157 30.3376 15.7588 29.9961 15.6108C31.9311 15.6108 33.8662 15.6108 35.8012 15.6108C36.2224 15.8043 36.6663 15.9068 37.0533 16.2027C37.8501 16.8288 38.2598 17.6369 38.2826 18.65C38.294 19.6403 38.294 20.6306 38.3054 21.6208C38.3054 23.6697 38.294 25.7186 38.294 27.756C38.294 27.9723 38.294 28.1886 38.2485 28.3935C37.9639 29.839 37.0419 30.7041 35.5736 30.909C34.9817 30.9887 34.9589 31.0456 35.1524 31.6147C35.4711 32.5367 35.7898 33.4701 36.0971 34.3921C36.1427 34.5287 36.2224 34.688 36.0858 34.7791C35.9492 34.8701 35.824 34.7336 35.7101 34.6539C34.1849 33.5156 32.6596 32.3887 31.1344 31.2505C30.8726 31.0342 30.5766 30.9432 30.2465 30.9773Z" fill="#445E7B"/>
<path d="M40.2316 59.331C39.5373 59.0351 38.934 58.6367 38.7405 57.8285C38.6608 57.4984 38.7177 57.1797 38.6836 56.8496C40.5048 56.8496 42.326 56.8496 44.1472 56.8496C44.5456 56.8496 44.944 56.8496 45.3424 56.8496C45.3652 57.8854 44.944 58.6936 44.1472 59.3196C42.8496 59.331 41.5406 59.331 40.2316 59.331Z" fill="#5A67AF"/>
<path d="M44.1602 59.3313C44.9569 58.6939 45.3781 57.8858 45.3553 56.8613C46.9716 56.8613 48.5994 56.8613 50.2157 56.8613C50.2726 57.7378 50.0791 58.5232 49.2709 59.024C49.066 59.1606 48.8156 59.2289 48.588 59.3427C47.1196 59.3313 45.6399 59.3313 44.1602 59.3313Z" fill="#4958A6"/>
<path d="M31.1272 31.2731C32.6524 32.4114 34.1777 33.5496 35.703 34.6765C35.8168 34.7562 35.942 34.8928 36.0786 34.8017C36.2152 34.7107 36.1355 34.5513 36.09 34.4147C35.7713 33.4927 35.4525 32.5594 35.1452 31.6374C34.9517 31.0569 34.9745 31.0113 35.5664 30.9316C37.0347 30.7154 37.9567 29.8617 38.2413 28.4161C38.2868 28.2112 38.2868 27.9949 38.2868 27.7787C38.2982 25.7298 38.2982 23.681 38.2982 21.6435C39.4023 21.1654 40.5178 20.7215 41.7016 20.5166C41.8268 20.619 41.9861 20.6418 42.1341 20.676C42.9081 20.8467 43.6594 21.1199 44.3765 21.4614C46.9375 22.6793 48.9636 24.5119 50.4092 26.9933C52.0142 29.7479 52.515 32.7073 52.0825 35.8148C51.7751 38.0002 50.9556 40.0263 49.5897 41.7906C48.8953 42.6785 48.1441 43.5208 47.4156 44.3858C47.3929 43.9533 47.4611 43.5321 47.6546 43.1451C48.2693 41.9158 48.9181 40.6979 49.5442 39.4686C49.9084 38.7629 50.2954 38.0685 50.6369 37.3514C50.8304 36.9416 50.6255 36.4294 50.2726 36.3725C49.8173 36.2928 49.362 36.3498 48.9978 36.6912C48.8726 36.8051 48.7474 36.9303 48.6336 37.0441C48.3376 37.34 48.053 37.34 47.7685 37.0213C47.5522 36.7823 47.2904 36.566 46.9831 36.4522C46.2091 36.1904 45.5375 36.3611 44.9684 36.9644C44.57 37.3856 44.3879 37.4083 44.0464 37.0327C43.2724 36.1676 42.0317 36.0424 41.1438 37.0327C40.8251 37.3856 40.6316 37.3742 40.2901 37.0327C40.0511 36.7937 39.8007 36.5433 39.4706 36.4408C39.1063 36.327 38.7193 36.2132 38.4006 36.5546C38.0933 36.8733 38.1957 37.2262 38.3779 37.5791C39.1974 39.1499 40.0056 40.732 40.8479 42.2914C41.178 42.8947 41.4739 43.5094 41.5081 44.2037C41.5422 44.7728 41.5194 45.342 41.5308 45.9111C41.2463 45.9111 40.9617 45.9225 40.6771 45.9339C40.0283 45.9566 39.5958 46.3892 39.573 47.038C39.5616 47.4933 39.573 47.9486 39.573 48.4039C39.0039 48.4039 38.4348 48.4153 37.8656 48.4153C37.1827 46.5713 36.1924 44.8981 34.8948 43.4411C33.5061 41.8817 32.3223 40.1971 31.6508 38.1937C30.854 35.9286 30.7174 33.6179 31.1272 31.2731Z" fill="#FAA51A"/>
<path d="M37.8373 48.404C38.4064 48.404 38.9756 48.3926 39.5447 48.3926C39.7382 48.3926 39.9431 48.404 40.1366 48.404C41.844 48.404 43.5514 48.4153 45.2588 48.4153C45.0083 49.3259 44.7465 50.2252 44.4961 51.1358C42.7091 51.1358 40.922 51.1358 39.1349 51.1358C38.987 51.1358 38.8162 51.0789 38.691 51.2155C38.4406 51.2155 38.1788 51.2155 37.9284 51.2155C36.9267 50.6919 36.6535 49.8723 37.143 48.9959C37.3137 48.7113 37.6552 48.6658 37.8373 48.404Z" fill="#5A67AF"/>
<path d="M37.9326 51.2158C38.1831 51.2158 38.4449 51.2158 38.6953 51.2158C40.6303 51.2158 42.5653 51.2158 44.5004 51.2158C44.3183 52.1492 44.2272 53.0826 44.1589 54.0273C42.0531 54.0273 39.9474 54.0273 37.8416 54.0273C37.6026 53.7997 37.3294 53.5948 37.1245 53.3216C36.7033 52.7638 36.9196 51.7963 37.5343 51.4435C37.6708 51.3866 37.8074 51.2955 37.9326 51.2158Z" fill="#5A67AF"/>
<path d="M37.8392 54.0381C39.945 54.0381 42.0508 54.0381 44.1566 54.0381C44.1566 54.9715 44.1566 55.9162 44.1566 56.8496C42.3354 56.8496 40.5141 56.8496 38.6929 56.8496C38.0214 56.8154 37.3498 56.7471 37.0425 55.9959C36.7351 55.2788 36.9742 54.5731 37.6457 54.1747C37.7026 54.1405 37.7709 54.095 37.8392 54.0381Z" fill="#5A67AF"/>
<path d="M47.4129 44.3861C48.1414 43.5211 48.904 42.6901 49.587 41.7909C50.9529 40.0266 51.7725 38.0005 52.0798 35.8151C52.5123 32.7076 52.0115 29.7368 50.4065 26.9936C48.961 24.5122 46.9349 22.6796 44.3624 21.4503C43.6453 21.1088 42.9054 20.8356 42.12 20.6649C41.9721 20.6307 41.8127 20.608 41.6875 20.5055C42.9851 20.1868 44.3055 20.1526 45.6259 20.2665C48.3235 20.5055 50.7708 21.4503 52.8766 23.169C55.7791 25.5252 57.4979 28.5644 57.9077 32.2865C58.3516 36.4297 57.0767 40.0152 54.3108 43.0999C52.8993 44.6707 51.7838 46.4236 51.0667 48.4156C50.4976 48.4156 49.9285 48.4042 49.3593 48.4042C49.3593 47.9716 49.3707 47.5277 49.3593 47.0952C49.3366 46.3667 48.904 45.9569 48.1756 45.9455C47.9251 45.9455 47.6633 45.9342 47.4129 45.9228C47.4015 45.3992 47.4015 44.887 47.4129 44.3861Z" fill="#DB9127"/>
<path d="M44.1602 56.8496C44.1602 55.9162 44.1602 54.9715 44.1602 54.0381C46.3798 54.0381 48.5994 54.0381 50.819 54.0381C51.593 54.2657 52.0938 54.8918 52.0027 55.5292C51.8889 56.3032 51.2629 56.8382 50.432 56.861C50.3637 56.861 50.2954 56.861 50.2157 56.861C48.5994 56.861 46.9716 56.861 45.3553 56.861C44.9569 56.8496 44.5585 56.8496 44.1602 56.8496Z" fill="#4958A6"/>
<path d="M50.819 54.0381C48.5994 54.0381 46.3798 54.0381 44.1602 54.0381C44.2285 53.0934 44.3195 52.1486 44.5016 51.2266C44.9342 51.2266 45.3553 51.2266 45.7879 51.2266C47.0855 51.2266 48.3945 51.2266 49.6921 51.2266C49.8401 51.2266 50.0108 51.2836 50.136 51.147C50.4206 51.147 50.7051 51.147 50.9897 51.147C50.9897 51.2949 51.1035 51.3291 51.206 51.3746C51.7865 51.625 52.0369 52.1373 51.9914 52.695C51.9458 53.2869 51.6157 53.7763 50.9669 53.9585C50.91 53.9698 50.8759 54.004 50.819 54.0381Z" fill="#4958A6"/>
<path d="M45.7862 51.2155C45.3537 51.2155 44.9325 51.2155 44.5 51.2155C44.5 51.1927 44.5 51.1585 44.5 51.1358C44.7504 50.2252 45.0122 49.3259 45.2626 48.4153C45.2968 48.404 45.3195 48.3926 45.3537 48.3926C46.6855 48.3926 48.0172 48.3926 49.349 48.3926C49.9181 48.3926 50.4872 48.404 51.0564 48.404C51.3637 48.7341 51.819 48.9389 51.9328 49.4512C52.1036 50.2252 51.7621 50.874 50.9881 51.1358C50.7035 51.1358 50.4189 51.1358 50.1344 51.1358C48.8368 51.1358 47.5278 51.1358 46.2301 51.1358C46.0708 51.1358 45.9114 51.0789 45.7862 51.2155Z" fill="#4958A6"/>
<path d="M32.4686 23.5443C29.2246 23.5443 25.9919 23.5557 22.7479 23.5557C22.1332 23.5557 21.53 23.5671 20.9153 23.5557C20.4942 23.5443 20.1754 23.237 20.1641 22.8841C20.1641 22.5654 20.5283 22.2012 20.9153 22.2012C24.7626 22.2012 28.6099 22.2126 32.4572 22.2126C32.4686 22.6565 32.4686 23.1004 32.4686 23.5443Z" fill="#FEFBE6"/>
<path d="M32.5489 26.7997C28.6902 26.7997 24.8429 26.7997 20.9842 26.7997C20.4834 26.7997 20.1875 26.5721 20.1761 26.1851C20.1647 25.7867 20.472 25.5249 20.9842 25.5249C24.8429 25.5249 28.6902 25.5249 32.5489 25.5249C32.5489 25.9574 32.5489 26.3786 32.5489 26.7997Z" fill="#FEFBE6"/>
<path d="M32.5498 20.2322C30.592 20.2322 28.6342 20.2322 26.665 20.2322C26.1869 20.2322 25.9023 20.0159 25.891 19.6403C25.8796 19.2078 26.1641 18.946 26.6764 18.946C28.6342 18.9346 30.592 18.9346 32.5611 18.9346V18.946C32.5498 19.3785 32.5498 19.811 32.5498 20.2322Z" fill="#FEFBE6"/>
<path d="M32.4688 23.5445C32.4688 23.1005 32.4688 22.6566 32.4688 22.2127C32.4915 22.2013 32.5257 22.2013 32.5484 22.1899C33.1176 22.1899 33.6753 22.1899 34.2444 22.1899C34.7225 22.1899 35.1095 22.52 35.0981 22.8957C35.0867 23.2599 34.7111 23.5445 34.2444 23.5558C33.6753 23.5558 33.1176 23.5558 32.5484 23.5558C32.5257 23.5558 32.5029 23.5558 32.4688 23.5445Z" fill="#FBF4C7"/>
<path d="M32.5469 20.2325C32.5469 19.8114 32.5469 19.3788 32.5469 18.9577C33.1388 18.9577 33.7307 18.9691 34.3226 18.9463C34.7323 18.9349 34.9941 19.117 35.0624 19.4927C35.1307 19.8455 34.96 20.1187 34.5957 20.2439C33.9128 20.2325 33.2298 20.2325 32.5469 20.2325Z" fill="#FBF4C7"/>
<path d="M32.5469 26.7999C32.5469 26.3787 32.5469 25.9462 32.5469 25.5251C33.2071 25.5251 33.8559 25.5137 34.5161 25.5137C34.8917 25.582 35.0966 25.8324 35.0852 26.1852C35.0738 26.5153 34.8689 26.7544 34.5161 26.8113C33.8559 26.8113 33.2071 26.8113 32.5469 26.7999Z" fill="#FBF4C7"/>
<path d="M47.4132 44.3863C47.4132 44.8871 47.4132 45.3879 47.4132 45.9002C47.0945 45.9115 46.7872 45.9229 46.4685 45.9343C46.3546 45.9229 46.2294 45.9115 46.1156 45.9002C46.1156 45.3083 46.127 44.705 46.1156 44.1131C46.1042 43.5098 46.2522 42.9521 46.514 42.4285C47.0262 41.4268 47.5612 40.4479 48.0734 39.4462C48.21 39.1731 48.3921 38.9226 48.4604 38.5584C47.7092 38.6722 47.1742 38.3535 46.7075 37.8413C46.4685 37.5795 46.2067 37.5454 45.9449 37.8413C45.7058 38.1031 45.4327 38.3535 45.0912 38.4673C44.2716 38.7405 43.5887 38.5129 43.0082 37.8868C42.6553 37.5112 42.5073 37.5112 42.1659 37.8641C41.7447 38.2966 41.278 38.6153 40.6292 38.5584C40.4699 38.547 40.3788 38.5812 40.4812 38.7747C40.8113 39.3779 41.1301 39.9698 41.426 40.5845C41.9155 41.5748 42.5756 42.4968 42.735 43.6123C42.8488 44.3635 42.7578 45.1148 42.7805 45.866C42.348 45.866 41.9154 45.866 41.4943 45.866C41.4943 45.2969 41.5057 44.7278 41.4715 44.1586C41.4374 43.4643 41.1414 42.861 40.8113 42.2464C39.969 40.6869 39.1723 39.1048 38.3413 37.534C38.1592 37.1811 38.0568 36.8396 38.3641 36.5095C38.6828 36.1794 39.0698 36.2819 39.4341 36.3957C39.7641 36.4982 40.0146 36.7372 40.2536 36.9876C40.5951 37.3291 40.7886 37.3519 41.1073 36.9876C41.9951 35.9973 43.2472 36.1339 44.0098 36.9876C44.3399 37.3632 44.5334 37.3291 44.9318 36.9193C45.501 36.316 46.1725 36.1567 46.9465 36.4071C47.2653 36.5095 47.5157 36.7372 47.7319 36.9762C48.0279 37.2949 48.3011 37.2949 48.597 36.999C48.7222 36.8738 48.836 36.76 48.9613 36.6461C49.3255 36.3047 49.7808 36.2591 50.2361 36.3274C50.6003 36.3843 50.7939 36.8966 50.6003 37.3063C50.2589 38.0234 49.8719 38.7178 49.5076 39.4235C48.8702 40.6414 48.2328 41.8593 47.6181 43.1C47.4588 43.5326 47.3905 43.9537 47.4132 44.3863Z" fill="#DB9127"/>
<path d="M41.5055 45.9116C41.938 45.9116 42.3706 45.9116 42.7917 45.9116C43.8958 45.9116 44.9999 45.9116 46.104 45.9116C46.2179 45.923 46.3431 45.9344 46.4569 45.9458C46.3431 46.162 46.2293 46.3669 46.1268 46.5832C45.8422 47.1751 45.4894 47.7442 45.3414 48.393C45.3073 48.4044 45.2845 48.4158 45.2504 48.4158C43.543 48.4158 41.8356 48.4044 40.1282 48.4044C39.9347 48.4044 39.7298 48.393 39.5363 48.393C39.5363 47.9377 39.5249 47.4824 39.5363 47.0271C39.5477 46.3783 39.9916 45.9458 40.6404 45.923C40.9364 45.9116 41.2209 45.9116 41.5055 45.9116Z" fill="#5A67AF"/>
<path d="M44.5004 51.1358C44.5004 51.1585 44.5004 51.1927 44.5004 51.2155C42.5654 51.2155 40.6303 51.2155 38.6953 51.2155C38.8205 51.0789 38.9913 51.1358 39.1392 51.1358C40.9263 51.1358 42.7134 51.1358 44.5004 51.1358Z" fill="#5A67AF"/>
<path d="M45.3516 48.393C45.4995 47.7442 45.8524 47.1751 46.137 46.5832C46.2394 46.3669 46.3532 46.1507 46.4671 45.9458C46.7858 45.9344 47.0931 45.923 47.4118 45.9116C47.6622 45.923 47.924 45.9344 48.1744 45.9344C48.9029 45.9458 49.3355 46.3555 49.3582 47.084C49.3696 47.5166 49.3582 47.9605 49.3582 48.393C48.0151 48.393 46.6833 48.393 45.3516 48.393Z" fill="#4958A6"/>
<path d="M45.7891 51.2155C45.9143 51.0789 46.085 51.1358 46.233 51.1358C47.5306 51.1358 48.8396 51.1358 50.1372 51.1358C50.012 51.2724 49.8413 51.2155 49.6933 51.2155C48.3957 51.2268 47.0867 51.2155 45.7891 51.2155Z" fill="#4958A6"/>
<path d="M46.1198 45.9113C45.0157 45.9113 43.9116 45.9113 42.8075 45.9113C42.7847 45.16 42.8758 44.3974 42.762 43.6575C42.6026 42.5306 41.931 41.62 41.453 40.6298C41.157 40.0151 40.8269 39.4232 40.5082 38.8199C40.4058 38.6264 40.4968 38.5923 40.6562 38.6037C41.2936 38.6492 41.7603 38.3419 42.1928 37.9093C42.5343 37.5565 42.6823 37.5565 43.0351 37.9321C43.6156 38.5581 44.2986 38.7858 45.1181 38.5126C45.4596 38.3988 45.7328 38.1484 45.9718 37.8866C46.2336 37.5906 46.4954 37.6248 46.7345 37.8866C47.2012 38.3988 47.7475 38.7175 48.4874 38.6037C48.4191 38.9565 48.237 39.2183 48.1004 39.4915C47.5882 40.4932 47.0418 41.4721 46.541 42.4737C46.2792 42.9973 46.1312 43.5551 46.1426 44.1584C46.1312 44.7161 46.1198 45.308 46.1198 45.9113Z" fill="#FAA51A"/>
</g>
<defs>
<clipPath id="clip0_3668_10457">
<rect width="41" height="43.709" fill="white" transform="translate(17 15.6221)"/>
</clipPath>
</defs>
</svg>
