<svg width="324" height="324" viewBox="0 0 324 324" fill="none" xmlns="http://www.w3.org/2000/svg">
<g filter="url(#filter0_d_542_9970)">
<circle cx="162" cy="158" r="72" fill="#FFCF54"/>
</g>
<path d="M137.159 56.472L130.33 58.3363L127.19 46.8335L134.019 44.9691L134.7 47.4632L130.979 48.4792L131.473 50.2888L134.919 49.348L135.6 51.8421L132.154 52.7829L132.746 54.9544L136.468 53.9385L137.159 56.472Z" fill="#F7FAFC"/>
<path d="M148.526 42.3829L146.536 54.7715L142.791 55.3658L137.08 44.199L140.656 43.6315L143.206 49.346C143.301 49.5622 143.414 49.8415 143.546 50.184C143.682 50.5202 143.81 50.8578 143.929 51.1966C144.055 51.5346 144.143 51.8124 144.194 52.03C144.18 51.8064 144.176 51.5181 144.18 51.1651C144.185 50.812 144.195 50.4581 144.21 50.1033C144.23 49.7424 144.254 49.444 144.283 49.2082L144.966 42.9478L148.526 42.3829Z" fill="#F7FAFC"/>
<path d="M159.914 53.7552L159.252 51.5417L155.38 51.6734L154.853 53.9274L151.315 54.0477L154.796 41.9497L159.092 41.8036L163.436 53.6354L159.914 53.7552ZM158.493 48.9235L157.913 46.9847C157.852 46.7747 157.763 46.4758 157.646 46.088C157.529 45.6948 157.412 45.2908 157.295 44.8759C157.183 44.4554 157.095 44.1102 157.031 43.8403C156.991 44.1137 156.932 44.453 156.854 44.8583C156.78 45.2579 156.701 45.655 156.617 46.0496C156.538 46.444 156.467 46.7728 156.405 47.036L155.958 49.0098L158.493 48.9235Z" fill="#F7FAFC"/>
<path d="M175.636 54.8081L173.688 54.5453L175.06 44.3774L171.6 43.9108L171.823 42.262L180.681 43.4569L180.459 45.1058L177.008 44.6402L175.636 54.8081Z" fill="#F7FAFC"/>
<path d="M187.766 47.7799C188.874 48.0525 189.651 48.5038 190.095 49.1337C190.545 49.7649 190.642 50.6006 190.386 51.6408L188.935 57.5411L187.613 57.216L187.562 55.8849L187.499 55.8694C187.173 56.1252 186.852 56.3236 186.538 56.4646C186.223 56.6056 185.879 56.6834 185.506 56.6981C185.137 56.7193 184.704 56.6689 184.208 56.5469C183.685 56.4184 183.241 56.2085 182.876 55.9172C182.512 55.6206 182.26 55.2451 182.12 54.7907C181.98 54.3363 181.984 53.8055 182.134 53.1983C182.356 52.2954 182.858 51.6993 183.64 51.4101C184.427 51.1222 185.508 51.1219 186.882 51.4092L188.416 51.7276L188.529 51.2683C188.678 50.6611 188.642 50.1931 188.421 49.8642C188.204 49.5367 187.84 49.31 187.328 49.1841C186.89 49.0764 186.449 49.0353 186.006 49.0607C185.563 49.0862 185.124 49.1433 184.687 49.2321L184.409 47.7694C184.892 47.6475 185.423 47.5821 186.002 47.5732C186.587 47.5657 187.174 47.6346 187.766 47.7799ZM188.12 52.8978L186.978 52.659C186.041 52.4622 185.35 52.4603 184.905 52.6533C184.46 52.8463 184.176 53.1909 184.054 53.6872C183.948 54.1202 183.999 54.4688 184.209 54.733C184.419 54.992 184.736 55.1734 185.158 55.2772C185.802 55.4356 186.381 55.3845 186.892 55.124C187.411 54.8596 187.758 54.3709 187.933 53.6581L188.12 52.8978Z" fill="#F7FAFC"/>
<path d="M194.976 59.4705L193.154 58.8517L197.233 46.835L199.056 47.4537L194.976 59.4705Z" fill="#F7FAFC"/>
<path d="M206.329 54.0314C207.066 54.3548 207.632 54.7841 208.027 55.3194C208.421 55.8547 208.638 56.4634 208.677 57.1456C208.716 57.8278 208.565 58.5572 208.224 59.3339L207.811 60.275L202.292 57.8531C201.96 58.6635 201.904 59.3748 202.122 59.9871C202.345 60.6016 202.828 61.0716 203.569 61.3972C204.097 61.6288 204.592 61.7865 205.054 61.8705C205.523 61.9516 206.025 61.9909 206.561 61.9884L205.935 63.4149C205.436 63.4277 204.953 63.385 204.486 63.2867C204.018 63.1884 203.486 63.0082 202.888 62.746C202.077 62.3899 201.431 61.9196 200.951 61.335C200.479 60.7476 200.206 60.0638 200.133 59.2835C200.064 58.5054 200.235 57.6508 200.643 56.7198C201.05 55.7937 201.552 55.0759 202.149 54.5662C202.747 54.0566 203.404 53.7571 204.12 53.6676C204.836 53.5781 205.573 53.6993 206.329 54.0314ZM205.749 55.3533C205.197 55.1108 204.67 55.0934 204.169 55.3012C203.673 55.5111 203.244 55.949 202.88 56.6148L206.644 58.2665C206.821 57.8511 206.911 57.4545 206.917 57.0769C206.927 56.7015 206.837 56.3651 206.647 56.0679C206.462 55.7729 206.163 55.5347 205.749 55.3533Z" fill="#F7FAFC"/>
<path d="M218.367 60.1607C219.246 60.6721 219.797 61.2979 220.021 62.0382C220.252 62.7765 220.076 63.6461 219.493 64.6471L216.532 69.7365L214.875 68.7725L217.656 63.9932C218.009 63.387 218.148 62.8611 218.074 62.4154C218.003 61.965 217.707 61.588 217.185 61.2844C216.428 60.8442 215.767 60.7705 215.2 61.0634C214.638 61.3591 214.1 61.9487 213.586 62.8322L211.329 66.7092L209.673 65.7452L214.214 57.9419L215.504 58.6926L215.121 59.8853L215.213 59.9386C215.541 59.7645 215.88 59.663 216.23 59.634C216.588 59.6031 216.947 59.6333 217.31 59.7245C217.676 59.8184 218.029 59.9638 218.367 60.1607Z" fill="#F7FAFC"/>
<path d="M223.709 73.0308C223.911 73.1779 224.124 73.3057 224.347 73.4144C224.574 73.5187 224.788 73.6036 224.989 73.6691L224.135 74.8434C223.91 74.7935 223.641 74.6958 223.33 74.5504C223.019 74.4049 222.716 74.2251 222.422 74.0109C222.008 73.7104 221.686 73.3721 221.455 72.996C221.228 72.6155 221.14 72.1856 221.193 71.7063C221.246 71.227 221.489 70.6883 221.924 70.0901L224.777 66.1648L223.781 65.4408L224.285 64.7481L225.751 64.9773L227.396 63.783L228.372 64.4927L227.192 66.1156L229.284 67.6357L228.425 68.8166L226.334 67.2965L223.495 71.202C223.227 71.5715 223.119 71.9135 223.173 72.2281C223.227 72.5427 223.405 72.8102 223.709 73.0308Z" fill="#F7FAFC"/>
<path d="M235.15 84.7601L239.951 75.3847L239.901 75.3318C239.751 75.498 239.545 75.7227 239.281 76.0058C239.018 76.289 238.733 76.589 238.427 76.9059C238.121 77.2228 237.823 77.5206 237.532 77.7994L232.816 82.3313L231.584 81.0493L240.182 72.7878L242.086 74.7697L237.512 83.7459L237.546 83.7812L246.776 79.6509L248.675 81.6269L240.077 89.8883L238.783 88.5416L243.57 83.9419C243.833 83.6894 244.121 83.4202 244.434 83.1343C244.751 82.8522 245.053 82.5852 245.339 82.3332C245.628 82.0852 245.859 81.886 246.031 81.7356L245.986 81.6886L236.348 86.0069L235.15 84.7601Z" fill="#F7FAFC"/>
<path d="M252.502 90.9997C253.174 91.923 253.476 92.7686 253.41 93.5365C253.346 94.3089 252.882 95.0101 252.016 95.6403L247.102 99.2151L246.301 98.1138L247.121 97.0637L247.082 97.0109C246.668 96.9962 246.295 96.9413 245.964 96.8462C245.632 96.7512 245.319 96.5889 245.025 96.3595C244.729 96.1377 244.431 95.8202 244.13 95.4069C243.813 94.9717 243.609 94.525 243.518 94.0669C243.431 93.6056 243.481 93.1561 243.666 92.7183C243.852 92.2805 244.198 91.8777 244.703 91.5098C245.455 90.9628 246.223 90.8309 247.008 91.1142C247.795 91.4019 248.622 92.0985 249.486 93.204L250.454 94.4366L250.836 94.1583C251.342 93.7904 251.616 93.4094 251.659 93.0152C251.705 92.6255 251.573 92.2174 251.262 91.7909C250.997 91.426 250.686 91.1104 250.331 90.8443C249.976 90.5781 249.604 90.3383 249.213 90.125L249.943 88.8272C250.391 89.0458 250.839 89.3383 251.288 89.7048C251.739 90.0757 252.144 90.5073 252.502 90.9997ZM249.473 95.1402L248.754 94.2211C248.165 93.4665 247.638 93.0195 247.173 92.8801C246.708 92.7406 246.27 92.8213 245.856 93.122C245.496 93.3843 245.31 93.6839 245.3 94.0209C245.294 94.3547 245.419 94.6975 245.675 95.0492C246.065 95.5856 246.54 95.9193 247.099 96.0503C247.666 96.1825 248.246 96.0327 248.84 95.6008L249.473 95.1402Z" fill="#F7FAFC"/>
<path d="M259.822 102.393C260.323 103.277 260.484 104.096 260.304 104.848C260.131 105.602 259.541 106.264 258.533 106.835L253.41 109.738L252.465 108.07L257.276 105.344C257.886 104.999 258.272 104.615 258.432 104.192C258.598 103.767 258.532 103.292 258.234 102.767C257.803 102.006 257.268 101.609 256.631 101.576C255.997 101.548 255.235 101.786 254.345 102.29L250.443 104.501L249.498 102.833L257.353 98.3828L258.089 99.6814L257.157 100.519L257.209 100.611C257.58 100.626 257.924 100.709 258.241 100.86C258.566 101.014 258.861 101.221 259.128 101.483C259.398 101.749 259.629 102.052 259.822 102.393Z" fill="#F7FAFC"/>
<path d="M265.203 113.298C265.65 114.349 265.754 115.241 265.516 115.974C265.281 116.712 264.67 117.291 263.684 117.71L258.093 120.087L257.56 118.834L258.595 117.995L258.569 117.935C258.169 117.827 257.818 117.69 257.516 117.523C257.215 117.355 256.946 117.127 256.711 116.837C256.473 116.554 256.253 116.178 256.054 115.707C255.843 115.212 255.745 114.731 255.759 114.264C255.778 113.795 255.928 113.368 256.207 112.984C256.487 112.599 256.914 112.284 257.49 112.039C258.345 111.676 259.123 111.72 259.824 112.173C260.526 112.63 261.175 113.495 261.768 114.767L262.434 116.185L262.869 116C263.444 115.756 263.797 115.446 263.928 115.072C264.06 114.702 264.023 114.275 263.817 113.79C263.64 113.374 263.409 112.997 263.123 112.658C262.837 112.319 262.528 112.001 262.195 111.705L263.199 110.605C263.586 110.919 263.957 111.305 264.311 111.763C264.667 112.226 264.965 112.737 265.203 113.298ZM261.32 116.65L260.826 115.593C260.421 114.725 260.009 114.171 259.587 113.93C259.166 113.69 258.72 113.67 258.25 113.87C257.84 114.044 257.592 114.294 257.506 114.62C257.425 114.944 257.469 115.306 257.64 115.707C257.899 116.317 258.287 116.749 258.802 117.003C259.325 117.259 259.924 117.244 260.599 116.957L261.32 116.65Z" fill="#F7FAFC"/>
<path d="M256.519 127.817C256.165 126.646 256.104 125.684 256.336 124.932C256.569 124.18 257.065 123.689 257.825 123.459C258.356 123.299 258.856 123.329 259.326 123.55C259.792 123.773 260.188 124.173 260.516 124.749C260.549 124.484 260.649 124.232 260.816 123.994C260.989 123.76 261.211 123.602 261.482 123.52C261.804 123.422 262.108 123.43 262.392 123.543C262.676 123.655 262.98 123.862 263.303 124.161C263.359 123.65 263.561 123.192 263.909 122.785C264.265 122.382 264.736 122.092 265.324 121.914C265.949 121.725 266.52 121.697 267.037 121.83C267.56 121.961 268.013 122.247 268.396 122.688C268.785 123.127 269.089 123.708 269.307 124.432C269.355 124.588 269.396 124.76 269.43 124.949C269.471 125.141 269.502 125.319 269.523 125.483C269.551 125.65 269.565 125.78 269.564 125.871L270.469 128.861L269.446 129.17L268.729 127.785C268.574 127.986 268.381 128.166 268.152 128.326C267.927 128.485 267.666 128.61 267.37 128.699C266.475 128.97 265.676 128.874 264.973 128.411C264.277 127.951 263.765 127.18 263.438 126.098C263.37 125.834 263.314 125.576 263.271 125.322C263.1 125.169 262.929 125.064 262.759 125.008C262.593 124.95 262.425 124.947 262.253 124.999C262.113 125.042 262.013 125.126 261.955 125.251C261.901 125.375 261.883 125.54 261.9 125.745C261.918 125.956 261.969 126.201 262.055 126.482L262.506 127.973C262.793 128.92 262.811 129.704 262.562 130.325C262.312 130.946 261.8 131.374 261.024 131.609C260.041 131.906 259.161 131.73 258.384 131.078C257.602 130.429 256.981 129.342 256.519 127.817ZM257.828 127.497C258.022 128.137 258.248 128.657 258.505 129.056C258.762 129.456 259.042 129.732 259.344 129.885C259.64 130.039 259.947 130.068 260.265 129.972C260.546 129.887 260.741 129.752 260.849 129.565C260.957 129.379 260.998 129.137 260.97 128.839C260.942 128.54 260.865 128.183 260.739 127.767L260.328 126.408C260.226 126.07 260.083 125.787 259.9 125.558C259.712 125.331 259.495 125.175 259.247 125.091C259.002 125.012 258.736 125.016 258.45 125.102C258.054 125.222 257.803 125.488 257.695 125.902C257.589 126.32 257.633 126.852 257.828 127.497ZM264.666 125.82C264.828 126.356 265.094 126.71 265.465 126.882C265.84 127.052 266.296 127.056 266.832 126.894C267.415 126.717 267.811 126.45 268.02 126.091C268.231 125.737 268.257 125.298 268.098 124.772C267.942 124.257 267.675 123.909 267.297 123.728C266.92 123.553 266.44 123.553 265.857 123.729C265.331 123.888 264.96 124.146 264.744 124.501C264.534 124.86 264.508 125.299 264.666 125.82Z" fill="#F7FAFC"/>
<path d="M272.362 136.74C272.511 137.531 272.475 138.241 272.256 138.868C272.036 139.496 271.656 140.018 271.115 140.435C270.574 140.853 269.886 141.14 269.053 141.296L268.043 141.486L266.929 135.563C266.073 135.746 265.453 136.1 265.071 136.626C264.689 137.157 264.573 137.82 264.723 138.617C264.829 139.183 264.978 139.681 265.17 140.109C265.367 140.542 265.618 140.979 265.922 141.42L264.391 141.708C264.1 141.304 263.862 140.881 263.68 140.439C263.497 139.998 263.346 139.456 263.225 138.815C263.061 137.944 263.085 137.146 263.298 136.42C263.516 135.698 263.927 135.087 264.53 134.587C265.134 134.091 265.935 133.75 266.934 133.562C267.928 133.375 268.804 133.385 269.562 133.591C270.32 133.797 270.938 134.17 271.416 134.711C271.894 135.252 272.209 135.928 272.362 136.74ZM270.943 137.007C270.832 136.414 270.549 135.969 270.095 135.673C269.642 135.382 269.038 135.274 268.283 135.35L269.043 139.389C269.485 139.301 269.864 139.152 270.179 138.943C270.494 138.74 270.721 138.476 270.86 138.152C270.999 137.832 271.027 137.451 270.943 137.007Z" fill="#F7FAFC"/>
<path d="M274.388 155.805C274.436 156.815 274.211 157.588 273.714 158.123C273.217 158.664 272.392 158.961 271.241 159.016L265.343 159.295L265.252 157.38L270.808 157.118C271.493 157.085 272.002 156.928 272.337 156.645C272.672 156.363 272.827 155.95 272.801 155.407C272.765 154.646 272.495 154.109 271.99 153.796C271.491 153.487 270.78 153.355 269.857 153.399L265.075 153.625L264.984 151.71L270.54 151.447C270.997 151.426 271.374 151.348 271.672 151.214C271.977 151.086 272.199 150.898 272.34 150.652C272.486 150.406 272.55 150.101 272.533 149.737C272.508 149.21 272.369 148.795 272.115 148.491C271.862 148.193 271.498 147.987 271.025 147.873C270.556 147.759 269.986 147.718 269.312 147.75L264.807 147.963L264.717 146.048L273.735 145.622L273.805 147.113L272.604 147.439L272.609 147.545C272.933 147.715 273.202 147.931 273.416 148.193C273.635 148.46 273.802 148.759 273.915 149.092C274.034 149.423 274.103 149.771 274.12 150.135C274.152 150.809 274.059 151.382 273.842 151.855C273.63 152.327 273.288 152.689 272.815 152.94L272.822 153.087C273.324 153.346 273.704 153.723 273.962 154.217C274.219 154.711 274.361 155.24 274.388 155.805Z" fill="#F7FAFC"/>
<path d="M273.911 168.037C273.838 168.838 273.61 169.511 273.227 170.055C272.844 170.598 272.335 170.997 271.7 171.25C271.066 171.503 270.326 171.591 269.481 171.513L268.458 171.419L269.008 165.417C268.134 165.359 267.441 165.531 266.93 165.931C266.417 166.338 266.124 166.944 266.05 167.751C265.998 168.325 266.005 168.844 266.071 169.309C266.143 169.78 266.265 170.268 266.437 170.776L264.885 170.633C264.715 170.165 264.603 169.693 264.548 169.218C264.493 168.744 264.496 168.182 264.555 167.532C264.636 166.649 264.878 165.888 265.281 165.248C265.688 164.614 266.25 164.138 266.967 163.822C267.684 163.511 268.548 163.402 269.561 163.494C270.568 163.587 271.408 163.836 272.08 164.241C272.753 164.647 273.245 165.175 273.557 165.826C273.868 166.477 273.987 167.214 273.911 168.037ZM272.474 167.905C272.529 167.304 272.378 166.799 272.023 166.39C271.667 165.986 271.115 165.717 270.369 165.583L269.994 169.676C270.443 169.712 270.848 169.673 271.208 169.558C271.568 169.449 271.858 169.258 272.08 168.983C272.301 168.714 272.432 168.355 272.474 167.905Z" fill="#F7FAFC"/>
<path d="M271.911 181.396C271.704 182.392 271.285 183.113 270.654 183.559C270.027 184.012 269.146 184.12 268.012 183.885L262.247 182.686L262.637 180.81L268.051 181.935C268.737 182.078 269.28 182.043 269.68 181.832C270.084 181.622 270.348 181.221 270.471 180.63C270.649 179.773 270.509 179.122 270.052 178.677C269.594 178.238 268.864 177.914 267.863 177.706L263.471 176.793L263.861 174.917L272.701 176.754L272.397 178.215L271.145 178.23L271.123 178.334C271.392 178.589 271.596 178.879 271.734 179.202C271.877 179.531 271.962 179.882 271.99 180.255C272.017 180.632 271.991 181.013 271.911 181.396Z" fill="#F7FAFC"/>
<path d="M261.394 190.535C261.318 190.774 261.264 191.016 261.232 191.263C261.205 191.511 261.192 191.741 261.194 191.952L259.809 191.514C259.785 191.284 259.793 190.998 259.832 190.657C259.872 190.316 259.947 189.972 260.056 189.625C260.211 189.137 260.429 188.725 260.713 188.387C261.002 188.051 261.382 187.832 261.854 187.73C262.325 187.628 262.913 187.689 263.618 187.912L268.245 189.375L268.616 188.201L269.433 188.459L269.68 189.923L271.333 191.105L270.969 192.256L269.056 191.651L268.276 194.116L266.884 193.675L267.664 191.21L263.061 189.754C262.625 189.616 262.267 189.623 261.985 189.773C261.704 189.924 261.507 190.178 261.394 190.535Z" fill="#F7FAFC"/>
<path d="M145.893 123.247C144.248 123.841 143.032 124.947 142.244 126.55L141.802 127.462V131.747V136.031L142.244 136.943C143.059 138.588 144.29 139.68 145.976 140.246C146.763 140.523 147.109 140.523 161.773 140.495L176.768 140.454L177.736 139.984C179.007 139.362 180.099 138.27 180.721 136.998L181.191 136.031V131.747V127.462L180.721 126.495C180.099 125.223 179.007 124.131 177.736 123.509L176.768 123.039L161.704 123.012C147.109 122.984 146.611 122.984 145.893 123.247Z" fill="#2B2B29"/>
<path d="M136.591 133.18C135.955 133.872 135.485 134.563 135.043 135.447C133.895 137.81 133.978 135.71 134.02 162.149L134.061 185.644L134.434 186.667C135.084 188.422 135.734 189.417 137.088 190.758C138.525 192.195 139.921 192.983 141.787 193.453C142.851 193.716 143.39 193.729 161.496 193.729C179.601 193.729 180.14 193.716 181.204 193.453C181.798 193.301 182.821 192.914 183.471 192.596C184.424 192.126 184.894 191.767 185.958 190.689C187.037 189.625 187.396 189.155 187.866 188.201C188.184 187.552 188.571 186.529 188.723 185.935C188.999 184.87 188.999 184.331 188.999 161.734C188.999 139.137 188.999 138.598 188.723 137.534C188.322 135.917 187.451 134.314 186.373 133.153L185.447 132.172L185.35 133.954C185.226 136.152 185.005 137.189 184.314 138.64C183.319 140.768 181.646 142.468 179.532 143.491C177.141 144.666 178.26 144.596 161.496 144.596C144.731 144.596 145.85 144.666 143.459 143.491C141.359 142.468 139.783 140.906 138.76 138.792C138.014 137.285 137.765 136.166 137.627 133.899L137.517 132.185L136.591 133.18ZM153.715 152.267C153.963 152.405 154.254 152.723 154.378 152.944C154.627 153.428 154.654 154.368 154.433 154.782C154.129 155.349 148.615 161.872 148.186 162.177C147.62 162.591 146.707 162.605 146.072 162.204C145.408 161.803 142.976 157.008 142.976 156.109C142.976 154.99 143.819 154.16 144.938 154.174C145.823 154.188 146.293 154.561 146.915 155.764C147.219 156.344 147.509 156.828 147.564 156.828C147.606 156.828 148.504 155.805 149.541 154.561C150.563 153.317 151.558 152.239 151.724 152.156C152.236 151.908 153.231 151.963 153.715 152.267ZM179.02 155.487C180.32 156.192 180.361 158.086 179.103 158.915C178.73 159.164 178.329 159.177 171.999 159.177C165.67 159.177 165.269 159.164 164.896 158.915C164.688 158.777 164.384 158.473 164.246 158.265C163.79 157.56 163.97 156.247 164.592 155.736C165.227 155.211 165.67 155.169 172.207 155.211C178.025 155.239 178.606 155.266 179.02 155.487ZM145.906 167.691C146.113 167.802 146.569 168.313 146.942 168.852C147.302 169.377 147.633 169.806 147.675 169.806C147.716 169.806 148.048 169.377 148.407 168.852C149.126 167.802 149.665 167.428 150.439 167.428C151.545 167.428 152.374 168.272 152.374 169.419C152.374 169.999 152.263 170.206 151.268 171.63C150.66 172.487 150.163 173.233 150.163 173.275C150.163 173.316 150.425 173.731 150.757 174.173C152.263 176.246 152.374 176.453 152.374 177.131C152.374 178.25 151.558 179.079 150.453 179.079C149.637 179.079 149.112 178.72 148.366 177.628C148.02 177.145 147.716 176.73 147.675 176.73C147.633 176.73 147.329 177.145 146.984 177.628C146.237 178.72 145.712 179.079 144.897 179.079C143.791 179.079 142.976 178.25 142.976 177.131C142.976 176.453 143.086 176.246 144.593 174.173C144.924 173.731 145.187 173.316 145.187 173.275C145.187 173.233 144.69 172.487 144.081 171.63C143.1 170.234 142.976 169.985 142.976 169.446C142.976 168.437 143.377 167.857 144.316 167.539C144.869 167.346 145.284 167.387 145.906 167.691ZM178.993 171.699C180.416 172.376 180.347 174.546 178.868 175.21C178.329 175.458 177.901 175.486 171.999 175.486C166.098 175.486 165.67 175.458 165.131 175.21C163.666 174.546 163.583 172.404 164.992 171.699C165.379 171.506 166.264 171.478 171.972 171.478C177.707 171.478 178.578 171.506 178.993 171.699Z" fill="#2B2B29"/>
<path d="M167.275 193.673C183.115 188.833 188.358 171.307 189 163.148V185.423C187.9 190.263 182.858 192.94 180.475 193.673H167.275Z" fill="#2B2B29"/>
<defs>
<filter id="filter0_d_542_9970" x="0" y="-0.000488281" width="324" height="324" filterUnits="userSpaceOnUse" color-interpolation-filters="sRGB">
<feFlood flood-opacity="0" result="BackgroundImageFix"/>
<feColorMatrix in="SourceAlpha" type="matrix" values="0 0 0 0 0 0 0 0 0 0 0 0 0 0 0 0 0 0 127 0" result="hardAlpha"/>
<feOffset dy="4"/>
<feGaussianBlur stdDeviation="45"/>
<feColorMatrix type="matrix" values="0 0 0 0 0 0 0 0 0 0 0 0 0 0 0 0 0 0 0.5 0"/>
<feBlend mode="overlay" in2="BackgroundImageFix" result="effect1_dropShadow_542_9970"/>
<feBlend mode="normal" in="SourceGraphic" in2="effect1_dropShadow_542_9970" result="shape"/>
</filter>
</defs>
</svg>
