<svg width="325" height="325" viewBox="0 0 325 325" fill="none" xmlns="http://www.w3.org/2000/svg">
<g filter="url(#filter0_d_542_9969)">
<circle cx="162.915" cy="158.624" r="72" fill="#FFCF54"/>
</g>
<path d="M73.3681 134.64L71.679 141.327L60.4149 138.482L62.104 131.794L64.5464 132.411L63.6259 136.056L65.398 136.503L66.2503 133.129L68.6927 133.745L67.8403 137.12L69.9668 137.657L70.8873 134.013L73.3681 134.64Z" fill="#F7FAFC"/>
<path d="M66.9332 118.165L76.4579 125.83L75.1528 129.287L62.9449 128.73L64.1911 125.429L70.2585 126.029C70.4872 126.053 70.7783 126.092 71.1316 126.146C71.4818 126.194 71.8292 126.248 72.1738 126.31C72.5203 126.368 72.798 126.427 73.0068 126.489C72.8111 126.392 72.5649 126.257 72.2683 126.083C71.9717 125.908 71.6769 125.729 71.384 125.545C71.0881 125.354 70.8472 125.189 70.6615 125.051L65.6926 121.451L66.9332 118.165Z" fill="#F7FAFC"/>
<path d="M82.1199 113.982L79.9292 113.463L78.155 116.795L79.8004 118.338L78.1793 121.382L69.6644 112.553L71.6328 108.856L83.7335 110.952L82.1199 113.982ZM77.3503 112.828L75.4316 112.374C75.2244 112.324 74.9288 112.253 74.5448 112.163C74.1561 112.07 73.7581 111.972 73.3507 111.869C72.9412 111.759 72.607 111.665 72.3483 111.587C72.5597 111.754 72.8173 111.969 73.121 112.233C73.4225 112.489 73.7192 112.749 74.011 113.013C74.3054 113.272 74.5486 113.491 74.7406 113.671L76.1887 115.01L77.3503 112.828Z" fill="#F7FAFC"/>
<path d="M81.1834 94.5788C81.8061 93.7946 82.4154 93.2232 83.0114 92.8644C83.6107 92.5014 84.2042 92.3503 84.7919 92.411C85.3828 92.4676 85.9791 92.7347 86.5807 93.2124C87.0288 93.5681 87.3446 93.9542 87.5282 94.3705C87.7117 94.7868 87.8002 95.2122 87.7935 95.6466C87.7868 96.081 87.7239 96.5011 87.6046 96.9069L93.6818 97.5212L92.3427 99.2078L86.9515 98.5091L85.7902 99.9716L89.4372 102.867L88.2513 104.361L79.1526 97.1366L81.1834 94.5788ZM82.3491 95.6666L81.5832 96.6313L84.558 98.9932L85.3783 97.9601C85.9284 97.2672 86.1984 96.6631 86.1882 96.1477C86.1813 95.6281 85.9269 95.169 85.4248 94.7704C84.8979 94.3521 84.3911 94.2236 83.9044 94.3851C83.4209 94.5424 82.9025 94.9696 82.3491 95.6666Z" fill="#F7FAFC"/>
<path d="M91.9733 86.4077C92.5298 85.8554 93.1212 85.4961 93.7474 85.3299C94.3737 85.1637 95.0029 85.1848 95.6352 85.3933C96.2675 85.6017 96.8748 85.9992 97.4569 86.5858L98.1622 87.2965L93.9941 91.4332C94.6099 92.0237 95.2344 92.3295 95.8674 92.3506C96.5041 92.368 97.1027 92.0987 97.6629 91.5426C98.0615 91.147 98.3814 90.7549 98.6226 90.3662C98.8639 89.9701 99.0791 89.5288 99.2682 89.0426L100.337 90.1199C100.171 90.5763 99.9595 90.9988 99.7033 91.3874C99.4471 91.776 99.0933 92.1942 98.6421 92.6421C98.0292 93.2503 97.3721 93.6674 96.6707 93.8933C95.9694 94.1116 95.252 94.1145 94.5185 93.902C93.7889 93.6857 93.0751 93.226 92.3773 92.5228C91.6831 91.8234 91.2119 91.1118 90.9637 90.3878C90.7154 89.6639 90.6788 88.9614 90.8537 88.2803C91.0286 87.5991 91.4018 86.9749 91.9733 86.4077ZM92.9641 87.406C92.5468 87.8203 92.3427 88.2915 92.3519 88.8197C92.3649 89.3442 92.6082 89.8902 93.0818 90.4577L95.9245 87.6364C95.611 87.328 95.2841 87.1039 94.9437 86.964C94.6071 86.8204 94.2701 86.7816 93.9327 86.8478C93.5991 86.9102 93.2762 87.0963 92.9641 87.406Z" fill="#F7FAFC"/>
<path d="M106.736 85.466C106.086 85.9856 105.423 86.3096 104.745 86.4379C104.068 86.5663 103.392 86.4724 102.719 86.1564C102.045 85.8405 101.387 85.2812 100.745 84.4788C100.077 83.6432 99.6711 82.8481 99.5287 82.0936C99.3863 81.3391 99.4623 80.637 99.7568 79.9875C100.055 79.3347 100.527 78.7501 101.173 78.2338C101.582 77.9061 101.985 77.6512 102.383 77.4692C102.781 77.2796 103.142 77.1501 103.466 77.0806L103.965 78.5946C103.63 78.6931 103.302 78.8131 102.981 78.9546C102.66 79.0961 102.377 79.2645 102.133 79.4598C101.732 79.7809 101.468 80.1379 101.342 80.5309C101.219 80.9206 101.233 81.3442 101.382 81.8018C101.535 82.256 101.82 82.7437 102.237 83.2649C102.641 83.7695 103.048 84.1426 103.458 84.3842C103.865 84.6216 104.27 84.7249 104.673 84.6943C105.073 84.6595 105.463 84.4898 105.843 84.1853C106.22 83.8841 106.52 83.5689 106.745 83.2395C106.97 82.9102 107.157 82.5673 107.306 82.2107L108.319 83.4764C108.178 83.8339 107.986 84.1669 107.745 84.4755C107.506 84.7883 107.17 85.1184 106.736 85.466Z" fill="#F7FAFC"/>
<path d="M110.458 71.6469C110.582 71.5656 110.722 71.4836 110.877 71.401C111.032 71.3184 111.169 71.2533 111.29 71.2057L112.103 72.7634C111.993 72.7978 111.864 72.8534 111.718 72.9302C111.577 73.0041 111.453 73.0759 111.346 73.1457C111.067 73.3287 110.832 73.5496 110.641 73.8083C110.446 74.0625 110.313 74.3465 110.24 74.6604C110.164 74.9699 110.161 75.2983 110.23 75.6456C110.3 75.9929 110.454 76.3481 110.692 76.7114L113.216 80.5585L111.647 81.5872L106.822 74.2317L108.045 73.4297L109.107 74.5859L109.181 74.538C109.155 74.1807 109.18 73.8224 109.255 73.463C109.329 73.1035 109.464 72.768 109.659 72.4565C109.855 72.1376 110.122 71.8678 110.458 71.6469Z" fill="#F7FAFC"/>
<path d="M121.743 65.5915L125.766 73.4147L124.458 74.087L123.691 73.1503L123.599 73.1975C123.572 73.5509 123.478 73.8825 123.315 74.1923C123.15 74.4975 122.934 74.7724 122.667 75.0171C122.402 75.2665 122.098 75.4796 121.754 75.6565C121.165 75.9593 120.61 76.1196 120.089 76.1373C119.57 76.1479 119.092 76.0005 118.655 75.695C118.218 75.3896 117.829 74.9047 117.487 74.2404L114.86 69.131L116.528 68.2734L118.995 73.0719C119.308 73.6796 119.664 74.0713 120.064 74.2468C120.469 74.42 120.932 74.3721 121.455 74.1032C121.959 73.844 122.307 73.5344 122.497 73.1745C122.687 72.8145 122.739 72.4005 122.653 71.9323C122.572 71.4617 122.38 70.932 122.077 70.3431L120.075 66.4491L121.743 65.5915Z" fill="#F7FAFC"/>
<path d="M128.275 62.8191L131.544 70.9862L129.81 71.6801L126.542 63.5129L128.275 62.8191ZM126.168 60.0334C126.433 59.9272 126.691 59.9069 126.94 59.9728C127.193 60.0367 127.39 60.2433 127.53 60.5925C127.668 60.9368 127.668 61.2221 127.53 61.4484C127.395 61.6678 127.195 61.8306 126.93 61.9369C126.654 62.0471 126.392 62.0693 126.143 62.0034C125.897 61.9307 125.705 61.7222 125.567 61.3779C125.428 61.0286 125.423 60.7453 125.553 60.5279C125.687 60.3085 125.892 60.1437 126.168 60.0334Z" fill="#F7FAFC"/>
<path d="M138.546 67.1111C138.778 67.0383 139.002 66.9461 139.217 66.8344C139.43 66.7176 139.621 66.5997 139.789 66.4804L140.211 67.8303C140.041 67.978 139.809 68.1312 139.514 68.29C139.22 68.4488 138.903 68.5813 138.565 68.6873C138.089 68.8361 137.638 68.8915 137.209 68.8535C136.78 68.8105 136.392 68.6291 136.048 68.3095C135.704 67.9899 135.424 67.4863 135.209 66.7987L133.796 62.2865L132.651 62.645L132.401 61.8488L133.433 60.8347L133.454 58.8545L134.576 58.5031L135.161 60.3687L137.564 59.616L137.99 60.9734L135.586 61.7261L136.991 66.2156C137.124 66.6402 137.329 66.923 137.607 67.0638C137.884 67.2046 138.197 67.2204 138.546 67.1111Z" fill="#F7FAFC"/>
<path d="M152.321 56.2245C153.292 56.0562 154.066 56.18 154.643 56.596C155.226 57.0112 155.614 57.772 155.805 58.8786L156.788 64.5474L154.948 64.8664L154.022 59.5265C153.908 58.8688 153.695 58.3951 153.381 58.1054C153.067 57.8157 152.649 57.7161 152.127 57.8066C151.397 57.9333 150.91 58.2596 150.668 58.7855C150.43 59.3053 150.388 60.0088 150.542 60.8962L151.339 65.4923L149.499 65.8113L148.573 60.4714C148.497 60.033 148.376 59.6775 148.211 59.4051C148.049 59.1266 147.841 58.9342 147.586 58.8279C147.33 58.7163 147.028 58.6909 146.678 58.7515C146.171 58.8393 145.787 59.0243 145.524 59.3064C145.266 59.5877 145.111 59.9641 145.058 60.4356C145.005 60.9019 145.034 61.4587 145.146 62.106L145.897 66.4358L144.057 66.7549L142.554 58.0874L143.987 57.8389L144.448 58.9607L144.55 58.9431C144.675 58.6096 144.851 58.3236 145.078 58.0852C145.31 57.8407 145.58 57.6434 145.887 57.4933C146.193 57.3381 146.522 57.2301 146.871 57.1694C147.519 57.0572 148.084 57.0775 148.567 57.2302C149.05 57.3777 149.441 57.6648 149.741 58.0913L149.882 58.0669C150.072 57.55 150.39 57.1373 150.837 56.8287C151.283 56.52 151.778 56.3187 152.321 56.2245Z" fill="#F7FAFC"/>
<path d="M164.323 55.2349C165.107 55.2134 165.784 55.3565 166.354 55.6641C166.924 55.9717 167.369 56.418 167.687 57.0028C168.005 57.5876 168.175 58.2931 168.198 59.1192L168.225 60.1201L162.355 60.2813C162.4 61.1333 162.645 61.7837 163.092 62.2325C163.545 62.6812 164.165 62.8947 164.954 62.873C165.516 62.8576 166.017 62.7909 166.459 62.6727C166.906 62.5492 167.365 62.3749 167.836 62.15L167.878 63.6672C167.444 63.8858 167 64.0491 166.548 64.1569C166.095 64.2647 165.551 64.3273 164.915 64.3448C164.052 64.3685 163.287 64.2225 162.622 63.9069C161.961 63.5859 161.436 63.0968 161.047 62.4397C160.663 61.7825 160.458 60.9587 160.431 59.9684C160.404 58.9834 160.548 58.1421 160.862 57.4445C161.177 56.7469 161.631 56.2098 162.225 55.8331C162.819 55.4564 163.518 55.257 164.323 55.2349ZM164.362 56.6409C163.774 56.6571 163.303 56.8608 162.948 57.2521C162.598 57.6433 162.402 58.2078 162.358 58.9457L166.362 58.8358C166.344 58.3964 166.26 58.0092 166.107 57.6742C165.96 57.339 165.741 57.08 165.45 56.8973C165.164 56.7143 164.801 56.6289 164.362 56.6409Z" fill="#F7FAFC"/>
<path d="M177.572 55.6629C178.559 55.7526 179.303 56.0783 179.805 56.64C180.313 57.1968 180.516 58.0371 180.414 59.1609L179.894 64.8748L178.034 64.7057L178.522 59.34C178.584 58.6594 178.491 58.1376 178.242 57.7745C177.993 57.4061 177.576 57.1953 176.991 57.1421C176.141 57.0648 175.527 57.2723 175.147 57.7644C174.772 58.2569 174.54 58.9992 174.449 59.991L174.054 64.3437L172.194 64.1746L172.99 55.4139L174.439 55.5456L174.592 56.7564L174.695 56.7658C174.913 56.477 175.17 56.2478 175.468 56.078C175.771 55.9034 176.101 55.7818 176.458 55.7132C176.821 55.6451 177.192 55.6284 177.572 55.6629Z" fill="#F7FAFC"/>
<path d="M187.638 64.8583C187.877 64.9059 188.117 64.9321 188.359 64.937C188.602 64.9368 188.826 64.9246 189.031 64.9005L188.755 66.2878C188.535 66.3358 188.257 66.359 187.923 66.3573C187.588 66.3556 187.247 66.3201 186.899 66.2508C186.41 66.1537 185.987 65.9859 185.63 65.7473C185.273 65.5035 185.02 65.1588 184.871 64.7133C184.722 64.2677 184.718 63.6916 184.858 62.985L185.781 58.3476L184.604 58.1135L184.766 57.2952L186.158 56.8994L187.125 55.1716L188.279 55.401L187.897 57.3183L190.368 57.8096L190.091 59.2047L187.62 58.7134L186.702 63.3274C186.616 63.7639 186.66 64.1103 186.836 64.3667C187.012 64.6232 187.279 64.787 187.638 64.8583Z" fill="#F7FAFC"/>
<circle cx="156.017" cy="153.171" r="21.1841" stroke="#2B2B29" stroke-width="13.8366"/>
<path d="M173.382 171.113L189.811 187.254" stroke="#2B2B29" stroke-width="13.8366" stroke-linecap="round"/>
<defs>
<filter id="filter0_d_542_9969" x="0.914551" y="0.623535" width="324" height="324" filterUnits="userSpaceOnUse" color-interpolation-filters="sRGB">
<feFlood flood-opacity="0" result="BackgroundImageFix"/>
<feColorMatrix in="SourceAlpha" type="matrix" values="0 0 0 0 0 0 0 0 0 0 0 0 0 0 0 0 0 0 127 0" result="hardAlpha"/>
<feOffset dy="4"/>
<feGaussianBlur stdDeviation="45"/>
<feColorMatrix type="matrix" values="0 0 0 0 0 0 0 0 0 0 0 0 0 0 0 0 0 0 0.5 0"/>
<feBlend mode="overlay" in2="BackgroundImageFix" result="effect1_dropShadow_542_9969"/>
<feBlend mode="normal" in="SourceGraphic" in2="effect1_dropShadow_542_9969" result="shape"/>
</filter>
</defs>
</svg>
