<svg width="325" height="325" viewBox="0 0 325 325" fill="none" xmlns="http://www.w3.org/2000/svg">
<g filter="url(#filter0_d_542_9971)">
<circle cx="162.559" cy="158.882" r="72" fill="#FFCF54"/>
</g>
<path d="M77.6942 127.998L76.0473 135.154L63.9929 132.381L65.6398 125.224L68.2535 125.825L67.3561 129.725L69.2525 130.162L70.0835 126.55L72.6972 127.152L71.8662 130.763L74.1418 131.287L75.0393 127.387L77.6942 127.998Z" fill="#F7FAFC"/>
<path d="M70.8995 110.538L80.9609 118.797L79.5358 122.464L66.5445 121.745L67.9053 118.243L74.3587 118.945C74.602 118.973 74.9114 119.017 75.287 119.079C75.6594 119.133 76.0287 119.194 76.3949 119.264C76.7632 119.329 77.0582 119.395 77.2799 119.463C77.0725 119.358 76.8118 119.211 76.4978 119.023C76.1838 118.834 75.8719 118.64 75.562 118.441C75.2488 118.235 74.9941 118.057 74.7978 117.908L69.5449 114.024L70.8995 110.538Z" fill="#F7FAFC"/>
<path d="M87.3092 106.573L85.0036 105.917L82.9584 109.377L84.6353 111.095L82.7667 114.256L74.129 104.461L76.3981 100.623L89.1693 103.426L87.3092 106.573ZM82.2909 105.119L80.2717 104.545C80.0536 104.481 79.7425 104.393 79.3384 104.278C78.9294 104.161 78.5107 104.038 78.0823 103.909C77.6519 103.773 77.301 103.657 77.0295 103.562C77.2464 103.749 77.5102 103.99 77.8207 104.285C78.1292 104.572 78.4324 104.863 78.7303 105.157C79.0311 105.446 79.2794 105.691 79.4751 105.892L80.9518 107.384L82.2909 105.119Z" fill="#F7FAFC"/>
<path d="M99.1671 91.9017L94.3813 97.0175L85.3483 88.5671L90.1342 83.4513L91.3822 84.6189L87.9836 88.2519L90.4364 90.5465L93.6212 87.1422L94.8631 88.3039L91.6783 91.7083L94.5142 94.3613L97.9129 90.7284L99.1671 91.9017Z" fill="#F7FAFC"/>
<path d="M104.751 83.5881C105.143 84.0617 105.359 84.5567 105.398 85.0732C105.438 85.5897 105.306 86.1161 105.003 86.6524C104.701 87.1808 104.231 87.7094 103.592 88.2382C103.088 88.6555 102.623 88.9783 102.197 89.2066C101.779 89.4356 101.348 89.6094 100.904 89.7278L99.8089 88.4049C100.285 88.2815 100.785 88.1022 101.308 87.867C101.835 87.6282 102.29 87.3505 102.672 87.0339C103.176 86.6167 103.474 86.2381 103.566 85.8982C103.655 85.554 103.589 85.2494 103.37 84.9844C103.24 84.828 103.079 84.7268 102.887 84.6806C102.696 84.6266 102.425 84.6351 102.074 84.7062C101.723 84.7694 101.238 84.9 100.619 85.0981C100.012 85.2933 99.476 85.4292 99.0121 85.5057C98.5482 85.5822 98.1298 85.5589 97.7568 85.4357C97.3802 85.3081 97.0247 85.0423 96.6902 84.6382C96.1614 83.9996 96.0123 83.3065 96.2429 82.5591C96.4742 81.8037 97.0069 81.0807 97.8411 80.39C98.2842 80.0231 98.7391 79.7234 99.2056 79.4909C99.6729 79.2504 100.166 79.0585 100.684 78.915L101.157 80.4677C100.712 80.5941 100.287 80.7484 99.8813 80.9306C99.4764 81.1048 99.1044 81.3321 98.7656 81.6127C98.3702 81.9401 98.1186 82.2509 98.0108 82.5452C97.9073 82.8359 97.9491 83.0942 98.1362 83.3201C98.2765 83.4896 98.4451 83.5916 98.6422 83.6261C98.8392 83.6607 99.108 83.6359 99.4484 83.5518C99.7931 83.4641 100.257 83.3254 100.84 83.1359C101.406 82.9449 101.922 82.8111 102.386 82.7346C102.85 82.6501 103.275 82.6681 103.66 82.7884C104.046 82.9088 104.409 83.1754 104.751 83.5881Z" fill="#F7FAFC"/>
<path d="M113.36 77.8041C113.69 78.3226 113.843 78.8406 113.818 79.358C113.793 79.8754 113.597 80.3814 113.23 80.8761C112.865 81.363 112.333 81.8292 111.634 82.2748C111.082 82.6264 110.58 82.889 110.129 83.0628C109.686 83.2382 109.237 83.3572 108.782 83.4198L107.859 81.9713C108.347 81.9079 108.865 81.7919 109.413 81.6233C109.966 81.4516 110.451 81.2325 110.87 80.9657C111.422 80.6141 111.764 80.2754 111.898 79.9496C112.028 79.619 112.001 79.3086 111.816 79.0185C111.707 78.8472 111.56 78.7268 111.375 78.6573C111.192 78.58 110.922 78.5548 110.565 78.5818C110.209 78.6011 109.712 78.6706 109.072 78.7904C108.446 78.9088 107.897 78.9773 107.428 78.9957C106.958 79.0142 106.545 78.9391 106.191 78.7706C105.833 78.5974 105.513 78.2895 105.231 77.8472C104.785 77.1479 104.723 76.4417 105.045 75.7286C105.368 75.0077 105.986 74.3563 106.9 73.7743C107.385 73.4652 107.873 73.2241 108.365 73.0513C108.858 72.8706 109.371 72.7411 109.903 72.663L110.18 74.2623C109.723 74.3327 109.282 74.4331 108.857 74.5636C108.434 74.6862 108.036 74.8658 107.665 75.1022C107.233 75.378 106.944 75.6553 106.801 75.9339C106.662 76.2096 106.672 76.4711 106.829 76.7184C106.947 76.904 107.102 77.0261 107.293 77.0848C107.485 77.1435 107.754 77.1522 108.103 77.1109C108.456 77.0666 108.933 76.9865 109.535 76.8706C110.121 76.7513 110.649 76.6825 111.118 76.664C111.59 76.6378 112.009 76.7083 112.377 76.8755C112.744 77.0427 113.072 77.3522 113.36 77.8041Z" fill="#F7FAFC"/>
<path d="M117.42 67.9915C118.178 67.6413 118.9 67.4969 119.587 67.5584C120.274 67.6199 120.896 67.8699 121.453 68.3084C122.01 68.747 122.473 69.3656 122.842 70.1643L123.289 71.132L117.614 73.7552C118.015 74.57 118.529 75.1032 119.155 75.3546C119.786 75.6036 120.482 75.5518 121.245 75.1992C121.788 74.9484 122.251 74.6724 122.633 74.3712C123.019 74.0625 123.395 73.6993 123.761 73.2815L124.439 74.7484C124.106 75.1445 123.741 75.4904 123.343 75.786C122.946 76.0817 122.44 76.3715 121.825 76.6555C120.991 77.0412 120.181 77.2195 119.397 77.1904C118.616 77.1538 117.897 76.8958 117.241 76.4163C116.589 75.9345 116.042 75.2148 115.6 74.2574C115.16 73.3051 114.947 72.4216 114.962 71.6069C114.977 70.7922 115.196 70.0759 115.618 69.458C116.041 68.84 116.642 68.3512 117.42 67.9915ZM118.048 69.3509C117.48 69.6135 117.104 70.0108 116.921 70.5428C116.744 71.0723 116.788 71.7071 117.056 72.4472L120.927 70.6582C120.725 70.2356 120.48 69.8924 120.19 69.6286C119.905 69.3625 119.582 69.2011 119.22 69.1446C118.864 69.0857 118.473 69.1545 118.048 69.3509Z" fill="#F7FAFC"/>
<path d="M130.755 63.0192C131.768 62.725 132.633 62.7587 133.348 63.1205C134.068 63.4753 134.596 64.2296 134.931 65.3833L136.635 71.2494L134.725 71.804L133.125 66.2954C132.922 65.5967 132.627 65.1156 132.239 64.8524C131.85 64.5837 131.355 64.5367 130.753 64.7113C129.881 64.9646 129.352 65.4089 129.167 66.0443C128.987 66.6781 129.045 67.5041 129.341 68.5224L130.639 72.9911L128.729 73.5457L126.117 64.5515L127.604 64.1196L128.226 65.2605L128.331 65.2298C128.435 64.859 128.601 64.5317 128.83 64.2479C129.063 63.9571 129.343 63.7083 129.671 63.5016C130.004 63.2933 130.365 63.1325 130.755 63.0192Z" fill="#F7FAFC"/>
<path d="M144.216 68.4367C144.473 68.3983 144.723 68.3381 144.968 68.256C145.211 68.1682 145.431 68.0755 145.627 67.9777L145.85 69.4672C145.647 69.5945 145.377 69.7175 145.041 69.8361C144.705 69.9547 144.35 70.042 143.977 70.0978C143.452 70.1762 142.968 70.1601 142.524 70.0497C142.079 69.9337 141.701 69.6793 141.392 69.2864C141.082 68.8935 140.871 68.3178 140.757 67.5591L140.013 62.5803L138.75 62.7691L138.619 61.8905L139.87 60.9934L140.218 58.914L141.457 58.7289L141.764 60.7874L144.417 60.3911L144.641 61.8889L141.988 62.2852L142.728 67.2389C142.798 67.7075 142.968 68.0387 143.236 68.2324C143.504 68.4261 143.831 68.4942 144.216 68.4367Z" fill="#F7FAFC"/>
<path d="M151.571 59.8117L152.04 69.1659L150.054 69.2654L149.585 59.9112L151.571 59.8117ZM150.411 56.278C150.716 56.2628 150.982 56.3313 151.21 56.4837C151.443 56.6358 151.57 56.9118 151.59 57.3117C151.61 57.7061 151.511 57.9934 151.294 58.1737C151.083 58.3481 150.825 58.4429 150.521 58.4581C150.205 58.4739 149.934 58.4057 149.706 58.2533C149.483 58.095 149.362 57.8187 149.342 57.4244C149.322 57.0244 149.415 56.7374 149.621 56.5633C149.832 56.3889 150.096 56.2938 150.411 56.278Z" fill="#F7FAFC"/>
<path d="M161.024 59.7123C162.206 59.7881 163.082 60.1071 163.65 60.6692C164.225 61.2317 164.476 62.0674 164.405 63.1763L164.002 69.4665L162.592 69.3761L162.297 68.0261L162.229 68.0218C161.943 68.3425 161.652 68.6036 161.357 68.8051C161.061 69.0066 160.724 69.1489 160.346 69.232C159.973 69.3211 159.522 69.3487 158.992 69.3147C158.435 69.279 157.944 69.1457 157.518 68.9149C157.092 68.6785 156.766 68.341 156.54 67.9026C156.313 67.4642 156.221 66.9213 156.263 66.274C156.324 65.3115 156.728 64.6111 157.474 64.1729C158.226 63.735 159.329 63.5374 160.785 63.5799L162.41 63.6248L162.441 63.1351C162.483 62.4877 162.36 62.0164 162.074 61.7211C161.793 61.4262 161.38 61.2612 160.834 61.2261C160.367 61.1962 159.909 61.2346 159.462 61.3416C159.014 61.4485 158.575 61.5871 158.146 61.7574L157.594 60.3146C158.066 60.1019 158.596 59.9381 159.186 59.8233C159.781 59.7089 160.394 59.6719 161.024 59.7123ZM162.321 64.8738L161.111 64.8386C160.118 64.8088 159.412 64.9331 158.993 65.2114C158.574 65.4897 158.347 65.8934 158.313 66.4225C158.284 66.8841 158.4 67.2307 158.662 67.4623C158.924 67.6882 159.281 67.8157 159.731 67.8445C160.418 67.8886 160.999 67.7309 161.474 67.3714C161.955 67.0066 162.22 66.4443 162.269 65.6844L162.321 64.8738Z" fill="#F7FAFC"/>
<path d="M170.405 70.4632L168.44 70.1093L170.774 57.153L172.739 57.507L170.405 70.4632Z" fill="#F7FAFC"/>
<path d="M181.826 70.5941C181.655 71.1846 181.367 71.6413 180.962 71.9644C180.557 72.2874 180.047 72.4744 179.434 72.5255C178.827 72.5727 178.125 72.4808 177.329 72.2499C176.7 72.0677 176.172 71.8646 175.744 71.6405C175.319 71.4235 174.933 71.1647 174.586 70.8643L175.064 69.2148C175.434 69.5393 175.863 69.8517 176.351 70.1519C176.845 70.4536 177.331 70.6737 177.807 70.8119C178.436 70.9941 178.916 71.0278 179.249 70.9128C179.584 70.7925 179.799 70.5671 179.895 70.2367C179.951 70.0417 179.945 69.8518 179.875 69.6671C179.812 69.4786 179.652 69.2591 179.396 69.0086C179.147 68.7543 178.766 68.4266 178.254 68.0256C177.751 67.6331 177.338 67.2666 177.014 66.926C176.69 66.5853 176.474 66.2262 176.366 65.8484C176.26 65.4653 176.28 65.0218 176.426 64.518C176.657 63.7216 177.146 63.2087 177.894 62.9792C178.649 62.7459 179.546 62.78 180.586 63.0816C181.139 63.2418 181.642 63.4495 182.097 63.7047C182.559 63.956 182.994 64.2556 183.404 64.6035L182.386 65.8674C182.032 65.5708 181.665 65.306 181.286 65.0728C180.915 64.8358 180.517 64.6561 180.095 64.5336C179.602 64.3906 179.203 64.3573 178.899 64.4336C178.601 64.5114 178.411 64.6912 178.329 64.9729C178.268 65.1842 178.278 65.381 178.36 65.5634C178.442 65.7458 178.614 65.9541 178.875 66.1883C179.141 66.4241 179.517 66.7297 180.001 67.1051C180.478 67.4664 180.878 67.8174 181.202 68.1581C181.533 68.4948 181.757 68.8564 181.874 69.2427C181.991 69.629 181.975 70.0794 181.826 70.5941Z" fill="#F7FAFC"/>
<path d="M155.892 123.887H169.225C171.066 123.887 172.559 125.379 172.559 127.22C172.559 129.061 171.066 130.553 169.225 130.553H155.892C154.051 130.553 152.559 129.061 152.559 127.22C152.559 125.379 154.051 123.887 155.892 123.887Z" fill="#2B2B29"/>
<path d="M139.125 145.186L136.759 142.819C135.42 141.481 135.32 139.317 136.656 137.976V137.976C137.98 136.646 140.104 136.765 141.431 138.092L143.825 140.486C148.992 136.352 155.492 133.886 162.559 133.886C179.125 133.886 192.559 147.319 192.559 163.886C192.559 180.452 179.159 193.886 162.559 193.886C145.959 193.886 132.559 180.452 132.559 163.886C132.559 156.819 135.025 150.319 139.125 145.186ZM159.225 163.886C159.225 165.727 160.718 167.219 162.559 167.219V167.219C164.4 167.219 165.892 165.727 165.892 163.886V150.552C165.892 148.711 164.4 147.219 162.559 147.219V147.219C160.718 147.219 159.225 148.711 159.225 150.552V163.886Z" fill="#2B2B29"/>
<defs>
<filter id="filter0_d_542_9971" x="0.558594" y="0.881836" width="324" height="324" filterUnits="userSpaceOnUse" color-interpolation-filters="sRGB">
<feFlood flood-opacity="0" result="BackgroundImageFix"/>
<feColorMatrix in="SourceAlpha" type="matrix" values="0 0 0 0 0 0 0 0 0 0 0 0 0 0 0 0 0 0 127 0" result="hardAlpha"/>
<feOffset dy="4"/>
<feGaussianBlur stdDeviation="45"/>
<feColorMatrix type="matrix" values="0 0 0 0 0 0 0 0 0 0 0 0 0 0 0 0 0 0 0.5 0"/>
<feBlend mode="overlay" in2="BackgroundImageFix" result="effect1_dropShadow_542_9971"/>
<feBlend mode="normal" in="SourceGraphic" in2="effect1_dropShadow_542_9971" result="shape"/>
</filter>
</defs>
</svg>
