<svg width="38" height="38" viewBox="0 0 38 38" fill="none" xmlns="http://www.w3.org/2000/svg">
<rect width="38" height="38" rx="19" fill="#F7FAFC"/>
<path d="M14.4109 10.4371C14.4109 11.7054 13.3116 12.7336 11.9554 12.7336C10.5993 12.7336 9.5 11.7054 9.5 10.4371C9.5 9.1688 10.5993 8.14062 11.9554 8.14062C13.3116 8.14062 14.4109 9.1688 14.4109 10.4371Z" fill="#2B2B29"/>
<path d="M9.83579 14.4216H14.0331V27.1406H9.83579V14.4216Z" fill="#2B2B29"/>
<path d="M20.7909 14.4216H16.5935V27.1406H20.7909C20.7909 27.1406 20.7909 23.1365 20.7909 20.6329C20.7909 19.1302 21.304 17.621 23.3513 17.621C25.6649 17.621 25.651 19.5875 25.6402 21.111C25.6261 23.1024 25.6598 25.1346 25.6598 27.1406H29.8571V20.4278C29.8216 16.1415 28.7047 14.1665 25.0302 14.1665C22.848 14.1665 21.4954 15.1571 20.7909 16.0534V14.4216Z" fill="#2B2B29"/>
</svg>
