<svg width="38" height="38" viewBox="0 0 38 38" fill="none" xmlns="http://www.w3.org/2000/svg">
<circle cx="19" cy="19" r="19" fill="#F7FAFC"/>
<path d="M15.6605 27.863C13.2252 27.863 10.9551 27.1547 9.04443 25.9326C10.6667 26.0375 13.5296 25.7861 15.3103 24.0876C12.6315 23.9647 11.4234 21.9102 11.2659 21.0322C11.4935 21.12 12.579 21.2253 13.1918 20.9795C10.1103 20.2068 9.63758 17.5026 9.74263 16.6773C10.3204 17.0812 11.3009 17.2216 11.6861 17.1865C8.81468 15.132 9.84768 12.0414 10.3554 11.3741C12.416 14.229 15.5043 15.8323 19.3248 15.9215C19.2528 15.6056 19.2147 15.2767 19.2147 14.9388C19.2147 12.5143 21.1744 10.5488 23.5919 10.5488C24.8549 10.5488 25.9931 11.0854 26.792 11.9436C27.636 11.7458 28.9063 11.2828 29.5273 10.8825C29.2143 12.0063 28.2398 12.9438 27.6503 13.2913C27.6552 13.3031 27.6455 13.2794 27.6503 13.2913C28.1681 13.213 29.5691 12.9437 30.1226 12.5682C29.8489 13.1996 28.8157 14.2493 27.9679 14.837C28.1256 21.7941 22.8028 27.863 15.6605 27.863Z" fill="#2B2B29"/>
</svg>
