<svg width="38" height="38" viewBox="0 0 38 38" fill="none" xmlns="http://www.w3.org/2000/svg">
<circle cx="19" cy="19" r="19" fill="#F7FAFC"/>
<path d="M8.79084 14.5032C8.88624 13.0345 10.067 11.8836 11.5369 11.8108C13.6654 11.7053 16.7077 11.5781 19 11.5781C21.2923 11.5781 24.3346 11.7053 26.4631 11.8108C27.933 11.8836 29.1138 13.0345 29.2092 14.5032C29.3006 15.9102 29.3906 17.6415 29.3906 19C29.3906 20.3585 29.3006 22.0898 29.2092 23.4968C29.1138 24.9655 27.933 26.1164 26.4631 26.1892C24.3346 26.2947 21.2923 26.4219 19 26.4219C16.7077 26.4219 13.6654 26.2947 11.5369 26.1892C10.067 26.1164 8.88624 24.9655 8.79084 23.4968C8.69945 22.0898 8.60938 20.3585 8.60938 19C8.60938 17.6415 8.69945 15.9102 8.79084 14.5032Z" fill="#2B2B29"/>
<path d="M16.7734 16.0312V21.9688L22.7109 19L16.7734 16.0312Z" fill="#F7FAFC"/>
</svg>
