<?xml version="1.0" encoding="utf-8"?>
<!-- Generator: Adobe Illustrator 18.1.1, SVG Export Plug-In . SVG Version: 6.00 Build 0)  -->
<svg version="1.1" id="Layer_1" xmlns="http://www.w3.org/2000/svg" xmlns:xlink="http://www.w3.org/1999/xlink" x="0px" y="0px"
	 viewBox="0 0 550 550" enable-background="new 0 0 550 550" xml:space="preserve">
<g>
	<path fill="#76736E" d="M6.9,245.2c0.1,0,0.3-0.1,0.4-0.1c1.1,1,0.8,2.3,0.8,3.5c0,6.5,0,13,0,19.6c0,49.4,0,98.9,0,148.3
		c0,1.5,0.2,3.1-0.4,4.6c-0.2,0.3-0.4,0.4-0.8,0.3C6.9,362.5,6.9,303.9,6.9,245.2z"/>
	<path fill="#E2E0DE" d="M426.1,47.2c0,0.1,0,0.3,0,0.4c-1,1-2.3,0.8-3.5,0.8c-7.7,0-15.3,0-23,0c-48.2,0-96.4,0-144.7,0
		c-1.5,0-3.1,0.4-4.4-0.8c0-0.1,0-0.3,0-0.4C309.1,47.2,367.6,47.2,426.1,47.2z"/>
	<path fill="#85817D" d="M6.9,421.2c0.1,0,0.3,0,0.4,0c0.9,0.9,0.8,2,0.8,3.1c0,18.5,0,36.9,0,55.4c0,0.9,0,1.9-0.4,2.7
		c-0.2,0.3-0.4,0.4-0.8,0.3C6.9,462.2,6.9,441.7,6.9,421.2z"/>
	<path fill="#94908C" d="M6.9,482.7c0.1,0,0.3,0,0.4,0c0.9,0.8,0.8,1.8,0.8,2.8c0,8,0,16.1,0,24.1c0,1,0.1,2-0.7,2.8
		c-0.2,0-0.3,0-0.5,0C6.9,502.6,6.9,492.6,6.9,482.7z"/>
	<path fill="#686661" d="M250.5,47.6c0.6,0,1.2,0.1,1.9,0.1c57.4,0,114.8,0,172.1,0c0.5,0,1.1,0,1.6-0.1c11.9,0,23.8-0.3,35.6,0.2
		c31.8,1.3,55.5,16.2,71.2,43.7c4.5,7.9,7,16.5,8.9,25.5c1.2,5.7,1.1,11.2,1.1,16.7c0.1,82.8,0.1,165.6,0.1,248.5
		c0,2.5-0.5,4.5-2.2,6.3c-1.4,1.4-2.7,3-4.2,4.4c-5.1,4.6-10.7,5.1-16.6,1.5c-3.1-1.9-5.7-4.2-8.3-6.8
		c-16.7-16.8-33.4-33.5-50.1-50.3c-2.8-2.8-5.9-4-9.8-3.9c-14.1,0.1-28.2,0.3-42.4,0.3c-56.1,0-112.2,0-168.4,0c-10,0-20,0-30-0.4
		c-18.6-0.7-34.9-7.6-48.9-19.7c-14.8-12.8-24-28.8-27.4-48.1c-1.5-8.1-1.6-16.4-1.6-24.6c-0.1-34.3-0.1-68.6,0.1-102.9
		c0.1-11.6,0.5-23.2,4.5-34.2c11.5-31.1,33.7-49.5,66.4-55.2c4.2-0.7,8.5-0.9,12.8-0.9C228.2,47.7,239.3,47.6,250.5,47.6z"/>
	<path fill="#686661" d="M7.4,512.5c0-9.9,0-19.8-0.1-29.8c0-20.5,0-41,0-61.5c0-53.2,0-106.5,0-159.7c0-5.5,0-11-0.1-16.5
		c2.1-3.9,1.9-8.4,3.3-12.5c11.2-32.1,33.3-51.5,66.7-57.7c5.9-1.1,11.9-1.2,17.9-1c5.2,0.2,6.1,1.1,6.4,6.1
		c0.5,10.2,0.2,20.5,0.1,30.7c-0.2,15.3,0,30.6,0.5,45.8c0.5,14,3.4,27.4,9.3,40c16.5,35,43.4,57.3,81.2,65.8
		c9.1,2.1,18.4,2.5,27.8,2.5c63.3,0,126.7,0,190,0c5.9,0,6.2,0.2,6.3,6.1c0.3,18.6-3.2,36.2-14.1,51.6c-14.9,21-34.9,33.7-60.8,36.5
		c-3.4,0.4-6.8,0.5-10.2,0.5c-54,0-108,0-162.1,0c-23.6,0-47.2,0-70.8-0.1c-4.4,0-7.9,1.4-11,4.5c-16,16.2-32.2,32.4-48.3,48.5
		c-3,3-6.1,6-9.8,8.2c-5.2,3.1-9.8,2.9-14.7-0.7C12.2,517.8,9.7,515.2,7.4,512.5z"/>
	<path fill="#FFFFFF" d="M243.5,173.6c8.5,0,15.8,7.5,15.8,16.3c0,8-7.5,15.1-15.8,15.2c-8.4,0-15.7-7.5-15.6-16.1
		C227.8,180.9,235.3,173.7,243.5,173.6z"/>
	<path fill="#FFFFFF" d="M338,204.8c-8.5,0-15.7-7.4-15.7-16c0-7.9,7.5-15.2,15.8-15.2c8.6,0,15.5,7.1,15.5,16.1
		C353.6,197.9,346.6,204.8,338,204.8z"/>
	<path fill="#FFFFFF" d="M432.4,204.8c-8.6-0.1-15.4-7.2-15.3-16.2c0.1-7.9,7.5-14.9,15.7-14.9c8.5,0,15.6,7.4,15.6,16.1
		C448.5,197.8,441,204.8,432.4,204.8z"/>
</g>
</svg>
