<svg width="38" height="41" viewBox="0 0 38 41" fill="none" xmlns="http://www.w3.org/2000/svg">
<path d="M29 20.167C29 20.7193 29.4477 21.167 30 21.167C30.5523 21.167 31 20.7193 31 20.167L29 20.167ZM30.7071 0.293219C30.3166 -0.0973053 29.6834 -0.0973053 29.2929 0.293219L22.9289 6.65718C22.5384 7.0477 22.5384 7.68087 22.9289 8.07139C23.3195 8.46192 23.9526 8.46192 24.3431 8.07139L30 2.41454L35.6569 8.07139C36.0474 8.46192 36.6805 8.46192 37.0711 8.07139C37.4616 7.68087 37.4616 7.04771 37.0711 6.65718L30.7071 0.293219ZM31 20.167L31 1.00033L29 1.00033L29 20.167L31 20.167Z" fill="white"/>
<path d="M14.634 19.8706C18.9246 19.8706 22.4028 16.3924 22.4028 12.1018C22.4028 7.81122 18.9246 4.33301 14.634 4.33301C10.3434 4.33301 6.86523 7.81122 6.86523 12.1018C6.86523 16.3924 10.3434 19.8706 14.634 19.8706Z" fill="white"/>
<path d="M24.2924 40.3473H24.2501H24.2079H24.1656H24.1233H24.0811H24.0388H23.9966H23.9545H23.9122H23.87H23.8277H23.7855H23.7432H23.7012H23.6589H23.6166H23.5744H23.5321H23.4901H23.4478H23.4056H23.3633H23.3212H23.279H23.2367H23.1947H23.1524H23.1102H23.0681H23.0258H22.9838H22.9415H22.8995H22.8572H22.8152H22.7729H22.7309H22.6886H22.6466H22.6043H22.5622H22.5202H22.4779H22.4359H22.3938H22.3518H22.3095H22.2675H22.2254H22.1834H22.1413H22.0993H22.0572H22.015H21.9729H21.9311H21.889H21.847H21.8049H21.7629H21.7208H21.6788H21.6369H21.5949H21.5528H21.511H21.4689H21.4269H21.385H21.343H21.3011H21.2591H21.2172H21.1754H21.1333H21.0915H21.0497H21.0078H20.9658H20.9239H20.8821H20.8402H20.7984H20.7566H20.7147H20.6729H20.6312H20.5894H20.5475H20.5057H20.4641H20.4222H20.3806H20.3388H20.2971H20.2553H20.2136H20.172H20.1302H20.0885H20.0469H20.0053H19.9636H19.922H19.8803H19.8387H19.7971H19.7557H19.714H19.6724H19.631H19.5893H19.5477H19.5063H19.4648H19.4232H19.3818H19.3403H19.2989H19.2575H19.2161H19.1746H19.1332H19.0918H19.0504H19.0089H18.9677H18.9263H18.8851H18.8437H18.8024H18.761H18.7198H18.6786H18.6374H18.5961H18.5549H18.5137H18.4725H18.4313H18.3902H18.349H18.3078H18.2668H18.2256H18.1846H18.1436H18.1026H18.0613H18.0203H17.9793H17.9383H17.8975H17.8565H17.8155H17.7747H17.7337H17.6929H17.6519H17.6111H17.5703H17.5295H17.4887H17.4478H17.4071H17.3662H17.3254H17.2846H17.2441H17.2032H17.1627H17.1221H17.0815H17.0407H17.0001H16.9595H16.9189H16.8785H16.8379H16.7973H16.7569H16.7163H16.6759H16.6356H16.5952H16.5548H16.5144H16.474H16.4336H16.3932H16.3531H16.3127H16.2725H16.2321H16.1919H16.1518H16.1116H16.0714H16.0312H15.9911H15.9511H15.9109H15.8709H15.8308H15.7908H15.7508H15.7109H15.6709H15.6309H15.5912H15.5512H15.5112H15.4715H15.4317H15.3917H15.352H15.3122H15.2724H15.2329H15.1931H15.1534H15.1138H15.0743H15.0345H14.995H14.9554H14.9158H14.8763H14.8369H14.7974H14.758H14.7185H14.6792H14.6398H14.6005H14.5611H14.5218H14.4826H14.4433H14.4042H14.3648H14.3257H14.2865H14.2474H14.2083H14.1693H14.1302H14.0913H14.0521H14.0132H13.9743H13.9354H13.8964H13.8575H13.8188H13.7798H13.7411H13.7024H13.6635H13.6248H13.5862H13.5475H13.5088H13.4703H13.4316H13.3931H13.3545H13.316H13.2775H13.2392H13.2007H13.1624H13.1239H13.0856H13.0473H13.009H12.9707H12.9326H12.8943H12.8562H12.8181H12.78H12.7419H12.7038H12.6657H12.6278H12.5897H12.5518H12.5139H12.4761H12.4382H12.4005H12.3626H12.3249H12.287H12.2494H12.2117H12.174H12.1365H12.0988H12.0614H12.0239H11.9862H11.949H11.9115H11.874H11.8368H11.7993H11.762H11.7248H11.6875H11.6502H11.6132H11.5759H11.5389H11.5018H11.4648H11.4277H11.3906H11.3538H11.3167H11.2799H11.2431H11.2062H11.1696H11.1327H11.0959H11.0592H11.0226H10.986H10.9493H10.9129H10.8762H10.8398H10.8034H10.767H10.7305H10.6941H10.6579H10.6217H10.5852H10.549H10.513H10.4768H10.4405H10.4045H10.3685H10.3325H10.2965H10.2607H10.2247H10.1889H10.1531H10.1173H10.0814H10.0456H10.01H9.97424H9.93864H9.90304H9.86765H9.83206H9.79667H9.76107H9.72568H9.6905H9.65511H9.61972H9.58453H9.54936H9.51417H9.47899H9.44381H9.40884H9.37387H9.33889H9.30392H9.26895H9.23397H9.19921H9.16444H9.12968H9.09491H9.06036H9.02559H8.99103H8.95648H8.92192H8.88736H8.85302H8.81846H8.78411H8.74976H8.71562H8.68128H8.64713H8.61299H8.57885H8.54471H8.51057H8.47664H8.44271H8.40878H8.37484H8.34091H8.30719H8.27346H8.23974H8.20602H8.17229H8.13878H8.10526H8.07174H8.03823H8.00471H7.9714H7.93789H7.90458H7.87148H7.83817H7.80508H7.77177H7.73867H7.70578H7.67268H7.63978H7.60669H7.57379H7.54111H7.50822H7.47554H7.44285H7.41017H7.37749H7.34481H7.31233H7.27985H7.24738H7.2149H7.18264H7.15037H7.1181H7.08584H7.05357H7.02151H6.98945H6.95739H6.92534H6.89328H6.86143H6.82958H6.79773H6.76588H6.73423H6.70259H6.67095H6.63931H6.60767H6.57623H6.5448H6.51336H6.48193H6.4507H6.41948H6.38825H6.35702H6.3258H6.29478H6.26376H6.23274H6.20173H6.17092H6.14011H6.1093H6.07849H6.04768H6.01708H5.98648H5.95587H5.92548H5.89488H5.86449H5.83409H5.8037H5.77352H5.74333H5.71314H5.68296H5.65298H5.6228H5.59282H5.56305H5.53308H5.50331H5.47354H5.44377H5.414H5.38444H5.35488H5.32532H5.29576H5.26641H5.23705H5.2077H5.17835H5.1492H5.12006H5.09092H5.06177H5.03263H5.00369H4.97475C3.02751 40.3473 1.66585 39.6387 0.892485 38.5878C0.112877 37.5284 -0.340939 35.7481 0.315222 33.075C1.00094 30.2819 2.39508 27.4491 4.72224 25.3289C7.0136 23.2413 10.3435 21.7188 15.1761 21.7188C19.8537 21.7188 22.9472 23.5605 25.0368 25.8104C27.1804 28.1178 28.3149 30.9173 28.8305 32.7548C29.3243 34.5147 29.2935 36.5359 28.6084 37.9995C28.2808 38.6996 27.8134 39.2575 27.1808 39.6512C26.5467 40.0457 25.6297 40.3473 24.2924 40.3473Z" fill="white"/>
</svg>
