<svg width="90" height="89" viewBox="0 0 90 89" fill="none" xmlns="http://www.w3.org/2000/svg">
<path d="M78.4283 42.7348C78.4283 61.5015 63.6113 76.6062 45.4661 76.6062C27.3209 76.6062 12.5039 61.5015 12.5039 42.7348C12.5039 23.968 27.3209 8.86328 45.4661 8.86328C63.6113 8.86328 78.4283 23.968 78.4283 42.7348Z" stroke="#435E79" stroke-width="5"/>
<path d="M18.0655 41.4021C16.9658 41.2983 16.1519 40.3211 16.3265 39.2304C17.0809 34.5195 18.9157 30.0465 21.6867 26.1628C22.3283 25.2637 23.594 25.1395 24.4498 25.8378L31.1442 31.3004C32 31.9988 32.1172 33.2535 31.5165 34.1805C30.2825 36.0848 29.4138 38.2026 28.9551 40.4249C28.7318 41.5067 27.7672 42.3178 26.6676 42.214L18.0655 41.4021Z" fill="#435E79"/>
<path d="M26.5287 23.5009C25.7709 22.6972 25.8043 21.4259 26.6553 20.7217C30.7008 17.3741 35.5334 15.1118 40.6952 14.149C41.7811 13.9464 42.7789 14.7351 42.9108 15.8317L43.9428 24.4102C44.0747 25.5068 43.2886 26.4919 42.2129 26.7428C39.7281 27.3224 37.3917 28.4162 35.3551 29.9532C34.4735 30.6186 33.2135 30.5915 32.4558 29.7878L26.5287 23.5009Z" fill="#435E79"/>
<path d="M46.2149 16.0239C46.2648 14.9204 47.201 14.0597 48.299 14.1808C53.7035 14.777 58.8564 16.7887 63.2354 20.0121C64.1249 20.6669 64.2303 21.9343 63.5194 22.7797L57.9583 29.3925C57.2474 30.2378 55.991 30.3364 55.073 29.7221C52.8614 28.242 50.3527 27.2625 47.7233 26.8527C46.6319 26.6826 45.7746 25.7588 45.8245 24.6553L46.2149 16.0239Z" fill="#435E79"/>
<path d="M66.0338 25.3912C66.8963 24.7012 68.1608 24.8376 68.7936 25.743C71.8526 30.1193 73.7263 35.2145 74.2313 40.53C74.3358 41.6296 73.461 42.5528 72.3569 42.5859L63.7205 42.8455C62.6164 42.8787 61.7057 42.0075 61.5522 40.9136C61.1902 38.3354 60.2813 35.8636 58.8866 33.6651C58.2949 32.7323 58.4243 31.4787 59.2868 30.7887L66.0338 25.3912Z" fill="#435E79"/>
<path d="M70.7888 45.39C71.8714 45.4062 72.7523 46.2821 72.6904 47.363C72.3131 53.9485 69.5861 60.1366 64.9735 64.7703C59.9094 69.8575 52.9873 72.6544 45.7299 72.5457C38.4726 72.437 31.4745 69.4316 26.2751 64.1906C21.5651 59.4429 18.6807 53.2129 18.1084 46.6532C18.0105 45.5309 18.9357 44.6132 20.0622 44.6301L36.0236 44.8692C37.1062 44.8854 37.9536 45.7746 38.2422 46.8182C38.5912 48.0797 39.2631 49.248 40.2048 50.1973C41.6111 51.6149 43.5039 52.4278 45.4669 52.4572C47.4298 52.4866 49.3021 51.7301 50.6718 50.3541C51.5591 49.4627 52.1885 48.3586 52.5147 47.1545C52.8092 46.0671 53.7009 45.134 54.8273 45.1509L70.7888 45.39Z" fill="#435E79"/>
<path d="M54.1892 34.27C54.5993 34.0262 55.0853 34.4405 54.9096 34.884L50.176 46.8287C48.9437 49.9384 45.0192 50.9148 42.4734 48.7449V48.7449C39.9277 46.5751 40.27 42.5454 43.1452 40.836L54.1892 34.27Z" fill="#435E79"/>
</svg>
