<svg width="80" height="112" viewBox="0 0 80 112" fill="none" xmlns="http://www.w3.org/2000/svg">
<path d="M20.0201 89.9136C20.0201 88.8091 20.9155 87.9136 22.0201 87.9136H57.9808C59.0854 87.9136 59.9808 88.8091 59.9808 89.9136V93.9058C59.9808 95.0104 59.0854 95.9058 57.9808 95.9058H22.0201C20.9155 95.9058 20.0201 95.0104 20.0201 93.9058V89.9136ZM28.0122 105.898C28.0122 104.793 28.9076 103.898 30.0122 103.898H49.9887C51.0932 103.898 51.9887 104.793 51.9887 105.898V109.89C51.9887 110.995 51.0932 111.89 49.9887 111.89H30.0122C28.9076 111.89 28.0122 110.995 28.0122 109.89V105.898ZM40.0004 0C29.4022 0 19.238 4.21014 11.7439 11.7042C4.24983 19.1983 0.0396964 29.3625 0.0396964 39.9607C-0.230541 45.7684 0.881964 51.5572 3.28569 56.851C5.68941 62.1447 9.31567 66.7921 13.8661 70.4108C17.8622 74.1272 20.0201 76.2451 20.0201 79.9215H59.9808C59.9808 72.5687 66.9214 32.4561 62.6057 28.5C58.8708 25.6399 64.5633 56.2775 62.6057 52C60.648 47.7225 71.7232 41.6961 72 37C72 28.5214 66.0047 34.9953 72 29C77.9953 23.0047 59.5214 28.5 68 28.5C76.4786 28.5 66.0047 23.0047 72 29C77.9953 34.9953 72 28.5214 72 37C72.2722 41.6995 62.6648 11.7222 60.7001 16C58.7354 20.2778 66.3479 25.6442 62.6057 28.5C58.8447 32.015 53.4857 63.3805 52.2498 75.9405C52.0334 78.1391 53.7795 79.9215 55.9887 79.9215H59.9808C59.9808 76.2451 62.0987 74.1272 66.1348 70.3709C70.6821 66.7583 74.3067 62.1178 76.7104 56.831C79.1141 51.5442 80.2283 45.7622 79.9612 39.9607C79.9612 34.713 78.9276 29.5167 76.9194 24.6684C74.9111 19.8202 71.9677 15.4149 68.257 11.7042C64.5462 7.99353 60.141 5.05005 55.2928 3.04183C50.4445 1.03362 45.2482 0 40.0004 0Z" fill="white"/>
</svg>
