<?xml version="1.0" encoding="utf-8"?>
<!-- Generator: Adobe Illustrator 18.1.1, SVG Export Plug-In . SVG Version: 6.00 Build 0)  -->
<svg version="1.1" id="Layer_1" xmlns="http://www.w3.org/2000/svg" xmlns:xlink="http://www.w3.org/1999/xlink" x="0px" y="0px"
	 viewBox="0 0 550 550" enable-background="new 0 0 550 550" xml:space="preserve">
<g>
	<path fill="#686661" d="M500.3,35.2c0.8,0,1.6,0,2.3,0c1.1,0.4,2.3,0.4,3.4,0.6c6.2,1,11,6.1,11.5,12.4c0.1,1.5,0.3,3.1,0.2,4.6
		c0,75.2,0,150.3,0,225.5c0.4,7.8-2.5,13.6-9.9,16.7c-2.7,1.1-5.5,1.7-8.4,1.7c-14,0.1-28.1,0.1-42.1,0c-0.9,0-1.7-0.2-2.5-0.3
		c-3.7-0.5-5.5,1-5.5,4.7c0,6.7-0.6,13.3-2.4,19.8c-3.7,14-11.6,25.1-23.5,33.3c-11.3,7.9-23.7,12.2-37.5,11.8
		c-15.7-0.5-29.4-6.2-40.9-17.1c-9.7-9.1-15.9-20.1-18.3-33.2c-0.8-4.2-1.1-8.4-1.2-12.7c-0.1-5-1.2-6.2-6.2-6.3
		c-7.3-0.1-14.6,0-21.9,0c-3.5,0-4.2,0.7-4.2,4.3c0,17.8,0,35.7,0,53.5c0,3-0.4,5.9-1.6,8.6c-4.9,11-16.6,14.5-27.5,8.1
		c-2.9-1.7-5.7-3.4-9-4.3c-17.2-4.9-33,9.6-31.2,26.2c2.1,19,22.3,28.4,38.5,18.2c4.2-2.7,8.7-4.4,13.8-4.2
		c6.9,0.3,14.2,6,15.9,12.7c0.6,2.4,1,4.8,1,7.4c0,25,0,50,0,75c0,2.3-0.2,4.5-0.9,6.7c-2.2,6.9-6.2,11.7-15.2,11.9
		c-0.6,0-1.2-0.2-1.8,0.2c-0.3,0-0.6,0-0.9,0c-2.2-0.5-4.5-0.1-6.8-0.2c-6.3,0-12.6,0-18.9,0c-13,0-26.1,0-39.1,0c-53,0-106,0-159,0
		c-2.5,0.2-4.9-0.2-7.4-0.6c-4.9-0.7-9.9-5.9-10.6-11.2c-0.2-1.1-0.1-2.3-0.5-3.4c0-76.7,0-153.4,0-230.1c0.3-0.4,0.2-0.9,0.2-1.3
		c1-7.8,5.7-12.7,13.5-14.1c2-0.4,4-0.5,6-0.5c13.9,0,27.8,0,41.7,0c1,0,2,0,3,0c2.8-0.1,3.8-1.1,3.8-3.9c0-5.4,0.4-10.8,1.5-16.2
		c3.2-16.4,12-29,25.7-38.4c7.4-5,15.3-8.5,24.1-10c18-3,34.2,1.4,48.6,12.4c13.3,10.2,21.1,23.7,23.4,40.4
		c0.5,3.7,0.2,7.4,0.1,11.1c0,3.9,1.2,5.2,5,5c8.1-0.6,16.3-0.3,24.4-0.4c2.3,0,3.1-0.8,3.2-3.1c0.1-1.7,0-3.4,0-5.1
		c0-17-0.1-34,0-51c0-8.7,5.3-15.8,13.7-18.1c5.6-1.5,10.9-0.2,15.8,2.9c2.7,1.7,5.5,3.2,8.6,4.1c16,4.4,30.4-7.3,31.2-22.6
		c0.7-13.8-9.9-25.7-23.8-26.1c-6.2-0.2-11.5,1.9-16.6,5.2c-5.7,3.8-11.8,4.7-18.1,1.6c-7.1-3.4-10.7-9.3-10.7-17.1
		c-0.1-14.5,0-29,0-43.5c0-11.4-0.1-22.8,0.1-34.2c0.1-6.4,2.7-11.7,8.2-15.4c2.5-1.7,5.5-1.4,8.2-2c0.6,0,1.2,0,1.9,0
		c0.8,0.4,1.7,0.2,2.5,0.2c73.5,0,146.9,0,220.4,0C498.6,35.5,499.5,35.7,500.3,35.2z"/>
	<path fill="#989490" d="M267.9,521c0-0.1,0-0.3,0-0.4c2.2,0.1,4.4-0.5,6.5,0.4C272.2,521,270.1,521,267.9,521z"/>
</g>
</svg>
