<svg width="111" height="110" viewBox="0 0 111 110" fill="none" xmlns="http://www.w3.org/2000/svg">
<rect x="0.5" width="110" height="110" rx="20" fill="#E0E4E8"/>
<path d="M82.981 30H29C26.2386 30 24 32.2386 24 35V75.3516C24 78.113 26.2386 80.3516 29 80.3516H82.981C85.7425 80.3516 87.981 78.113 87.981 75.3516V35C87.981 32.2386 85.7425 30 82.981 30Z" fill="#665E66"/>
<path d="M84.9982 30H76.0816C74.2975 58.5826 70.9529 71.5503 54 80.3516H84.9982C87.2074 80.3516 88.9982 78.5607 88.9982 76.3516V34C88.9982 31.7909 87.2074 30 84.9982 30Z" fill="#454045"/>
<path d="M35.2437 37.0066L35.4341 36.6209C35.6219 36.2407 36.0092 36 36.4332 36H68.6689C69.135 36 69.5519 36.2902 69.7138 36.7273L69.881 37.1786C69.9585 37.388 69.9714 37.6159 69.9178 37.8327L69.8388 38.1528C69.716 38.6504 69.2695 39 68.757 39H36.4333C36.0092 39 35.6219 38.7593 35.4341 38.3791L35.2437 37.9934C35.0901 37.6824 35.0901 37.3176 35.2437 37.0066Z" fill="#8D858D"/>
<path d="M35.3366 43.9319L35.5652 43.5462C35.7658 43.2076 36.1302 43 36.5238 43H75.6092C76.0495 43 76.4486 43.2593 76.6274 43.6618L76.8332 44.1247C76.9409 44.3669 76.9586 44.6396 76.8833 44.8938L76.7919 45.2022C76.6517 45.6754 76.217 46 75.7235 46H36.5238C36.1302 46 35.7658 45.7924 35.5652 45.4538L35.3366 45.0681C35.1291 44.7178 35.1291 44.2822 35.3366 43.9319Z" fill="#8D858D"/>
<path d="M35.0938 67.1834L35.2081 66.7978C35.3483 66.3246 35.783 66 36.2765 66H54.7728C55.2951 66 55.7473 66.3627 55.8606 66.8726L55.9553 67.2988C55.9848 67.4318 55.9898 67.5691 55.9698 67.7039L55.9187 68.049C55.8377 68.5954 55.3687 69 54.8164 69H36.2765C35.783 69 35.3483 68.6754 35.2081 68.2022L35.0938 67.8166C35.0326 67.61 35.0326 67.39 35.0938 67.1834Z" fill="#8D858D"/>
<path d="M75.3661 65.2725H68.7366C67.9582 65.2725 67.3271 65.9035 67.3271 66.6819V83.6623C67.3271 84.7033 68.417 85.3851 69.3531 84.9297L71.3276 83.9691C71.7078 83.7842 72.1509 83.7796 72.5348 83.9568L74.7777 84.992C75.7117 85.4231 76.7779 84.7408 76.7778 83.7122L76.7755 66.6817C76.7754 65.9034 76.1444 65.2725 75.3661 65.2725Z" fill="#FBC157"/>
<circle cx="72.0519" cy="60.2999" r="9.94834" fill="#FFA600"/>
<circle cx="72.0509" cy="60.299" r="3.73063" fill="#FBC157"/>
</svg>
