<svg width="110" height="110" viewBox="0 0 110 110" fill="none" xmlns="http://www.w3.org/2000/svg">
<rect width="110" height="110" rx="20" fill="#E0E4E8"/>
<path d="M41.2389 62.7764H30.7751C30.2796 62.7764 29.8779 63.1781 29.8779 63.6736V84.01C29.8779 84.5055 30.2796 84.9072 30.7751 84.9072H41.2423C41.7378 84.9072 42.1395 84.5054 42.1395 84.0099L42.1361 63.6734C42.136 63.178 41.7344 62.7764 41.2389 62.7764Z" fill="#665E66"/>
<path d="M38.8778 62.7764H41.8684C42.3639 62.7764 42.7656 63.1781 42.7656 63.6736V84.01C42.7656 84.5055 42.3639 84.9072 41.8684 84.9072H39.775L39.7758 63.8549C39.7759 63.5548 39.6258 63.2745 39.376 63.1082L38.8778 62.7764Z" fill="#454045"/>
<path d="M78.9215 46.626H68.4577C67.9622 46.626 67.5605 47.0277 67.5605 47.5232V84.0092C67.5605 84.5047 67.9622 84.9063 68.4577 84.9063H78.9249C79.4205 84.9063 79.8222 84.5046 79.8221 84.0091L79.8187 47.5231C79.8186 47.0276 79.417 46.626 78.9215 46.626Z" fill="#665E66"/>
<path d="M76.5604 46.626H79.551C80.0466 46.626 80.4482 47.0277 80.4482 47.5232V84.0092C80.4482 84.5047 80.0466 84.9063 79.551 84.9063H77.4576L77.4585 47.9957C77.4585 47.7796 77.3805 47.5707 77.2388 47.4075L76.5604 46.626Z" fill="#454045"/>
<path d="M27.5293 58.5941C27.2112 58.5861 26.8525 58.5718 26.4884 58.5545C25.2781 58.4969 24.5356 57.2215 25.0572 56.1277C25.3025 55.6135 25.7975 55.2528 26.3603 55.1641C53.4437 50.8981 64.064 43.8386 78.9932 25.8333C79.5564 25.1541 80.5945 24.7264 81.4725 24.6398C81.7795 24.6096 82.0464 24.652 82.215 24.944C82.4094 25.2808 82.5502 25.6797 82.6462 26.0158C82.7768 26.4728 82.6548 26.9587 82.3739 27.3421C68.1937 46.6951 51.6107 56.0729 27.5293 58.5941Z" fill="#FEBD2F"/>
<path d="M71.6849 26.7451L71.6863 26.5675C71.6936 25.6644 72.371 24.9074 73.2677 24.8003L81.4488 23.8226C82.367 23.7129 83.2183 24.319 83.415 25.2226L83.4588 25.4235C83.4791 25.5167 83.4919 25.6113 83.4972 25.7064L83.5053 25.8542C83.5575 26.7993 82.8665 27.6225 81.9266 27.7348L73.7354 28.7136C72.8386 28.8208 72.002 28.2448 71.7821 27.3688L71.7388 27.1965C71.7018 27.0489 71.6837 26.8973 71.6849 26.7451Z" fill="#FEBD2F"/>
<path d="M81.2655 35.8356L81.0893 35.8124C80.1945 35.6945 79.5264 34.9302 79.5294 34.0276L79.5563 25.7165C79.5593 24.7922 80.264 24.0213 81.1844 23.9356L81.3894 23.9166C81.4848 23.9077 81.5808 23.9065 81.6765 23.9129L81.824 23.9229C82.7682 23.9866 83.5006 24.7726 83.4975 25.719L83.4706 34.0404C83.4676 34.943 82.7947 35.7029 81.8991 35.8151L81.7228 35.8371C81.5709 35.8561 81.4172 35.8556 81.2655 35.8356Z" fill="#FEBD2F"/>
<path d="M60.361 58H49.8972C49.4017 58 49 58.4017 49 58.8972V84.3178C49 84.8133 49.4017 85.215 49.8972 85.215H60.3644C60.8599 85.215 61.2616 84.8132 61.2616 84.3176L61.2582 58.8971C61.2581 58.4016 60.8564 58 60.361 58Z" fill="#665E66"/>
<path d="M57.2801 58H60.2708C60.7663 58 61.168 58.4017 61.168 58.8972V84.3178C61.168 84.8133 60.7663 85.215 60.2708 85.215H58.1773L58.1782 59.1604C58.1782 58.8915 58.0575 58.6367 57.8495 58.4663L57.2801 58Z" fill="#454045"/>
</svg>
