<svg width="110" height="110" viewBox="0 0 110 110" fill="none" xmlns="http://www.w3.org/2000/svg">
<rect width="110" height="110" rx="20" fill="#E0E4E8"/>
<path d="M54.3918 76.1685C64.388 76.3585 75.1086 73.394 73.9987 58.7812C69.1894 58.7814 35.5248 58.7812 35.5248 58.7812C35.5248 73.7639 44.615 75.9827 54.3918 76.1685Z" fill="#665E66"/>
<path d="M73.9982 59.7054L73.9982 55.6359L56.7528 64.2588C55.2693 65.0006 53.5202 64.987 52.0485 64.2222L35.5242 55.6359L35.5242 59.1505L50.7045 67.3359C53.0182 68.5835 55.7919 68.6368 58.1518 67.4791L73.9982 59.7054Z" fill="#454045"/>
<path d="M50.5068 75.6126C64.7494 76.7224 74.553 73.5779 73.9981 59.7051H64.7495C63.4548 70.8033 59.5704 74.3178 50.5068 75.6126Z" fill="#454045"/>
<path d="M58.3976 31.0314L83.6059 44.4316C86.2171 45.8197 86.2248 49.5588 83.6193 50.9576L58.4652 64.4613C56.0394 65.7636 53.1197 65.7512 50.7051 64.4283L25.8113 50.7896C23.2306 49.3758 23.2536 45.661 25.8515 44.2791L50.7553 31.0324C53.1442 29.7617 56.0084 29.7613 58.3976 31.0314Z" fill="#665E66"/>
<path d="M66.7071 59.8966L55.3341 46.7992C54.9598 46.3682 54.3071 46.3222 53.8761 46.6964C53.4451 47.0707 53.3991 47.7234 53.7733 48.1544L65.1459 61.2522C65.5202 61.6833 66.1732 61.7293 66.6043 61.355C67.0354 60.9807 67.0814 60.3277 66.7071 59.8966Z" fill="#EAB14D"/>
<path d="M67.0012 77.5387L67.0006 60.7395C67.0006 60.1688 66.5379 59.7061 65.9671 59.7061C65.3963 59.7061 64.9336 60.1688 64.9336 60.7396V77.5388C64.9336 78.1097 65.3964 78.5726 65.9674 78.5726C66.5383 78.5726 67.0012 78.1097 67.0012 77.5387Z" fill="#EAB14D"/>
<path d="M61.9745 83.0128C61.7895 85.4174 63.2693 86.5273 66.0438 86.5273C68.8183 86.5273 70.1132 85.4174 69.9283 83.0128C69.0034 80.4232 67.4015 77.0938 66.0439 77.0938C64.3791 77.0938 62.7144 80.7932 61.9745 83.0128Z" fill="#F4DD45"/>
</svg>
