<svg width="110" height="110" viewBox="0 0 110 110" fill="none" xmlns="http://www.w3.org/2000/svg">
<rect width="110" height="110" rx="20" fill="#E0E4E8"/>
<path d="M70.7415 88.0033H39.408C38.0195 88.0033 36.9227 86.8119 37.1115 85.4362C38.695 73.8962 43.7685 67.992 46.266 66.4287H63.6727C69.9328 71.3023 72.35 80.124 72.9908 85.5829C73.1462 86.9066 72.0742 88.0033 70.7415 88.0033Z" fill="#665E66"/>
<path d="M46.3887 66.4285C48.8608 70.6985 56.2933 77.1668 66.2471 68.8802C63.6933 65.4887 56.1462 60.2504 46.3887 66.4285Z" fill="#454045"/>
<circle cx="54.9687" cy="57.4805" r="12.3808" fill="#665E66"/>
<path d="M47.4921 68.1446C40.7745 74.2738 38.6457 83.8352 38.421 87.9417C37.5968 87.9417 36.9476 87.2325 37.043 86.4139C38.4557 74.2823 43.7373 68.0744 46.3275 66.3672L47.4921 68.1446Z" fill="#8D858D"/>
<path d="M62.6303 62.1383C55.3244 70.2778 47.2871 66.3879 44.1816 63.4255C45.4075 65.8281 47.2258 67.2051 47.9817 67.5933C56.8077 73.4159 62.9368 66.7352 63.6723 66.3674C70.1937 58.8654 66.553 51.5962 63.9174 48.8994C66.8104 54.9305 64.2648 60.2383 62.6303 62.1383Z" fill="#454045"/>
<path d="M47.826 49.2673C42.3833 53.8274 43.1066 60.6471 44.1485 63.4869C40.373 56.8184 43.9989 50.7179 46.4506 48.4092C51.3539 43.653 58.1777 45.0586 60.7928 46.5092C52.8862 44.1188 48.7454 48.8383 47.826 49.2673Z" fill="#8D858D"/>
<path d="M23 39.3405C23.5133 38.327 24.382 37.9322 25.4875 37.8532C26.5799 37.7743 27.6592 37.5374 28.7384 37.4057C29.0411 37.3663 29.1859 37.2346 29.3175 36.9846C29.8703 35.8659 30.4494 34.7603 31.0022 33.6416C31.3839 32.8387 32.0024 32.457 32.8843 32.457C33.7661 32.457 34.3715 32.865 34.7532 33.6547C35.2928 34.7603 35.8719 35.8395 36.4115 36.9319C36.5563 37.2215 36.7011 37.3531 37.0301 37.3926C38.4252 37.5768 39.8204 37.7479 41.1892 38.0112C42.7027 38.3007 43.2555 40.0907 42.2289 41.2489C42.1105 41.3805 41.9788 41.499 41.8604 41.6174C41.0049 42.4334 40.1494 43.2494 39.2807 44.0654C39.057 44.276 38.9649 44.4603 39.0307 44.8025C39.2676 46.0002 39.4518 47.211 39.6756 48.4219C39.8335 49.2642 39.6624 50.0013 38.9649 50.5409C38.2673 51.0805 37.5171 51.0805 36.7406 50.6857C35.5955 50.0934 34.4373 49.5275 33.3054 48.9089C33.0027 48.7509 32.7658 48.7509 32.4631 48.9089C31.3707 49.5011 30.252 50.0408 29.1464 50.633C28.3436 51.0542 27.5539 51.1068 26.8037 50.5409C26.0798 49.9881 25.935 49.2247 26.1061 48.3561C26.343 47.1716 26.501 45.9739 26.7379 44.8025C26.8037 44.4603 26.7115 44.276 26.4878 44.0654C25.7902 43.4205 25.119 42.7756 24.4346 42.1176C23.9213 41.6306 23.3685 41.1568 23.0132 40.5119C23 40.1302 23 39.7353 23 39.3405Z" fill="#FFCC5B"/>
<path fill-rule="evenodd" clip-rule="evenodd" d="M35.1646 34.4775C35.322 34.7882 35.4808 35.0975 35.6395 35.4064C35.9001 35.9137 36.1601 36.4198 36.4115 36.9288C36.5563 37.2183 36.7011 37.3499 37.0301 37.3894C37.199 37.4117 37.3679 37.4338 37.5367 37.4559C38.7626 37.6165 39.986 37.7766 41.1892 38.008C42.7027 38.2976 43.2555 40.0875 42.2289 41.2457C42.1495 41.334 42.0641 41.4164 41.9808 41.4968C41.9398 41.5362 41.8994 41.5753 41.8604 41.6143C41.0049 42.4303 40.1494 43.2463 39.2807 44.0623C39.057 44.2729 38.9649 44.4571 39.0307 44.7993C39.1685 45.496 39.2885 46.1971 39.4088 46.9C39.4953 47.4056 39.582 47.9122 39.6756 48.4187C39.8335 49.2611 39.6624 49.9981 38.9649 50.5377C38.2673 51.0774 37.5171 51.0774 36.7406 50.6825C36.3589 50.4851 35.9757 50.2906 35.5926 50.0961C34.8263 49.7071 34.06 49.3181 33.3054 48.9057C33.0027 48.7478 32.7658 48.7478 32.4631 48.9057C31.8877 49.2177 31.3049 49.5151 30.7206 49.8132C30.1957 50.0811 29.6696 50.3496 29.1464 50.6299C29.0606 50.6749 28.975 50.7156 28.8896 50.7519C28.4708 49.3732 28.2412 47.8752 28.2412 46.3091C28.2412 40.7261 31.159 36.0081 35.1646 34.4775Z" fill="#FEBD2F"/>
<path d="M45.123 27.8835C45.6363 26.87 46.505 26.4752 47.6106 26.3962C48.703 26.3172 49.7822 26.0803 50.8614 25.9487C51.1642 25.9092 51.3089 25.7776 51.4406 25.5275C51.9933 24.4088 52.5724 23.3033 53.1252 22.1845C53.5069 21.3817 54.1255 21 55.0073 21C55.8891 21 56.4946 21.408 56.8762 22.1977C57.4159 23.3033 57.995 24.3825 58.5346 25.4749C58.6794 25.7645 58.8241 25.8961 59.1532 25.9356C60.5483 26.1198 61.9434 26.2909 63.3122 26.5541C64.8258 26.8437 65.3786 28.6337 64.352 29.7919C64.2335 29.9235 64.1019 30.0419 63.9834 30.1604C63.1279 30.9764 62.2724 31.7924 61.4038 32.6084C61.18 32.819 61.0879 33.0033 61.1537 33.3455C61.3906 34.5432 61.5749 35.754 61.7986 36.9649C61.9566 37.8072 61.7855 38.5442 61.0879 39.0839C60.3904 39.6235 59.6402 39.6235 58.8636 39.2286C57.7186 38.6364 56.5604 38.0704 55.4285 37.4518C55.1258 37.2939 54.8889 37.2939 54.5861 37.4518C53.4937 38.0441 52.375 38.5837 51.2695 39.176C50.4666 39.5972 49.6769 39.6498 48.9267 39.0839C48.2028 38.5311 48.0581 37.7677 48.2292 36.8991C48.4661 35.7145 48.624 34.5168 48.8609 33.3455C48.9267 33.0033 48.8346 32.819 48.6108 32.6084C47.9133 31.9635 47.242 31.3186 46.5576 30.6605C46.0444 30.1735 45.4916 29.6997 45.1362 29.0548C45.123 28.6731 45.123 28.2783 45.123 27.8835Z" fill="#FFCC5B"/>
<path fill-rule="evenodd" clip-rule="evenodd" d="M57.2877 23.0195C57.445 23.3302 57.6039 23.6395 57.7626 23.9484C58.0232 24.4556 58.2832 24.9618 58.5346 25.4708C58.6794 25.7603 58.8241 25.8919 59.1532 25.9314C59.322 25.9537 59.4909 25.9758 59.6597 25.9979C60.8856 26.1584 62.1091 26.3186 63.3122 26.55C64.8258 26.8396 65.3786 28.6295 64.352 29.7877C64.2725 29.876 64.1872 29.9584 64.1038 30.0388C64.0629 30.0782 64.0225 30.1172 63.9834 30.1563C63.1279 30.9723 62.2724 31.7883 61.4038 32.6043C61.18 32.8149 61.0879 32.9991 61.1537 33.3413C61.2915 34.038 61.4115 34.7391 61.5318 35.442C61.6183 35.9476 61.705 36.4542 61.7986 36.9607C61.9566 37.8031 61.7855 38.5401 61.0879 39.0797C60.3904 39.6194 59.6402 39.6194 58.8636 39.2245C58.4819 39.0271 58.0988 38.8326 57.7156 38.6381C56.9493 38.2491 56.1831 37.8601 55.4285 37.4477C55.1258 37.2898 54.8889 37.2898 54.5861 37.4477C54.0107 37.7597 53.428 38.0571 52.8437 38.3552C52.3188 38.6231 51.7926 38.8916 51.2695 39.1719C51.1837 39.2169 51.0981 39.2576 51.0126 39.2939C50.5938 37.9152 50.3643 36.4172 50.3643 34.8511C50.3643 29.2681 53.282 24.5501 57.2877 23.0195Z" fill="#FEBD2F"/>
<path d="M67.2471 39.3405C67.7604 38.327 68.629 37.9322 69.7346 37.8532C70.827 37.7743 71.9062 37.5374 72.9855 37.4057C73.2882 37.3663 73.433 37.2346 73.5646 36.9846C74.1174 35.8659 74.6965 34.7603 75.2492 33.6416C75.6309 32.8387 76.2495 32.457 77.1313 32.457C78.0132 32.457 78.6186 32.865 79.0003 33.6547C79.5399 34.7603 80.119 35.8395 80.6586 36.9319C80.8034 37.2215 80.9482 37.3531 81.2772 37.3926C82.6723 37.5768 84.0674 37.7479 85.4362 38.0112C86.9498 38.3007 87.5026 40.0907 86.476 41.2489C86.3575 41.3805 86.2259 41.499 86.1075 41.6174C85.252 42.4334 84.3965 43.2494 83.5278 44.0654C83.3041 44.276 83.2119 44.4603 83.2777 44.8025C83.5147 46.0002 83.6989 47.211 83.9227 48.4219C84.0806 49.2642 83.9095 50.0013 83.2119 50.5409C82.5144 51.0805 81.7642 51.0805 80.9876 50.6857C79.8426 50.0934 78.6844 49.5275 77.5525 48.9089C77.2498 48.7509 77.0129 48.7509 76.7102 48.9089C75.6178 49.5011 74.499 50.0408 73.3935 50.633C72.5906 51.0542 71.8009 51.1068 71.0507 50.5409C70.3269 49.9881 70.1821 49.2247 70.3532 48.3561C70.5901 47.1716 70.748 45.9739 70.9849 44.8025C71.0507 44.4603 70.9586 44.276 70.7349 44.0654C70.0373 43.4205 69.3661 42.7756 68.6817 42.1176C68.1684 41.6306 67.6156 41.1568 67.2602 40.5119C67.2471 40.1302 67.2471 39.7353 67.2471 39.3405Z" fill="#FFC851"/>
<path fill-rule="evenodd" clip-rule="evenodd" d="M79.4117 34.4775C79.569 34.7882 79.7279 35.0975 79.8866 35.4064C80.1472 35.9137 80.4072 36.4198 80.6586 36.9288C80.8034 37.2183 80.9482 37.3499 81.2772 37.3894C81.4461 37.4117 81.6149 37.4338 81.7837 37.4559C83.0097 37.6165 84.2331 37.7766 85.4362 38.008C86.9498 38.2976 87.5026 40.0875 86.476 41.2457C86.3965 41.334 86.3112 41.4164 86.2278 41.4968C86.1869 41.5362 86.1465 41.5753 86.1075 41.6143C85.252 42.4303 84.3965 43.2463 83.5278 44.0623C83.3041 44.2729 83.2119 44.4571 83.2777 44.7993C83.4155 45.496 83.5355 46.1971 83.6558 46.9C83.7424 47.4056 83.8291 47.9122 83.9227 48.4187C84.0806 49.2611 83.9095 49.9981 83.2119 50.5377C82.5144 51.0774 81.7642 51.0774 80.9876 50.6825C80.606 50.4851 80.2228 50.2906 79.8397 50.0961C79.0734 49.7071 78.3071 49.3181 77.5525 48.9057C77.2498 48.7478 77.0129 48.7478 76.7102 48.9057C76.1347 49.2177 75.552 49.5151 74.9677 49.8132C74.4428 50.0811 73.9167 50.3496 73.3935 50.6299C73.3077 50.6749 73.2221 50.7156 73.1367 50.7519C72.7179 49.3732 72.4883 47.8752 72.4883 46.3091C72.4883 40.7261 75.406 36.0081 79.4117 34.4775Z" fill="#FEBD2F"/>
</svg>
