<svg width="100" height="100" viewBox="0 0 100 100" fill="none" xmlns="http://www.w3.org/2000/svg">
<g clip-path="url(#clip0_2266_5725)">
<path d="M96.2304 8.34932C101.113 13.2302 101.113 21.1521 96.2304 26.0349L85.2148 37.0505L62.9492 14.7888L73.9648 3.77315C78.8476 -1.10928 86.7773 -1.10928 91.6601 3.77315L96.2304 8.34932ZM8.76754 68.9841L58.5351 19.2067L80.8007 41.4646L31.0156 91.2302C29.707 92.5388 28.0859 93.4958 26.289 94.0232L5.97457 99.824C4.33785 100.293 2.57613 99.824 1.373 98.4568C0.169294 97.4216 -0.287152 95.6638 0.180426 94.0232L5.98629 73.7107C6.49605 71.9138 7.45308 70.2927 8.76754 68.9841ZM48.7109 20.195L20.1953 48.7107L3.12496 31.6208C-0.536175 27.9685 -0.536175 22.031 3.12496 18.3708L18.371 3.12471C22.0312 -0.536426 27.9687 -0.536426 31.621 3.12471L35.4882 6.98408C35.4296 7.04072 35.3515 7.10127 35.2929 7.16572L22.7929 19.6677C21.5625 20.8786 21.5625 22.8708 22.7929 24.0817C24.0039 25.3122 25.996 25.3122 27.207 24.0817L39.707 11.5837C39.7656 11.5212 39.6679 11.4548 39.8828 11.3864L48.7109 20.195ZM88.6132 60.1169C88.5546 60.156 88.4765 60.2341 88.4179 60.2927L75.9179 72.7927C74.6875 74.0036 74.6875 75.9958 75.9179 77.2068C77.1289 78.4372 79.121 78.4372 80.332 77.2068L92.832 64.7068C92.8906 64.4724 92.7929 64.57 93.0078 64.5114L96.875 68.3786C100.527 72.031 100.527 77.9685 96.875 81.6208L81.621 96.8747C77.9687 100.527 72.0312 100.527 68.3789 96.8747L51.289 79.8044L79.8046 51.2888L88.6132 60.1169Z" fill="white"/>
</g>
<defs>
<clipPath id="clip0_2266_5725">
<rect width="100" height="100" fill="white"/>
</clipPath>
</defs>
</svg>
