<?xml version="1.0" encoding="utf-8"?>
<!-- Generator: Adobe Illustrator 18.1.1, SVG Export Plug-In . SVG Version: 6.00 Build 0)  -->
<svg version="1.1" id="Layer_1" xmlns="http://www.w3.org/2000/svg" xmlns:xlink="http://www.w3.org/1999/xlink" x="0px" y="0px"
	 viewBox="0 0 550 550" enable-background="new 0 0 550 550" xml:space="preserve">
<g>
	<path fill="#686661" d="M340.2,532.2c-4.9-3.6-10.2-6.4-15.3-9.5c-7.7-4.8-15.5-9.3-23.3-14.1c-4.5-2.8-9.3-3.6-14.4-3.6
		c-26.2,0-52.3,0-78.5,0c-5.8,0-6-0.1-6-6c0-23.8,0.1-47.5,0.1-71.3c0-0.5,0-0.9,0-1.4c0-0.5,0.1-1,0.5-1.3c0.7-0.4,0.9,0.3,1.3,0.6
		c4.6,3.7,9.1,7.5,13.8,11c15,11.4,35.3,7.2,44.3-9.2c3.2-5.9,4.3-12.2,2.8-18.9c-0.1-0.6-0.2-1.2-0.3-1.8c-0.4-1.4,0.2-1.9,1.6-1.8
		c8.5,0.1,17.1,0,25.6,0.1c8.3,0.1,15.5-2.5,21.7-8.1c0.7-0.7,1.5-1.4,2.2-2.1c18.9-18.8,37.7-37.6,56.6-56.3
		c10-9.9,20-19.8,30-29.6c4.1-4,9.4-4.7,13.8-2.1c6.1,3.6,7.6,11.2,3.1,16.8c-7.3,9.2-14.9,18.3-22.3,27.4c-1,1.3-2.1,2.5-2.9,3.9
		c-3.4,5.5-0.4,12.2,6.1,13.3c1.2,0.2,2.5,0.3,3.7,0.3c32.8,0,65.7,0,98.5,0c4.3,0,8.3,0.5,11.8,3.3c4.5,3.5,6.4,9,4.7,14.3
		c-1.6,5.3-6.4,9.3-12,9.5c-5.9,0.2-11.8,0.2-17.7,0.2c-10.9,0.1-21.7,0-32.6,0.2c-7,0.1-11,5.4-9,11.8c1.2,3.7,4.5,5.9,9,6
		c5.6,0.1,11.2,0.1,16.8,0.1c12.4,0,24.8-0.1,37.3-0.1c7.6-0.1,13.9,2.3,17.4,9.6c0.1,0.2,0.1,0.4,0.2,0.7c0.5,2.6,0.1,5.2,0.2,7.7
		c-0.7,4.8-4.4,6.9-8.2,8.7c-2.6,1.2-5.5,1.5-8.4,1.5c-17.8,0-35.5,0-53.3,0c-1.1,0-2.2,0-3.3,0.1c-4.9,0.7-7.6,3.9-7.4,8.7
		c0.2,4.4,3.3,7.4,8.2,7.5c12.4,0.1,24.8,0,37.3,0c1.9,0,3.9,0.2,5.8,0.5c8.9,1.4,12.1,9,11.9,14.7c-0.3,7.3-6.8,13.1-14.3,13.2
		c-3,0-6.1,0-9.1,0c-14.1,0-28.3,0-42.4,0c-2.7,0-5.4,0.2-8.1,0.6c-4.5,0.6-7.3,3.4-7.4,7.6c-0.2,4.8,2.1,7.7,6.9,8.7
		c1.6,0.3,3.2,0.4,4.9,0.4c12.3,0,24.5,0,36.8,0c4.9,0,9.1,1.7,12,5.9c4.9,7.1,2.3,16.8-5.4,20.6c-1.1,0.6-2.3,1-3.5,1.4
		c-4.1,0-8.2,0-12.3,0c-3.1,0-6.3,0-9.4,0c-8,0-16.1,0-24.1,0c-6.1,0-12.1,0-18.2,0c-13.6,0-27.2,0-40.8,0c-0.8,0-1.7-0.2-2.5,0.2
		C363.2,532.2,351.7,532.2,340.2,532.2z"/>
	<path fill="#686661" d="M120.8,532.2c-1.6-1.2-3.2-2.4-4.6-3.8c-3.5-3.5-4.7-8-4.5-12.8c0.3-6.5,0.1-13,0.1-19.5
		c0.1-11.2,0-22.4,0-33.5c0-1.2,0-2.3-0.2-3.5c-0.8-5.5-4.1-8.5-9-8.3c-5.1,0.2-8.6,3.8-8.8,9.2c-0.1,1.1,0,2.2-0.1,3.3
		c0,12.3,0,24.7,0,37c0,7.2-4.9,12.9-11.7,13.8c-7.3,1-14.7-5-15.2-12.4c-0.1-1.1-0.1-2.2-0.1-3.3c0-18.2,0-36.5,0-54.7
		c0-4.2-0.9-8.1-5.2-10.1c-6.5-3-12.8,1.2-13,8.7c-0.2,10.6-0.1,21.1-0.1,31.7c0,4.4,0.1,8.9-1.2,13.1c-2.8,9.1-13.6,11.9-20.5,5.5
		c-1.6-1.5-2.9-3.2-4.2-4.9c-0.9-1.2-1.3-2.5-1.3-4.1c0-43.3,0.1-86.6-0.2-129.9c0-6.7,1.3-12.4,5-18c6.4-9.8,12.1-20,18.2-30
		c2.6-4.2,3.9-8.8,3.9-13.7c0-19.7,0-39.4,0-59.1c0-7.7-0.1-15.4,0-23.1c0-3,0.8-3.9,3.6-3.9c25.3,0,50.6,0,75.9,0.1
		c0.2,0,0.4,0.1,0.9,0.2c-3.7,4.6-7.3,9-11,13.4c-4.5,5.4-7.5,11.3-8.3,18.3c-1.6,14.4,10,29.1,24.3,30.9c3.7,0.5,7.4,0.4,11.1-0.2
		c2.5-0.4,3.3,0.2,3.3,2.8c0,7.7,0.1,15.4-0.2,23c-0.4,9.7,2.9,17.8,9.8,24.7c21.2,21.2,42.4,42.6,63.6,63.9
		c7.5,7.5,15,15.1,22.4,22.7c5.3,5.4,5.3,12.4,0.1,17.1c-4.2,3.7-10,3.6-15.1-0.4c-7.9-6.4-15.7-12.8-23.6-19.2
		c-2.3-1.9-4.5-4-7.2-5.5c-5.9-3.3-12.5,0-13.3,6.7c-0.2,1.8-0.3,3.7-0.3,5.6c0,32.1,0,64.1,0,96.2c0,4.2-0.2,8.4-3.1,11.9
		c-3.9,4.7-9.7,6.5-15,4.7c-5.5-1.9-9-7-9-13.3c0-15.7,0-31.4,0-47c0-0.9,0-1.9-0.1-2.8c-0.4-5.2-4-8.6-8.9-8.5
		c-5.1,0-8.7,3.3-8.8,8.6c-0.3,12-0.3,24.1-0.3,36.1c0,6.1,0.1,12.1,0.3,18.2c0.3,8.4-2.7,15-10.7,18.7
		C126.1,532.2,123.5,532.2,120.8,532.2z"/>
	<path fill="#B9B4B3" d="M20.7,124.7c0.1-0.1,0.2-0.1,0.4-0.1c1.3,2.8,1.2,5.6,0.1,8.4c-0.2,0-0.3,0-0.5,0
		C20.7,130.3,20.7,127.5,20.7,124.7z"/>
	<path fill="#888480" d="M428.2,24.1c0,0.1,0,0.3,0.1,0.4c-2.7,1.2-5.3,1.2-8,0c0.1-0.1,0.1-0.3,0-0.4
		C423,24.1,425.6,24.1,428.2,24.1z"/>
	<path fill="#797571" d="M529.3,432.1c-0.1,0.1-0.3,0.1-0.4,0.2c0-2.7-0.1-5.4-0.1-8.1c0.2,0,0.3,0,0.5,0
		C529.3,426.8,529.3,429.4,529.3,432.1z"/>
	<path fill="#686661" d="M21.2,133c0-2.8-0.1-5.6-0.1-8.4c3.5-7,9.6-9.7,17-9.6c11.3,0.1,22.6,0.3,34,0.2c6.5-0.1,13,0,19.6-0.1
		c1.6,0,3.3-0.1,4.8-0.6c3.7-1.2,6-4.1,6.2-7.9c0.2-4-2-7.2-5.7-8.7c-1.8-0.7-3.6-0.9-5.5-0.9c-12.7,0-25.4,0-38.2-0.1
		c-8,0-13.8-5.6-13.9-13.2c-0.1-7.5,5.9-13.7,13.7-13.7c18.2-0.1,36.3-0.1,54.5-0.1c1.7,0,3.4-0.1,5.1-0.4c5.1-0.9,8.2-4.3,8.2-8.9
		c0-4.6-3.2-8-8.3-8.8c-1.5-0.2-3.1-0.3-4.6-0.3c-12.2,0-24.4,0-36.5,0c-9-0.1-14.7-6.3-13.8-14.9c0.5-4.9,4.7-9.6,9.3-11.3
		c3.3-1.1,6.5-0.8,9.8-0.9c8.7-0.1,17.4-0.1,26.1-0.2c4.7,0,9.3,0,14,0c6.5,0,13,0,19.6,0c24.6,0,49.1,0,73.7,0
		c12.6,7.6,25.3,15,37.9,22.8c4.7,2.9,9.8,4.2,15.2,4.2c24.9,0,49.8,0,74.7-0.1c1.8,0,3.6-0.2,5.3-0.1c3.7,0.2,4.6,1.2,4.6,4.9
		c0,4.7,0,9.5,0,14.2c0,19.6,0,39.3-0.1,58.9c0,0.7,0,1.4,0,2c-0.8,0.5-1.1-0.2-1.4-0.5c-4.7-3.7-9.3-7.5-14-11.2
		c-18-13.9-42.8-4.8-47.6,17.4c-0.9,4.1-0.3,8.2,0.5,12.2c0.3,1.5,0.1,2-1.5,2c-8.5-0.1-17.1,0.1-25.6-0.1c-9-0.1-16.7,3-23.1,9.3
		c-25.4,25.3-50.9,50.5-76.3,75.8c-3.7,3.7-7.4,7.4-11.1,10.9c-6.3,6-15.4,4.4-18.7-3.2c-1.9-4.5-0.8-8.5,2.2-12.1
		c7-8.5,13.9-17,20.9-25.6c1.4-1.7,3-3.4,4.1-5.4c3.1-5.6-0.2-12.1-6.4-13c-1.4-0.2-2.8-0.3-4.2-0.3c-32.4,0-64.7,0-97.1,0
		c-3.6,0-7.1-0.1-10.4-1.9c-5.2-2.8-8.3-8.4-7.4-13.6c1-6.1,5.6-10.7,11.8-11.6c2.2-0.3,4.5-0.4,6.7-0.4c14.2,0,28.4,0,42.6,0
		c1.7,0,3.4,0,5.1-0.5c4-1.2,6.3-4.4,6.2-8.5c-0.1-4.1-2.6-7.3-6.5-8.4c-2.9-0.8-5.9-0.5-8.8-0.5c-15.8,0-31.5-0.3-47.3,0.2
		C32.1,142.8,25.3,140.5,21.2,133z"/>
	<path fill="#686661" d="M420.3,24.5c2.7,0,5.3,0,8,0c7,2.7,10.3,8,10.1,16.6c-0.3,13.6-0.2,27.2-0.2,40.7c0,4.9,0.1,9.8,0.2,14.7
		c0.1,5.8,3.4,9.2,8.8,9.2c5.2,0,9-3.7,9-9.2c0.1-13,0-26.1,0-39.1c0-3.8,0.7-7.4,3.3-10.4c3.5-4,9.3-5.7,13.9-4.2
		c5.3,1.8,9.5,7.1,9.8,12.5c0.1,1.1,0.1,2.2,0.1,3.3c0,17.8,0,35.7,0,53.5c0,1.8,0.1,3.6,0.6,5.3c1.4,4.5,5.1,6.9,9.8,6.4
		c4.2-0.4,7.2-3.5,7.7-8c0.1-1.2,0.1-2.5,0.1-3.7c0.1-12.9-0.2-25.8,0.3-38.6c0.3-7.1,4.9-12,12.1-12.7c6.1-0.7,12.2,3.7,14.2,9.8
		c0.7,2,0.8,4,0.8,6.1c0,8,0.1,16,0.1,24c0,4,0,8.1,0,12.1c0,5.4,0,10.9,0,16.3c0,9.7,0,19.4,0,29c0,18.4,0,36.9,0,55.3
		c-7.4,12.3-14.8,24.7-22.4,37c-3.3,5.3-4.6,10.9-4.6,17c0,20.3,0,40.7,0,61c0,6.2,0,12.4,0,18.6c0,3.3-0.6,4-3.9,4
		c-24.5,0-49-0.1-73.6-0.1c-0.7,0-1.8,0.3-2.1-0.4c-0.4-0.8,0.6-1.3,1.1-1.9c4.2-5.4,9-10.3,12.6-16.1c7.7-12.6,6.1-26.8-4.3-36.7
		c-6.1-5.9-13.8-7.7-22-7.5c-1.9,0-3.7,0.2-5.5,0.6c-1.5,0.3-1.9-0.1-1.8-1.6c0.1-8.9,0-17.8,0-26.8c0-8.2-2.7-15.4-8.4-21.3
		c-6.9-7.2-14-14.3-21.1-21.4c-21.9-22.1-43.9-44.2-65.8-66.3c-3.3-3.3-5.3-7.1-4.1-11.9c2.1-8.1,11.4-10.8,18.5-5.4
		c4.3,3.2,8.4,6.7,12.5,10.1c5,4.1,9.9,8.2,14.9,12.3c1.4,1.2,2.9,2.3,4.6,3.1c4.9,2.1,10.4-0.3,11.9-5.5c0.6-2,0.6-4,0.6-6
		c0-32.2,0-64.4,0-96.6c0-1.9,0.1-3.9,0.4-5.8c0.9-6.9,7.1-12.3,13.7-12.1c7.2,0.3,12.9,5.8,12.9,13.2c0.2,15.6,0.1,31.2,0.1,46.8
		c0,1.4,0,2.8,0.2,4.2c0.7,5.6,4,8.5,9.5,8.3c4.6-0.2,8-3.8,8.2-9c0.2-5.4,0.2-10.9,0.1-16.3c0-12-0.1-24.1-0.2-36.1
		c0-2.6,0-5.1,0.5-7.6C412.5,31.3,415.4,27.1,420.3,24.5z"/>
</g>
</svg>
