<?xml version="1.0" encoding="utf-8"?>
<!-- Generator: Adobe Illustrator 18.1.1, SVG Export Plug-In . SVG Version: 6.00 Build 0)  -->
<svg version="1.1" id="Layer_1" xmlns="http://www.w3.org/2000/svg" xmlns:xlink="http://www.w3.org/1999/xlink" x="0px" y="0px"
	 viewBox="0 0 550 550" enable-background="new 0 0 550 550" xml:space="preserve">
<g>
	<path fill="#686661" d="M238.2,20.1c24.3,0,48.6,0,72.9,0c7.1,2.2,11.4,8,11.5,15.6c0.1,8.2,0,16.4,0,24.7c0,3.5,0.5,4.2,4,5.1
		c15.3,3.7,30,9.1,44.2,16.1c5.1,2.5,10,5.3,14.8,8.3c3.4,2.2,4.3,2.1,7.2-0.8c5.7-5.7,11.4-11.4,17.1-17.1
		c3.6-3.5,7.7-5.6,12.9-5.3c4.4,0.3,7.9,2.5,10.9,5.5c14.7,14.5,29.3,29.1,43.8,43.8c4.9,4.9,6.8,10.8,4.3,17.6
		c-1,2.7-2.8,4.9-4.8,6.9c-5.5,5.6-11.1,11.1-16.7,16.7c-2.6,2.6-2.7,3.2-0.8,6.4c9,14.7,16.1,30.3,21.2,46.8
		c1.4,4.4,2.5,8.8,3.7,13.2c0.8,2.8,1.4,3.4,4.3,3.3c4.8-0.2,9.6,0.6,14.4,0.5c3.5-0.1,6.9-0.6,10.4-0.5c6,0.3,10.9,2.6,14.5,7.6
		c1.1,1.6,1.3,3.3,1.5,5.1c0,23.5,0,47,0,70.5c0,4.9-3.1,7.8-6.8,10.2c-2.9,1.8-6.1,2.6-9.6,2.5c-7.9-0.1-15.9,0-23.8,0
		c-3.6,0-4.3,0.6-5.2,4c-4.3,17.2-10.6,33.6-18.8,49.2c-1.9,3.5-3.9,7-6,10.4c-1.7,2.7-1.4,3.9,0.8,6.1c6.2,6.2,12.5,12.2,18.3,18.7
		c5.7,6.3,5.7,15.4-0.1,21.5c-12.1,12.7-24.5,25.1-37,37.4c-2.7,2.6-5.5,5.2-8.2,7.8c-6.8,6.7-16.1,6.8-23,0.1
		c-5.9-5.8-11.7-11.7-17.6-17.6c-2.6-2.6-3.4-2.7-6.6-0.7c-13.6,8.3-28,14.9-43.1,19.9c-5.4,1.8-10.9,3.3-16.4,4.7
		c-3.5,0.9-4,1.5-4,5.1c0,6-0.2,12.1,0.1,18.1c0.2,3.7,0.5,7.2-0.5,10.8c-1.2,4.3-3.5,7.8-7.4,10.1c-1.5,0.9-3.3,1.3-5,1.3
		c-23.3,0-46.6,0-69.9,0c-5.5,0-10.3-5.3-11.8-9.6c-1.3-3.5-1.7-7.2-1.2-11c0.5-3.7,0.1-7.4,0.2-11.1c0-3,0-6,0-9c0-3-0.8-4-3.7-4.8
		c-4.6-1.2-9.3-2.5-13.9-3.9c-7.5-2.4-14.8-5.1-22-8.3c-8.4-3.7-16.5-8-24.3-12.7c-2.7-1.6-3.6-1.5-5.9,0.8
		c-5.7,5.7-11.4,11.5-17.2,17.1c-3.4,3.4-7.3,5.7-12.4,5.6c-4.1-0.1-7.7-1.5-10.5-4.3c-15.3-15.1-30.6-30.4-45.7-45.7
		c-6.3-6.4-6.3-15.2-0.3-22c5-5.7,10.4-11,16-16c5.2-4.7,5.3-5,1.7-10.9c-10.6-17.7-18.2-36.6-23.3-56.5c-0.1-0.4-0.2-0.7-0.3-1.1
		c-0.9-3.2-1.6-3.8-4.9-3.8c-8.3,0-16.6,0-24.9,0c-5.6,0-10.1-2.4-13.5-6.8c-1.4-1.7-2-3.7-2-5.9c0-23.5,0-47,0-70.5
		c-0.3-6.1,6.9-11.3,12.1-12.3c3.2-0.6,6.4-0.6,9.6-0.4c4.2,0.4,8.4,0.5,12.6,0c2.2-0.3,4.4-0.1,6.5-0.1c3,0,3.5-0.4,4.3-3.2
		c1.7-6,3.2-12.1,5.3-18c5.1-14.9,11.6-29,19.8-42.4c1.6-2.6,1.5-3.6-0.7-5.8c-5.8-5.9-11.7-11.7-17.6-17.6c-2.5-2.5-4.4-5.5-5.1-9
		c-1.2-5.6,0.8-10.4,4.6-14.3c10.9-11.1,21.9-22,32.8-32.9c4-4,8-8.1,12.1-12c3.7-3.5,8.1-5.6,13.3-4.8c4.2,0.6,7.7,2.9,10.7,5.9
		c5.6,5.5,11.1,11.1,16.7,16.7c2.6,2.6,3.1,2.7,6.2,0.8c10.9-6.7,22.3-12.3,34.2-16.9c8.2-3.2,16.5-5.7,25-7.8c4-1,4.6-1.7,4.6-5.9
		c0-5.7,0.1-11.5,0-17.2c-0.1-3.1-0.6-6.2,0-9.3c0.9-4.5,2.9-8.3,6.7-11.1C235.2,20.9,236.8,20.8,238.2,20.1z"/>
	<path fill="#FFFFFF" d="M425.5,275c0,82.8-67.8,150.4-151,150.4c-82.9,0-150.6-67.9-150.5-150.9c0.1-83,68-150.6,151.1-150.6
		C358,124,425.5,191.8,425.5,275z"/>
	<path fill="#686661" d="M274.7,153.8c66.4,0,120.9,54.3,121,120.6c0.1,67.1-54.3,121.2-121.8,121.1
		c-66.1-0.1-120.6-55.1-120.1-122.1C154.3,208,208.6,153.8,274.7,153.8z"/>
	<path fill="#FFFFFF" d="M311.2,289.8c-11.4,0-22.8,0-34.3,0c-2.1,0-4.2-0.2-6.3-0.7c-6-1.7-10.1-6.6-10.7-12.9c0-0.3,0-0.6,0-0.9
		c0-24.3-0.1-48.6,0.1-72.9c0-7.1,4.9-12.6,11.6-14c6.9-1.4,13.5,1.7,16.4,7.8c1.3,2.8,1.7,5.8,1.7,8.9c0,16.7,0,33.5,0,50.2
		c0,4,0.8,4.6,4.7,4.6c16.9-0.1,33.8-0.2,50.6-0.1c5.4,0,10.4,1.6,13.8,6.2c3.4,4.7,3.6,9.9,1.3,15.1c-2.4,5.5-7.2,8.1-12.9,8.3
		c-9.4,0.3-18.9,0.1-28.4,0.2c-2.5,0-5.1,0-7.6,0C311.2,289.7,311.2,289.7,311.2,289.8z"/>
</g>
</svg>
