<svg width="28" height="36" viewBox="0 0 28 36" fill="none" xmlns="http://www.w3.org/2000/svg">
<path d="M5.94587 0.123381C5.12353 0.420529 4.51542 0.973362 4.12152 1.77497L3.90039 2.23106V4.37328V6.51551L4.12152 6.9716C4.52924 7.79394 5.14426 8.33986 5.98733 8.62319C6.38123 8.7614 6.55399 8.7614 13.8859 8.74757L21.3837 8.72684L21.8675 8.49189C22.5032 8.18092 23.0491 7.635 23.3601 6.99924L23.5951 6.51551V4.37328V2.23106L23.3601 1.74733C23.0491 1.11157 22.5032 0.565647 21.8675 0.254679L21.3837 0.0197248L13.8514 0.00590393C6.55399 -0.00791689 6.30521 -0.00791689 5.94587 0.123381Z" fill="#2B2B29"/>
<path d="M1.29526 5.09054C0.977386 5.43606 0.742432 5.78158 0.521299 6.22385C-0.0522651 7.40553 -0.0108027 6.35515 0.00992857 19.5748L0.0306598 31.3225L0.217241 31.8338C0.54203 32.7115 0.866819 33.209 1.54404 33.8793C2.26272 34.598 2.96067 34.9919 3.89358 35.2268C4.42568 35.3581 4.69518 35.3651 13.7478 35.3651C22.8005 35.3651 23.07 35.3581 23.6021 35.2268C23.8992 35.1508 24.4106 34.9573 24.7354 34.7984C25.2122 34.5634 25.4471 34.3838 25.9792 33.8448C26.5183 33.3127 26.6979 33.0777 26.9329 32.6009C27.0918 32.2761 27.2853 31.7647 27.3613 31.4676C27.4995 30.9355 27.4995 30.666 27.4995 19.3675C27.4995 8.06893 27.4995 7.79942 27.3613 7.26732C27.1609 6.4588 26.7256 5.6572 26.1866 5.07672L25.7236 4.58608L25.6752 5.47752C25.613 6.57628 25.5024 7.09456 25.1569 7.82015C24.6594 8.88436 23.8232 9.73434 22.7659 10.2457C21.5704 10.8331 22.1301 10.7985 13.7478 10.7985C5.36549 10.7985 5.92524 10.8331 4.72974 10.2457C3.67936 9.73434 2.89157 8.95346 2.3802 7.89617C2.00704 7.14293 1.88265 6.58319 1.81355 5.44988L1.75826 4.59299L1.29526 5.09054ZM9.85726 14.6338C9.98165 14.7029 10.1268 14.8619 10.189 14.9724C10.3133 15.2143 10.3272 15.6842 10.2166 15.8915C10.0646 16.1748 7.30732 19.4366 7.0931 19.5886C6.80977 19.7959 6.35368 19.8028 6.0358 19.6024C5.7041 19.402 4.48787 17.0041 4.48787 16.5549C4.48787 15.9952 4.90941 15.5805 5.46915 15.5875C5.91142 15.5944 6.14637 15.7809 6.45734 16.3822C6.60937 16.6724 6.75449 16.9143 6.78213 16.9143C6.80286 16.9143 7.25204 16.4029 7.77032 15.7809C8.28169 15.159 8.77924 14.62 8.86216 14.5785C9.11785 14.4541 9.6154 14.4818 9.85726 14.6338ZM22.5102 16.2439C23.1598 16.5964 23.1805 17.5431 22.5517 17.9577C22.3651 18.0821 22.1647 18.089 18.9997 18.089C15.8348 18.089 15.6344 18.0821 15.4478 17.9577C15.3441 17.8886 15.1921 17.7366 15.123 17.6329C14.8949 17.2805 14.9848 16.624 15.2958 16.3683C15.6136 16.1057 15.8348 16.085 19.1034 16.1057C22.0127 16.1196 22.3029 16.1334 22.5102 16.2439ZM5.95288 22.3458C6.05654 22.4011 6.28458 22.6568 6.47116 22.9263C6.65083 23.1889 6.81668 23.4031 6.83741 23.4031C6.85814 23.4031 7.02399 23.1889 7.20366 22.9263C7.563 22.4011 7.83251 22.2145 8.21949 22.2145C8.77233 22.2145 9.18695 22.6361 9.18695 23.2096C9.18695 23.4999 9.13167 23.6035 8.63412 24.3153C8.33006 24.7437 8.08128 25.1169 8.08128 25.1376C8.08128 25.1584 8.21258 25.3657 8.37843 25.5868C9.13167 26.6234 9.18695 26.727 9.18695 27.0656C9.18695 27.6254 8.77924 28.04 8.2264 28.04C7.81869 28.04 7.55609 27.8603 7.18293 27.3144C7.01017 27.0726 6.85814 26.8652 6.83741 26.8652C6.81668 26.8652 6.66465 27.0726 6.49189 27.3144C6.11873 27.8603 5.85613 28.04 5.44842 28.04C4.89559 28.04 4.48787 27.6254 4.48787 27.0656C4.48787 26.727 4.54316 26.6234 5.29639 25.5868C5.46224 25.3657 5.59354 25.1584 5.59354 25.1376C5.59354 25.1169 5.34476 24.7437 5.04071 24.3153C4.55007 23.6174 4.48787 23.493 4.48787 23.2235C4.48787 22.719 4.68827 22.4288 5.15818 22.2698C5.4346 22.1731 5.64191 22.1938 5.95288 22.3458ZM22.4964 24.3499C23.2082 24.6885 23.1736 25.7734 22.4342 26.1051C22.1647 26.2295 21.9505 26.2433 18.9997 26.2433C16.049 26.2433 15.8348 26.2295 15.5653 26.1051C14.8328 25.7734 14.7913 24.7023 15.4962 24.3499C15.6896 24.2531 16.1319 24.2393 18.9859 24.2393C21.8537 24.2393 22.2891 24.2531 22.4964 24.3499Z" fill="#2B2B29"/>
<path d="M16.6357 35.3366C24.5556 32.9166 27.1772 24.1534 27.4981 20.0743V31.2117C26.9481 33.6316 24.4273 34.9699 23.2356 35.3366H16.6357Z" fill="#2B2B29"/>
</svg>
