<svg width="31" height="35" viewBox="0 0 31 35" fill="none" xmlns="http://www.w3.org/2000/svg">
<path d="M11.6901 0H18.3708C19.2932 0 20.041 0.747768 20.041 1.67019C20.041 2.59261 19.2932 3.34037 18.3708 3.34037H11.6901C10.7677 3.34037 10.0199 2.59261 10.0199 1.67019C10.0199 0.747768 10.7677 0 11.6901 0Z" fill="#2B2B29"/>
<path d="M3.29037 10.3766L2.10464 9.19087C1.434 8.52023 1.38371 7.43627 2.05292 6.7642V6.7642C2.71642 6.09787 3.78099 6.15729 4.4459 6.8222L5.64533 8.02163C8.23412 5.9506 11.491 4.71466 15.0318 4.71466C23.3326 4.71466 30.0635 11.4455 30.0635 19.7463C30.0635 28.0472 23.3493 34.778 15.0318 34.778C6.71425 34.778 9.98192e-05 28.0472 9.98192e-05 19.7463C9.98192e-05 16.2055 1.23604 12.9487 3.29037 10.3766ZM13.3616 19.7463C13.3616 20.6688 14.1094 21.4165 15.0318 21.4165V21.4165C15.9542 21.4165 16.702 20.6688 16.702 19.7463V13.0656C16.702 12.1432 15.9542 11.3954 15.0318 11.3954V11.3954C14.1094 11.3954 13.3616 12.1432 13.3616 13.0656V19.7463Z" fill="#2B2B29"/>
</svg>
