<svg width="238" height="229" viewBox="0 0 238 229" fill="none" xmlns="http://www.w3.org/2000/svg">
<g filter="url(#filter0_d_3867_9652)">
<rect x="6" y="6" width="207" height="197.072" rx="16" fill="#FFCF54"/>
<rect x="67.9648" y="38" width="83.0722" height="83.0722" rx="15.104" fill="#E0E4E8"/>
<path d="M128.361 65.401C123.678 60.7458 117.369 58.0929 110.766 58.0024C104.164 57.9119 97.7842 60.3909 92.9753 64.9159C88.1663 69.4409 85.3041 75.6577 84.9931 82.2536C84.6821 88.8494 86.9466 95.308 91.3085 100.265L91.3276 100.287C91.3626 100.324 91.3955 100.362 91.4336 100.398C91.5121 100.487 91.6012 100.588 91.7062 100.693C92.1179 101.13 92.6156 101.478 93.168 101.715C93.7204 101.951 94.3157 102.071 94.9165 102.067C95.5174 102.063 96.1109 101.935 96.66 101.691C97.2091 101.446 97.7018 101.092 98.1074 100.648C99.6682 98.952 101.564 97.598 103.675 96.6719C105.785 95.7457 108.065 95.2675 110.37 95.2675C112.675 95.2675 114.955 95.7457 117.066 96.6719C119.177 97.598 121.072 98.952 122.633 100.648C123.042 101.094 123.538 101.45 124.092 101.694C124.645 101.937 125.243 102.063 125.848 102.064C126.452 102.065 127.05 101.94 127.604 101.697C128.158 101.454 128.655 101.099 129.065 100.655L129.405 100.283L129.424 100.262C133.722 95.4091 136.006 89.0987 135.809 82.6192C135.611 76.1396 132.949 69.9796 128.364 65.3967L128.361 65.401Z" fill="#665E66"/>
<g clip-path="url(#clip0_3867_9652)">
<path d="M92.4244 65.401C97.1075 60.7458 103.417 58.0929 110.019 58.0024C116.622 57.9119 123.001 60.3909 127.81 64.9159C132.619 69.4409 135.481 75.6577 135.792 82.2536C136.103 88.8494 133.839 95.308 129.477 100.265L129.458 100.287C129.423 100.324 129.39 100.362 129.352 100.398C129.273 100.487 129.184 100.588 129.079 100.693C128.667 101.13 128.17 101.478 127.617 101.715C127.065 101.951 126.469 102.071 125.869 102.067C125.268 102.063 124.674 101.935 124.125 101.691C123.576 101.446 123.083 101.092 122.678 100.648C121.117 98.952 119.221 97.598 117.111 96.6719C115 95.7457 112.72 95.2675 110.415 95.2675C108.11 95.2675 105.83 95.7457 103.719 96.6719C101.609 97.598 99.713 98.952 98.1523 100.648C97.7436 101.094 97.2469 101.45 96.6936 101.694C96.1402 101.937 95.5423 102.063 94.9376 102.064C94.333 102.065 93.7348 101.94 93.181 101.697C92.6272 101.454 92.1298 101.099 91.7202 100.655L91.3798 100.283L91.3607 100.262C87.063 95.4091 84.7795 89.0987 84.9766 82.6192C85.1737 76.1396 87.8365 69.9796 92.4212 65.3967L92.4244 65.401Z" fill="#454045"/>
</g>
<path d="M117.493 80.2579C118.667 81.4642 115.306 87.46 113.856 88.8721C112.405 90.2843 110.277 90.4511 109.103 89.2448C107.928 88.0385 108.153 85.9158 109.603 84.5036C111.054 83.0915 116.318 79.0516 117.493 80.2579Z" fill="#FEBD2F"/>
<rect x="123" y="83.957" width="7.24391" height="3.62195" rx="1.81098" fill="#8D858D"/>
<rect x="109.113" y="70.6777" width="7.24391" height="3.62195" rx="1.81098" transform="rotate(-90 109.113 70.6777)" fill="#8D858D"/>
<path d="M117.312 78.0924C118.632 79.4482 114.855 86.1872 113.224 87.7744C111.593 89.3616 109.202 89.5491 107.882 88.1933C106.562 86.8374 106.814 84.4516 108.444 82.8644C110.075 81.2772 115.992 76.7365 117.312 78.0924Z" fill="#FFCC5B"/>
<rect x="89.8008" y="83.957" width="7.24391" height="3.62195" rx="1.81098" fill="#8D858D"/>
<path d="M87.3125 164.072V143.709H92.8409V151.942H93.1193L99.2443 143.709H105.688L98.8068 152.777L105.847 164.072H99.2443L94.6705 156.436L92.8409 158.822V164.072H87.3125ZM107.328 164.072V143.709H116.118C117.629 143.709 118.952 144.007 120.085 144.604C121.219 145.2 122.1 146.039 122.73 147.119C123.36 148.2 123.675 149.462 123.675 150.907C123.675 152.366 123.35 153.629 122.7 154.696C122.057 155.763 121.152 156.585 119.986 157.162C118.826 157.738 117.47 158.027 115.919 158.027H110.669V153.731H114.805C115.455 153.731 116.009 153.619 116.466 153.393C116.93 153.161 117.285 152.833 117.53 152.409C117.782 151.985 117.908 151.484 117.908 150.907C117.908 150.324 117.782 149.827 117.53 149.416C117.285 148.998 116.93 148.68 116.466 148.461C116.009 148.236 115.455 148.123 114.805 148.123H112.857V164.072H107.328ZM131.232 143.709V164.072H125.703V143.709H131.232Z" fill="#4A5568"/>
</g>
<defs>
<filter id="filter0_d_3867_9652" x="0.217206" y="0.940054" width="237.36" height="227.432" filterUnits="userSpaceOnUse" color-interpolation-filters="sRGB">
<feFlood flood-opacity="0" result="BackgroundImageFix"/>
<feColorMatrix in="SourceAlpha" type="matrix" values="0 0 0 0 0 0 0 0 0 0 0 0 0 0 0 0 0 0 127 0" result="hardAlpha"/>
<feOffset dx="9.39704" dy="10.1199"/>
<feGaussianBlur stdDeviation="7.58992"/>
<feComposite in2="hardAlpha" operator="out"/>
<feColorMatrix type="matrix" values="0 0 0 0 0.0375 0 0 0 0 0.18975 0 0 0 0 0.3 0 0 0 0.06 0"/>
<feBlend mode="normal" in2="BackgroundImageFix" result="effect1_dropShadow_3867_9652"/>
<feBlend mode="normal" in="SourceGraphic" in2="effect1_dropShadow_3867_9652" result="shape"/>
</filter>
<clipPath id="clip0_3867_9652">
<rect width="13.6627" height="44.0241" fill="white" transform="matrix(-1 0 0 1 136.629 58)"/>
</clipPath>
</defs>
</svg>
