<svg width="238" height="229" viewBox="0 0 238 229" fill="none" xmlns="http://www.w3.org/2000/svg">
<g filter="url(#filter0_d_3867_9664)">
<rect x="6.23438" y="6" width="207" height="197" rx="16" fill="#FFCF54"/>
<rect x="68.2344" y="38" width="83" height="83" rx="15.0909" fill="#E8ECEF"/>
<path fill-rule="evenodd" clip-rule="evenodd" d="M126.895 53.013C128.045 53.0187 129.173 53.5713 129.884 54.4828C130.403 55.1506 130.693 55.9968 130.696 56.8392C130.721 72.1979 130.721 87.5566 130.696 102.915C130.691 103.992 130.218 105.051 129.425 105.765C128.739 106.383 127.822 106.738 126.895 106.742C115.451 106.759 104.006 106.759 92.5617 106.742C91.4885 106.736 90.4344 106.258 89.7234 105.452C89.1153 104.763 88.7646 103.85 88.7608 102.915C88.736 87.5566 88.736 72.1979 88.7608 56.8392C88.7665 55.7857 89.2221 54.7361 89.996 54.0223C90.6879 53.3833 91.6181 53.0168 92.5617 53.013C104.006 52.9957 115.451 52.9957 126.895 53.013Z" fill="#665E66"/>
<path d="M118.188 53H126.933C129.017 53 130.706 54.6891 130.706 56.7727V102.982C130.706 105.065 129.017 106.755 126.933 106.755H118.188V53Z" fill="#454045"/>
<path d="M100.961 65.3879L105.014 61.337C105.136 61.2243 105.163 61.1918 105.302 61.1001C105.51 60.9607 105.745 60.8633 105.991 60.8136C106.154 60.7812 106.198 60.785 106.364 60.7773C106.425 60.7812 106.488 60.7831 106.551 60.7869C106.612 60.7964 106.675 60.8022 106.736 60.8136C107.47 60.9607 108.089 61.5662 108.236 62.3148C108.346 62.8668 108.199 63.4608 107.84 63.8982C107.8 63.9478 107.756 63.9918 107.714 64.0376L102.311 69.4408C102.265 69.4829 102.221 69.5268 102.174 69.565C102.04 69.6758 101.891 69.7655 101.734 69.8343C101.627 69.882 101.515 69.9222 101.396 69.9489C101.31 69.9699 101.222 69.9833 101.134 69.9909C101.014 70.0024 100.894 70.0024 100.774 69.9909C100.604 69.9737 100.437 69.9317 100.279 69.8687C100.057 69.7846 99.851 69.6624 99.6753 69.502C99.6466 69.4752 99.639 69.4676 99.6104 69.4408L96.9097 66.7383C96.8811 66.7096 96.8734 66.7039 96.8467 66.6733C96.4341 66.2188 96.2584 65.5579 96.3997 64.9525C96.5373 64.368 96.9651 63.86 97.5247 63.6251C97.7329 63.5391 97.9563 63.4895 98.1817 63.4799C98.2218 63.478 98.2314 63.478 98.2715 63.478C98.2868 63.478 98.302 63.4799 98.3173 63.4799C98.3555 63.4818 98.367 63.4818 98.4071 63.4837C98.8559 63.5181 99.2838 63.7187 99.6104 64.0376L100.961 65.3879Z" fill="#FFA600"/>
<path d="M121.37 64.6072C121.431 64.6168 121.494 64.6225 121.555 64.6339C122.17 64.7562 122.709 65.1993 122.947 65.7761C123.161 66.2956 123.135 66.9087 122.867 67.4072C122.602 67.9038 122.107 68.2705 121.555 68.3813C121.391 68.4137 121.349 68.4099 121.183 68.4175H111.633C111.57 68.4137 111.509 68.4137 111.446 68.408C110.701 68.3354 110.027 67.7911 109.805 67.0615C109.606 66.4045 109.792 65.6481 110.283 65.1573C110.548 64.8918 110.892 64.7084 111.26 64.6339C111.425 64.6015 111.467 64.6053 111.633 64.5977H121.183C121.246 64.6015 121.307 64.6034 121.37 64.6072Z" fill="black"/>
<path d="M121.37 64.6072C121.431 64.6168 121.494 64.6225 121.555 64.6339C122.17 64.7562 122.709 65.1993 122.947 65.7761C123.161 66.2956 123.135 66.9087 122.867 67.4072C122.602 67.9038 122.107 68.2705 121.555 68.3813C121.391 68.4137 121.349 68.4099 121.183 68.4175H111.633C111.57 68.4137 111.509 68.4137 111.446 68.408C110.701 68.3354 110.027 67.7911 109.805 67.0615C109.606 66.4045 109.792 65.6481 110.283 65.1573C110.548 64.8918 110.892 64.7084 111.26 64.6339C111.425 64.6015 111.467 64.6053 111.633 64.5977H121.183C121.246 64.6015 121.307 64.6034 121.37 64.6072Z" fill="#8D858D"/>
<path d="M121.178 98.9775H98.2585C98.0923 98.9698 98.0503 98.9737 97.8861 98.9412C97.3341 98.8304 96.8394 98.4637 96.5739 97.9671C96.3104 97.4725 96.2779 96.8594 96.4937 96.336C96.7554 95.7058 97.3761 95.2359 98.0713 95.1671C98.1343 95.1614 98.1955 95.1614 98.2585 95.1576H121.178C121.241 95.1614 121.302 95.1633 121.365 95.1671C121.529 95.192 121.573 95.192 121.732 95.2397C122.27 95.404 122.727 95.8165 122.943 96.336C123.157 96.8555 123.13 97.4686 122.862 97.9671C122.568 98.5191 121.991 98.9068 121.365 98.9679C121.302 98.9737 121.241 98.9737 121.178 98.9775ZM121.178 91.3377H98.2585C98.0923 91.3301 98.0503 91.3339 97.8861 91.3014C97.273 91.1792 96.7344 90.7399 96.4937 90.1593C96.232 89.5252 96.3409 88.7536 96.7821 88.2169C97.0992 87.8291 97.5728 87.5751 98.0713 87.5274C98.1343 87.5216 98.1955 87.5216 98.2585 87.5178H121.178C121.241 87.5216 121.302 87.5236 121.365 87.5274C121.426 87.5369 121.489 87.5427 121.55 87.5541C122.286 87.7012 122.902 88.3066 123.051 89.0553C123.174 89.6684 122.971 90.3369 122.528 90.7781C122.263 91.0436 121.919 91.2269 121.55 91.3014C121.386 91.3339 121.344 91.3301 121.178 91.3377ZM121.178 83.6979H98.2585C98.0923 83.6903 98.0503 83.6941 97.8861 83.6617C97.2138 83.528 96.6331 83.0085 96.4307 82.3419C96.2149 81.6276 96.4574 80.7948 97.0476 80.3116C97.336 80.0729 97.697 79.9239 98.0713 79.8876C98.1343 79.8819 98.1955 79.8819 98.2585 79.8781H121.178C121.241 79.8819 121.302 79.8838 121.365 79.8876C121.529 79.9124 121.573 79.9124 121.732 79.9602C122.27 80.1244 122.727 80.537 122.943 81.0565C123.157 81.576 123.13 82.1891 122.862 82.6876C122.568 83.2396 121.991 83.6273 121.365 83.6884C121.302 83.6941 121.241 83.6941 121.178 83.6979ZM121.178 76.0582H98.2585C98.0923 76.0505 98.0503 76.0543 97.8861 76.0219C97.273 75.8996 96.7344 75.4604 96.4937 74.8797C96.2072 74.1883 96.3677 73.3365 96.9082 72.7979C97.2176 72.4885 97.6339 72.2898 98.0713 72.2478C98.1343 72.2421 98.1955 72.2421 98.2585 72.2383H121.178C121.241 72.2421 121.302 72.244 121.365 72.2478C121.529 72.2727 121.573 72.2727 121.732 72.3204C122.27 72.4847 122.727 72.8972 122.943 73.4167C123.157 73.9362 123.13 74.5493 122.862 75.0478C122.568 75.5998 121.991 75.9875 121.365 76.0486C121.302 76.0543 121.241 76.0543 121.178 76.0582Z" fill="#8D858D"/>
<path d="M87.5469 164V143.636H93.0753V151.869H93.3537L99.4787 143.636H105.922L99.0412 152.705L106.081 164H99.4787L94.9048 156.364L93.0753 158.75V164H87.5469ZM118.266 150C118.213 149.337 117.965 148.82 117.521 148.449C117.083 148.078 116.417 147.892 115.522 147.892C114.952 147.892 114.485 147.962 114.12 148.101C113.762 148.233 113.497 148.416 113.325 148.648C113.152 148.88 113.063 149.145 113.056 149.443C113.043 149.688 113.086 149.911 113.185 150.109C113.291 150.302 113.457 150.477 113.683 150.636C113.908 150.789 114.196 150.928 114.548 151.054C114.899 151.18 115.317 151.293 115.8 151.392L117.471 151.75C118.598 151.989 119.562 152.304 120.364 152.695C121.166 153.086 121.823 153.546 122.333 154.077C122.844 154.6 123.218 155.19 123.457 155.847C123.702 156.503 123.828 157.219 123.835 157.994C123.828 159.333 123.493 160.467 122.83 161.395C122.167 162.323 121.219 163.029 119.987 163.513C118.76 163.997 117.285 164.239 115.562 164.239C113.792 164.239 112.247 163.977 110.928 163.453C109.616 162.929 108.595 162.124 107.866 161.037C107.143 159.943 106.779 158.545 106.772 156.841H112.022C112.055 157.464 112.211 157.988 112.489 158.412C112.768 158.836 113.159 159.158 113.663 159.376C114.173 159.595 114.78 159.705 115.482 159.705C116.072 159.705 116.566 159.632 116.964 159.486C117.362 159.34 117.663 159.138 117.869 158.879C118.074 158.621 118.18 158.326 118.187 157.994C118.18 157.683 118.077 157.411 117.879 157.179C117.686 156.94 117.368 156.728 116.924 156.543C116.48 156.35 115.88 156.171 115.124 156.006L113.096 155.568C111.293 155.177 109.871 154.524 108.83 153.609C107.796 152.688 107.282 151.432 107.289 149.841C107.282 148.548 107.627 147.418 108.323 146.45C109.026 145.476 109.997 144.717 111.237 144.173C112.483 143.63 113.911 143.358 115.522 143.358C117.166 143.358 118.588 143.633 119.788 144.183C120.987 144.733 121.912 145.509 122.562 146.51C123.218 147.504 123.549 148.668 123.556 150H118.266ZM131.466 143.636V164H125.938V143.636H131.466Z" fill="#4A5568"/>
</g>
<defs>
<filter id="filter0_d_3867_9664" x="0.451581" y="0.940054" width="237.36" height="227.36" filterUnits="userSpaceOnUse" color-interpolation-filters="sRGB">
<feFlood flood-opacity="0" result="BackgroundImageFix"/>
<feColorMatrix in="SourceAlpha" type="matrix" values="0 0 0 0 0 0 0 0 0 0 0 0 0 0 0 0 0 0 127 0" result="hardAlpha"/>
<feOffset dx="9.39704" dy="10.1199"/>
<feGaussianBlur stdDeviation="7.58992"/>
<feComposite in2="hardAlpha" operator="out"/>
<feColorMatrix type="matrix" values="0 0 0 0 0.0375 0 0 0 0 0.18975 0 0 0 0 0.3 0 0 0 0.06 0"/>
<feBlend mode="normal" in2="BackgroundImageFix" result="effect1_dropShadow_3867_9664"/>
<feBlend mode="normal" in="SourceGraphic" in2="effect1_dropShadow_3867_9664" result="shape"/>
</filter>
</defs>
</svg>
