<svg width="359" height="165" viewBox="0 0 359 165" fill="none" xmlns="http://www.w3.org/2000/svg">
<g filter="url(#filter0_d_3867_9648)">
<rect x="6" y="6" width="328" height="133" rx="20" fill="#FFCF54"/>
<path d="M27.3125 54V33.6364H36.1023C37.6136 33.6364 38.9361 33.9347 40.0696 34.5312C41.2031 35.1278 42.0848 35.9664 42.7145 37.0469C43.3442 38.1274 43.6591 39.3902 43.6591 40.8352C43.6591 42.2936 43.3343 43.5563 42.6847 44.6236C42.0417 45.6908 41.1368 46.5128 39.9702 47.0895C38.8101 47.6662 37.4545 47.9545 35.9034 47.9545H30.6534V43.6591H34.7898C35.4394 43.6591 35.9929 43.5464 36.4503 43.321C36.9143 43.089 37.2689 42.7609 37.5142 42.3366C37.7661 41.9124 37.892 41.4119 37.892 40.8352C37.892 40.2519 37.7661 39.7547 37.5142 39.3438C37.2689 38.9261 36.9143 38.608 36.4503 38.3892C35.9929 38.1638 35.4394 38.0511 34.7898 38.0511H32.8409V54H27.3125ZM52.7571 54.2784C51.1264 54.2784 49.7211 53.9669 48.5412 53.3438C47.3679 52.714 46.4631 51.8125 45.8267 50.6392C45.197 49.4593 44.8821 48.0473 44.8821 46.4034C44.8821 44.8258 45.2003 43.447 45.8366 42.267C46.473 41.0871 47.3712 40.169 48.5312 39.5128C49.6913 38.8565 51.0601 38.5284 52.6378 38.5284C53.7912 38.5284 54.8352 38.7074 55.7699 39.0653C56.7045 39.4233 57.5033 39.9437 58.1662 40.6264C58.8291 41.3026 59.3395 42.1245 59.6974 43.0923C60.0554 44.0601 60.2344 45.1506 60.2344 46.3636V47.6364H46.5923V44.6136H55.1832C55.1766 44.1761 55.0639 43.7917 54.8452 43.4602C54.633 43.1222 54.3447 42.8603 53.9801 42.6747C53.6222 42.4825 53.2145 42.3864 52.7571 42.3864C52.313 42.3864 51.9053 42.4825 51.5341 42.6747C51.1629 42.8603 50.8646 43.1188 50.6392 43.4503C50.4205 43.7817 50.3045 44.1695 50.2912 44.6136V47.875C50.2912 48.3655 50.3939 48.803 50.5994 49.1875C50.8049 49.572 51.0999 49.8736 51.4844 50.0923C51.8688 50.3111 52.3329 50.4205 52.8764 50.4205C53.2543 50.4205 53.599 50.3674 53.9105 50.2614C54.2287 50.1553 54.5005 50.0028 54.7259 49.804C54.9512 49.5985 55.117 49.3532 55.223 49.0682H60.2344C60.062 50.1288 59.6544 51.0502 59.0114 51.8324C58.3684 52.608 57.5166 53.2112 56.456 53.642C55.402 54.0663 54.169 54.2784 52.7571 54.2784ZM62.4741 54V38.7273H67.8036V41.6307H67.9627C68.2411 40.5568 68.6819 39.7713 69.2852 39.2741C69.895 38.777 70.6076 38.5284 71.4229 38.5284C71.6616 38.5284 71.8969 38.5483 72.1289 38.5881C72.3675 38.6212 72.5962 38.6709 72.815 38.7372V43.4205C72.5432 43.3277 72.2085 43.258 71.8107 43.2116C71.413 43.1652 71.0716 43.142 70.7866 43.142C70.2496 43.142 69.7657 43.2647 69.3349 43.5099C68.9106 43.7486 68.5759 44.0866 68.3306 44.5241C68.0853 44.955 67.9627 45.4621 67.9627 46.0455V54H62.4741ZM79.5465 50.3807L79.5863 43.858H80.3022L84.0011 38.7273H90.1658L83.9613 46.7216H82.4102L79.5465 50.3807ZM74.6147 54V33.6364H80.1033V54H74.6147ZM84.0408 54L80.5408 47.9545L84.1204 44.0568L90.3249 54H84.0408ZM98.2844 54.2784C96.6538 54.2784 95.2485 53.9669 94.0685 53.3438C92.8952 52.714 91.9904 51.8125 91.354 50.6392C90.7243 49.4593 90.4094 48.0473 90.4094 46.4034C90.4094 44.8258 90.7276 43.447 91.364 42.267C92.0004 41.0871 92.8986 40.169 94.0586 39.5128C95.2186 38.8565 96.5875 38.5284 98.1651 38.5284C99.3185 38.5284 100.363 38.7074 101.297 39.0653C102.232 39.4233 103.031 39.9437 103.694 40.6264C104.356 41.3026 104.867 42.1245 105.225 43.0923C105.583 44.0601 105.762 45.1506 105.762 46.3636V47.6364H92.1197V44.6136H100.711C100.704 44.1761 100.591 43.7917 100.373 43.4602C100.16 43.1222 99.872 42.8603 99.5075 42.6747C99.1495 42.4825 98.7418 42.3864 98.2844 42.3864C97.8403 42.3864 97.4326 42.4825 97.0614 42.6747C96.6902 42.8603 96.3919 43.1188 96.1665 43.4503C95.9478 43.7817 95.8318 44.1695 95.8185 44.6136V47.875C95.8185 48.3655 95.9213 48.803 96.1268 49.1875C96.3323 49.572 96.6272 49.8736 97.0117 50.0923C97.3962 50.3111 97.8602 50.4205 98.4038 50.4205C98.7816 50.4205 99.1263 50.3674 99.4379 50.2614C99.756 50.1553 100.028 50.0028 100.253 49.804C100.479 49.5985 100.644 49.3532 100.75 49.0682H105.762C105.589 50.1288 105.182 51.0502 104.539 51.8324C103.896 52.608 103.044 53.2112 101.983 53.642C100.929 54.0663 99.6964 54.2784 98.2844 54.2784ZM113.49 45.4091V54H108.001V38.7273H113.212V41.6307H113.371C113.702 40.6629 114.286 39.9039 115.121 39.3537C115.963 38.8035 116.944 38.5284 118.064 38.5284C119.144 38.5284 120.082 38.777 120.878 39.2741C121.68 39.7647 122.3 40.4408 122.737 41.3026C123.181 42.1643 123.4 43.1487 123.393 44.2557V54H117.905V45.4091C117.911 44.6534 117.719 44.0601 117.328 43.6293C116.944 43.1984 116.407 42.983 115.717 42.983C115.267 42.983 114.872 43.0824 114.534 43.2812C114.203 43.4735 113.947 43.7519 113.768 44.1165C113.589 44.4744 113.497 44.9053 113.49 45.4091ZM130.359 54.2386C129.384 54.2386 128.522 54.0795 127.773 53.7614C127.031 53.4366 126.448 52.946 126.023 52.2898C125.599 51.6335 125.387 50.7983 125.387 49.7841C125.387 48.9489 125.53 48.2363 125.815 47.6463C126.1 47.0497 126.497 46.5625 127.008 46.1847C127.518 45.8068 128.112 45.5185 128.788 45.3196C129.47 45.1207 130.206 44.9915 130.995 44.9318C131.85 44.8655 132.536 44.786 133.053 44.6932C133.577 44.5937 133.955 44.4579 134.187 44.2855C134.419 44.1065 134.535 43.8712 134.535 43.5795V43.5398C134.535 43.142 134.382 42.8371 134.077 42.625C133.772 42.4129 133.381 42.3068 132.904 42.3068C132.38 42.3068 131.953 42.4228 131.621 42.6548C131.297 42.8802 131.101 43.2282 131.035 43.6989H125.984C126.05 42.7708 126.345 41.9157 126.869 41.1335C127.399 40.3447 128.171 39.715 129.185 39.2443C130.2 38.767 131.466 38.5284 132.984 38.5284C134.077 38.5284 135.058 38.6577 135.927 38.9162C136.795 39.1681 137.534 39.5227 138.144 39.9801C138.754 40.4309 139.218 40.9612 139.536 41.571C139.861 42.1742 140.023 42.8305 140.023 43.5398V54H134.893V51.8523H134.773C134.469 52.4223 134.097 52.883 133.66 53.2344C133.229 53.5857 132.735 53.8409 132.178 54C131.628 54.1591 131.022 54.2386 130.359 54.2386ZM132.148 50.7784C132.566 50.7784 132.957 50.6922 133.322 50.5199C133.693 50.3475 133.995 50.099 134.227 49.7741C134.459 49.4493 134.575 49.0549 134.575 48.5909V47.3182C134.429 47.3778 134.273 47.4342 134.107 47.4872C133.948 47.5402 133.776 47.59 133.59 47.6364C133.411 47.6828 133.219 47.7259 133.013 47.7656C132.815 47.8054 132.606 47.8419 132.387 47.875C131.963 47.9413 131.615 48.0507 131.343 48.2031C131.078 48.349 130.879 48.5312 130.746 48.75C130.621 48.9621 130.558 49.2008 130.558 49.4659C130.558 49.8902 130.707 50.215 131.005 50.4403C131.303 50.6657 131.684 50.7784 132.148 50.7784ZM148.135 33.6364V54H142.646V33.6364H148.135ZM155.863 50.3807L155.903 43.858H156.619L160.317 38.7273H166.482L160.278 46.7216H158.727L155.863 50.3807ZM150.931 54V33.6364H156.42V54H150.931ZM160.357 54L156.857 47.9545L160.437 44.0568L166.641 54H160.357ZM172.167 54.2386C171.193 54.2386 170.331 54.0795 169.582 53.7614C168.84 53.4366 168.256 52.946 167.832 52.2898C167.408 51.6335 167.196 50.7983 167.196 49.7841C167.196 48.9489 167.338 48.2363 167.623 47.6463C167.908 47.0497 168.306 46.5625 168.816 46.1847C169.327 45.8068 169.92 45.5185 170.596 45.3196C171.279 45.1207 172.015 44.9915 172.804 44.9318C173.659 44.8655 174.345 44.786 174.862 44.6932C175.386 44.5937 175.763 44.4579 175.995 44.2855C176.227 44.1065 176.343 43.8712 176.343 43.5795V43.5398C176.343 43.142 176.191 42.8371 175.886 42.625C175.581 42.4129 175.19 42.3068 174.713 42.3068C174.189 42.3068 173.761 42.4228 173.43 42.6548C173.105 42.8802 172.91 43.2282 172.843 43.6989H167.792C167.859 42.7708 168.154 41.9157 168.677 41.1335C169.208 40.3447 169.98 39.715 170.994 39.2443C172.008 38.767 173.274 38.5284 174.792 38.5284C175.886 38.5284 176.867 38.6577 177.735 38.9162C178.604 39.1681 179.343 39.5227 179.953 39.9801C180.563 40.4309 181.027 40.9612 181.345 41.571C181.67 42.1742 181.832 42.8305 181.832 43.5398V54H176.701V51.8523H176.582C176.277 52.4223 175.906 52.883 175.468 53.2344C175.038 53.5857 174.544 53.8409 173.987 54C173.437 54.1591 172.83 54.2386 172.167 54.2386ZM173.957 50.7784C174.375 50.7784 174.766 50.6922 175.13 50.5199C175.502 50.3475 175.803 50.099 176.035 49.7741C176.267 49.4493 176.383 49.0549 176.383 48.5909V47.3182C176.237 47.3778 176.082 47.4342 175.916 47.4872C175.757 47.5402 175.584 47.59 175.399 47.6364C175.22 47.6828 175.028 47.7259 174.822 47.7656C174.623 47.8054 174.414 47.8419 174.196 47.875C173.771 47.9413 173.423 48.0507 173.152 48.2031C172.886 48.349 172.688 48.5312 172.555 48.75C172.429 48.9621 172.366 49.2008 172.366 49.4659C172.366 49.8902 172.515 50.215 172.814 50.4403C173.112 50.6657 173.493 50.7784 173.957 50.7784ZM189.943 45.4091V54H184.455V38.7273H189.665V41.6307H189.824C190.155 40.6629 190.739 39.9039 191.574 39.3537C192.416 38.8035 193.397 38.5284 194.517 38.5284C195.598 38.5284 196.536 38.777 197.331 39.2741C198.133 39.7647 198.753 40.4408 199.19 41.3026C199.634 42.1643 199.853 43.1487 199.847 44.2557V54H194.358V45.4091C194.365 44.6534 194.172 44.0601 193.781 43.6293C193.397 43.1984 192.86 42.983 192.17 42.983C191.72 42.983 191.325 43.0824 190.987 43.2812C190.656 43.4735 190.401 43.7519 190.222 44.1165C190.043 44.4744 189.95 44.9053 189.943 45.4091ZM213.344 54H207.379L214.1 33.6364H221.657L228.379 54H222.413L217.958 39.2443H217.799L213.344 54ZM212.231 45.9659H223.447V50.1023H212.231V45.9659ZM230.419 54V38.7273H235.63V41.6307H235.789C236.107 40.6761 236.65 39.9205 237.419 39.3636C238.188 38.8068 239.103 38.5284 240.164 38.5284C241.238 38.5284 242.162 38.8134 242.938 39.3835C243.713 39.947 244.181 40.696 244.34 41.6307H244.499C244.757 40.696 245.308 39.947 246.15 39.3835C246.991 38.8134 247.979 38.5284 249.113 38.5284C250.578 38.5284 251.764 38.9991 252.672 39.9403C253.587 40.8816 254.044 42.1345 254.044 43.6989V54H248.556V45.0909C248.556 44.4214 248.387 43.8977 248.049 43.5199C247.711 43.1354 247.257 42.9432 246.686 42.9432C246.123 42.9432 245.676 43.1354 245.344 43.5199C245.019 43.8977 244.857 44.4214 244.857 45.0909V54H239.607V45.0909C239.607 44.4214 239.438 43.8977 239.1 43.5199C238.762 43.1354 238.308 42.9432 237.738 42.9432C237.36 42.9432 237.035 43.0294 236.763 43.2017C236.491 43.3741 236.279 43.6226 236.127 43.9474C235.981 44.2656 235.908 44.6468 235.908 45.0909V54H230.419ZM261.007 54.2386C260.033 54.2386 259.171 54.0795 258.422 53.7614C257.679 53.4366 257.096 52.946 256.672 52.2898C256.248 51.6335 256.036 50.7983 256.036 49.7841C256.036 48.9489 256.178 48.2363 256.463 47.6463C256.748 47.0497 257.146 46.5625 257.656 46.1847C258.167 45.8068 258.76 45.5185 259.436 45.3196C260.119 45.1207 260.855 44.9915 261.643 44.9318C262.499 44.8655 263.185 44.786 263.702 44.6932C264.225 44.5937 264.603 44.4579 264.835 44.2855C265.067 44.1065 265.183 43.8712 265.183 43.5795V43.5398C265.183 43.142 265.031 42.8371 264.726 42.625C264.421 42.4129 264.03 42.3068 263.553 42.3068C263.029 42.3068 262.601 42.4228 262.27 42.6548C261.945 42.8802 261.75 43.2282 261.683 43.6989H256.632C256.698 42.7708 256.993 41.9157 257.517 41.1335C258.047 40.3447 258.82 39.715 259.834 39.2443C260.848 38.767 262.114 38.5284 263.632 38.5284C264.726 38.5284 265.707 38.6577 266.575 38.9162C267.444 39.1681 268.183 39.5227 268.793 39.9801C269.402 40.4309 269.866 40.9612 270.185 41.571C270.509 42.1742 270.672 42.8305 270.672 43.5398V54H265.541V51.8523H265.422C265.117 52.4223 264.746 52.883 264.308 53.2344C263.877 53.5857 263.384 53.8409 262.827 54C262.277 54.1591 261.67 54.2386 261.007 54.2386ZM262.797 50.7784C263.214 50.7784 263.606 50.6922 263.97 50.5199C264.341 50.3475 264.643 50.099 264.875 49.7741C265.107 49.4493 265.223 49.0549 265.223 48.5909V47.3182C265.077 47.3778 264.921 47.4342 264.756 47.4872C264.597 47.5402 264.424 47.59 264.239 47.6364C264.06 47.6828 263.867 47.7259 263.662 47.7656C263.463 47.8054 263.254 47.8419 263.036 47.875C262.611 47.9413 262.263 48.0507 261.991 48.2031C261.726 48.349 261.527 48.5312 261.395 48.75C261.269 48.9621 261.206 49.2008 261.206 49.4659C261.206 49.8902 261.355 50.215 261.653 50.4403C261.952 50.6657 262.333 50.7784 262.797 50.7784ZM278.783 33.6364V54H273.294V33.6364H278.783ZM281.58 54V38.7273H287.068V54H281.58ZM284.324 37.1364C283.581 37.1364 282.945 36.8911 282.415 36.4006C281.884 35.91 281.619 35.3201 281.619 34.6307C281.619 33.9413 281.884 33.3513 282.415 32.8608C282.945 32.3703 283.581 32.125 284.324 32.125C285.073 32.125 285.709 32.3703 286.233 32.8608C286.763 33.3513 287.028 33.9413 287.028 34.6307C287.028 35.3201 286.763 35.91 286.233 36.4006C285.709 36.8911 285.073 37.1364 284.324 37.1364ZM294.12 54.2386C293.146 54.2386 292.284 54.0795 291.535 53.7614C290.793 53.4366 290.209 52.946 289.785 52.2898C289.361 51.6335 289.149 50.7983 289.149 49.7841C289.149 48.9489 289.291 48.2363 289.576 47.6463C289.861 47.0497 290.259 46.5625 290.77 46.1847C291.28 45.8068 291.873 45.5185 292.549 45.3196C293.232 45.1207 293.968 44.9915 294.757 44.9318C295.612 44.8655 296.298 44.786 296.815 44.6932C297.339 44.5937 297.717 44.4579 297.949 44.2855C298.181 44.1065 298.297 43.8712 298.297 43.5795V43.5398C298.297 43.142 298.144 42.8371 297.839 42.625C297.534 42.4129 297.143 42.3068 296.666 42.3068C296.142 42.3068 295.715 42.4228 295.383 42.6548C295.058 42.8802 294.863 43.2282 294.797 43.6989H289.745C289.812 42.7708 290.107 41.9157 290.63 41.1335C291.161 40.3447 291.933 39.715 292.947 39.2443C293.961 38.767 295.227 38.5284 296.745 38.5284C297.839 38.5284 298.82 38.6577 299.689 38.9162C300.557 39.1681 301.296 39.5227 301.906 39.9801C302.516 40.4309 302.98 40.9612 303.298 41.571C303.623 42.1742 303.785 42.8305 303.785 43.5398V54H298.654V51.8523H298.535C298.23 52.4223 297.859 52.883 297.422 53.2344C296.991 53.5857 296.497 53.8409 295.94 54C295.39 54.1591 294.783 54.2386 294.12 54.2386ZM295.91 50.7784C296.328 50.7784 296.719 50.6922 297.083 50.5199C297.455 50.3475 297.756 50.099 297.988 49.7741C298.22 49.4493 298.336 49.0549 298.336 48.5909V47.3182C298.19 47.3778 298.035 47.4342 297.869 47.4872C297.71 47.5402 297.538 47.59 297.352 47.6364C297.173 47.6828 296.981 47.7259 296.775 47.7656C296.576 47.8054 296.368 47.8419 296.149 47.875C295.725 47.9413 295.377 48.0507 295.105 48.2031C294.84 48.349 294.641 48.5312 294.508 48.75C294.382 48.9621 294.319 49.2008 294.319 49.4659C294.319 49.8902 294.468 50.215 294.767 50.4403C295.065 50.6657 295.446 50.7784 295.91 50.7784ZM311.737 51.2159L311.658 52.3295C311.591 53.2841 311.432 54.1989 311.18 55.0739C310.935 55.9489 310.673 56.7244 310.395 57.4006C310.123 58.0767 309.908 58.6004 309.749 58.9716H306.368C306.474 58.6004 306.623 58.0634 306.815 57.3608C307.014 56.6648 307.193 55.8759 307.352 54.9943C307.518 54.1193 307.601 53.2311 307.601 52.3295V51.2159H311.737Z" fill="#2B2B29"/>
<path d="M27.9787 88H26.348L30.0121 77.8182H31.7869L35.451 88H33.8203L30.9418 79.6676H30.8622L27.9787 88ZM28.2521 84.0128H33.5419V85.3054H28.2521V84.0128ZM36.802 88V80.3636H38.2289V81.6065H38.3233C38.4824 81.1856 38.7426 80.8575 39.1039 80.6222C39.4651 80.3835 39.8977 80.2642 40.4015 80.2642C40.9119 80.2642 41.3394 80.3835 41.6841 80.6222C42.0321 80.8608 42.289 81.1889 42.4547 81.6065H42.5343C42.7166 81.1989 43.0066 80.8741 43.4043 80.6321C43.802 80.3868 44.276 80.2642 44.8262 80.2642C45.5189 80.2642 46.084 80.4813 46.5215 80.9155C46.9623 81.3497 47.1827 82.0043 47.1827 82.8793V88H45.6962V83.0185C45.6962 82.5014 45.5553 82.1269 45.2736 81.8949C44.9919 81.6629 44.6555 81.5469 44.2644 81.5469C43.7805 81.5469 43.4043 81.696 43.1358 81.9943C42.8674 82.2893 42.7331 82.6688 42.7331 83.1328V88H41.2516V82.924C41.2516 82.5097 41.1223 82.1766 40.8638 81.9247C40.6053 81.6728 40.2689 81.5469 39.8546 81.5469C39.5729 81.5469 39.3127 81.6214 39.074 81.7706C38.8387 81.9164 38.6481 82.1203 38.5023 82.3821C38.3598 82.6439 38.2885 82.9472 38.2885 83.2919V88H36.802ZM51.3974 88.169C50.9135 88.169 50.476 88.0795 50.0849 87.9006C49.6938 87.7183 49.3839 87.4548 49.1552 87.1101C48.9298 86.7654 48.8171 86.3428 48.8171 85.8423C48.8171 85.4115 48.9 85.0568 49.0657 84.7784C49.2314 84.5 49.4551 84.2796 49.7369 84.1172C50.0186 83.9548 50.3335 83.8321 50.6815 83.7493C51.0295 83.6664 51.3841 83.6035 51.7454 83.5604C52.2028 83.5073 52.574 83.4643 52.859 83.4311C53.1441 83.3946 53.3512 83.3366 53.4805 83.2571C53.6097 83.1776 53.6744 83.0483 53.6744 82.8693V82.8345C53.6744 82.4003 53.5517 82.0639 53.3065 81.8253C53.0645 81.5866 52.7032 81.4673 52.2227 81.4673C51.7222 81.4673 51.3278 81.5784 51.0394 81.8004C50.7544 82.0192 50.5572 82.2628 50.4478 82.5312L49.0508 82.2131C49.2165 81.7491 49.4585 81.3745 49.7766 81.0895C50.0981 80.8011 50.4677 80.5923 50.8853 80.4631C51.3029 80.3305 51.7421 80.2642 52.2028 80.2642C52.5077 80.2642 52.8308 80.3007 53.1722 80.3736C53.5169 80.4432 53.8384 80.5724 54.1367 80.7614C54.4383 80.9503 54.6853 81.2204 54.8775 81.5717C55.0697 81.9197 55.1658 82.3722 55.1658 82.929V88H53.7141V86.956H53.6545C53.5584 87.1482 53.4142 87.3371 53.2219 87.5227C53.0297 87.7083 52.7828 87.8625 52.4812 87.9851C52.1796 88.1077 51.8183 88.169 51.3974 88.169ZM51.7205 86.9759C52.1315 86.9759 52.4828 86.8946 52.7745 86.7322C53.0695 86.5698 53.2932 86.3577 53.4457 86.0959C53.6014 85.8307 53.6793 85.5473 53.6793 85.2457V84.2614C53.6263 84.3144 53.5236 84.3641 53.3711 84.4105C53.2219 84.4536 53.0513 84.4917 52.859 84.5249C52.6668 84.5547 52.4795 84.5829 52.2972 84.6094C52.1149 84.6326 51.9625 84.6525 51.8398 84.669C51.5515 84.7055 51.288 84.7668 51.0494 84.853C50.814 84.9392 50.6251 85.0634 50.4826 85.2259C50.3434 85.3849 50.2738 85.5971 50.2738 85.8622C50.2738 86.2301 50.4097 86.5085 50.6815 86.6974C50.9532 86.883 51.2996 86.9759 51.7205 86.9759ZM58.6323 77.8182V88H57.1458V77.8182H58.6323ZM60.6321 88V80.3636H62.1186V88H60.6321ZM61.3828 79.1854C61.1243 79.1854 60.9022 79.0992 60.7166 78.9268C60.5343 78.7512 60.4432 78.5424 60.4432 78.3004C60.4432 78.0552 60.5343 77.8464 60.7166 77.674C60.9022 77.4983 61.1243 77.4105 61.3828 77.4105C61.6413 77.4105 61.8617 77.4983 62.044 77.674C62.2296 77.8464 62.3224 78.0552 62.3224 78.3004C62.3224 78.5424 62.2296 78.7512 62.044 78.9268C61.8617 79.0992 61.6413 79.1854 61.3828 79.1854ZM66.3407 88.169C65.8568 88.169 65.4193 88.0795 65.0282 87.9006C64.6371 87.7183 64.3272 87.4548 64.0985 87.1101C63.8732 86.7654 63.7605 86.3428 63.7605 85.8423C63.7605 85.4115 63.8433 85.0568 64.0091 84.7784C64.1748 84.5 64.3985 84.2796 64.6802 84.1172C64.9619 83.9548 65.2768 83.8321 65.6248 83.7493C65.9728 83.6664 66.3275 83.6035 66.6887 83.5604C67.1461 83.5073 67.5173 83.4643 67.8024 83.4311C68.0874 83.3946 68.2946 83.3366 68.4238 83.2571C68.5531 83.1776 68.6177 83.0483 68.6177 82.8693V82.8345C68.6177 82.4003 68.4951 82.0639 68.2498 81.8253C68.0079 81.5866 67.6466 81.4673 67.166 81.4673C66.6655 81.4673 66.2711 81.5784 65.9828 81.8004C65.6977 82.0192 65.5005 82.2628 65.3912 82.5312L63.9941 82.2131C64.1599 81.7491 64.4018 81.3745 64.72 81.0895C65.0415 80.8011 65.411 80.5923 65.8287 80.4631C66.2463 80.3305 66.6854 80.2642 67.1461 80.2642C67.4511 80.2642 67.7742 80.3007 68.1156 80.3736C68.4603 80.4432 68.7818 80.5724 69.0801 80.7614C69.3817 80.9503 69.6286 81.2204 69.8208 81.5717C70.0131 81.9197 70.1092 82.3722 70.1092 82.929V88H68.6575V86.956H68.5978C68.5017 87.1482 68.3575 87.3371 68.1653 87.5227C67.9731 87.7083 67.7261 87.8625 67.4245 87.9851C67.1229 88.1077 66.7617 88.169 66.3407 88.169ZM66.6639 86.9759C67.0749 86.9759 67.4262 86.8946 67.7179 86.7322C68.0128 86.5698 68.2366 86.3577 68.389 86.0959C68.5448 85.8307 68.6227 85.5473 68.6227 85.2457V84.2614C68.5697 84.3144 68.4669 84.3641 68.3145 84.4105C68.1653 84.4536 67.9946 84.4917 67.8024 84.5249C67.6101 84.5547 67.4229 84.5829 67.2406 84.6094C67.0583 84.6326 66.9058 84.6525 66.7832 84.669C66.4949 84.7055 66.2314 84.7668 65.9927 84.853C65.7574 84.9392 65.5685 85.0634 65.426 85.2259C65.2868 85.3849 65.2172 85.5971 65.2172 85.8622C65.2172 86.2301 65.353 86.5085 65.6248 86.6974C65.8966 86.883 66.243 86.9759 66.6639 86.9759ZM78.6529 88.1491C78.0364 88.1491 77.4862 87.9917 77.0023 87.6768C76.5217 87.3587 76.1439 86.9062 75.8688 86.3196C75.597 85.7296 75.4611 85.022 75.4611 84.1967C75.4611 83.3714 75.5987 82.6655 75.8738 82.0788C76.1522 81.4922 76.5333 81.0431 77.0172 80.7315C77.5011 80.42 78.0497 80.2642 78.6628 80.2642C79.1368 80.2642 79.5179 80.3438 79.8063 80.5028C80.098 80.6586 80.3233 80.8409 80.4824 81.0497C80.6448 81.2585 80.7708 81.4425 80.8603 81.6016H80.9498V77.8182H82.4363V88H80.9846V86.8118H80.8603C80.7708 86.9742 80.6415 87.1598 80.4725 87.3686C80.3068 87.5774 80.0781 87.7597 79.7864 87.9155C79.4947 88.0713 79.1169 88.1491 78.6529 88.1491ZM78.981 86.8814C79.4086 86.8814 79.7698 86.7687 80.0648 86.5433C80.3631 86.3146 80.5885 85.9981 80.7409 85.5938C80.8967 85.1894 80.9746 84.7187 80.9746 84.1818C80.9746 83.6515 80.8984 83.1875 80.7459 82.7898C80.5935 82.392 80.3697 82.0821 80.0748 81.8601C79.7798 81.638 79.4152 81.527 78.981 81.527C78.5336 81.527 78.1607 81.643 77.8624 81.875C77.5641 82.107 77.3387 82.4235 77.1863 82.8246C77.0371 83.2256 76.9625 83.678 76.9625 84.1818C76.9625 84.6922 77.0388 85.1513 77.1912 85.5589C77.3437 85.9666 77.5691 86.2898 77.8674 86.5284C78.169 86.7637 78.5402 86.8814 78.981 86.8814ZM84.5579 88V80.3636H86.0444V88H84.5579ZM85.3086 79.1854C85.0501 79.1854 84.828 79.0992 84.6424 78.9268C84.4601 78.7512 84.369 78.5424 84.369 78.3004C84.369 78.0552 84.4601 77.8464 84.6424 77.674C84.828 77.4983 85.0501 77.4105 85.3086 77.4105C85.5671 77.4105 85.7875 77.4983 85.9698 77.674C86.1554 77.8464 86.2482 78.0552 86.2482 78.3004C86.2482 78.5424 86.1554 78.7512 85.9698 78.9268C85.7875 79.0992 85.5671 79.1854 85.3086 79.1854ZM97.4716 82.228L96.1243 82.4666C96.0679 82.2943 95.9785 82.1302 95.8558 81.9744C95.7365 81.8187 95.5741 81.6911 95.3686 81.5916C95.1631 81.4922 94.9063 81.4425 94.598 81.4425C94.1771 81.4425 93.8258 81.5369 93.544 81.7259C93.2623 81.9115 93.1214 82.1518 93.1214 82.4467C93.1214 82.7019 93.2159 82.9074 93.4048 83.0632C93.5938 83.219 93.8987 83.3466 94.3196 83.446L95.5327 83.7244C96.2353 83.8868 96.759 84.1371 97.1037 84.4751C97.4484 84.8132 97.6207 85.2524 97.6207 85.7926C97.6207 86.25 97.4882 86.6577 97.223 87.0156C96.9612 87.3703 96.5949 87.6487 96.1243 87.8509C95.657 88.053 95.1151 88.1541 94.4986 88.1541C93.6435 88.1541 92.9458 87.9718 92.4055 87.6072C91.8653 87.2393 91.5339 86.7173 91.4112 86.0412L92.848 85.8224C92.9375 86.197 93.1214 86.4804 93.3999 86.6726C93.6783 86.8615 94.0412 86.956 94.4886 86.956C94.9759 86.956 95.3653 86.8549 95.657 86.6527C95.9486 86.4472 96.0945 86.197 96.0945 85.902C96.0945 85.6634 96.005 85.4628 95.826 85.3004C95.6503 85.138 95.3802 85.0154 95.0156 84.9325L93.723 84.6491C93.0104 84.4867 92.4834 84.2282 92.142 83.8736C91.804 83.5189 91.6349 83.0698 91.6349 82.5263C91.6349 82.0755 91.7609 81.6811 92.0128 81.343C92.2647 81.005 92.6127 80.7415 93.0568 80.5526C93.5009 80.3603 94.0097 80.2642 94.5831 80.2642C95.4084 80.2642 96.058 80.4432 96.532 80.8011C97.0059 81.1558 97.3191 81.6314 97.4716 82.228ZM99.2551 88V80.3636H100.742V88H99.2551ZM100.006 79.1854C99.7473 79.1854 99.5253 79.0992 99.3397 78.9268C99.1574 78.7512 99.0662 78.5424 99.0662 78.3004C99.0662 78.0552 99.1574 77.8464 99.3397 77.674C99.5253 77.4983 99.7473 77.4105 100.006 77.4105C100.264 77.4105 100.485 77.4983 100.667 77.674C100.853 77.8464 100.945 78.0552 100.945 78.3004C100.945 78.5424 100.853 78.7512 100.667 78.9268C100.485 79.0992 100.264 79.1854 100.006 79.1854ZM104.228 83.4659V88H102.741V80.3636H104.168V81.6065H104.263C104.438 81.2022 104.714 80.8774 105.088 80.6321C105.466 80.3868 105.942 80.2642 106.515 80.2642C107.035 80.2642 107.491 80.3736 107.882 80.5923C108.273 80.8078 108.576 81.1293 108.792 81.5568C109.007 81.9844 109.115 82.513 109.115 83.1428V88H107.629V83.3217C107.629 82.7682 107.484 82.3357 107.196 82.0241C106.908 81.7093 106.512 81.5518 106.008 81.5518C105.663 81.5518 105.357 81.6264 105.088 81.7756C104.823 81.9247 104.612 82.1435 104.457 82.4318C104.304 82.7169 104.228 83.0616 104.228 83.4659ZM111.109 88V80.3636H112.595V88H111.109ZM111.859 79.1854C111.601 79.1854 111.379 79.0992 111.193 78.9268C111.011 78.7512 110.92 78.5424 110.92 78.3004C110.92 78.0552 111.011 77.8464 111.193 77.674C111.379 77.4983 111.601 77.4105 111.859 77.4105C112.118 77.4105 112.338 77.4983 112.521 77.674C112.706 77.8464 112.799 78.0552 112.799 78.3004C112.799 78.5424 112.706 78.7512 112.521 78.9268C112.338 79.0992 112.118 79.1854 111.859 79.1854ZM118.419 88V77.8182H119.906V81.6016H119.995C120.082 81.4425 120.206 81.2585 120.368 81.0497C120.531 80.8409 120.756 80.6586 121.044 80.5028C121.333 80.3438 121.714 80.2642 122.188 80.2642C122.804 80.2642 123.355 80.42 123.838 80.7315C124.322 81.0431 124.702 81.4922 124.977 82.0788C125.255 82.6655 125.395 83.3714 125.395 84.1967C125.395 85.022 125.257 85.7296 124.982 86.3196C124.707 86.9062 124.329 87.3587 123.848 87.6768C123.368 87.9917 122.819 88.1491 122.203 88.1491C121.739 88.1491 121.359 88.0713 121.064 87.9155C120.773 87.7597 120.544 87.5774 120.378 87.3686C120.212 87.1598 120.085 86.9742 119.995 86.8118H119.871V88H118.419ZM119.876 84.1818C119.876 84.7187 119.954 85.1894 120.11 85.5938C120.266 85.9981 120.491 86.3146 120.786 86.5433C121.081 86.7687 121.442 86.8814 121.87 86.8814C122.314 86.8814 122.685 86.7637 122.983 86.5284C123.282 86.2898 123.507 85.9666 123.659 85.5589C123.815 85.1513 123.893 84.6922 123.893 84.1818C123.893 83.678 123.817 83.2256 123.664 82.8246C123.515 82.4235 123.29 82.107 122.988 81.875C122.69 81.643 122.317 81.527 121.87 81.527C121.439 81.527 121.074 81.638 120.776 81.8601C120.481 82.0821 120.257 82.392 120.105 82.7898C119.952 83.1875 119.876 83.6515 119.876 84.1818ZM130.355 88.1541C129.603 88.1541 128.955 87.9934 128.411 87.6719C127.871 87.3471 127.453 86.8913 127.158 86.3047C126.867 85.7147 126.721 85.0237 126.721 84.2315C126.721 83.4493 126.867 82.7599 127.158 82.1634C127.453 81.5668 127.864 81.1011 128.391 80.7663C128.921 80.4316 129.541 80.2642 130.251 80.2642C130.681 80.2642 131.099 80.3355 131.503 80.478C131.908 80.6205 132.271 80.8442 132.592 81.1491C132.914 81.4541 133.167 81.8501 133.353 82.3374C133.538 82.8213 133.631 83.4096 133.631 84.1023V84.6293H127.561V83.5156H132.175C132.175 83.1245 132.095 82.7782 131.936 82.4766C131.777 82.1716 131.553 81.9313 131.265 81.7557C130.98 81.58 130.645 81.4922 130.26 81.4922C129.843 81.4922 129.478 81.5949 129.167 81.8004C128.858 82.0026 128.62 82.2678 128.451 82.5959C128.285 82.9207 128.202 83.2737 128.202 83.6548V84.5249C128.202 85.0353 128.292 85.4695 128.471 85.8274C128.653 86.1854 128.907 86.4588 129.231 86.6477C129.556 86.8333 129.936 86.9261 130.37 86.9261C130.652 86.9261 130.908 86.8864 131.14 86.8068C131.372 86.724 131.573 86.6013 131.742 86.4389C131.911 86.2765 132.04 86.076 132.13 85.8374L133.537 86.0909C133.424 86.5052 133.222 86.8681 132.93 87.1797C132.642 87.4879 132.279 87.7282 131.841 87.9006C131.407 88.0696 130.912 88.1541 130.355 88.1541ZM135.281 88V80.3636H136.717V81.5767H136.797C136.936 81.1657 137.181 80.8426 137.533 80.6072C137.887 80.3686 138.288 80.2493 138.736 80.2493C138.829 80.2493 138.938 80.2526 139.064 80.2592C139.193 80.2659 139.294 80.2741 139.367 80.2841V81.706C139.308 81.6894 139.201 81.6712 139.049 81.6513C138.897 81.6281 138.744 81.6165 138.592 81.6165C138.24 81.6165 137.927 81.6911 137.652 81.8402C137.38 81.986 137.165 82.1899 137.006 82.4517C136.847 82.7102 136.767 83.0052 136.767 83.3366V88H135.281ZM140.654 90.8636V80.3636H142.105V81.6016H142.23C142.316 81.4425 142.44 81.2585 142.602 81.0497C142.765 80.8409 142.99 80.6586 143.279 80.5028C143.567 80.3438 143.948 80.2642 144.422 80.2642C145.039 80.2642 145.589 80.42 146.073 80.7315C146.557 81.0431 146.936 81.4922 147.211 82.0788C147.49 82.6655 147.629 83.3714 147.629 84.1967C147.629 85.022 147.491 85.7296 147.216 86.3196C146.941 86.9062 146.563 87.3587 146.083 87.6768C145.602 87.9917 145.053 88.1491 144.437 88.1491C143.973 88.1491 143.593 88.0713 143.298 87.9155C143.007 87.7597 142.778 87.5774 142.612 87.3686C142.447 87.1598 142.319 86.9742 142.23 86.8118H142.14V90.8636H140.654ZM142.11 84.1818C142.11 84.7187 142.188 85.1894 142.344 85.5938C142.5 85.9981 142.725 86.3146 143.02 86.5433C143.315 86.7687 143.676 86.8814 144.104 86.8814C144.548 86.8814 144.919 86.7637 145.218 86.5284C145.516 86.2898 145.741 85.9666 145.894 85.5589C146.049 85.1513 146.127 84.6922 146.127 84.1818C146.127 83.678 146.051 83.2256 145.899 82.8246C145.749 82.4235 145.524 82.107 145.222 81.875C144.924 81.643 144.551 81.527 144.104 81.527C143.673 81.527 143.308 81.638 143.01 81.8601C142.715 82.0821 142.491 82.392 142.339 82.7898C142.186 83.1875 142.11 83.6515 142.11 84.1818ZM149.294 88V80.3636H150.731V81.5767H150.811C150.95 81.1657 151.195 80.8426 151.546 80.6072C151.901 80.3686 152.302 80.2493 152.749 80.2493C152.842 80.2493 152.952 80.2526 153.078 80.2592C153.207 80.2659 153.308 80.2741 153.381 80.2841V81.706C153.321 81.6894 153.215 81.6712 153.063 81.6513C152.91 81.6281 152.758 81.6165 152.605 81.6165C152.254 81.6165 151.941 81.6911 151.666 81.8402C151.394 81.986 151.178 82.1899 151.019 82.4517C150.86 82.7102 150.781 83.0052 150.781 83.3366V88H149.294ZM157.61 88.1541C156.895 88.1541 156.27 87.9901 155.736 87.6619C155.203 87.3338 154.788 86.8748 154.493 86.2848C154.198 85.6948 154.051 85.0054 154.051 84.2166C154.051 83.4245 154.198 82.7318 154.493 82.1385C154.788 81.5452 155.203 81.0845 155.736 80.7564C156.27 80.4283 156.895 80.2642 157.61 80.2642C158.326 80.2642 158.951 80.4283 159.485 80.7564C160.018 81.0845 160.433 81.5452 160.728 82.1385C161.023 82.7318 161.17 83.4245 161.17 84.2166C161.17 85.0054 161.023 85.6948 160.728 86.2848C160.433 86.8748 160.018 87.3338 159.485 87.6619C158.951 87.9901 158.326 88.1541 157.61 88.1541ZM157.615 86.9062C158.079 86.9062 158.464 86.7836 158.769 86.5384C159.074 86.2931 159.299 85.9666 159.445 85.5589C159.594 85.1513 159.669 84.7022 159.669 84.2116C159.669 83.7244 159.594 83.277 159.445 82.8693C159.299 82.4583 159.074 82.1286 158.769 81.88C158.464 81.6314 158.079 81.5071 157.615 81.5071C157.148 81.5071 156.76 81.6314 156.452 81.88C156.147 82.1286 155.92 82.4583 155.771 82.8693C155.625 83.277 155.552 83.7244 155.552 84.2116C155.552 84.7022 155.625 85.1513 155.771 85.5589C155.92 85.9666 156.147 86.2931 156.452 86.5384C156.76 86.7836 157.148 86.9062 157.615 86.9062ZM166.464 80.3636V81.5568H162.148V80.3636H166.464ZM163.331 88V79.4787C163.331 79.0014 163.436 78.6053 163.645 78.2905C163.854 77.9723 164.13 77.7353 164.475 77.5795C164.82 77.4205 165.194 77.3409 165.599 77.3409C165.897 77.3409 166.152 77.3658 166.364 77.4155C166.576 77.4619 166.734 77.505 166.836 77.5447L166.488 78.7479C166.419 78.728 166.329 78.7048 166.22 78.6783C166.111 78.6484 165.978 78.6335 165.822 78.6335C165.461 78.6335 165.202 78.723 165.047 78.902C164.894 79.081 164.818 79.3395 164.818 79.6776V88H163.331ZM170.988 88.1541C170.235 88.1541 169.587 87.9934 169.044 87.6719C168.504 87.3471 168.086 86.8913 167.791 86.3047C167.499 85.7147 167.354 85.0237 167.354 84.2315C167.354 83.4493 167.499 82.7599 167.791 82.1634C168.086 81.5668 168.497 81.1011 169.024 80.7663C169.554 80.4316 170.174 80.2642 170.883 80.2642C171.314 80.2642 171.732 80.3355 172.136 80.478C172.541 80.6205 172.903 80.8442 173.225 81.1491C173.546 81.4541 173.8 81.8501 173.986 82.3374C174.171 82.8213 174.264 83.4096 174.264 84.1023V84.6293H168.194V83.5156H172.807C172.807 83.1245 172.728 82.7782 172.569 82.4766C172.41 82.1716 172.186 81.9313 171.898 81.7557C171.613 81.58 171.278 81.4922 170.893 81.4922C170.476 81.4922 170.111 81.5949 169.8 81.8004C169.491 82.0026 169.253 82.2678 169.084 82.5959C168.918 82.9207 168.835 83.2737 168.835 83.6548V84.5249C168.835 85.0353 168.925 85.4695 169.104 85.8274C169.286 86.1854 169.539 86.4588 169.864 86.6477C170.189 86.8333 170.568 86.9261 171.003 86.9261C171.284 86.9261 171.541 86.8864 171.773 86.8068C172.005 86.724 172.206 86.6013 172.375 86.4389C172.544 86.2765 172.673 86.076 172.763 85.8374L174.17 86.0909C174.057 86.5052 173.855 86.8681 173.563 87.1797C173.275 87.4879 172.912 87.7282 172.474 87.9006C172.04 88.0696 171.545 88.1541 170.988 88.1541ZM181.636 82.228L180.288 82.4666C180.232 82.2943 180.143 82.1302 180.02 81.9744C179.901 81.8187 179.738 81.6911 179.533 81.5916C179.327 81.4922 179.07 81.4425 178.762 81.4425C178.341 81.4425 177.99 81.5369 177.708 81.7259C177.426 81.9115 177.286 82.1518 177.286 82.4467C177.286 82.7019 177.38 82.9074 177.569 83.0632C177.758 83.219 178.063 83.3466 178.484 83.446L179.697 83.7244C180.399 83.8868 180.923 84.1371 181.268 84.4751C181.612 84.8132 181.785 85.2524 181.785 85.7926C181.785 86.25 181.652 86.6577 181.387 87.0156C181.125 87.3703 180.759 87.6487 180.288 87.8509C179.821 88.053 179.279 88.1541 178.663 88.1541C177.808 88.1541 177.11 87.9718 176.57 87.6072C176.029 87.2393 175.698 86.7173 175.575 86.0412L177.012 85.8224C177.102 86.197 177.286 86.4804 177.564 86.6726C177.842 86.8615 178.205 86.956 178.653 86.956C179.14 86.956 179.529 86.8549 179.821 86.6527C180.113 86.4472 180.259 86.197 180.259 85.902C180.259 85.6634 180.169 85.4628 179.99 85.3004C179.814 85.138 179.544 85.0154 179.18 84.9325L177.887 84.6491C177.174 84.4867 176.647 84.2282 176.306 83.8736C175.968 83.5189 175.799 83.0698 175.799 82.5263C175.799 82.0755 175.925 81.6811 176.177 81.343C176.429 81.005 176.777 80.7415 177.221 80.5526C177.665 80.3603 178.174 80.2642 178.747 80.2642C179.572 80.2642 180.222 80.4432 180.696 80.8011C181.17 81.1558 181.483 81.6314 181.636 82.228ZM183.419 88V80.3636H184.906V88H183.419ZM184.17 79.1854C183.911 79.1854 183.689 79.0992 183.504 78.9268C183.321 78.7512 183.23 78.5424 183.23 78.3004C183.23 78.0552 183.321 77.8464 183.504 77.674C183.689 77.4983 183.911 77.4105 184.17 77.4105C184.428 77.4105 184.649 77.4983 184.831 77.674C185.017 77.8464 185.11 78.0552 185.11 78.3004C185.11 78.5424 185.017 78.7512 184.831 78.9268C184.649 79.0992 184.428 79.1854 184.17 79.1854ZM196.333 82.228L194.986 82.4666C194.929 82.2943 194.84 82.1302 194.717 81.9744C194.598 81.8187 194.435 81.6911 194.23 81.5916C194.024 81.4922 193.768 81.4425 193.459 81.4425C193.038 81.4425 192.687 81.5369 192.405 81.7259C192.124 81.9115 191.983 82.1518 191.983 82.4467C191.983 82.7019 192.077 82.9074 192.266 83.0632C192.455 83.219 192.76 83.3466 193.181 83.446L194.394 83.7244C195.097 83.8868 195.62 84.1371 195.965 84.4751C196.31 84.8132 196.482 85.2524 196.482 85.7926C196.482 86.25 196.349 86.6577 196.084 87.0156C195.823 87.3703 195.456 87.6487 194.986 87.8509C194.518 88.053 193.976 88.1541 193.36 88.1541C192.505 88.1541 191.807 87.9718 191.267 87.6072C190.727 87.2393 190.395 86.7173 190.273 86.0412L191.709 85.8224C191.799 86.197 191.983 86.4804 192.261 86.6726C192.54 86.8615 192.903 86.956 193.35 86.956C193.837 86.956 194.227 86.8549 194.518 86.6527C194.81 86.4472 194.956 86.197 194.956 85.902C194.956 85.6634 194.866 85.4628 194.687 85.3004C194.512 85.138 194.242 85.0154 193.877 84.9325L192.584 84.6491C191.872 84.4867 191.345 84.2282 191.003 83.8736C190.665 83.5189 190.496 83.0698 190.496 82.5263C190.496 82.0755 190.622 81.6811 190.874 81.343C191.126 81.005 191.474 80.7415 191.918 80.5526C192.362 80.3603 192.871 80.2642 193.444 80.2642C194.27 80.2642 194.919 80.4432 195.393 80.8011C195.867 81.1558 196.18 81.6314 196.333 82.228ZM201.408 88.1541C200.655 88.1541 200.007 87.9934 199.464 87.6719C198.924 87.3471 198.506 86.8913 198.211 86.3047C197.919 85.7147 197.773 85.0237 197.773 84.2315C197.773 83.4493 197.919 82.7599 198.211 82.1634C198.506 81.5668 198.917 81.1011 199.444 80.7663C199.974 80.4316 200.594 80.2642 201.303 80.2642C201.734 80.2642 202.152 80.3355 202.556 80.478C202.96 80.6205 203.323 80.8442 203.645 81.1491C203.966 81.4541 204.22 81.8501 204.406 82.3374C204.591 82.8213 204.684 83.4096 204.684 84.1023V84.6293H198.614V83.5156H203.227C203.227 83.1245 203.148 82.7782 202.989 82.4766C202.83 82.1716 202.606 81.9313 202.317 81.7557C202.032 81.58 201.698 81.4922 201.313 81.4922C200.896 81.4922 200.531 81.5949 200.219 81.8004C199.911 82.0026 199.673 82.2678 199.504 82.5959C199.338 82.9207 199.255 83.2737 199.255 83.6548V84.5249C199.255 85.0353 199.344 85.4695 199.523 85.8274C199.706 86.1854 199.959 86.4588 200.284 86.6477C200.609 86.8333 200.988 86.9261 201.423 86.9261C201.704 86.9261 201.961 86.8864 202.193 86.8068C202.425 86.724 202.626 86.6013 202.795 86.4389C202.964 86.2765 203.093 86.076 203.183 85.8374L204.589 86.0909C204.477 86.5052 204.275 86.8681 203.983 87.1797C203.695 87.4879 203.332 87.7282 202.894 87.9006C202.46 88.0696 201.964 88.1541 201.408 88.1541ZM206.453 88V77.8182H207.939V81.6016H208.029C208.115 81.4425 208.239 81.2585 208.401 81.0497C208.564 80.8409 208.789 80.6586 209.078 80.5028C209.366 80.3438 209.747 80.2642 210.221 80.2642C210.838 80.2642 211.388 80.42 211.872 80.7315C212.356 81.0431 212.735 81.4922 213.01 82.0788C213.289 82.6655 213.428 83.3714 213.428 84.1967C213.428 85.022 213.29 85.7296 213.015 86.3196C212.74 86.9062 212.362 87.3587 211.882 87.6768C211.401 87.9917 210.852 88.1491 210.236 88.1491C209.772 88.1491 209.392 88.0713 209.097 87.9155C208.806 87.7597 208.577 87.5774 208.411 87.3686C208.246 87.1598 208.118 86.9742 208.029 86.8118H207.904V88H206.453ZM207.909 84.1818C207.909 84.7187 207.987 85.1894 208.143 85.5938C208.299 85.9981 208.524 86.3146 208.819 86.5433C209.114 86.7687 209.475 86.8814 209.903 86.8814C210.347 86.8814 210.718 86.7637 211.017 86.5284C211.315 86.2898 211.54 85.9666 211.693 85.5589C211.848 85.1513 211.926 84.6922 211.926 84.1818C211.926 83.678 211.85 83.2256 211.698 82.8246C211.548 82.4235 211.323 82.107 211.021 81.875C210.723 81.643 210.35 81.527 209.903 81.527C209.472 81.527 209.107 81.638 208.809 81.8601C208.514 82.0821 208.29 82.392 208.138 82.7898C207.985 83.1875 207.909 83.6515 207.909 84.1818ZM217.319 88.169C216.835 88.169 216.398 88.0795 216.007 87.9006C215.616 87.7183 215.306 87.4548 215.077 87.1101C214.852 86.7654 214.739 86.3428 214.739 85.8423C214.739 85.4115 214.822 85.0568 214.988 84.7784C215.153 84.5 215.377 84.2796 215.659 84.1172C215.94 83.9548 216.255 83.8321 216.603 83.7493C216.951 83.6664 217.306 83.6035 217.667 83.5604C218.125 83.5073 218.496 83.4643 218.781 83.4311C219.066 83.3946 219.273 83.3366 219.402 83.2571C219.532 83.1776 219.596 83.0483 219.596 82.8693V82.8345C219.596 82.4003 219.474 82.0639 219.228 81.8253C218.986 81.5866 218.625 81.4673 218.145 81.4673C217.644 81.4673 217.25 81.5784 216.961 81.8004C216.676 82.0192 216.479 82.2628 216.37 82.5312L214.973 82.2131C215.138 81.7491 215.38 81.3745 215.699 81.0895C216.02 80.8011 216.39 80.5923 216.807 80.4631C217.225 80.3305 217.664 80.2642 218.125 80.2642C218.43 80.2642 218.753 80.3007 219.094 80.3736C219.439 80.4432 219.76 80.5724 220.059 80.7614C220.36 80.9503 220.607 81.2204 220.799 81.5717C220.992 81.9197 221.088 82.3722 221.088 82.929V88H219.636V86.956H219.576C219.48 87.1482 219.336 87.3371 219.144 87.5227C218.952 87.7083 218.705 87.8625 218.403 87.9851C218.101 88.1077 217.74 88.169 217.319 88.169ZM217.642 86.9759C218.053 86.9759 218.405 86.8946 218.696 86.7322C218.991 86.5698 219.215 86.3577 219.368 86.0959C219.523 85.8307 219.601 85.5473 219.601 85.2457V84.2614C219.548 84.3144 219.445 84.3641 219.293 84.4105C219.144 84.4536 218.973 84.4917 218.781 84.5249C218.589 84.5547 218.401 84.5829 218.219 84.6094C218.037 84.6326 217.884 84.6525 217.762 84.669C217.473 84.7055 217.21 84.7668 216.971 84.853C216.736 84.9392 216.547 85.0634 216.404 85.2259C216.265 85.3849 216.196 85.5971 216.196 85.8622C216.196 86.2301 216.332 86.5085 216.603 86.6974C216.875 86.883 217.221 86.9759 217.642 86.9759ZM226.269 91.0227C225.663 91.0227 225.141 90.9432 224.703 90.7841C224.269 90.625 223.914 90.4145 223.639 90.1527C223.364 89.8909 223.159 89.6042 223.023 89.2926L224.301 88.7656C224.39 88.9115 224.509 89.0656 224.659 89.228C224.811 89.3937 225.017 89.5346 225.275 89.6506C225.537 89.7666 225.873 89.8246 226.284 89.8246C226.848 89.8246 227.313 89.687 227.681 89.4119C228.049 89.1402 228.233 88.706 228.233 88.1094V86.608H228.139C228.049 86.7704 227.92 86.951 227.751 87.1499C227.585 87.3487 227.356 87.5211 227.065 87.6669C226.773 87.8127 226.394 87.8857 225.926 87.8857C225.323 87.8857 224.78 87.7448 224.296 87.4631C223.815 87.178 223.434 86.7588 223.152 86.2053C222.874 85.6484 222.735 84.964 222.735 84.152C222.735 83.34 222.872 82.6439 223.147 82.0639C223.426 81.4839 223.807 81.0398 224.291 80.7315C224.775 80.42 225.323 80.2642 225.936 80.2642C226.41 80.2642 226.793 80.3438 227.085 80.5028C227.376 80.6586 227.603 80.8409 227.766 81.0497C227.932 81.2585 228.059 81.4425 228.149 81.6016H228.258V80.3636H229.715V88.169C229.715 88.8253 229.562 89.3639 229.257 89.7848C228.952 90.2057 228.54 90.5173 228.019 90.7195C227.502 90.9216 226.919 91.0227 226.269 91.0227ZM226.254 86.6527C226.682 86.6527 227.043 86.5533 227.338 86.3544C227.637 86.1522 227.862 85.8639 228.014 85.4893C228.17 85.1115 228.248 84.6591 228.248 84.1321C228.248 83.6184 228.172 83.166 228.019 82.7749C227.867 82.3838 227.643 82.0788 227.348 81.8601C227.053 81.638 226.689 81.527 226.254 81.527C225.807 81.527 225.434 81.643 225.136 81.875C224.838 82.1037 224.612 82.4152 224.46 82.8097C224.311 83.2041 224.236 83.6449 224.236 84.1321C224.236 84.6326 224.312 85.0717 224.465 85.4496C224.617 85.8274 224.843 86.1224 225.141 86.3345C225.442 86.5466 225.814 86.6527 226.254 86.6527ZM233.931 88.169C233.447 88.169 233.009 88.0795 232.618 87.9006C232.227 87.7183 231.917 87.4548 231.688 87.1101C231.463 86.7654 231.35 86.3428 231.35 85.8423C231.35 85.4115 231.433 85.0568 231.599 84.7784C231.765 84.5 231.988 84.2796 232.27 84.1172C232.552 83.9548 232.867 83.8321 233.215 83.7493C233.563 83.6664 233.917 83.6035 234.279 83.5604C234.736 83.5073 235.107 83.4643 235.392 83.4311C235.677 83.3946 235.884 83.3366 236.014 83.2571C236.143 83.1776 236.208 83.0483 236.208 82.8693V82.8345C236.208 82.4003 236.085 82.0639 235.84 81.8253C235.598 81.5866 235.236 81.4673 234.756 81.4673C234.255 81.4673 233.861 81.5784 233.573 81.8004C233.288 82.0192 233.09 82.2628 232.981 82.5312L231.584 82.2131C231.75 81.7491 231.992 81.3745 232.31 81.0895C232.631 80.8011 233.001 80.5923 233.419 80.4631C233.836 80.3305 234.275 80.2642 234.736 80.2642C235.041 80.2642 235.364 80.3007 235.705 80.3736C236.05 80.4432 236.372 80.5724 236.67 80.7614C236.972 80.9503 237.218 81.2204 237.411 81.5717C237.603 81.9197 237.699 82.3722 237.699 82.929V88H236.247V86.956H236.188C236.092 87.1482 235.947 87.3371 235.755 87.5227C235.563 87.7083 235.316 87.8625 235.014 87.9851C234.713 88.1077 234.352 88.169 233.931 88.169ZM234.254 86.9759C234.665 86.9759 235.016 86.8946 235.308 86.7322C235.603 86.5698 235.826 86.3577 235.979 86.0959C236.135 85.8307 236.213 85.5473 236.213 85.2457V84.2614C236.16 84.3144 236.057 84.3641 235.904 84.4105C235.755 84.4536 235.584 84.4917 235.392 84.5249C235.2 84.5547 235.013 84.5829 234.83 84.6094C234.648 84.6326 234.496 84.6525 234.373 84.669C234.085 84.7055 233.821 84.7668 233.583 84.853C233.347 84.9392 233.158 85.0634 233.016 85.2259C232.877 85.3849 232.807 85.5971 232.807 85.8622C232.807 86.2301 232.943 86.5085 233.215 86.6974C233.486 86.883 233.833 86.9759 234.254 86.9759ZM239.679 88V80.3636H241.165V88H239.679ZM240.43 79.1854C240.171 79.1854 239.949 79.0992 239.763 78.9268C239.581 78.7512 239.49 78.5424 239.49 78.3004C239.49 78.0552 239.581 77.8464 239.763 77.674C239.949 77.4983 240.171 77.4105 240.43 77.4105C240.688 77.4105 240.909 77.4983 241.091 77.674C241.277 77.8464 241.369 78.0552 241.369 78.3004C241.369 78.5424 241.277 78.7512 241.091 78.9268C240.909 79.0992 240.688 79.1854 240.43 79.1854ZM28.6548 101.818V112H27.1186V101.818H28.6548ZM30.3899 103.141V101.818H38.2699V103.141H35.093V112H33.5618V103.141H30.3899ZM43.7163 112V101.818H47.3455C48.1377 101.818 48.7939 101.962 49.3143 102.251C49.8346 102.539 50.2241 102.933 50.4826 103.434C50.7411 103.931 50.8704 104.491 50.8704 105.114C50.8704 105.741 50.7395 106.304 50.4776 106.805C50.2191 107.302 49.828 107.696 49.3043 107.988C48.784 108.276 48.1294 108.42 47.3406 108.42H44.8448V107.118H47.2013C47.7018 107.118 48.1078 107.032 48.4194 106.859C48.7309 106.684 48.9596 106.445 49.1055 106.143C49.2513 105.842 49.3242 105.499 49.3242 105.114C49.3242 104.73 49.2513 104.388 49.1055 104.09C48.9596 103.792 48.7293 103.558 48.4144 103.389C48.1029 103.22 47.6919 103.136 47.1815 103.136H45.2525V112H43.7163ZM52.552 112V104.364H53.9888V105.577H54.0684C54.2076 105.166 54.4528 104.843 54.8042 104.607C55.1588 104.369 55.5598 104.249 56.0073 104.249C56.1001 104.249 56.2095 104.253 56.3354 104.259C56.4647 104.266 56.5658 104.274 56.6387 104.284V105.706C56.579 105.689 56.473 105.671 56.3205 105.651C56.168 105.628 56.0156 105.616 55.8631 105.616C55.5118 105.616 55.1986 105.691 54.9235 105.84C54.6517 105.986 54.4363 106.19 54.2772 106.452C54.1181 106.71 54.0385 107.005 54.0385 107.337V112H52.552ZM60.8683 112.154C60.1523 112.154 59.5276 111.99 58.994 111.662C58.4603 111.334 58.046 110.875 57.7511 110.285C57.4561 109.695 57.3086 109.005 57.3086 108.217C57.3086 107.424 57.4561 106.732 57.7511 106.138C58.046 105.545 58.4603 105.085 58.994 104.756C59.5276 104.428 60.1523 104.264 60.8683 104.264C61.5842 104.264 62.2089 104.428 62.7425 104.756C63.2762 105.085 63.6905 105.545 63.9854 106.138C64.2804 106.732 64.4279 107.424 64.4279 108.217C64.4279 109.005 64.2804 109.695 63.9854 110.285C63.6905 110.875 63.2762 111.334 62.7425 111.662C62.2089 111.99 61.5842 112.154 60.8683 112.154ZM60.8732 110.906C61.3372 110.906 61.7217 110.784 62.0266 110.538C62.3316 110.293 62.5569 109.967 62.7028 109.559C62.8519 109.151 62.9265 108.702 62.9265 108.212C62.9265 107.724 62.8519 107.277 62.7028 106.869C62.5569 106.458 62.3316 106.129 62.0266 105.88C61.7217 105.631 61.3372 105.507 60.8732 105.507C60.4059 105.507 60.0181 105.631 59.7099 105.88C59.4049 106.129 59.1779 106.458 59.0288 106.869C58.8829 107.277 58.81 107.724 58.81 108.212C58.81 108.702 58.8829 109.151 59.0288 109.559C59.1779 109.967 59.4049 110.293 59.7099 110.538C60.0181 110.784 60.4059 110.906 60.8732 110.906ZM69.2889 115.023C68.6824 115.023 68.1603 114.943 67.7228 114.784C67.2886 114.625 66.934 114.415 66.6589 114.153C66.3838 113.891 66.1783 113.604 66.0424 113.293L67.3201 112.766C67.4096 112.911 67.5289 113.066 67.6781 113.228C67.8306 113.394 68.036 113.535 68.2946 113.651C68.5564 113.767 68.8928 113.825 69.3038 113.825C69.8672 113.825 70.3329 113.687 70.7008 113.412C71.0687 113.14 71.2527 112.706 71.2527 112.109V110.608H71.1582C71.0687 110.77 70.9395 110.951 70.7704 111.15C70.6047 111.349 70.376 111.521 70.0843 111.667C69.7927 111.813 69.4132 111.886 68.9458 111.886C68.3426 111.886 67.7991 111.745 67.3152 111.463C66.8346 111.178 66.4534 110.759 66.1717 110.205C65.8933 109.648 65.7541 108.964 65.7541 108.152C65.7541 107.34 65.8916 106.644 66.1667 106.064C66.4451 105.484 66.8263 105.04 67.3102 104.732C67.7941 104.42 68.3426 104.264 68.9558 104.264C69.4297 104.264 69.8126 104.344 70.1042 104.503C70.3959 104.659 70.6229 104.841 70.7853 105.05C70.9511 105.259 71.0787 105.442 71.1681 105.602H71.2775V104.364H72.7342V112.169C72.7342 112.825 72.5817 113.364 72.2768 113.785C71.9719 114.206 71.5592 114.517 71.0389 114.719C70.5218 114.922 69.9385 115.023 69.2889 115.023ZM69.274 110.653C69.7015 110.653 70.0628 110.553 70.3578 110.354C70.6561 110.152 70.8815 109.864 71.0339 109.489C71.1897 109.112 71.2676 108.659 71.2676 108.132C71.2676 107.618 71.1913 107.166 71.0389 106.775C70.8864 106.384 70.6627 106.079 70.3677 105.86C70.0727 105.638 69.7082 105.527 69.274 105.527C68.8265 105.527 68.4537 105.643 68.1554 105.875C67.8571 106.104 67.6317 106.415 67.4792 106.81C67.3301 107.204 67.2555 107.645 67.2555 108.132C67.2555 108.633 67.3317 109.072 67.4842 109.45C67.6367 109.827 67.862 110.122 68.1603 110.335C68.4619 110.547 68.8332 110.653 69.274 110.653ZM74.7278 112V104.364H76.1646V105.577H76.2441C76.3833 105.166 76.6286 104.843 76.9799 104.607C77.3346 104.369 77.7356 104.249 78.1831 104.249C78.2759 104.249 78.3852 104.253 78.5112 104.259C78.6404 104.266 78.7415 104.274 78.8145 104.284V105.706C78.7548 105.689 78.6487 105.671 78.4963 105.651C78.3438 105.628 78.1913 105.616 78.0389 105.616C77.6876 105.616 77.3743 105.691 77.0993 105.84C76.8275 105.986 76.612 106.19 76.4529 106.452C76.2939 106.71 76.2143 107.005 76.2143 107.337V112H74.7278ZM82.2548 112.169C81.7709 112.169 81.3334 112.08 80.9423 111.901C80.5512 111.718 80.2413 111.455 80.0126 111.11C79.7872 110.765 79.6745 110.343 79.6745 109.842C79.6745 109.411 79.7574 109.057 79.9231 108.778C80.0888 108.5 80.3126 108.28 80.5943 108.117C80.876 107.955 81.1909 107.832 81.5389 107.749C81.8869 107.666 82.2415 107.603 82.6028 107.56C83.0602 107.507 83.4314 107.464 83.7164 107.431C84.0015 107.395 84.2086 107.337 84.3379 107.257C84.4672 107.178 84.5318 107.048 84.5318 106.869V106.835C84.5318 106.4 84.4092 106.064 84.1639 105.825C83.9219 105.587 83.5607 105.467 83.0801 105.467C82.5796 105.467 82.1852 105.578 81.8968 105.8C81.6118 106.019 81.4146 106.263 81.3052 106.531L79.9082 106.213C80.0739 105.749 80.3159 105.375 80.6341 105.089C80.9556 104.801 81.3251 104.592 81.7427 104.463C82.1603 104.33 82.5995 104.264 83.0602 104.264C83.3651 104.264 83.6883 104.301 84.0297 104.374C84.3743 104.443 84.6958 104.572 84.9941 104.761C85.2958 104.95 85.5427 105.22 85.7349 105.572C85.9271 105.92 86.0233 106.372 86.0233 106.929V112H84.5716V110.956H84.5119C84.4158 111.148 84.2716 111.337 84.0794 111.523C83.8871 111.708 83.6402 111.862 83.3386 111.985C83.037 112.108 82.6757 112.169 82.2548 112.169ZM82.5779 110.976C82.9889 110.976 83.3403 110.895 83.6319 110.732C83.9269 110.57 84.1506 110.358 84.3031 110.096C84.4589 109.831 84.5368 109.547 84.5368 109.246V108.261C84.4837 108.314 84.381 108.364 84.2285 108.411C84.0794 108.454 83.9087 108.492 83.7164 108.525C83.5242 108.555 83.3369 108.583 83.1547 108.609C82.9724 108.633 82.8199 108.652 82.6973 108.669C82.4089 108.705 82.1454 108.767 81.9068 108.853C81.6715 108.939 81.4825 109.063 81.34 109.226C81.2008 109.385 81.1312 109.597 81.1312 109.862C81.1312 110.23 81.2671 110.509 81.5389 110.697C81.8107 110.883 82.157 110.976 82.5779 110.976ZM88.0032 112V104.364H89.43V105.607H89.5245C89.6836 105.186 89.9438 104.857 90.305 104.622C90.6663 104.384 91.0988 104.264 91.6026 104.264C92.113 104.264 92.5406 104.384 92.8853 104.622C93.2333 104.861 93.4902 105.189 93.6559 105.607H93.7354C93.9177 105.199 94.2077 104.874 94.6055 104.632C95.0032 104.387 95.4772 104.264 96.0273 104.264C96.7201 104.264 97.2852 104.481 97.7227 104.915C98.1635 105.35 98.3839 106.004 98.3839 106.879V112H96.8974V107.018C96.8974 106.501 96.7565 106.127 96.4748 105.895C96.1931 105.663 95.8567 105.547 95.4656 105.547C94.9817 105.547 94.6055 105.696 94.337 105.994C94.0685 106.289 93.9343 106.669 93.9343 107.133V112H92.4528V106.924C92.4528 106.51 92.3235 106.177 92.065 105.925C91.8065 105.673 91.4701 105.547 91.0558 105.547C90.774 105.547 90.5138 105.621 90.2752 105.771C90.0399 105.916 89.8493 106.12 89.7035 106.382C89.561 106.644 89.4897 106.947 89.4897 107.292V112H88.0032ZM100.376 112V104.364H101.803V105.607H101.898C102.057 105.186 102.317 104.857 102.678 104.622C103.039 104.384 103.472 104.264 103.976 104.264C104.486 104.264 104.914 104.384 105.258 104.622C105.606 104.861 105.863 105.189 106.029 105.607H106.108C106.291 105.199 106.581 104.874 106.979 104.632C107.376 104.387 107.85 104.264 108.4 104.264C109.093 104.264 109.658 104.481 110.096 104.915C110.537 105.35 110.757 106.004 110.757 106.879V112H109.27V107.018C109.27 106.501 109.13 106.127 108.848 105.895C108.566 105.663 108.23 105.547 107.839 105.547C107.355 105.547 106.979 105.696 106.71 105.994C106.442 106.289 106.307 106.669 106.307 107.133V112H104.826V106.924C104.826 106.51 104.697 106.177 104.438 105.925C104.18 105.673 103.843 105.547 103.429 105.547C103.147 105.547 102.887 105.621 102.648 105.771C102.413 105.916 102.222 106.12 102.077 106.382C101.934 106.644 101.863 106.947 101.863 107.292V112H100.376ZM116.04 112.154C115.288 112.154 114.64 111.993 114.097 111.672C113.556 111.347 113.139 110.891 112.844 110.305C112.552 109.715 112.406 109.024 112.406 108.232C112.406 107.449 112.552 106.76 112.844 106.163C113.139 105.567 113.55 105.101 114.077 104.766C114.607 104.432 115.227 104.264 115.936 104.264C116.367 104.264 116.785 104.335 117.189 104.478C117.593 104.621 117.956 104.844 118.278 105.149C118.599 105.454 118.853 105.85 119.038 106.337C119.224 106.821 119.317 107.41 119.317 108.102V108.629H113.246V107.516H117.86C117.86 107.125 117.781 106.778 117.621 106.477C117.462 106.172 117.239 105.931 116.95 105.756C116.665 105.58 116.33 105.492 115.946 105.492C115.528 105.492 115.164 105.595 114.852 105.8C114.544 106.003 114.305 106.268 114.136 106.596C113.971 106.921 113.888 107.274 113.888 107.655V108.525C113.888 109.035 113.977 109.469 114.156 109.827C114.339 110.185 114.592 110.459 114.917 110.648C115.242 110.833 115.621 110.926 116.055 110.926C116.337 110.926 116.594 110.886 116.826 110.807C117.058 110.724 117.259 110.601 117.428 110.439C117.597 110.277 117.726 110.076 117.815 109.837L119.222 110.091C119.11 110.505 118.907 110.868 118.616 111.18C118.327 111.488 117.964 111.728 117.527 111.901C117.093 112.07 116.597 112.154 116.04 112.154ZM120.966 112V104.364H122.403V105.577H122.482C122.622 105.166 122.867 104.843 123.218 104.607C123.573 104.369 123.974 104.249 124.421 104.249C124.514 104.249 124.624 104.253 124.749 104.259C124.879 104.266 124.98 104.274 125.053 104.284V105.706C124.993 105.689 124.887 105.671 124.735 105.651C124.582 105.628 124.43 105.616 124.277 105.616C123.926 105.616 123.613 105.691 123.338 105.84C123.066 105.986 122.85 106.19 122.691 106.452C122.532 106.71 122.453 107.005 122.453 107.337V112H120.966ZM126.444 112.094C126.172 112.094 125.938 111.998 125.743 111.806C125.547 111.611 125.449 111.375 125.449 111.1C125.449 110.828 125.547 110.596 125.743 110.404C125.938 110.209 126.172 110.111 126.444 110.111C126.715 110.111 126.949 110.209 127.145 110.404C127.34 110.596 127.438 110.828 127.438 111.1C127.438 111.282 127.391 111.45 127.299 111.602C127.209 111.751 127.09 111.871 126.941 111.96C126.792 112.05 126.626 112.094 126.444 112.094Z" fill="#4A5568"/>
</g>
<defs>
<filter id="filter0_d_3867_9648" x="0.217206" y="0.940054" width="358.36" height="163.36" filterUnits="userSpaceOnUse" color-interpolation-filters="sRGB">
<feFlood flood-opacity="0" result="BackgroundImageFix"/>
<feColorMatrix in="SourceAlpha" type="matrix" values="0 0 0 0 0 0 0 0 0 0 0 0 0 0 0 0 0 0 127 0" result="hardAlpha"/>
<feOffset dx="9.39704" dy="10.1199"/>
<feGaussianBlur stdDeviation="7.58992"/>
<feComposite in2="hardAlpha" operator="out"/>
<feColorMatrix type="matrix" values="0 0 0 0 0.0375 0 0 0 0 0.18975 0 0 0 0 0.3 0 0 0 0.06 0"/>
<feBlend mode="normal" in2="BackgroundImageFix" result="effect1_dropShadow_3867_9648"/>
<feBlend mode="normal" in="SourceGraphic" in2="effect1_dropShadow_3867_9648" result="shape"/>
</filter>
</defs>
</svg>
