<svg width="341" height="165" viewBox="0 0 341 165" fill="none" xmlns="http://www.w3.org/2000/svg">
<g filter="url(#filter0_d_4277_10279)">
<rect x="6" y="6" width="310" height="133" rx="20" fill="#FFCF54"/>
<path d="M27.3125 54V33.6364H36.1023C37.6136 33.6364 38.9361 33.9347 40.0696 34.5312C41.2031 35.1278 42.0848 35.9664 42.7145 37.0469C43.3442 38.1274 43.6591 39.3902 43.6591 40.8352C43.6591 42.2936 43.3343 43.5563 42.6847 44.6236C42.0417 45.6908 41.1368 46.5128 39.9702 47.0895C38.8101 47.6662 37.4545 47.9545 35.9034 47.9545H30.6534V43.6591H34.7898C35.4394 43.6591 35.9929 43.5464 36.4503 43.321C36.9143 43.089 37.2689 42.7609 37.5142 42.3366C37.7661 41.9124 37.892 41.4119 37.892 40.8352C37.892 40.2519 37.7661 39.7547 37.5142 39.3438C37.2689 38.9261 36.9143 38.608 36.4503 38.3892C35.9929 38.1638 35.4394 38.0511 34.7898 38.0511H32.8409V54H27.3125ZM52.7571 54.2784C51.1264 54.2784 49.7211 53.9669 48.5412 53.3438C47.3679 52.714 46.4631 51.8125 45.8267 50.6392C45.197 49.4593 44.8821 48.0473 44.8821 46.4034C44.8821 44.8258 45.2003 43.447 45.8366 42.267C46.473 41.0871 47.3712 40.169 48.5312 39.5128C49.6913 38.8565 51.0601 38.5284 52.6378 38.5284C53.7912 38.5284 54.8352 38.7074 55.7699 39.0653C56.7045 39.4233 57.5033 39.9437 58.1662 40.6264C58.8291 41.3026 59.3395 42.1245 59.6974 43.0923C60.0554 44.0601 60.2344 45.1506 60.2344 46.3636V47.6364H46.5923V44.6136H55.1832C55.1766 44.1761 55.0639 43.7917 54.8452 43.4602C54.633 43.1222 54.3447 42.8603 53.9801 42.6747C53.6222 42.4825 53.2145 42.3864 52.7571 42.3864C52.313 42.3864 51.9053 42.4825 51.5341 42.6747C51.1629 42.8603 50.8646 43.1188 50.6392 43.4503C50.4205 43.7817 50.3045 44.1695 50.2912 44.6136V47.875C50.2912 48.3655 50.3939 48.803 50.5994 49.1875C50.8049 49.572 51.0999 49.8736 51.4844 50.0923C51.8688 50.3111 52.3329 50.4205 52.8764 50.4205C53.2543 50.4205 53.599 50.3674 53.9105 50.2614C54.2287 50.1553 54.5005 50.0028 54.7259 49.804C54.9512 49.5985 55.117 49.3532 55.223 49.0682H60.2344C60.062 50.1288 59.6544 51.0502 59.0114 51.8324C58.3684 52.608 57.5166 53.2112 56.456 53.642C55.402 54.0663 54.169 54.2784 52.7571 54.2784ZM62.4741 54V38.7273H67.8036V41.6307H67.9627C68.2411 40.5568 68.6819 39.7713 69.2852 39.2741C69.895 38.777 70.6076 38.5284 71.4229 38.5284C71.6616 38.5284 71.8969 38.5483 72.1289 38.5881C72.3675 38.6212 72.5962 38.6709 72.815 38.7372V43.4205C72.5432 43.3277 72.2085 43.258 71.8107 43.2116C71.413 43.1652 71.0716 43.142 70.7866 43.142C70.2496 43.142 69.7657 43.2647 69.3349 43.5099C68.9106 43.7486 68.5759 44.0866 68.3306 44.5241C68.0853 44.955 67.9627 45.4621 67.9627 46.0455V54H62.4741ZM79.5465 50.3807L79.5863 43.858H80.3022L84.0011 38.7273H90.1658L83.9613 46.7216H82.4102L79.5465 50.3807ZM74.6147 54V33.6364H80.1033V54H74.6147ZM84.0408 54L80.5408 47.9545L84.1204 44.0568L90.3249 54H84.0408ZM98.2844 54.2784C96.6538 54.2784 95.2485 53.9669 94.0685 53.3438C92.8952 52.714 91.9904 51.8125 91.354 50.6392C90.7243 49.4593 90.4094 48.0473 90.4094 46.4034C90.4094 44.8258 90.7276 43.447 91.364 42.267C92.0004 41.0871 92.8986 40.169 94.0586 39.5128C95.2186 38.8565 96.5875 38.5284 98.1651 38.5284C99.3185 38.5284 100.363 38.7074 101.297 39.0653C102.232 39.4233 103.031 39.9437 103.694 40.6264C104.356 41.3026 104.867 42.1245 105.225 43.0923C105.583 44.0601 105.762 45.1506 105.762 46.3636V47.6364H92.1197V44.6136H100.711C100.704 44.1761 100.591 43.7917 100.373 43.4602C100.16 43.1222 99.872 42.8603 99.5075 42.6747C99.1495 42.4825 98.7418 42.3864 98.2844 42.3864C97.8403 42.3864 97.4326 42.4825 97.0614 42.6747C96.6902 42.8603 96.3919 43.1188 96.1665 43.4503C95.9478 43.7817 95.8318 44.1695 95.8185 44.6136V47.875C95.8185 48.3655 95.9213 48.803 96.1268 49.1875C96.3323 49.572 96.6272 49.8736 97.0117 50.0923C97.3962 50.3111 97.8602 50.4205 98.4038 50.4205C98.7816 50.4205 99.1263 50.3674 99.4379 50.2614C99.756 50.1553 100.028 50.0028 100.253 49.804C100.479 49.5985 100.644 49.3532 100.75 49.0682H105.762C105.589 50.1288 105.182 51.0502 104.539 51.8324C103.896 52.608 103.044 53.2112 101.983 53.642C100.929 54.0663 99.6964 54.2784 98.2844 54.2784ZM113.49 45.4091V54H108.001V38.7273H113.212V41.6307H113.371C113.702 40.6629 114.286 39.9039 115.121 39.3537C115.963 38.8035 116.944 38.5284 118.064 38.5284C119.144 38.5284 120.082 38.777 120.878 39.2741C121.68 39.7647 122.3 40.4408 122.737 41.3026C123.181 42.1643 123.4 43.1487 123.393 44.2557V54H117.905V45.4091C117.911 44.6534 117.719 44.0601 117.328 43.6293C116.944 43.1984 116.407 42.983 115.717 42.983C115.267 42.983 114.872 43.0824 114.534 43.2812C114.203 43.4735 113.947 43.7519 113.768 44.1165C113.589 44.4744 113.497 44.9053 113.49 45.4091ZM130.359 54.2386C129.384 54.2386 128.522 54.0795 127.773 53.7614C127.031 53.4366 126.448 52.946 126.023 52.2898C125.599 51.6335 125.387 50.7983 125.387 49.7841C125.387 48.9489 125.53 48.2363 125.815 47.6463C126.1 47.0497 126.497 46.5625 127.008 46.1847C127.518 45.8068 128.112 45.5185 128.788 45.3196C129.47 45.1207 130.206 44.9915 130.995 44.9318C131.85 44.8655 132.536 44.786 133.053 44.6932C133.577 44.5937 133.955 44.4579 134.187 44.2855C134.419 44.1065 134.535 43.8712 134.535 43.5795V43.5398C134.535 43.142 134.382 42.8371 134.077 42.625C133.772 42.4129 133.381 42.3068 132.904 42.3068C132.38 42.3068 131.953 42.4228 131.621 42.6548C131.297 42.8802 131.101 43.2282 131.035 43.6989H125.984C126.05 42.7708 126.345 41.9157 126.869 41.1335C127.399 40.3447 128.171 39.715 129.185 39.2443C130.2 38.767 131.466 38.5284 132.984 38.5284C134.077 38.5284 135.058 38.6577 135.927 38.9162C136.795 39.1681 137.534 39.5227 138.144 39.9801C138.754 40.4309 139.218 40.9612 139.536 41.571C139.861 42.1742 140.023 42.8305 140.023 43.5398V54H134.893V51.8523H134.773C134.469 52.4223 134.097 52.883 133.66 53.2344C133.229 53.5857 132.735 53.8409 132.178 54C131.628 54.1591 131.022 54.2386 130.359 54.2386ZM132.148 50.7784C132.566 50.7784 132.957 50.6922 133.322 50.5199C133.693 50.3475 133.995 50.099 134.227 49.7741C134.459 49.4493 134.575 49.0549 134.575 48.5909V47.3182C134.429 47.3778 134.273 47.4342 134.107 47.4872C133.948 47.5402 133.776 47.59 133.59 47.6364C133.411 47.6828 133.219 47.7259 133.013 47.7656C132.815 47.8054 132.606 47.8419 132.387 47.875C131.963 47.9413 131.615 48.0507 131.343 48.2031C131.078 48.349 130.879 48.5312 130.746 48.75C130.621 48.9621 130.558 49.2008 130.558 49.4659C130.558 49.8902 130.707 50.215 131.005 50.4403C131.303 50.6657 131.684 50.7784 132.148 50.7784ZM148.135 33.6364V54H142.646V33.6364H148.135ZM155.863 50.3807L155.903 43.858H156.619L160.317 38.7273H166.482L160.278 46.7216H158.727L155.863 50.3807ZM150.931 54V33.6364H156.42V54H150.931ZM160.357 54L156.857 47.9545L160.437 44.0568L166.641 54H160.357ZM172.167 54.2386C171.193 54.2386 170.331 54.0795 169.582 53.7614C168.84 53.4366 168.256 52.946 167.832 52.2898C167.408 51.6335 167.196 50.7983 167.196 49.7841C167.196 48.9489 167.338 48.2363 167.623 47.6463C167.908 47.0497 168.306 46.5625 168.816 46.1847C169.327 45.8068 169.92 45.5185 170.596 45.3196C171.279 45.1207 172.015 44.9915 172.804 44.9318C173.659 44.8655 174.345 44.786 174.862 44.6932C175.386 44.5937 175.763 44.4579 175.995 44.2855C176.227 44.1065 176.343 43.8712 176.343 43.5795V43.5398C176.343 43.142 176.191 42.8371 175.886 42.625C175.581 42.4129 175.19 42.3068 174.713 42.3068C174.189 42.3068 173.761 42.4228 173.43 42.6548C173.105 42.8802 172.91 43.2282 172.843 43.6989H167.792C167.859 42.7708 168.154 41.9157 168.677 41.1335C169.208 40.3447 169.98 39.715 170.994 39.2443C172.008 38.767 173.274 38.5284 174.792 38.5284C175.886 38.5284 176.867 38.6577 177.735 38.9162C178.604 39.1681 179.343 39.5227 179.953 39.9801C180.563 40.4309 181.027 40.9612 181.345 41.571C181.67 42.1742 181.832 42.8305 181.832 43.5398V54H176.701V51.8523H176.582C176.277 52.4223 175.906 52.883 175.468 53.2344C175.038 53.5857 174.544 53.8409 173.987 54C173.437 54.1591 172.83 54.2386 172.167 54.2386ZM173.957 50.7784C174.375 50.7784 174.766 50.6922 175.13 50.5199C175.502 50.3475 175.803 50.099 176.035 49.7741C176.267 49.4493 176.383 49.0549 176.383 48.5909V47.3182C176.237 47.3778 176.082 47.4342 175.916 47.4872C175.757 47.5402 175.584 47.59 175.399 47.6364C175.22 47.6828 175.028 47.7259 174.822 47.7656C174.623 47.8054 174.414 47.8419 174.196 47.875C173.771 47.9413 173.423 48.0507 173.152 48.2031C172.886 48.349 172.688 48.5312 172.555 48.75C172.429 48.9621 172.366 49.2008 172.366 49.4659C172.366 49.8902 172.515 50.215 172.814 50.4403C173.112 50.6657 173.493 50.7784 173.957 50.7784ZM189.943 45.4091V54H184.455V38.7273H189.665V41.6307H189.824C190.155 40.6629 190.739 39.9039 191.574 39.3537C192.416 38.8035 193.397 38.5284 194.517 38.5284C195.598 38.5284 196.536 38.777 197.331 39.2741C198.133 39.7647 198.753 40.4408 199.19 41.3026C199.634 42.1643 199.853 43.1487 199.847 44.2557V54H194.358V45.4091C194.365 44.6534 194.172 44.0601 193.781 43.6293C193.397 43.1984 192.86 42.983 192.17 42.983C191.72 42.983 191.325 43.0824 190.987 43.2812C190.656 43.4735 190.401 43.7519 190.222 44.1165C190.043 44.4744 189.95 44.9053 189.943 45.4091ZM215.89 54H208.055V33.6364H215.81C217.905 33.6364 219.715 34.044 221.239 34.8594C222.771 35.6681 223.951 36.8348 224.779 38.3594C225.614 39.8774 226.032 41.697 226.032 43.8182C226.032 45.9394 225.618 47.7623 224.789 49.2869C223.96 50.8049 222.787 51.9716 221.269 52.7869C219.751 53.5956 217.958 54 215.89 54ZM213.583 49.3068H215.691C216.699 49.3068 217.557 49.1444 218.266 48.8196C218.982 48.4948 219.526 47.9347 219.897 47.1392C220.275 46.3437 220.464 45.2367 220.464 43.8182C220.464 42.3996 220.272 41.2926 219.887 40.4972C219.509 39.7017 218.952 39.1416 218.217 38.8168C217.487 38.4919 216.593 38.3295 215.532 38.3295H213.583V49.3068ZM232.925 54.2386C231.951 54.2386 231.089 54.0795 230.34 53.7614C229.597 53.4366 229.014 52.946 228.59 52.2898C228.166 51.6335 227.953 50.7983 227.953 49.7841C227.953 48.9489 228.096 48.2363 228.381 47.6463C228.666 47.0497 229.064 46.5625 229.574 46.1847C230.085 45.8068 230.678 45.5185 231.354 45.3196C232.037 45.1207 232.773 44.9915 233.561 44.9318C234.417 44.8655 235.103 44.786 235.62 44.6932C236.143 44.5937 236.521 44.4579 236.753 44.2855C236.985 44.1065 237.101 43.8712 237.101 43.5795V43.5398C237.101 43.142 236.949 42.8371 236.644 42.625C236.339 42.4129 235.948 42.3068 235.471 42.3068C234.947 42.3068 234.519 42.4228 234.188 42.6548C233.863 42.8802 233.667 43.2282 233.601 43.6989H228.55C228.616 42.7708 228.911 41.9157 229.435 41.1335C229.965 40.3447 230.738 39.715 231.752 39.2443C232.766 38.767 234.032 38.5284 235.55 38.5284C236.644 38.5284 237.625 38.6577 238.493 38.9162C239.362 39.1681 240.101 39.5227 240.711 39.9801C241.32 40.4309 241.784 40.9612 242.103 41.571C242.427 42.1742 242.59 42.8305 242.59 43.5398V54H237.459V51.8523H237.34C237.035 52.4223 236.664 52.883 236.226 53.2344C235.795 53.5857 235.301 53.8409 234.745 54C234.194 54.1591 233.588 54.2386 232.925 54.2386ZM234.715 50.7784C235.132 50.7784 235.524 50.6922 235.888 50.5199C236.259 50.3475 236.561 50.099 236.793 49.7741C237.025 49.4493 237.141 49.0549 237.141 48.5909V47.3182C236.995 47.3778 236.839 47.4342 236.674 47.4872C236.515 47.5402 236.342 47.59 236.157 47.6364C235.978 47.6828 235.785 47.7259 235.58 47.7656C235.381 47.8054 235.172 47.8419 234.953 47.875C234.529 47.9413 234.181 48.0507 233.909 48.2031C233.644 48.349 233.445 48.5312 233.313 48.75C233.187 48.9621 233.124 49.2008 233.124 49.4659C233.124 49.8902 233.273 50.215 233.571 50.4403C233.87 50.6657 234.251 50.7784 234.715 50.7784ZM260.058 38.7273L254.927 54H248.563L243.433 38.7273H249.2L251.665 48.8295H251.825L254.29 38.7273H260.058ZM261.619 54V38.7273H267.107V54H261.619ZM264.363 37.1364C263.621 37.1364 262.984 36.8911 262.454 36.4006C261.924 35.91 261.658 35.3201 261.658 34.6307C261.658 33.9413 261.924 33.3513 262.454 32.8608C262.984 32.3703 263.621 32.125 264.363 32.125C265.112 32.125 265.748 32.3703 266.272 32.8608C266.802 33.3513 267.067 33.9413 267.067 34.6307C267.067 35.3201 266.802 35.91 266.272 36.4006C265.748 36.8911 265.112 37.1364 264.363 37.1364ZM275.432 54.1989C274.345 54.1989 273.344 53.9138 272.429 53.3438C271.521 52.7737 270.792 51.9086 270.242 50.7486C269.698 49.5885 269.426 48.1269 269.426 46.3636C269.426 44.5208 269.712 43.0227 270.282 41.8693C270.858 40.7159 271.601 39.8707 272.509 39.3338C273.424 38.7969 274.385 38.5284 275.392 38.5284C276.148 38.5284 276.811 38.661 277.381 38.9261C277.951 39.1847 278.428 39.5327 278.813 39.9702C279.197 40.401 279.489 40.875 279.688 41.392H279.767V33.6364H285.256V54H279.807V51.4943H279.688C279.476 52.0114 279.171 52.4754 278.773 52.8864C278.382 53.2907 277.905 53.6122 277.341 53.8509C276.784 54.0829 276.148 54.1989 275.432 54.1989ZM277.461 49.983C277.964 49.983 278.395 49.8371 278.753 49.5455C279.118 49.2472 279.396 48.8295 279.588 48.2926C279.787 47.7491 279.887 47.1061 279.887 46.3636C279.887 45.608 279.787 44.9616 279.588 44.4247C279.396 43.8812 279.118 43.4669 278.753 43.1818C278.395 42.8902 277.964 42.7443 277.461 42.7443C276.957 42.7443 276.526 42.8902 276.168 43.1818C275.817 43.4669 275.545 43.8812 275.353 44.4247C275.167 44.9616 275.074 45.608 275.074 46.3636C275.074 47.1193 275.167 47.7689 275.353 48.3125C275.545 48.8494 275.817 49.2637 276.168 49.5554C276.526 49.8404 276.957 49.983 277.461 49.983ZM293.28 51.2159L293.201 52.3295C293.134 53.2841 292.975 54.1989 292.723 55.0739C292.478 55.9489 292.216 56.7244 291.938 57.4006C291.666 58.0767 291.451 58.6004 291.292 58.9716H287.911C288.017 58.6004 288.166 58.0634 288.358 57.3608C288.557 56.6648 288.736 55.8759 288.895 54.9943C289.061 54.1193 289.144 53.2311 289.144 52.3295V51.2159H293.28Z" fill="#2B2B29"/>
<path d="M30.4148 88H27.1186V77.8182H30.5192C31.5168 77.8182 32.3736 78.022 33.0895 78.4297C33.8054 78.834 34.3539 79.4157 34.7351 80.1747C35.1196 80.9304 35.3118 81.8369 35.3118 82.8942C35.3118 83.9548 35.1179 84.8662 34.7301 85.6286C34.3456 86.3909 33.7888 86.9775 33.0597 87.3885C32.3305 87.7962 31.4489 88 30.4148 88ZM28.6548 86.6577H30.3303C31.1058 86.6577 31.7505 86.5118 32.2642 86.2202C32.7779 85.9252 33.1624 85.4993 33.4176 84.9425C33.6728 84.3823 33.8004 83.6996 33.8004 82.8942C33.8004 82.0954 33.6728 81.4176 33.4176 80.8608C33.1657 80.304 32.7895 79.8814 32.2891 79.593C31.7886 79.3047 31.1671 79.1605 30.4247 79.1605H28.6548V86.6577ZM39.3251 88.169C38.8412 88.169 38.4037 88.0795 38.0126 87.9006C37.6215 87.7183 37.3116 87.4548 37.0829 87.1101C36.8575 86.7654 36.7449 86.3428 36.7449 85.8423C36.7449 85.4115 36.8277 85.0568 36.9934 84.7784C37.1592 84.5 37.3829 84.2796 37.6646 84.1172C37.9463 83.9548 38.2612 83.8321 38.6092 83.7493C38.9572 83.6664 39.3118 83.6035 39.6731 83.5604C40.1305 83.5073 40.5017 83.4643 40.7868 83.4311C41.0718 83.3946 41.2789 83.3366 41.4082 83.2571C41.5375 83.1776 41.6021 83.0483 41.6021 82.8693V82.8345C41.6021 82.4003 41.4795 82.0639 41.2342 81.8253C40.9922 81.5866 40.631 81.4673 40.1504 81.4673C39.6499 81.4673 39.2555 81.5784 38.9672 81.8004C38.6821 82.0192 38.4849 82.2628 38.3755 82.5312L36.9785 82.2131C37.1442 81.7491 37.3862 81.3745 37.7044 81.0895C38.0259 80.8011 38.3954 80.5923 38.813 80.4631C39.2306 80.3305 39.6698 80.2642 40.1305 80.2642C40.4354 80.2642 40.7586 80.3007 41.1 80.3736C41.4447 80.4432 41.7662 80.5724 42.0645 80.7614C42.3661 80.9503 42.613 81.2204 42.8052 81.5717C42.9975 81.9197 43.0936 82.3722 43.0936 82.929V88H41.6419V86.956H41.5822C41.4861 87.1482 41.3419 87.3371 41.1497 87.5227C40.9574 87.7083 40.7105 87.8625 40.4089 87.9851C40.1073 88.1077 39.746 88.169 39.3251 88.169ZM39.6483 86.9759C40.0592 86.9759 40.4106 86.8946 40.7022 86.7322C40.9972 86.5698 41.2209 86.3577 41.3734 86.0959C41.5292 85.8307 41.6071 85.5473 41.6071 85.2457V84.2614C41.554 84.3144 41.4513 84.3641 41.2988 84.4105C41.1497 84.4536 40.979 84.4917 40.7868 84.5249C40.5945 84.5547 40.4073 84.5829 40.225 84.6094C40.0427 84.6326 39.8902 84.6525 39.7676 84.669C39.4792 84.7055 39.2157 84.7668 38.9771 84.853C38.7418 84.9392 38.5529 85.0634 38.4103 85.2259C38.2711 85.3849 38.2015 85.5971 38.2015 85.8622C38.2015 86.2301 38.3374 86.5085 38.6092 86.6974C38.881 86.883 39.2273 86.9759 39.6483 86.9759ZM51.3327 80.3636L48.5636 88H46.9727L44.1985 80.3636H45.7944L47.7283 86.2401H47.8079L49.7369 80.3636H51.3327ZM52.7298 88V80.3636H54.2163V88H52.7298ZM53.4805 79.1854C53.2219 79.1854 52.9999 79.0992 52.8143 78.9268C52.632 78.7512 52.5408 78.5424 52.5408 78.3004C52.5408 78.0552 52.632 77.8464 52.8143 77.674C52.9999 77.4983 53.2219 77.4105 53.4805 77.4105C53.739 77.4105 53.9594 77.4983 54.1417 77.674C54.3273 77.8464 54.4201 78.0552 54.4201 78.3004C54.4201 78.5424 54.3273 78.7512 54.1417 78.9268C53.9594 79.0992 53.739 79.1854 53.4805 79.1854ZM59.0748 88.1491C58.4583 88.1491 57.9081 87.9917 57.4242 87.6768C56.9436 87.3587 56.5658 86.9062 56.2907 86.3196C56.0189 85.7296 55.883 85.022 55.883 84.1967C55.883 83.3714 56.0205 82.6655 56.2956 82.0788C56.574 81.4922 56.9552 81.0431 57.4391 80.7315C57.923 80.42 58.4715 80.2642 59.0847 80.2642C59.5587 80.2642 59.9398 80.3438 60.2282 80.5028C60.5198 80.6586 60.7452 80.8409 60.9043 81.0497C61.0667 81.2585 61.1926 81.4425 61.2821 81.6016H61.3716V77.8182H62.8581V88H61.4064V86.8118H61.2821C61.1926 86.9742 61.0634 87.1598 60.8944 87.3686C60.7286 87.5774 60.4999 87.7597 60.2083 87.9155C59.9166 88.0713 59.5388 88.1491 59.0748 88.1491ZM59.4029 86.8814C59.8304 86.8814 60.1917 86.7687 60.4867 86.5433C60.785 86.3146 61.0104 85.9981 61.1628 85.5938C61.3186 85.1894 61.3965 84.7187 61.3965 84.1818C61.3965 83.6515 61.3203 83.1875 61.1678 82.7898C61.0153 82.392 60.7916 82.0821 60.4966 81.8601C60.2016 81.638 59.8371 81.527 59.4029 81.527C58.9554 81.527 58.5826 81.643 58.2843 81.875C57.986 82.107 57.7606 82.4235 57.6081 82.8246C57.459 83.2256 57.3844 83.678 57.3844 84.1818C57.3844 84.6922 57.4606 85.1513 57.6131 85.5589C57.7656 85.9666 57.9909 86.2898 58.2892 86.5284C58.5908 86.7637 58.9621 86.8814 59.4029 86.8814ZM68.8042 88V77.8182H70.2907V81.6016H70.3801C70.4663 81.4425 70.5906 81.2585 70.753 81.0497C70.9154 80.8409 71.1408 80.6586 71.4292 80.5028C71.7175 80.3438 72.0987 80.2642 72.5726 80.2642C73.1891 80.2642 73.7393 80.42 74.2232 80.7315C74.7071 81.0431 75.0866 81.4922 75.3617 82.0788C75.6401 82.6655 75.7793 83.3714 75.7793 84.1967C75.7793 85.022 75.6417 85.7296 75.3667 86.3196C75.0916 86.9062 74.7137 87.3587 74.2331 87.6768C73.7525 87.9917 73.204 88.1491 72.5875 88.1491C72.1235 88.1491 71.744 88.0713 71.449 87.9155C71.1574 87.7597 70.9287 87.5774 70.763 87.3686C70.5972 87.1598 70.4696 86.9742 70.3801 86.8118H70.2559V88H68.8042ZM70.2608 84.1818C70.2608 84.7187 70.3387 85.1894 70.4945 85.5938C70.6503 85.9981 70.8757 86.3146 71.1706 86.5433C71.4656 86.7687 71.8269 86.8814 72.2544 86.8814C72.6986 86.8814 73.0698 86.7637 73.3681 86.5284C73.6664 86.2898 73.8917 85.9666 74.0442 85.5589C74.2 85.1513 74.2779 84.6922 74.2779 84.1818C74.2779 83.678 74.2016 83.2256 74.0492 82.8246C73.9 82.4235 73.6747 82.107 73.373 81.875C73.0748 81.643 72.7019 81.527 72.2544 81.527C71.8236 81.527 71.459 81.638 71.1607 81.8601C70.8657 82.0821 70.642 82.392 70.4895 82.7898C70.3371 83.1875 70.2608 83.6515 70.2608 84.1818ZM80.7397 88.1541C79.9873 88.1541 79.3394 87.9934 78.7958 87.6719C78.2556 87.3471 77.8379 86.8913 77.543 86.3047C77.2513 85.7147 77.1055 85.0237 77.1055 84.2315C77.1055 83.4493 77.2513 82.7599 77.543 82.1634C77.8379 81.5668 78.2489 81.1011 78.7759 80.7663C79.3062 80.4316 79.926 80.2642 80.6353 80.2642C81.0662 80.2642 81.4838 80.3355 81.8881 80.478C82.2925 80.6205 82.6554 80.8442 82.9769 81.1491C83.2984 81.4541 83.552 81.8501 83.7376 82.3374C83.9232 82.8213 84.016 83.4096 84.016 84.1023V84.6293H77.9457V83.5156H82.5593C82.5593 83.1245 82.4798 82.7782 82.3207 82.4766C82.1616 82.1716 81.9379 81.9313 81.6495 81.7557C81.3645 81.58 81.0297 81.4922 80.6452 81.4922C80.2276 81.4922 79.863 81.5949 79.5515 81.8004C79.2433 82.0026 79.0046 82.2678 78.8356 82.5959C78.6699 82.9207 78.587 83.2737 78.587 83.6548V84.5249C78.587 85.0353 78.6765 85.4695 78.8555 85.8274C79.0378 86.1854 79.2913 86.4588 79.6161 86.6477C79.9409 86.8333 80.3204 86.9261 80.7546 86.9261C81.0363 86.9261 81.2932 86.8864 81.5252 86.8068C81.7572 86.724 81.9577 86.6013 82.1268 86.4389C82.2958 86.2765 82.4251 86.076 82.5146 85.8374L83.9215 86.0909C83.8088 86.5052 83.6067 86.8681 83.315 87.1797C83.0266 87.4879 82.6637 87.7282 82.2262 87.9006C81.792 88.0696 81.2965 88.1541 80.7397 88.1541ZM85.6653 88V80.3636H87.1021V81.5767H87.1816C87.3208 81.1657 87.5661 80.8426 87.9174 80.6072C88.2721 80.3686 88.6731 80.2493 89.1206 80.2493C89.2134 80.2493 89.3227 80.2526 89.4487 80.2592C89.5779 80.2659 89.679 80.2741 89.752 80.2841V81.706C89.6923 81.6894 89.5862 81.6712 89.4338 81.6513C89.2813 81.6281 89.1288 81.6165 88.9764 81.6165C88.6251 81.6165 88.3118 81.6911 88.0368 81.8402C87.765 81.986 87.5495 82.1899 87.3904 82.4517C87.2314 82.7102 87.1518 83.0052 87.1518 83.3366V88H85.6653ZM91.0384 90.8636V80.3636H92.4901V81.6016H92.6143C92.7005 81.4425 92.8248 81.2585 92.9872 81.0497C93.1496 80.8409 93.375 80.6586 93.6634 80.5028C93.9517 80.3438 94.3329 80.2642 94.8068 80.2642C95.4233 80.2642 95.9735 80.42 96.4574 80.7315C96.9413 81.0431 97.3208 81.4922 97.5959 82.0788C97.8743 82.6655 98.0135 83.3714 98.0135 84.1967C98.0135 85.022 97.8759 85.7296 97.6009 86.3196C97.3258 86.9062 96.9479 87.3587 96.4673 87.6768C95.9867 87.9917 95.4382 88.1491 94.8217 88.1491C94.3577 88.1491 93.9782 88.0713 93.6832 87.9155C93.3916 87.7597 93.1629 87.5774 92.9972 87.3686C92.8314 87.1598 92.7038 86.9742 92.6143 86.8118H92.5249V90.8636H91.0384ZM92.495 84.1818C92.495 84.7187 92.5729 85.1894 92.7287 85.5938C92.8845 85.9981 93.1098 86.3146 93.4048 86.5433C93.6998 86.7687 94.0611 86.8814 94.4886 86.8814C94.9328 86.8814 95.304 86.7637 95.6023 86.5284C95.9006 86.2898 96.1259 85.9666 96.2784 85.5589C96.4342 85.1513 96.5121 84.6922 96.5121 84.1818C96.5121 83.678 96.4358 83.2256 96.2834 82.8246C96.1342 82.4235 95.9089 82.107 95.6072 81.875C95.3089 81.643 94.9361 81.527 94.4886 81.527C94.0578 81.527 93.6932 81.638 93.3949 81.8601C93.0999 82.0821 92.8762 82.392 92.7237 82.7898C92.5713 83.1875 92.495 83.6515 92.495 84.1818ZM99.679 88V80.3636H101.116V81.5767H101.195C101.335 81.1657 101.58 80.8426 101.931 80.6072C102.286 80.3686 102.687 80.2493 103.134 80.2493C103.227 80.2493 103.336 80.2526 103.462 80.2592C103.592 80.2659 103.693 80.2741 103.766 80.2841V81.706C103.706 81.6894 103.6 81.6712 103.447 81.6513C103.295 81.6281 103.143 81.6165 102.99 81.6165C102.639 81.6165 102.326 81.6911 102.05 81.8402C101.779 81.986 101.563 82.1899 101.404 82.4517C101.245 82.7102 101.165 83.0052 101.165 83.3366V88H99.679ZM107.995 88.1541C107.279 88.1541 106.655 87.9901 106.121 87.6619C105.587 87.3338 105.173 86.8748 104.878 86.2848C104.583 85.6948 104.436 85.0054 104.436 84.2166C104.436 83.4245 104.583 82.7318 104.878 82.1385C105.173 81.5452 105.587 81.0845 106.121 80.7564C106.655 80.4283 107.279 80.2642 107.995 80.2642C108.711 80.2642 109.336 80.4283 109.869 80.7564C110.403 81.0845 110.817 81.5452 111.112 82.1385C111.407 82.7318 111.555 83.4245 111.555 84.2166C111.555 85.0054 111.407 85.6948 111.112 86.2848C110.817 86.8748 110.403 87.3338 109.869 87.6619C109.336 87.9901 108.711 88.1541 107.995 88.1541ZM108 86.9062C108.464 86.9062 108.849 86.7836 109.154 86.5384C109.459 86.2931 109.684 85.9666 109.83 85.5589C109.979 85.1513 110.053 84.7022 110.053 84.2116C110.053 83.7244 109.979 83.277 109.83 82.8693C109.684 82.4583 109.459 82.1286 109.154 81.88C108.849 81.6314 108.464 81.5071 108 81.5071C107.533 81.5071 107.145 81.6314 106.837 81.88C106.532 82.1286 106.305 82.4583 106.156 82.8693C106.01 83.277 105.937 83.7244 105.937 84.2116C105.937 84.7022 106.01 85.1513 106.156 85.5589C106.305 85.9666 106.532 86.2931 106.837 86.5384C107.145 86.7836 107.533 86.9062 108 86.9062ZM116.848 80.3636V81.5568H112.533V80.3636H116.848ZM113.716 88V79.4787C113.716 79.0014 113.821 78.6053 114.029 78.2905C114.238 77.9723 114.515 77.7353 114.86 77.5795C115.204 77.4205 115.579 77.3409 115.983 77.3409C116.282 77.3409 116.537 77.3658 116.749 77.4155C116.961 77.4619 117.118 77.505 117.221 77.5447L116.873 78.7479C116.804 78.728 116.714 78.7048 116.605 78.6783C116.495 78.6484 116.363 78.6335 116.207 78.6335C115.846 78.6335 115.587 78.723 115.431 78.902C115.279 79.081 115.203 79.3395 115.203 79.6776V88H113.716ZM121.373 88.1541C120.62 88.1541 119.972 87.9934 119.429 87.6719C118.888 87.3471 118.471 86.8913 118.176 86.3047C117.884 85.7147 117.738 85.0237 117.738 84.2315C117.738 83.4493 117.884 82.7599 118.176 82.1634C118.471 81.5668 118.882 81.1011 119.409 80.7663C119.939 80.4316 120.559 80.2642 121.268 80.2642C121.699 80.2642 122.117 80.3355 122.521 80.478C122.925 80.6205 123.288 80.8442 123.61 81.1491C123.931 81.4541 124.185 81.8501 124.37 82.3374C124.556 82.8213 124.649 83.4096 124.649 84.1023V84.6293H118.578V83.5156H123.192C123.192 83.1245 123.113 82.7782 122.953 82.4766C122.794 82.1716 122.571 81.9313 122.282 81.7557C121.997 81.58 121.663 81.4922 121.278 81.4922C120.86 81.4922 120.496 81.5949 120.184 81.8004C119.876 82.0026 119.637 82.2678 119.468 82.5959C119.303 82.9207 119.22 83.2737 119.22 83.6548V84.5249C119.22 85.0353 119.309 85.4695 119.488 85.8274C119.671 86.1854 119.924 86.4588 120.249 86.6477C120.574 86.8333 120.953 86.9261 121.387 86.9261C121.669 86.9261 121.926 86.8864 122.158 86.8068C122.39 86.724 122.591 86.6013 122.76 86.4389C122.929 86.2765 123.058 86.076 123.147 85.8374L124.554 86.0909C124.442 86.5052 124.239 86.8681 123.948 87.1797C123.659 87.4879 123.297 87.7282 122.859 87.9006C122.425 88.0696 121.929 88.1541 121.373 88.1541ZM132.02 82.228L130.673 82.4666C130.617 82.2943 130.527 82.1302 130.405 81.9744C130.285 81.8187 130.123 81.6911 129.917 81.5916C129.712 81.4922 129.455 81.4425 129.147 81.4425C128.726 81.4425 128.375 81.5369 128.093 81.7259C127.811 81.9115 127.67 82.1518 127.67 82.4467C127.67 82.7019 127.765 82.9074 127.954 83.0632C128.143 83.219 128.448 83.3466 128.868 83.446L130.081 83.7244C130.784 83.8868 131.308 84.1371 131.653 84.4751C131.997 84.8132 132.17 85.2524 132.17 85.7926C132.17 86.25 132.037 86.6577 131.772 87.0156C131.51 87.3703 131.144 87.6487 130.673 87.8509C130.206 88.053 129.664 88.1541 129.047 88.1541C128.192 88.1541 127.495 87.9718 126.954 87.6072C126.414 87.2393 126.083 86.7173 125.96 86.0412L127.397 85.8224C127.486 86.197 127.67 86.4804 127.949 86.6726C128.227 86.8615 128.59 86.956 129.037 86.956C129.525 86.956 129.914 86.8549 130.206 86.6527C130.497 86.4472 130.643 86.197 130.643 85.902C130.643 85.6634 130.554 85.4628 130.375 85.3004C130.199 85.138 129.929 85.0154 129.564 84.9325L128.272 84.6491C127.559 84.4867 127.032 84.2282 126.691 83.8736C126.353 83.5189 126.184 83.0698 126.184 82.5263C126.184 82.0755 126.31 81.6811 126.562 81.343C126.814 81.005 127.162 80.7415 127.606 80.5526C128.05 80.3603 128.559 80.2642 129.132 80.2642C129.957 80.2642 130.607 80.4432 131.081 80.8011C131.555 81.1558 131.868 81.6314 132.02 82.228ZM133.804 88V80.3636H135.29V88H133.804ZM134.555 79.1854C134.296 79.1854 134.074 79.0992 133.888 78.9268C133.706 78.7512 133.615 78.5424 133.615 78.3004C133.615 78.0552 133.706 77.8464 133.888 77.674C134.074 77.4983 134.296 77.4105 134.555 77.4105C134.813 77.4105 135.034 77.4983 135.216 77.674C135.402 77.8464 135.494 78.0552 135.494 78.3004C135.494 78.5424 135.402 78.7512 135.216 78.9268C135.034 79.0992 134.813 79.1854 134.555 79.1854ZM146.718 82.228L145.37 82.4666C145.314 82.2943 145.225 82.1302 145.102 81.9744C144.983 81.8187 144.82 81.6911 144.615 81.5916C144.409 81.4922 144.152 81.4425 143.844 81.4425C143.423 81.4425 143.072 81.5369 142.79 81.7259C142.508 81.9115 142.368 82.1518 142.368 82.4467C142.368 82.7019 142.462 82.9074 142.651 83.0632C142.84 83.219 143.145 83.3466 143.566 83.446L144.779 83.7244C145.481 83.8868 146.005 84.1371 146.35 84.4751C146.694 84.8132 146.867 85.2524 146.867 85.7926C146.867 86.25 146.734 86.6577 146.469 87.0156C146.207 87.3703 145.841 87.6487 145.37 87.8509C144.903 88.053 144.361 88.1541 143.745 88.1541C142.89 88.1541 142.192 87.9718 141.652 87.6072C141.111 87.2393 140.78 86.7173 140.657 86.0412L142.094 85.8224C142.184 86.197 142.368 86.4804 142.646 86.6726C142.924 86.8615 143.287 86.956 143.735 86.956C144.222 86.956 144.611 86.8549 144.903 86.6527C145.195 86.4472 145.341 86.197 145.341 85.902C145.341 85.6634 145.251 85.4628 145.072 85.3004C144.896 85.138 144.626 85.0154 144.262 84.9325L142.969 84.6491C142.257 84.4867 141.73 84.2282 141.388 83.8736C141.05 83.5189 140.881 83.0698 140.881 82.5263C140.881 82.0755 141.007 81.6811 141.259 81.343C141.511 81.005 141.859 80.7415 142.303 80.5526C142.747 80.3603 143.256 80.2642 143.829 80.2642C144.654 80.2642 145.304 80.4432 145.778 80.8011C146.252 81.1558 146.565 81.6314 146.718 82.228ZM151.792 88.1541C151.04 88.1541 150.392 87.9934 149.849 87.6719C149.308 87.3471 148.891 86.8913 148.596 86.3047C148.304 85.7147 148.158 85.0237 148.158 84.2315C148.158 83.4493 148.304 82.7599 148.596 82.1634C148.891 81.5668 149.302 81.1011 149.829 80.7663C150.359 80.4316 150.979 80.2642 151.688 80.2642C152.119 80.2642 152.537 80.3355 152.941 80.478C153.345 80.6205 153.708 80.8442 154.03 81.1491C154.351 81.4541 154.605 81.8501 154.79 82.3374C154.976 82.8213 155.069 83.4096 155.069 84.1023V84.6293H148.998V83.5156H153.612C153.612 83.1245 153.532 82.7782 153.373 82.4766C153.214 82.1716 152.991 81.9313 152.702 81.7557C152.417 81.58 152.082 81.4922 151.698 81.4922C151.28 81.4922 150.916 81.5949 150.604 81.8004C150.296 82.0026 150.057 82.2678 149.888 82.5959C149.723 82.9207 149.64 83.2737 149.64 83.6548V84.5249C149.64 85.0353 149.729 85.4695 149.908 85.8274C150.09 86.1854 150.344 86.4588 150.669 86.6477C150.994 86.8333 151.373 86.9261 151.807 86.9261C152.089 86.9261 152.346 86.8864 152.578 86.8068C152.81 86.724 153.01 86.6013 153.18 86.4389C153.349 86.2765 153.478 86.076 153.567 85.8374L154.974 86.0909C154.862 86.5052 154.659 86.8681 154.368 87.1797C154.079 87.4879 153.716 87.7282 153.279 87.9006C152.845 88.0696 152.349 88.1541 151.792 88.1541ZM156.837 88V77.8182H158.324V81.6016H158.413C158.5 81.4425 158.624 81.2585 158.786 81.0497C158.949 80.8409 159.174 80.6586 159.462 80.5028C159.751 80.3438 160.132 80.2642 160.606 80.2642C161.222 80.2642 161.772 80.42 162.256 80.7315C162.74 81.0431 163.12 81.4922 163.395 82.0788C163.673 82.6655 163.812 83.3714 163.812 84.1967C163.812 85.022 163.675 85.7296 163.4 86.3196C163.125 86.9062 162.747 87.3587 162.266 87.6768C161.786 87.9917 161.237 88.1491 160.621 88.1491C160.157 88.1491 159.777 88.0713 159.482 87.9155C159.191 87.7597 158.962 87.5774 158.796 87.3686C158.63 87.1598 158.503 86.9742 158.413 86.8118H158.289V88H156.837ZM158.294 84.1818C158.294 84.7187 158.372 85.1894 158.528 85.5938C158.683 85.9981 158.909 86.3146 159.204 86.5433C159.499 86.7687 159.86 86.8814 160.288 86.8814C160.732 86.8814 161.103 86.7637 161.401 86.5284C161.7 86.2898 161.925 85.9666 162.077 85.5589C162.233 85.1513 162.311 84.6922 162.311 84.1818C162.311 83.678 162.235 83.2256 162.082 82.8246C161.933 82.4235 161.708 82.107 161.406 81.875C161.108 81.643 160.735 81.527 160.288 81.527C159.857 81.527 159.492 81.638 159.194 81.8601C158.899 82.0821 158.675 82.392 158.523 82.7898C158.37 83.1875 158.294 83.6515 158.294 84.1818ZM167.704 88.169C167.22 88.169 166.783 88.0795 166.392 87.9006C166 87.7183 165.691 87.4548 165.462 87.1101C165.236 86.7654 165.124 86.3428 165.124 85.8423C165.124 85.4115 165.207 85.0568 165.372 84.7784C165.538 84.5 165.762 84.2796 166.044 84.1172C166.325 83.9548 166.64 83.8321 166.988 83.7493C167.336 83.6664 167.691 83.6035 168.052 83.5604C168.509 83.5073 168.881 83.4643 169.166 83.4311C169.451 83.3946 169.658 83.3366 169.787 83.2571C169.916 83.1776 169.981 83.0483 169.981 82.8693V82.8345C169.981 82.4003 169.858 82.0639 169.613 81.8253C169.371 81.5866 169.01 81.4673 168.529 81.4673C168.029 81.4673 167.634 81.5784 167.346 81.8004C167.061 82.0192 166.864 82.2628 166.754 82.5312L165.357 82.2131C165.523 81.7491 165.765 81.3745 166.083 81.0895C166.405 80.8011 166.774 80.5923 167.192 80.4631C167.61 80.3305 168.049 80.2642 168.509 80.2642C168.814 80.2642 169.137 80.3007 169.479 80.3736C169.824 80.4432 170.145 80.5724 170.443 80.7614C170.745 80.9503 170.992 81.2204 171.184 81.5717C171.376 81.9197 171.472 82.3722 171.472 82.929V88H170.021V86.956H169.961C169.865 87.1482 169.721 87.3371 169.529 87.5227C169.336 87.7083 169.089 87.8625 168.788 87.9851C168.486 88.1077 168.125 88.169 167.704 88.169ZM168.027 86.9759C168.438 86.9759 168.789 86.8946 169.081 86.7322C169.376 86.5698 169.6 86.3577 169.752 86.0959C169.908 85.8307 169.986 85.5473 169.986 85.2457V84.2614C169.933 84.3144 169.83 84.3641 169.678 84.4105C169.529 84.4536 169.358 84.4917 169.166 84.5249C168.973 84.5547 168.786 84.5829 168.604 84.6094C168.422 84.6326 168.269 84.6525 168.146 84.669C167.858 84.7055 167.595 84.7668 167.356 84.853C167.121 84.9392 166.932 85.0634 166.789 85.2259C166.65 85.3849 166.58 85.5971 166.58 85.8622C166.58 86.2301 166.716 86.5085 166.988 86.6974C167.26 86.883 167.606 86.9759 168.027 86.9759ZM176.654 91.0227C176.048 91.0227 175.526 90.9432 175.088 90.7841C174.654 90.625 174.299 90.4145 174.024 90.1527C173.749 89.8909 173.544 89.6042 173.408 89.2926L174.685 88.7656C174.775 88.9115 174.894 89.0656 175.043 89.228C175.196 89.3937 175.401 89.5346 175.66 89.6506C175.922 89.7666 176.258 89.8246 176.669 89.8246C177.232 89.8246 177.698 89.687 178.066 89.4119C178.434 89.1402 178.618 88.706 178.618 88.1094V86.608H178.523C178.434 86.7704 178.305 86.951 178.136 87.1499C177.97 87.3487 177.741 87.5211 177.45 87.6669C177.158 87.8127 176.778 87.8857 176.311 87.8857C175.708 87.8857 175.164 87.7448 174.68 87.4631C174.2 87.178 173.819 86.7588 173.537 86.2053C173.259 85.6484 173.119 84.964 173.119 84.152C173.119 83.34 173.257 82.6439 173.532 82.0639C173.81 81.4839 174.192 81.0398 174.675 80.7315C175.159 80.42 175.708 80.2642 176.321 80.2642C176.795 80.2642 177.178 80.3438 177.469 80.5028C177.761 80.6586 177.988 80.8409 178.151 81.0497C178.316 81.2585 178.444 81.4425 178.533 81.6016H178.643V80.3636H180.099V88.169C180.099 88.8253 179.947 89.3639 179.642 89.7848C179.337 90.2057 178.924 90.5173 178.404 90.7195C177.887 90.9216 177.304 91.0227 176.654 91.0227ZM176.639 86.6527C177.067 86.6527 177.428 86.5533 177.723 86.3544C178.021 86.1522 178.247 85.8639 178.399 85.4893C178.555 85.1115 178.633 84.6591 178.633 84.1321C178.633 83.6184 178.557 83.166 178.404 82.7749C178.252 82.3838 178.028 82.0788 177.733 81.8601C177.438 81.638 177.073 81.527 176.639 81.527C176.192 81.527 175.819 81.643 175.521 81.875C175.222 82.1037 174.997 82.4152 174.844 82.8097C174.695 83.2041 174.621 83.6449 174.621 84.1321C174.621 84.6326 174.697 85.0717 174.849 85.4496C175.002 85.8274 175.227 86.1224 175.526 86.3345C175.827 86.5466 176.198 86.6527 176.639 86.6527ZM184.315 88.169C183.831 88.169 183.394 88.0795 183.003 87.9006C182.612 87.7183 182.302 87.4548 182.073 87.1101C181.848 86.7654 181.735 86.3428 181.735 85.8423C181.735 85.4115 181.818 85.0568 181.984 84.7784C182.149 84.5 182.373 84.2796 182.655 84.1172C182.937 83.9548 183.251 83.8321 183.599 83.7493C183.947 83.6664 184.302 83.6035 184.663 83.5604C185.121 83.5073 185.492 83.4643 185.777 83.4311C186.062 83.3946 186.269 83.3366 186.398 83.2571C186.528 83.1776 186.592 83.0483 186.592 82.8693V82.8345C186.592 82.4003 186.47 82.0639 186.224 81.8253C185.982 81.5866 185.621 81.4673 185.141 81.4673C184.64 81.4673 184.246 81.5784 183.957 81.8004C183.672 82.0192 183.475 82.2628 183.366 82.5312L181.969 82.2131C182.134 81.7491 182.376 81.3745 182.695 81.0895C183.016 80.8011 183.386 80.5923 183.803 80.4631C184.221 80.3305 184.66 80.2642 185.121 80.2642C185.426 80.2642 185.749 80.3007 186.09 80.3736C186.435 80.4432 186.756 80.5724 187.055 80.7614C187.356 80.9503 187.603 81.2204 187.795 81.5717C187.988 81.9197 188.084 82.3722 188.084 82.929V88H186.632V86.956H186.572C186.476 87.1482 186.332 87.3371 186.14 87.5227C185.948 87.7083 185.701 87.8625 185.399 87.9851C185.098 88.1077 184.736 88.169 184.315 88.169ZM184.638 86.9759C185.049 86.9759 185.401 86.8946 185.692 86.7322C185.987 86.5698 186.211 86.3577 186.364 86.0959C186.519 85.8307 186.597 85.5473 186.597 85.2457V84.2614C186.544 84.3144 186.442 84.3641 186.289 84.4105C186.14 84.4536 185.969 84.4917 185.777 84.5249C185.585 84.5547 185.397 84.5829 185.215 84.6094C185.033 84.6326 184.88 84.6525 184.758 84.669C184.469 84.7055 184.206 84.7668 183.967 84.853C183.732 84.9392 183.543 85.0634 183.401 85.2259C183.261 85.3849 183.192 85.5971 183.192 85.8622C183.192 86.2301 183.328 86.5085 183.599 86.6974C183.871 86.883 184.218 86.9759 184.638 86.9759ZM190.064 88V80.3636H191.55V88H190.064ZM190.814 79.1854C190.556 79.1854 190.334 79.0992 190.148 78.9268C189.966 78.7512 189.875 78.5424 189.875 78.3004C189.875 78.0552 189.966 77.8464 190.148 77.674C190.334 77.4983 190.556 77.4105 190.814 77.4105C191.073 77.4105 191.293 77.4983 191.476 77.674C191.661 77.8464 191.754 78.0552 191.754 78.3004C191.754 78.5424 191.661 78.7512 191.476 78.9268C191.293 79.0992 191.073 79.1854 190.814 79.1854ZM32.6719 104.493C32.6188 104.022 32.4001 103.658 32.0156 103.399C31.6312 103.137 31.1473 103.006 30.5639 103.006C30.1463 103.006 29.785 103.073 29.4801 103.205C29.1752 103.335 28.9382 103.513 28.7692 103.742C28.6035 103.968 28.5206 104.224 28.5206 104.513C28.5206 104.755 28.5769 104.964 28.6896 105.139C28.8056 105.315 28.9564 105.462 29.142 105.582C29.331 105.698 29.5331 105.795 29.7486 105.875C29.964 105.951 30.1712 106.014 30.37 106.064L31.3643 106.322C31.6892 106.402 32.0223 106.51 32.3636 106.646C32.705 106.781 33.0215 106.96 33.3132 107.183C33.6049 107.405 33.8402 107.68 34.0192 108.008C34.2015 108.336 34.2926 108.729 34.2926 109.186C34.2926 109.763 34.1435 110.275 33.8452 110.722C33.5502 111.17 33.121 111.523 32.5575 111.781C31.9974 112.04 31.3196 112.169 30.5241 112.169C29.7618 112.169 29.1023 112.048 28.5455 111.806C27.9886 111.564 27.5528 111.221 27.2379 110.777C26.9231 110.33 26.7491 109.799 26.7159 109.186H28.2571C28.2869 109.554 28.4063 109.861 28.6151 110.106C28.8272 110.348 29.0973 110.528 29.4254 110.648C29.7569 110.764 30.1198 110.822 30.5142 110.822C30.9484 110.822 31.3345 110.754 31.6726 110.618C32.014 110.479 32.2824 110.286 32.478 110.041C32.6735 109.793 32.7713 109.503 32.7713 109.171C32.7713 108.87 32.6851 108.623 32.5128 108.43C32.3438 108.238 32.1134 108.079 31.8217 107.953C31.5334 107.827 31.2069 107.716 30.8423 107.62L29.6392 107.292C28.8239 107.07 28.1776 106.743 27.7003 106.312C27.2263 105.882 26.9893 105.312 26.9893 104.602C26.9893 104.016 27.1484 103.504 27.4666 103.066C27.7848 102.629 28.2157 102.289 28.7592 102.047C29.3028 101.802 29.916 101.679 30.5987 101.679C31.2881 101.679 31.8963 101.8 32.4233 102.042C32.9536 102.284 33.3712 102.617 33.6761 103.041C33.9811 103.462 34.1402 103.946 34.1534 104.493H32.6719ZM36.1284 112V101.818H42.5119V103.141H37.6646V106.243H42.1788V107.56H37.6646V110.678H42.5716V112H36.1284ZM53.4084 106.909C53.4084 107.996 53.2095 108.931 52.8118 109.713C52.4141 110.492 51.8688 111.092 51.1761 111.513C50.4867 111.93 49.7029 112.139 48.8246 112.139C47.9429 112.139 47.1558 111.93 46.4631 111.513C45.7737 111.092 45.2301 110.49 44.8324 109.708C44.4347 108.926 44.2358 107.993 44.2358 106.909C44.2358 105.822 44.4347 104.889 44.8324 104.11C45.2301 103.328 45.7737 102.728 46.4631 102.31C47.1558 101.889 47.9429 101.679 48.8246 101.679C49.7029 101.679 50.4867 101.889 51.1761 102.31C51.8688 102.728 52.4141 103.328 52.8118 104.11C53.2095 104.889 53.4084 105.822 53.4084 106.909ZM51.8871 106.909C51.8871 106.08 51.7528 105.383 51.4844 104.816C51.2192 104.246 50.8546 103.815 50.3906 103.523C49.9299 103.228 49.4079 103.081 48.8246 103.081C48.2379 103.081 47.7143 103.228 47.2536 103.523C46.7929 103.815 46.4283 104.246 46.1598 104.816C45.8946 105.383 45.7621 106.08 45.7621 106.909C45.7621 107.738 45.8946 108.437 46.1598 109.007C46.4283 109.574 46.7929 110.005 47.2536 110.3C47.7143 110.591 48.2379 110.737 48.8246 110.737C49.4079 110.737 49.9299 110.591 50.3906 110.3C50.8546 110.005 51.2192 109.574 51.4844 109.007C51.7528 108.437 51.8871 107.738 51.8871 106.909ZM64.582 104.493C64.529 104.022 64.3103 103.658 63.9258 103.399C63.5413 103.137 63.0574 103.006 62.4741 103.006C62.0565 103.006 61.6952 103.073 61.3903 103.205C61.0853 103.335 60.8484 103.513 60.6793 103.742C60.5136 103.968 60.4308 104.224 60.4308 104.513C60.4308 104.755 60.4871 104.964 60.5998 105.139C60.7158 105.315 60.8666 105.462 61.0522 105.582C61.2411 105.698 61.4433 105.795 61.6587 105.875C61.8742 105.951 62.0813 106.014 62.2802 106.064L63.2745 106.322C63.5993 106.402 63.9324 106.51 64.2738 106.646C64.6152 106.781 64.9317 106.96 65.2234 107.183C65.515 107.405 65.7504 107.68 65.9293 108.008C66.1116 108.336 66.2028 108.729 66.2028 109.186C66.2028 109.763 66.0536 110.275 65.7553 110.722C65.4603 111.17 65.0311 111.523 64.4677 111.781C63.9076 112.04 63.2298 112.169 62.4343 112.169C61.672 112.169 61.0124 112.048 60.4556 111.806C59.8988 111.564 59.4629 111.221 59.1481 110.777C58.8332 110.33 58.6592 109.799 58.6261 109.186H60.1673C60.1971 109.554 60.3164 109.861 60.5252 110.106C60.7373 110.348 61.0075 110.528 61.3356 110.648C61.667 110.764 62.0299 110.822 62.4244 110.822C62.8585 110.822 63.2447 110.754 63.5827 110.618C63.9241 110.479 64.1926 110.286 64.3881 110.041C64.5837 109.793 64.6815 109.503 64.6815 109.171C64.6815 108.87 64.5953 108.623 64.4229 108.43C64.2539 108.238 64.0236 108.079 63.7319 107.953C63.4435 107.827 63.1171 107.716 62.7525 107.62L61.5494 107.292C60.734 107.07 60.0877 106.743 59.6104 106.312C59.1365 105.882 58.8995 105.312 58.8995 104.602C58.8995 104.016 59.0586 103.504 59.3768 103.066C59.695 102.629 60.1258 102.289 60.6694 102.047C61.2129 101.802 61.8261 101.679 62.5089 101.679C63.1983 101.679 63.8065 101.8 64.3335 102.042C64.8638 102.284 65.2814 102.617 65.5863 103.041C65.8912 103.462 66.0503 103.946 66.0636 104.493H64.582ZM67.9192 114.864V104.364H69.3709V105.602H69.4952C69.5814 105.442 69.7057 105.259 69.8681 105.05C70.0305 104.841 70.2559 104.659 70.5442 104.503C70.8326 104.344 71.2137 104.264 71.6877 104.264C72.3042 104.264 72.8543 104.42 73.3382 104.732C73.8221 105.043 74.2016 105.492 74.4767 106.079C74.7551 106.665 74.8944 107.371 74.8944 108.197C74.8944 109.022 74.7568 109.73 74.4817 110.32C74.2066 110.906 73.8288 111.359 73.3482 111.677C72.8676 111.992 72.3191 112.149 71.7026 112.149C71.2386 112.149 70.8591 112.071 70.5641 111.915C70.2724 111.76 70.0437 111.577 69.878 111.369C69.7123 111.16 69.5847 110.974 69.4952 110.812H69.4057V114.864H67.9192ZM69.3759 108.182C69.3759 108.719 69.4538 109.189 69.6096 109.594C69.7653 109.998 69.9907 110.315 70.2857 110.543C70.5807 110.769 70.9419 110.881 71.3695 110.881C71.8136 110.881 72.1848 110.764 72.4831 110.528C72.7814 110.29 73.0068 109.967 73.1593 109.559C73.315 109.151 73.3929 108.692 73.3929 108.182C73.3929 107.678 73.3167 107.226 73.1642 106.825C73.0151 106.424 72.7897 106.107 72.4881 105.875C72.1898 105.643 71.8169 105.527 71.3695 105.527C70.9386 105.527 70.574 105.638 70.2757 105.86C69.9808 106.082 69.757 106.392 69.6046 106.79C69.4521 107.187 69.3759 107.652 69.3759 108.182ZM79.851 112.154C79.0987 112.154 78.4507 111.993 77.9071 111.672C77.3669 111.347 76.9493 110.891 76.6543 110.305C76.3626 109.715 76.2168 109.024 76.2168 108.232C76.2168 107.449 76.3626 106.76 76.6543 106.163C76.9493 105.567 77.3603 105.101 77.8873 104.766C78.4176 104.432 79.0373 104.264 79.7466 104.264C80.1775 104.264 80.5951 104.335 80.9995 104.478C81.4038 104.621 81.7667 104.844 82.0882 105.149C82.4097 105.454 82.6633 105.85 82.8489 106.337C83.0345 106.821 83.1273 107.41 83.1273 108.102V108.629H77.057V107.516H81.6706C81.6706 107.125 81.5911 106.778 81.432 106.477C81.2729 106.172 81.0492 105.931 80.7608 105.756C80.4758 105.58 80.141 105.492 79.7566 105.492C79.339 105.492 78.9744 105.595 78.6628 105.8C78.3546 106.003 78.1159 106.268 77.9469 106.596C77.7812 106.921 77.6983 107.274 77.6983 107.655V108.525C77.6983 109.035 77.7878 109.469 77.9668 109.827C78.1491 110.185 78.4026 110.459 78.7275 110.648C79.0523 110.833 79.4318 110.926 79.8659 110.926C80.1477 110.926 80.4045 110.886 80.6365 110.807C80.8685 110.724 81.0691 110.601 81.2381 110.439C81.4071 110.277 81.5364 110.076 81.6259 109.837L83.0328 110.091C82.9202 110.505 82.718 110.868 82.4263 111.18C82.138 111.488 81.775 111.728 81.3375 111.901C80.9033 112.07 80.4078 112.154 79.851 112.154ZM87.9933 112.154C87.2541 112.154 86.6178 111.987 86.0842 111.652C85.5539 111.314 85.1462 110.848 84.8612 110.255C84.5761 109.662 84.4336 108.982 84.4336 108.217C84.4336 107.441 84.5794 106.757 84.8711 106.163C85.1628 105.567 85.5737 105.101 86.104 104.766C86.6344 104.432 87.2591 104.264 87.9783 104.264C88.5584 104.264 89.0754 104.372 89.5295 104.587C89.9835 104.799 90.3498 105.098 90.6282 105.482C90.9099 105.867 91.0773 106.316 91.1303 106.83H89.6836C89.604 106.472 89.4218 106.163 89.1367 105.905C88.855 105.646 88.4772 105.517 88.0032 105.517C87.5889 105.517 87.226 105.626 86.9144 105.845C86.6062 106.061 86.3659 106.369 86.1935 106.77C86.0212 107.168 85.935 107.638 85.935 108.182C85.935 108.739 86.0195 109.219 86.1886 109.624C86.3576 110.028 86.5962 110.341 86.9045 110.563C87.216 110.785 87.5823 110.896 88.0032 110.896C88.2849 110.896 88.5401 110.845 88.7688 110.742C89.0008 110.636 89.1947 110.485 89.3505 110.29C89.5096 110.094 89.6206 109.859 89.6836 109.584H91.1303C91.0773 110.078 90.9165 110.518 90.6481 110.906C90.3796 111.294 90.02 111.599 89.5692 111.821C89.1218 112.043 88.5965 112.154 87.9933 112.154ZM92.72 112V104.364H94.2065V112H92.72ZM93.4707 103.185C93.2122 103.185 92.9901 103.099 92.8045 102.927C92.6222 102.751 92.5311 102.542 92.5311 102.3C92.5311 102.055 92.6222 101.846 92.8045 101.674C92.9901 101.498 93.2122 101.411 93.4707 101.411C93.7292 101.411 93.9496 101.498 94.1319 101.674C94.3175 101.846 94.4103 102.055 94.4103 102.3C94.4103 102.542 94.3175 102.751 94.1319 102.927C93.9496 103.099 93.7292 103.185 93.4707 103.185ZM98.4286 112.169C97.9447 112.169 97.5072 112.08 97.1161 111.901C96.725 111.718 96.4151 111.455 96.1864 111.11C95.9611 110.765 95.8484 110.343 95.8484 109.842C95.8484 109.411 95.9312 109.057 96.0969 108.778C96.2627 108.5 96.4864 108.28 96.7681 108.117C97.0498 107.955 97.3647 107.832 97.7127 107.749C98.0607 107.666 98.4154 107.603 98.7766 107.56C99.234 107.507 99.6052 107.464 99.8903 107.431C100.175 107.395 100.382 107.337 100.512 107.257C100.641 107.178 100.706 107.048 100.706 106.869V106.835C100.706 106.4 100.583 106.064 100.338 105.825C100.096 105.587 99.7345 105.467 99.2539 105.467C98.7534 105.467 98.359 105.578 98.0707 105.8C97.7856 106.019 97.5884 106.263 97.479 106.531L96.082 106.213C96.2478 105.749 96.4897 105.375 96.8079 105.089C97.1294 104.801 97.4989 104.592 97.9165 104.463C98.3342 104.33 98.7733 104.264 99.234 104.264C99.5389 104.264 99.8621 104.301 100.203 104.374C100.548 104.443 100.87 104.572 101.168 104.761C101.47 104.95 101.717 105.22 101.909 105.572C102.101 105.92 102.197 106.372 102.197 106.929V112H100.745V110.956H100.686C100.59 111.148 100.445 111.337 100.253 111.523C100.061 111.708 99.814 111.862 99.5124 111.985C99.2108 112.108 98.8496 112.169 98.4286 112.169ZM98.7518 110.976C99.1628 110.976 99.5141 110.895 99.8058 110.732C100.101 110.57 100.324 110.358 100.477 110.096C100.633 109.831 100.711 109.547 100.711 109.246V108.261C100.658 108.314 100.555 108.364 100.402 108.411C100.253 108.454 100.083 108.492 99.8903 108.525C99.698 108.555 99.5108 108.583 99.3285 108.609C99.1462 108.633 98.9937 108.652 98.8711 108.669C98.5827 108.705 98.3192 108.767 98.0806 108.853C97.8453 108.939 97.6564 109.063 97.5138 109.226C97.3746 109.385 97.305 109.597 97.305 109.862C97.305 110.23 97.4409 110.509 97.7127 110.697C97.9845 110.883 98.3308 110.976 98.7518 110.976ZM105.664 101.818V112H104.177V101.818H105.664ZM107.663 112V104.364H109.15V112H107.663ZM108.414 103.185C108.156 103.185 107.933 103.099 107.748 102.927C107.566 102.751 107.474 102.542 107.474 102.3C107.474 102.055 107.566 101.846 107.748 101.674C107.933 101.498 108.156 101.411 108.414 101.411C108.673 101.411 108.893 101.498 109.075 101.674C109.261 101.846 109.354 102.055 109.354 102.3C109.354 102.542 109.261 102.751 109.075 102.927C108.893 103.099 108.673 103.185 108.414 103.185ZM116.872 106.228L115.525 106.467C115.468 106.294 115.379 106.13 115.256 105.974C115.137 105.819 114.974 105.691 114.769 105.592C114.564 105.492 114.307 105.442 113.998 105.442C113.577 105.442 113.226 105.537 112.944 105.726C112.663 105.911 112.522 106.152 112.522 106.447C112.522 106.702 112.616 106.907 112.805 107.063C112.994 107.219 113.299 107.347 113.72 107.446L114.933 107.724C115.636 107.887 116.159 108.137 116.504 108.475C116.849 108.813 117.021 109.252 117.021 109.793C117.021 110.25 116.889 110.658 116.623 111.016C116.362 111.37 115.995 111.649 115.525 111.851C115.057 112.053 114.515 112.154 113.899 112.154C113.044 112.154 112.346 111.972 111.806 111.607C111.266 111.239 110.934 110.717 110.812 110.041L112.248 109.822C112.338 110.197 112.522 110.48 112.8 110.673C113.079 110.862 113.442 110.956 113.889 110.956C114.376 110.956 114.766 110.855 115.057 110.653C115.349 110.447 115.495 110.197 115.495 109.902C115.495 109.663 115.405 109.463 115.226 109.3C115.051 109.138 114.781 109.015 114.416 108.933L113.123 108.649C112.411 108.487 111.884 108.228 111.542 107.874C111.204 107.519 111.035 107.07 111.035 106.526C111.035 106.076 111.161 105.681 111.413 105.343C111.665 105.005 112.013 104.741 112.457 104.553C112.901 104.36 113.41 104.264 113.983 104.264C114.809 104.264 115.458 104.443 115.932 104.801C116.406 105.156 116.72 105.631 116.872 106.228ZM122.22 104.364V105.557H118.049V104.364H122.22ZM119.168 102.534H120.654V109.758C120.654 110.046 120.697 110.263 120.783 110.409C120.87 110.552 120.981 110.649 121.116 110.702C121.256 110.752 121.406 110.777 121.569 110.777C121.688 110.777 121.793 110.769 121.882 110.752C121.972 110.736 122.041 110.722 122.091 110.712L122.359 111.94C122.273 111.973 122.151 112.007 121.991 112.04C121.832 112.076 121.634 112.096 121.395 112.099C121.004 112.106 120.639 112.036 120.301 111.891C119.963 111.745 119.69 111.519 119.481 111.214C119.272 110.91 119.168 110.527 119.168 110.066V102.534ZM124.844 112.094C124.572 112.094 124.338 111.998 124.143 111.806C123.947 111.611 123.85 111.375 123.85 111.1C123.85 110.828 123.947 110.596 124.143 110.404C124.338 110.209 124.572 110.111 124.844 110.111C125.116 110.111 125.349 110.209 125.545 110.404C125.74 110.596 125.838 110.828 125.838 111.1C125.838 111.282 125.792 111.45 125.699 111.602C125.61 111.751 125.49 111.871 125.341 111.96C125.192 112.05 125.026 112.094 124.844 112.094Z" fill="#4A5568"/>
</g>
<defs>
<filter id="filter0_d_4277_10279" x="0.217206" y="0.940054" width="340.36" height="163.36" filterUnits="userSpaceOnUse" color-interpolation-filters="sRGB">
<feFlood flood-opacity="0" result="BackgroundImageFix"/>
<feColorMatrix in="SourceAlpha" type="matrix" values="0 0 0 0 0 0 0 0 0 0 0 0 0 0 0 0 0 0 127 0" result="hardAlpha"/>
<feOffset dx="9.39704" dy="10.1199"/>
<feGaussianBlur stdDeviation="7.58992"/>
<feComposite in2="hardAlpha" operator="out"/>
<feColorMatrix type="matrix" values="0 0 0 0 0.0375 0 0 0 0 0.18975 0 0 0 0 0.3 0 0 0 0.06 0"/>
<feBlend mode="normal" in2="BackgroundImageFix" result="effect1_dropShadow_4277_10279"/>
<feBlend mode="normal" in="SourceGraphic" in2="effect1_dropShadow_4277_10279" result="shape"/>
</filter>
</defs>
</svg>
