<svg width="370" height="165" viewBox="0 0 370 165" fill="none" xmlns="http://www.w3.org/2000/svg">
<g filter="url(#filter0_d_4277_10282)">
<rect x="6" y="6" width="339" height="133" rx="20" fill="#FFCF54"/>
<path d="M27.3125 54V33.6364H36.1023C37.6136 33.6364 38.9361 33.9347 40.0696 34.5312C41.2031 35.1278 42.0848 35.9664 42.7145 37.0469C43.3442 38.1274 43.6591 39.3902 43.6591 40.8352C43.6591 42.2936 43.3343 43.5563 42.6847 44.6236C42.0417 45.6908 41.1368 46.5128 39.9702 47.0895C38.8101 47.6662 37.4545 47.9545 35.9034 47.9545H30.6534V43.6591H34.7898C35.4394 43.6591 35.9929 43.5464 36.4503 43.321C36.9143 43.089 37.2689 42.7609 37.5142 42.3366C37.7661 41.9124 37.892 41.4119 37.892 40.8352C37.892 40.2519 37.7661 39.7547 37.5142 39.3438C37.2689 38.9261 36.9143 38.608 36.4503 38.3892C35.9929 38.1638 35.4394 38.0511 34.7898 38.0511H32.8409V54H27.3125ZM52.7571 54.2784C51.1264 54.2784 49.7211 53.9669 48.5412 53.3438C47.3679 52.714 46.4631 51.8125 45.8267 50.6392C45.197 49.4593 44.8821 48.0473 44.8821 46.4034C44.8821 44.8258 45.2003 43.447 45.8366 42.267C46.473 41.0871 47.3712 40.169 48.5312 39.5128C49.6913 38.8565 51.0601 38.5284 52.6378 38.5284C53.7912 38.5284 54.8352 38.7074 55.7699 39.0653C56.7045 39.4233 57.5033 39.9437 58.1662 40.6264C58.8291 41.3026 59.3395 42.1245 59.6974 43.0923C60.0554 44.0601 60.2344 45.1506 60.2344 46.3636V47.6364H46.5923V44.6136H55.1832C55.1766 44.1761 55.0639 43.7917 54.8452 43.4602C54.633 43.1222 54.3447 42.8603 53.9801 42.6747C53.6222 42.4825 53.2145 42.3864 52.7571 42.3864C52.313 42.3864 51.9053 42.4825 51.5341 42.6747C51.1629 42.8603 50.8646 43.1188 50.6392 43.4503C50.4205 43.7817 50.3045 44.1695 50.2912 44.6136V47.875C50.2912 48.3655 50.3939 48.803 50.5994 49.1875C50.8049 49.572 51.0999 49.8736 51.4844 50.0923C51.8688 50.3111 52.3329 50.4205 52.8764 50.4205C53.2543 50.4205 53.599 50.3674 53.9105 50.2614C54.2287 50.1553 54.5005 50.0028 54.7259 49.804C54.9512 49.5985 55.117 49.3532 55.223 49.0682H60.2344C60.062 50.1288 59.6544 51.0502 59.0114 51.8324C58.3684 52.608 57.5166 53.2112 56.456 53.642C55.402 54.0663 54.169 54.2784 52.7571 54.2784ZM62.4741 54V38.7273H67.8036V41.6307H67.9627C68.2411 40.5568 68.6819 39.7713 69.2852 39.2741C69.895 38.777 70.6076 38.5284 71.4229 38.5284C71.6616 38.5284 71.8969 38.5483 72.1289 38.5881C72.3675 38.6212 72.5962 38.6709 72.815 38.7372V43.4205C72.5432 43.3277 72.2085 43.258 71.8107 43.2116C71.413 43.1652 71.0716 43.142 70.7866 43.142C70.2496 43.142 69.7657 43.2647 69.3349 43.5099C68.9106 43.7486 68.5759 44.0866 68.3306 44.5241C68.0853 44.955 67.9627 45.4621 67.9627 46.0455V54H62.4741ZM79.5465 50.3807L79.5863 43.858H80.3022L84.0011 38.7273H90.1658L83.9613 46.7216H82.4102L79.5465 50.3807ZM74.6147 54V33.6364H80.1033V54H74.6147ZM84.0408 54L80.5408 47.9545L84.1204 44.0568L90.3249 54H84.0408ZM98.2844 54.2784C96.6538 54.2784 95.2485 53.9669 94.0685 53.3438C92.8952 52.714 91.9904 51.8125 91.354 50.6392C90.7243 49.4593 90.4094 48.0473 90.4094 46.4034C90.4094 44.8258 90.7276 43.447 91.364 42.267C92.0004 41.0871 92.8986 40.169 94.0586 39.5128C95.2186 38.8565 96.5875 38.5284 98.1651 38.5284C99.3185 38.5284 100.363 38.7074 101.297 39.0653C102.232 39.4233 103.031 39.9437 103.694 40.6264C104.356 41.3026 104.867 42.1245 105.225 43.0923C105.583 44.0601 105.762 45.1506 105.762 46.3636V47.6364H92.1197V44.6136H100.711C100.704 44.1761 100.591 43.7917 100.373 43.4602C100.16 43.1222 99.872 42.8603 99.5075 42.6747C99.1495 42.4825 98.7418 42.3864 98.2844 42.3864C97.8403 42.3864 97.4326 42.4825 97.0614 42.6747C96.6902 42.8603 96.3919 43.1188 96.1665 43.4503C95.9478 43.7817 95.8318 44.1695 95.8185 44.6136V47.875C95.8185 48.3655 95.9213 48.803 96.1268 49.1875C96.3323 49.572 96.6272 49.8736 97.0117 50.0923C97.3962 50.3111 97.8602 50.4205 98.4038 50.4205C98.7816 50.4205 99.1263 50.3674 99.4379 50.2614C99.756 50.1553 100.028 50.0028 100.253 49.804C100.479 49.5985 100.644 49.3532 100.75 49.0682H105.762C105.589 50.1288 105.182 51.0502 104.539 51.8324C103.896 52.608 103.044 53.2112 101.983 53.642C100.929 54.0663 99.6964 54.2784 98.2844 54.2784ZM113.49 45.4091V54H108.001V38.7273H113.212V41.6307H113.371C113.702 40.6629 114.286 39.9039 115.121 39.3537C115.963 38.8035 116.944 38.5284 118.064 38.5284C119.144 38.5284 120.082 38.777 120.878 39.2741C121.68 39.7647 122.3 40.4408 122.737 41.3026C123.181 42.1643 123.4 43.1487 123.393 44.2557V54H117.905V45.4091C117.911 44.6534 117.719 44.0601 117.328 43.6293C116.944 43.1984 116.407 42.983 115.717 42.983C115.267 42.983 114.872 43.0824 114.534 43.2812C114.203 43.4735 113.947 43.7519 113.768 44.1165C113.589 44.4744 113.497 44.9053 113.49 45.4091ZM130.359 54.2386C129.384 54.2386 128.522 54.0795 127.773 53.7614C127.031 53.4366 126.448 52.946 126.023 52.2898C125.599 51.6335 125.387 50.7983 125.387 49.7841C125.387 48.9489 125.53 48.2363 125.815 47.6463C126.1 47.0497 126.497 46.5625 127.008 46.1847C127.518 45.8068 128.112 45.5185 128.788 45.3196C129.47 45.1207 130.206 44.9915 130.995 44.9318C131.85 44.8655 132.536 44.786 133.053 44.6932C133.577 44.5937 133.955 44.4579 134.187 44.2855C134.419 44.1065 134.535 43.8712 134.535 43.5795V43.5398C134.535 43.142 134.382 42.8371 134.077 42.625C133.772 42.4129 133.381 42.3068 132.904 42.3068C132.38 42.3068 131.953 42.4228 131.621 42.6548C131.297 42.8802 131.101 43.2282 131.035 43.6989H125.984C126.05 42.7708 126.345 41.9157 126.869 41.1335C127.399 40.3447 128.171 39.715 129.185 39.2443C130.2 38.767 131.466 38.5284 132.984 38.5284C134.077 38.5284 135.058 38.6577 135.927 38.9162C136.795 39.1681 137.534 39.5227 138.144 39.9801C138.754 40.4309 139.218 40.9612 139.536 41.571C139.861 42.1742 140.023 42.8305 140.023 43.5398V54H134.893V51.8523H134.773C134.469 52.4223 134.097 52.883 133.66 53.2344C133.229 53.5857 132.735 53.8409 132.178 54C131.628 54.1591 131.022 54.2386 130.359 54.2386ZM132.148 50.7784C132.566 50.7784 132.957 50.6922 133.322 50.5199C133.693 50.3475 133.995 50.099 134.227 49.7741C134.459 49.4493 134.575 49.0549 134.575 48.5909V47.3182C134.429 47.3778 134.273 47.4342 134.107 47.4872C133.948 47.5402 133.776 47.59 133.59 47.6364C133.411 47.6828 133.219 47.7259 133.013 47.7656C132.815 47.8054 132.606 47.8419 132.387 47.875C131.963 47.9413 131.615 48.0507 131.343 48.2031C131.078 48.349 130.879 48.5312 130.746 48.75C130.621 48.9621 130.558 49.2008 130.558 49.4659C130.558 49.8902 130.707 50.215 131.005 50.4403C131.303 50.6657 131.684 50.7784 132.148 50.7784ZM148.135 33.6364V54H142.646V33.6364H148.135ZM155.863 50.3807L155.903 43.858H156.619L160.317 38.7273H166.482L160.278 46.7216H158.727L155.863 50.3807ZM150.931 54V33.6364H156.42V54H150.931ZM160.357 54L156.857 47.9545L160.437 44.0568L166.641 54H160.357ZM172.167 54.2386C171.193 54.2386 170.331 54.0795 169.582 53.7614C168.84 53.4366 168.256 52.946 167.832 52.2898C167.408 51.6335 167.196 50.7983 167.196 49.7841C167.196 48.9489 167.338 48.2363 167.623 47.6463C167.908 47.0497 168.306 46.5625 168.816 46.1847C169.327 45.8068 169.92 45.5185 170.596 45.3196C171.279 45.1207 172.015 44.9915 172.804 44.9318C173.659 44.8655 174.345 44.786 174.862 44.6932C175.386 44.5937 175.763 44.4579 175.995 44.2855C176.227 44.1065 176.343 43.8712 176.343 43.5795V43.5398C176.343 43.142 176.191 42.8371 175.886 42.625C175.581 42.4129 175.19 42.3068 174.713 42.3068C174.189 42.3068 173.761 42.4228 173.43 42.6548C173.105 42.8802 172.91 43.2282 172.843 43.6989H167.792C167.859 42.7708 168.154 41.9157 168.677 41.1335C169.208 40.3447 169.98 39.715 170.994 39.2443C172.008 38.767 173.274 38.5284 174.792 38.5284C175.886 38.5284 176.867 38.6577 177.735 38.9162C178.604 39.1681 179.343 39.5227 179.953 39.9801C180.563 40.4309 181.027 40.9612 181.345 41.571C181.67 42.1742 181.832 42.8305 181.832 43.5398V54H176.701V51.8523H176.582C176.277 52.4223 175.906 52.883 175.468 53.2344C175.038 53.5857 174.544 53.8409 173.987 54C173.437 54.1591 172.83 54.2386 172.167 54.2386ZM173.957 50.7784C174.375 50.7784 174.766 50.6922 175.13 50.5199C175.502 50.3475 175.803 50.099 176.035 49.7741C176.267 49.4493 176.383 49.0549 176.383 48.5909V47.3182C176.237 47.3778 176.082 47.4342 175.916 47.4872C175.757 47.5402 175.584 47.59 175.399 47.6364C175.22 47.6828 175.028 47.7259 174.822 47.7656C174.623 47.8054 174.414 47.8419 174.196 47.875C173.771 47.9413 173.423 48.0507 173.152 48.2031C172.886 48.349 172.688 48.5312 172.555 48.75C172.429 48.9621 172.366 49.2008 172.366 49.4659C172.366 49.8902 172.515 50.215 172.814 50.4403C173.112 50.6657 173.493 50.7784 173.957 50.7784ZM189.943 45.4091V54H184.455V38.7273H189.665V41.6307H189.824C190.155 40.6629 190.739 39.9039 191.574 39.3537C192.416 38.8035 193.397 38.5284 194.517 38.5284C195.598 38.5284 196.536 38.777 197.331 39.2741C198.133 39.7647 198.753 40.4408 199.19 41.3026C199.634 42.1643 199.853 43.1487 199.847 44.2557V54H194.358V45.4091C194.365 44.6534 194.172 44.0601 193.781 43.6293C193.397 43.1984 192.86 42.983 192.17 42.983C191.72 42.983 191.325 43.0824 190.987 43.2812C190.656 43.4735 190.401 43.7519 190.222 44.1165C190.043 44.4744 189.95 44.9053 189.943 45.4091ZM213.344 54H207.379L214.1 33.6364H221.657L228.379 54H222.413L217.958 39.2443H217.799L213.344 54ZM212.231 45.9659H223.447V50.1023H212.231V45.9659ZM235.908 45.4091V54H230.419V38.7273H235.63V41.6307H235.789C236.12 40.6629 236.703 39.9039 237.539 39.3537C238.381 38.8035 239.362 38.5284 240.482 38.5284C241.562 38.5284 242.5 38.777 243.296 39.2741C244.098 39.7647 244.718 40.4408 245.155 41.3026C245.599 42.1643 245.818 43.1487 245.811 44.2557V54H240.323V45.4091C240.329 44.6534 240.137 44.0601 239.746 43.6293C239.362 43.1984 238.825 42.983 238.135 42.983C237.685 42.983 237.29 43.0824 236.952 43.2812C236.621 43.4735 236.365 43.7519 236.186 44.1165C236.007 44.4744 235.915 44.9053 235.908 45.4091ZM254.049 54.1989C252.962 54.1989 251.961 53.9138 251.047 53.3438C250.138 52.7737 249.409 51.9086 248.859 50.7486C248.315 49.5885 248.044 48.1269 248.044 46.3636C248.044 44.5208 248.329 43.0227 248.899 41.8693C249.475 40.7159 250.218 39.8707 251.126 39.3338C252.041 38.7969 253.002 38.5284 254.01 38.5284C254.765 38.5284 255.428 38.661 255.998 38.9261C256.568 39.1847 257.046 39.5327 257.43 39.9702C257.815 40.401 258.106 40.875 258.305 41.392H258.385V33.6364H263.873V54H258.424V51.4943H258.305C258.093 52.0114 257.788 52.4754 257.39 52.8864C256.999 53.2907 256.522 53.6122 255.958 53.8509C255.402 54.0829 254.765 54.1989 254.049 54.1989ZM256.078 49.983C256.582 49.983 257.012 49.8371 257.37 49.5455C257.735 49.2472 258.013 48.8295 258.206 48.2926C258.404 47.7491 258.504 47.1061 258.504 46.3636C258.504 45.608 258.404 44.9616 258.206 44.4247C258.013 43.8812 257.735 43.4669 257.37 43.1818C257.012 42.8902 256.582 42.7443 256.078 42.7443C255.574 42.7443 255.143 42.8902 254.785 43.1818C254.434 43.4669 254.162 43.8812 253.97 44.4247C253.784 44.9616 253.691 45.608 253.691 46.3636C253.691 47.1193 253.784 47.7689 253.97 48.3125C254.162 48.8494 254.434 49.2637 254.785 49.5554C255.143 49.8404 255.574 49.983 256.078 49.983ZM266.568 54V38.7273H271.897V41.6307H272.056C272.335 40.5568 272.776 39.7713 273.379 39.2741C273.989 38.777 274.701 38.5284 275.517 38.5284C275.755 38.5284 275.991 38.5483 276.223 38.5881C276.461 38.6212 276.69 38.6709 276.909 38.7372V43.4205C276.637 43.3277 276.302 43.258 275.904 43.2116C275.507 43.1652 275.165 43.142 274.88 43.142C274.343 43.142 273.859 43.2647 273.429 43.5099C273.004 43.7486 272.67 44.0866 272.424 44.5241C272.179 44.955 272.056 45.4621 272.056 46.0455V54H266.568ZM285.152 54.2784C283.521 54.2784 282.116 53.9669 280.936 53.3438C279.762 52.714 278.858 51.8125 278.221 50.6392C277.592 49.4593 277.277 48.0473 277.277 46.4034C277.277 44.8258 277.595 43.447 278.231 42.267C278.868 41.0871 279.766 40.169 280.926 39.5128C282.086 38.8565 283.455 38.5284 285.032 38.5284C286.186 38.5284 287.23 38.7074 288.164 39.0653C289.099 39.4233 289.898 39.9437 290.561 40.6264C291.224 41.3026 291.734 42.1245 292.092 43.0923C292.45 44.0601 292.629 45.1506 292.629 46.3636V47.6364H278.987V44.6136H287.578C287.571 44.1761 287.458 43.7917 287.24 43.4602C287.028 43.1222 286.739 42.8603 286.375 42.6747C286.017 42.4825 285.609 42.3864 285.152 42.3864C284.708 42.3864 284.3 42.4825 283.929 42.6747C283.557 42.8603 283.259 43.1188 283.034 43.4503C282.815 43.7817 282.699 44.1695 282.686 44.6136V47.875C282.686 48.3655 282.788 48.803 282.994 49.1875C283.199 49.572 283.494 49.8736 283.879 50.0923C284.263 50.3111 284.727 50.4205 285.271 50.4205C285.649 50.4205 285.993 50.3674 286.305 50.2614C286.623 50.1553 286.895 50.0028 287.12 49.804C287.346 49.5985 287.511 49.3532 287.618 49.0682H292.629C292.457 50.1288 292.049 51.0502 291.406 51.8324C290.763 52.608 289.911 53.2112 288.85 53.642C287.797 54.0663 286.564 54.2784 285.152 54.2784ZM297.382 54L293.564 38.7273H299.052L300.802 48.0341H300.922L302.87 38.7273H308.2L310.228 47.9545H310.348L312.018 38.7273H317.507L313.689 54H307.762L305.615 45.8068H305.456L303.308 54H297.382ZM322.429 51.2159L322.349 52.3295C322.283 53.2841 322.124 54.1989 321.872 55.0739C321.627 55.9489 321.365 56.7244 321.086 57.4006C320.815 58.0767 320.599 58.6004 320.44 58.9716H317.059C317.165 58.6004 317.315 58.0634 317.507 57.3608C317.706 56.6648 317.885 55.8759 318.044 54.9943C318.209 54.1193 318.292 53.2311 318.292 52.3295V51.2159H322.429Z" fill="#2B2B29"/>
<path d="M27.9787 88H26.348L30.0121 77.8182H31.7869L35.451 88H33.8203L30.9418 79.6676H30.8622L27.9787 88ZM28.2521 84.0128H33.5419V85.3054H28.2521V84.0128ZM38.2885 83.4659V88H36.802V80.3636H38.2289V81.6065H38.3233C38.499 81.2022 38.7741 80.8774 39.1486 80.6321C39.5265 80.3868 40.0021 80.2642 40.5755 80.2642C41.0958 80.2642 41.5516 80.3736 41.9426 80.5923C42.3337 80.8078 42.637 81.1293 42.8525 81.5568C43.0679 81.9844 43.1756 82.513 43.1756 83.1428V88H41.6891V83.3217C41.6891 82.7682 41.5449 82.3357 41.2566 82.0241C40.9682 81.7093 40.5721 81.5518 40.0684 81.5518C39.7237 81.5518 39.4171 81.6264 39.1486 81.7756C38.8835 81.9247 38.673 82.1435 38.5172 82.4318C38.3648 82.7169 38.2885 83.0616 38.2885 83.4659ZM48.0279 88.1491C47.4114 88.1491 46.8612 87.9917 46.3773 87.6768C45.8967 87.3587 45.5189 86.9062 45.2438 86.3196C44.972 85.7296 44.8361 85.022 44.8361 84.1967C44.8361 83.3714 44.9737 82.6655 45.2488 82.0788C45.5272 81.4922 45.9083 81.0431 46.3922 80.7315C46.8761 80.42 47.4247 80.2642 48.0378 80.2642C48.5118 80.2642 48.8929 80.3438 49.1813 80.5028C49.473 80.6586 49.6983 80.8409 49.8574 81.0497C50.0198 81.2585 50.1458 81.4425 50.2353 81.6016H50.3248V77.8182H51.8113V88H50.3596V86.8118H50.2353C50.1458 86.9742 50.0165 87.1598 49.8475 87.3686C49.6818 87.5774 49.4531 87.7597 49.1614 87.9155C48.8697 88.0713 48.4919 88.1491 48.0279 88.1491ZM48.356 86.8814C48.7836 86.8814 49.1448 86.7687 49.4398 86.5433C49.7381 86.3146 49.9635 85.9981 50.1159 85.5938C50.2717 85.1894 50.3496 84.7187 50.3496 84.1818C50.3496 83.6515 50.2734 83.1875 50.1209 82.7898C49.9685 82.392 49.7447 82.0821 49.4498 81.8601C49.1548 81.638 48.7902 81.527 48.356 81.527C47.9086 81.527 47.5357 81.643 47.2374 81.875C46.9391 82.107 46.7137 82.4235 46.5613 82.8246C46.4121 83.2256 46.3375 83.678 46.3375 84.1818C46.3375 84.6922 46.4138 85.1513 46.5662 85.5589C46.7187 85.9666 46.9441 86.2898 47.2424 86.5284C47.544 86.7637 47.9152 86.8814 48.356 86.8814ZM53.9329 88V80.3636H55.3697V81.5767H55.4492C55.5884 81.1657 55.8337 80.8426 56.185 80.6072C56.5397 80.3686 56.9407 80.2493 57.3881 80.2493C57.4809 80.2493 57.5903 80.2526 57.7163 80.2592C57.8455 80.2659 57.9466 80.2741 58.0195 80.2841V81.706C57.9599 81.6894 57.8538 81.6712 57.7013 81.6513C57.5489 81.6281 57.3964 81.6165 57.244 81.6165C56.8926 81.6165 56.5794 81.6911 56.3043 81.8402C56.0326 81.986 55.8171 82.1899 55.658 82.4517C55.4989 82.7102 55.4194 83.0052 55.4194 83.3366V88H53.9329ZM62.3237 88.1541C61.5713 88.1541 60.9234 87.9934 60.3798 87.6719C59.8395 87.3471 59.4219 86.8913 59.127 86.3047C58.8353 85.7147 58.6895 85.0237 58.6895 84.2315C58.6895 83.4493 58.8353 82.7599 59.127 82.1634C59.4219 81.5668 59.8329 81.1011 60.3599 80.7663C60.8902 80.4316 61.51 80.2642 62.2193 80.2642C62.6502 80.2642 63.0678 80.3355 63.4721 80.478C63.8765 80.6205 64.2394 80.8442 64.5609 81.1491C64.8824 81.4541 65.1359 81.8501 65.3216 82.3374C65.5072 82.8213 65.6 83.4096 65.6 84.1023V84.6293H59.5297V83.5156H64.1433C64.1433 83.1245 64.0637 82.7782 63.9047 82.4766C63.7456 82.1716 63.5218 81.9313 63.2335 81.7557C62.9484 81.58 62.6137 81.4922 62.2292 81.4922C61.8116 81.4922 61.447 81.5949 61.1355 81.8004C60.8272 82.0026 60.5886 82.2678 60.4196 82.5959C60.2538 82.9207 60.171 83.2737 60.171 83.6548V84.5249C60.171 85.0353 60.2605 85.4695 60.4395 85.8274C60.6217 86.1854 60.8753 86.4588 61.2001 86.6477C61.5249 86.8333 61.9044 86.9261 62.3386 86.9261C62.6203 86.9261 62.8772 86.8864 63.1092 86.8068C63.3412 86.724 63.5417 86.6013 63.7108 86.4389C63.8798 86.2765 64.0091 86.076 64.0985 85.8374L65.5055 86.0909C65.3928 86.5052 65.1906 86.8681 64.899 87.1797C64.6106 87.4879 64.2477 87.7282 63.8102 87.9006C63.376 88.0696 62.8805 88.1541 62.3237 88.1541ZM68.8912 88L66.644 80.3636H68.1802L69.6767 85.9716H69.7512L71.2527 80.3636H72.7889L74.2804 85.9467H74.3549L75.8414 80.3636H77.3777L75.1355 88H73.6191L72.068 82.4865H71.9537L70.4025 88H68.8912ZM82.6127 88V77.8182H84.0993V81.6016H84.1887C84.2749 81.4425 84.3992 81.2585 84.5616 81.0497C84.724 80.8409 84.9494 80.6586 85.2377 80.5028C85.5261 80.3438 85.9073 80.2642 86.3812 80.2642C86.9977 80.2642 87.5479 80.42 88.0318 80.7315C88.5157 81.0431 88.8952 81.4922 89.1703 82.0788C89.4487 82.6655 89.5879 83.3714 89.5879 84.1967C89.5879 85.022 89.4503 85.7296 89.1752 86.3196C88.9002 86.9062 88.5223 87.3587 88.0417 87.6768C87.5611 87.9917 87.0126 88.1491 86.3961 88.1491C85.9321 88.1491 85.5526 88.0713 85.2576 87.9155C84.966 87.7597 84.7373 87.5774 84.5716 87.3686C84.4058 87.1598 84.2782 86.9742 84.1887 86.8118H84.0645V88H82.6127ZM84.0694 84.1818C84.0694 84.7187 84.1473 85.1894 84.3031 85.5938C84.4589 85.9981 84.6842 86.3146 84.9792 86.5433C85.2742 86.7687 85.6355 86.8814 86.063 86.8814C86.5072 86.8814 86.8784 86.7637 87.1767 86.5284C87.475 86.2898 87.7003 85.9666 87.8528 85.5589C88.0086 85.1513 88.0865 84.6922 88.0865 84.1818C88.0865 83.678 88.0102 83.2256 87.8578 82.8246C87.7086 82.4235 87.4833 82.107 87.1816 81.875C86.8833 81.643 86.5105 81.527 86.063 81.527C85.6322 81.527 85.2676 81.638 84.9693 81.8601C84.6743 82.0821 84.4506 82.392 84.2981 82.7898C84.1457 83.1875 84.0694 83.6515 84.0694 84.1818ZM94.5483 88.1541C93.7959 88.1541 93.148 87.9934 92.6044 87.6719C92.0642 87.3471 91.6465 86.8913 91.3516 86.3047C91.0599 85.7147 90.9141 85.0237 90.9141 84.2315C90.9141 83.4493 91.0599 82.7599 91.3516 82.1634C91.6465 81.5668 92.0575 81.1011 92.5845 80.7663C93.1148 80.4316 93.7346 80.2642 94.4439 80.2642C94.8748 80.2642 95.2924 80.3355 95.6967 80.478C96.1011 80.6205 96.464 80.8442 96.7855 81.1491C97.107 81.4541 97.3606 81.8501 97.5462 82.3374C97.7318 82.8213 97.8246 83.4096 97.8246 84.1023V84.6293H91.7543V83.5156H96.3679C96.3679 83.1245 96.2884 82.7782 96.1293 82.4766C95.9702 82.1716 95.7464 81.9313 95.4581 81.7557C95.1731 81.58 94.8383 81.4922 94.4538 81.4922C94.0362 81.4922 93.6716 81.5949 93.3601 81.8004C93.0518 82.0026 92.8132 82.2678 92.6442 82.5959C92.4785 82.9207 92.3956 83.2737 92.3956 83.6548V84.5249C92.3956 85.0353 92.4851 85.4695 92.6641 85.8274C92.8464 86.1854 93.0999 86.4588 93.4247 86.6477C93.7495 86.8333 94.129 86.9261 94.5632 86.9261C94.8449 86.9261 95.1018 86.8864 95.3338 86.8068C95.5658 86.724 95.7663 86.6013 95.9354 86.4389C96.1044 86.2765 96.2337 86.076 96.3232 85.8374L97.7301 86.0909C97.6174 86.5052 97.4152 86.8681 97.1236 87.1797C96.8352 87.4879 96.4723 87.7282 96.0348 87.9006C95.6006 88.0696 95.1051 88.1541 94.5483 88.1541ZM99.4739 88V80.3636H100.911V81.5767H100.99C101.129 81.1657 101.375 80.8426 101.726 80.6072C102.081 80.3686 102.482 80.2493 102.929 80.2493C103.022 80.2493 103.131 80.2526 103.257 80.2592C103.387 80.2659 103.488 80.2741 103.561 80.2841V81.706C103.501 81.6894 103.395 81.6712 103.242 81.6513C103.09 81.6281 102.937 81.6165 102.785 81.6165C102.434 81.6165 102.12 81.6911 101.845 81.8402C101.574 81.986 101.358 82.1899 101.199 82.4517C101.04 82.7102 100.96 83.0052 100.96 83.3366V88H99.4739ZM104.847 90.8636V80.3636H106.299V81.6016H106.423C106.509 81.4425 106.633 81.2585 106.796 81.0497C106.958 80.8409 107.184 80.6586 107.472 80.5028C107.76 80.3438 108.141 80.2642 108.615 80.2642C109.232 80.2642 109.782 80.42 110.266 80.7315C110.75 81.0431 111.129 81.4922 111.404 82.0788C111.683 82.6655 111.822 83.3714 111.822 84.1967C111.822 85.022 111.685 85.7296 111.409 86.3196C111.134 86.9062 110.757 87.3587 110.276 87.6768C109.795 87.9917 109.247 88.1491 108.63 88.1491C108.166 88.1491 107.787 88.0713 107.492 87.9155C107.2 87.7597 106.971 87.5774 106.806 87.3686C106.64 87.1598 106.512 86.9742 106.423 86.8118H106.333V90.8636H104.847ZM106.304 84.1818C106.304 84.7187 106.382 85.1894 106.537 85.5938C106.693 85.9981 106.918 86.3146 107.213 86.5433C107.508 86.7687 107.87 86.8814 108.297 86.8814C108.741 86.8814 109.113 86.7637 109.411 86.5284C109.709 86.2898 109.935 85.9666 110.087 85.5589C110.243 85.1513 110.321 84.6922 110.321 84.1818C110.321 83.678 110.244 83.2256 110.092 82.8246C109.943 82.4235 109.717 82.107 109.416 81.875C109.118 81.643 108.745 81.527 108.297 81.527C107.866 81.527 107.502 81.638 107.203 81.8601C106.908 82.0821 106.685 82.392 106.532 82.7898C106.38 83.1875 106.304 83.6515 106.304 84.1818ZM113.488 88V80.3636H114.924V81.5767H115.004C115.143 81.1657 115.388 80.8426 115.74 80.6072C116.094 80.3686 116.495 80.2493 116.943 80.2493C117.036 80.2493 117.145 80.2526 117.271 80.2592C117.4 80.2659 117.501 80.2741 117.574 80.2841V81.706C117.515 81.6894 117.408 81.6712 117.256 81.6513C117.104 81.6281 116.951 81.6165 116.799 81.6165C116.447 81.6165 116.134 81.6911 115.859 81.8402C115.587 81.986 115.372 82.1899 115.213 82.4517C115.054 82.7102 114.974 83.0052 114.974 83.3366V88H113.488ZM121.804 88.1541C121.088 88.1541 120.463 87.9901 119.93 87.6619C119.396 87.3338 118.982 86.8748 118.687 86.2848C118.392 85.6948 118.244 85.0054 118.244 84.2166C118.244 83.4245 118.392 82.7318 118.687 82.1385C118.982 81.5452 119.396 81.0845 119.93 80.7564C120.463 80.4283 121.088 80.2642 121.804 80.2642C122.52 80.2642 123.144 80.4283 123.678 80.7564C124.212 81.0845 124.626 81.5452 124.921 82.1385C125.216 82.7318 125.363 83.4245 125.363 84.2166C125.363 85.0054 125.216 85.6948 124.921 86.2848C124.626 86.8748 124.212 87.3338 123.678 87.6619C123.144 87.9901 122.52 88.1541 121.804 88.1541ZM121.809 86.9062C122.273 86.9062 122.657 86.7836 122.962 86.5384C123.267 86.2931 123.492 85.9666 123.638 85.5589C123.787 85.1513 123.862 84.7022 123.862 84.2116C123.862 83.7244 123.787 83.277 123.638 82.8693C123.492 82.4583 123.267 82.1286 122.962 81.88C122.657 81.6314 122.273 81.5071 121.809 81.5071C121.341 81.5071 120.954 81.6314 120.645 81.88C120.34 82.1286 120.113 82.4583 119.964 82.8693C119.818 83.277 119.746 83.7244 119.746 84.2116C119.746 84.7022 119.818 85.1513 119.964 85.5589C120.113 85.9666 120.34 86.2931 120.645 86.5384C120.954 86.7836 121.341 86.9062 121.809 86.9062ZM130.657 80.3636V81.5568H126.342V80.3636H130.657ZM127.525 88V79.4787C127.525 79.0014 127.629 78.6053 127.838 78.2905C128.047 77.9723 128.324 77.7353 128.668 77.5795C129.013 77.4205 129.388 77.3409 129.792 77.3409C130.09 77.3409 130.345 77.3658 130.558 77.4155C130.77 77.4619 130.927 77.505 131.03 77.5447L130.682 78.7479C130.612 78.728 130.523 78.7048 130.413 78.6783C130.304 78.6484 130.171 78.6335 130.016 78.6335C129.654 78.6335 129.396 78.723 129.24 78.902C129.088 79.081 129.011 79.3395 129.011 79.6776V88H127.525ZM135.181 88.1541C134.429 88.1541 133.781 87.9934 133.237 87.6719C132.697 87.3471 132.279 86.8913 131.984 86.3047C131.693 85.7147 131.547 85.0237 131.547 84.2315C131.547 83.4493 131.693 82.7599 131.984 82.1634C132.279 81.5668 132.69 81.1011 133.217 80.7663C133.748 80.4316 134.367 80.2642 135.077 80.2642C135.508 80.2642 135.925 80.3355 136.33 80.478C136.734 80.6205 137.097 80.8442 137.418 81.1491C137.74 81.4541 137.993 81.8501 138.179 82.3374C138.365 82.8213 138.457 83.4096 138.457 84.1023V84.6293H132.387V83.5156H137.001C137.001 83.1245 136.921 82.7782 136.762 82.4766C136.603 82.1716 136.379 81.9313 136.091 81.7557C135.806 81.58 135.471 81.4922 135.087 81.4922C134.669 81.4922 134.304 81.5949 133.993 81.8004C133.685 82.0026 133.446 82.2678 133.277 82.5959C133.111 82.9207 133.028 83.2737 133.028 83.6548V84.5249C133.028 85.0353 133.118 85.4695 133.297 85.8274C133.479 86.1854 133.733 86.4588 134.058 86.6477C134.382 86.8333 134.762 86.9261 135.196 86.9261C135.478 86.9261 135.735 86.8864 135.967 86.8068C136.199 86.724 136.399 86.6013 136.568 86.4389C136.737 86.2765 136.866 86.076 136.956 85.8374L138.363 86.0909C138.25 86.5052 138.048 86.8681 137.756 87.1797C137.468 87.4879 137.105 87.7282 136.668 87.9006C136.233 88.0696 135.738 88.1541 135.181 88.1541ZM145.829 82.228L144.482 82.4666C144.425 82.2943 144.336 82.1302 144.213 81.9744C144.094 81.8187 143.932 81.6911 143.726 81.5916C143.521 81.4922 143.264 81.4425 142.955 81.4425C142.535 81.4425 142.183 81.5369 141.901 81.7259C141.62 81.9115 141.479 82.1518 141.479 82.4467C141.479 82.7019 141.573 82.9074 141.762 83.0632C141.951 83.219 142.256 83.3466 142.677 83.446L143.89 83.7244C144.593 83.8868 145.116 84.1371 145.461 84.4751C145.806 84.8132 145.978 85.2524 145.978 85.7926C145.978 86.25 145.846 86.6577 145.58 87.0156C145.319 87.3703 144.952 87.6487 144.482 87.8509C144.014 88.053 143.472 88.1541 142.856 88.1541C142.001 88.1541 141.303 87.9718 140.763 87.6072C140.223 87.2393 139.891 86.7173 139.769 86.0412L141.205 85.8224C141.295 86.197 141.479 86.4804 141.757 86.6726C142.036 86.8615 142.399 86.956 142.846 86.956C143.333 86.956 143.723 86.8549 144.014 86.6527C144.306 86.4472 144.452 86.197 144.452 85.902C144.452 85.6634 144.362 85.4628 144.183 85.3004C144.008 85.138 143.738 85.0154 143.373 84.9325L142.08 84.6491C141.368 84.4867 140.841 84.2282 140.499 83.8736C140.161 83.5189 139.992 83.0698 139.992 82.5263C139.992 82.0755 140.118 81.6811 140.37 81.343C140.622 81.005 140.97 80.7415 141.414 80.5526C141.858 80.3603 142.367 80.2642 142.941 80.2642C143.766 80.2642 144.415 80.4432 144.889 80.8011C145.363 81.1558 145.677 81.6314 145.829 82.228ZM147.613 88V80.3636H149.099V88H147.613ZM148.363 79.1854C148.105 79.1854 147.883 79.0992 147.697 78.9268C147.515 78.7512 147.424 78.5424 147.424 78.3004C147.424 78.0552 147.515 77.8464 147.697 77.674C147.883 77.4983 148.105 77.4105 148.363 77.4105C148.622 77.4105 148.842 77.4983 149.025 77.674C149.21 77.8464 149.303 78.0552 149.303 78.3004C149.303 78.5424 149.21 78.7512 149.025 78.9268C148.842 79.0992 148.622 79.1854 148.363 79.1854ZM160.526 82.228L159.179 82.4666C159.123 82.2943 159.033 82.1302 158.911 81.9744C158.791 81.8187 158.629 81.6911 158.423 81.5916C158.218 81.4922 157.961 81.4425 157.653 81.4425C157.232 81.4425 156.88 81.5369 156.599 81.7259C156.317 81.9115 156.176 82.1518 156.176 82.4467C156.176 82.7019 156.271 82.9074 156.46 83.0632C156.648 83.219 156.953 83.3466 157.374 83.446L158.587 83.7244C159.29 83.8868 159.814 84.1371 160.158 84.4751C160.503 84.8132 160.675 85.2524 160.675 85.7926C160.675 86.25 160.543 86.6577 160.278 87.0156C160.016 87.3703 159.65 87.6487 159.179 87.8509C158.712 88.053 158.17 88.1541 157.553 88.1541C156.698 88.1541 156 87.9718 155.46 87.6072C154.92 87.2393 154.589 86.7173 154.466 86.0412L155.903 85.8224C155.992 86.197 156.176 86.4804 156.455 86.6726C156.733 86.8615 157.096 86.956 157.543 86.956C158.031 86.956 158.42 86.8549 158.712 86.6527C159.003 86.4472 159.149 86.197 159.149 85.902C159.149 85.6634 159.06 85.4628 158.881 85.3004C158.705 85.138 158.435 85.0154 158.07 84.9325L156.778 84.6491C156.065 84.4867 155.538 84.2282 155.197 83.8736C154.859 83.5189 154.69 83.0698 154.69 82.5263C154.69 82.0755 154.816 81.6811 155.067 81.343C155.319 81.005 155.667 80.7415 156.112 80.5526C156.556 80.3603 157.064 80.2642 157.638 80.2642C158.463 80.2642 159.113 80.4432 159.587 80.8011C160.061 81.1558 160.374 81.6314 160.526 82.228ZM165.601 88.1541C164.849 88.1541 164.201 87.9934 163.657 87.6719C163.117 87.3471 162.699 86.8913 162.404 86.3047C162.113 85.7147 161.967 85.0237 161.967 84.2315C161.967 83.4493 162.113 82.7599 162.404 82.1634C162.699 81.5668 163.11 81.1011 163.637 80.7663C164.168 80.4316 164.787 80.2642 165.497 80.2642C165.927 80.2642 166.345 80.3355 166.749 80.478C167.154 80.6205 167.517 80.8442 167.838 81.1491C168.16 81.4541 168.413 81.8501 168.599 82.3374C168.785 82.8213 168.877 83.4096 168.877 84.1023V84.6293H162.807V83.5156H167.421C167.421 83.1245 167.341 82.7782 167.182 82.4766C167.023 82.1716 166.799 81.9313 166.511 81.7557C166.226 81.58 165.891 81.4922 165.507 81.4922C165.089 81.4922 164.724 81.5949 164.413 81.8004C164.105 82.0026 163.866 82.2678 163.697 82.5959C163.531 82.9207 163.448 83.2737 163.448 83.6548V84.5249C163.448 85.0353 163.538 85.4695 163.717 85.8274C163.899 86.1854 164.153 86.4588 164.477 86.6477C164.802 86.8333 165.182 86.9261 165.616 86.9261C165.898 86.9261 166.155 86.8864 166.387 86.8068C166.619 86.724 166.819 86.6013 166.988 86.4389C167.157 86.2765 167.286 86.076 167.376 85.8374L168.783 86.0909C168.67 86.5052 168.468 86.8681 168.176 87.1797C167.888 87.4879 167.525 87.7282 167.088 87.9006C166.653 88.0696 166.158 88.1541 165.601 88.1541ZM170.646 88V77.8182H172.132V81.6016H172.222C172.308 81.4425 172.432 81.2585 172.595 81.0497C172.757 80.8409 172.983 80.6586 173.271 80.5028C173.559 80.3438 173.94 80.2642 174.414 80.2642C175.031 80.2642 175.581 80.42 176.065 80.7315C176.549 81.0431 176.928 81.4922 177.203 82.0788C177.482 82.6655 177.621 83.3714 177.621 84.1967C177.621 85.022 177.484 85.7296 177.208 86.3196C176.933 86.9062 176.556 87.3587 176.075 87.6768C175.594 87.9917 175.046 88.1491 174.429 88.1491C173.965 88.1491 173.586 88.0713 173.291 87.9155C172.999 87.7597 172.77 87.5774 172.605 87.3686C172.439 87.1598 172.311 86.9742 172.222 86.8118H172.098V88H170.646ZM172.103 84.1818C172.103 84.7187 172.181 85.1894 172.336 85.5938C172.492 85.9981 172.717 86.3146 173.012 86.5433C173.307 86.7687 173.669 86.8814 174.096 86.8814C174.54 86.8814 174.912 86.7637 175.21 86.5284C175.508 86.2898 175.734 85.9666 175.886 85.5589C176.042 85.1513 176.12 84.6922 176.12 84.1818C176.12 83.678 176.043 83.2256 175.891 82.8246C175.742 82.4235 175.516 82.107 175.215 81.875C174.917 81.643 174.544 81.527 174.096 81.527C173.665 81.527 173.301 81.638 173.002 81.8601C172.708 82.0821 172.484 82.392 172.331 82.7898C172.179 83.1875 172.103 83.6515 172.103 84.1818ZM181.513 88.169C181.029 88.169 180.591 88.0795 180.2 87.9006C179.809 87.7183 179.499 87.4548 179.27 87.1101C179.045 86.7654 178.932 86.3428 178.932 85.8423C178.932 85.4115 179.015 85.0568 179.181 84.7784C179.347 84.5 179.57 84.2796 179.852 84.1172C180.134 83.9548 180.449 83.8321 180.797 83.7493C181.145 83.6664 181.499 83.6035 181.861 83.5604C182.318 83.5073 182.689 83.4643 182.974 83.4311C183.259 83.3946 183.466 83.3366 183.596 83.2571C183.725 83.1776 183.79 83.0483 183.79 82.8693V82.8345C183.79 82.4003 183.667 82.0639 183.422 81.8253C183.18 81.5866 182.818 81.4673 182.338 81.4673C181.837 81.4673 181.443 81.5784 181.155 81.8004C180.87 82.0192 180.672 82.2628 180.563 82.5312L179.166 82.2131C179.332 81.7491 179.574 81.3745 179.892 81.0895C180.213 80.8011 180.583 80.5923 181.001 80.4631C181.418 80.3305 181.857 80.2642 182.318 80.2642C182.623 80.2642 182.946 80.3007 183.287 80.3736C183.632 80.4432 183.954 80.5724 184.252 80.7614C184.554 80.9503 184.8 81.2204 184.993 81.5717C185.185 81.9197 185.281 82.3722 185.281 82.929V88H183.829V86.956H183.77C183.674 87.1482 183.529 87.3371 183.337 87.5227C183.145 87.7083 182.898 87.8625 182.596 87.9851C182.295 88.1077 181.934 88.169 181.513 88.169ZM181.836 86.9759C182.247 86.9759 182.598 86.8946 182.89 86.7322C183.185 86.5698 183.408 86.3577 183.561 86.0959C183.717 85.8307 183.795 85.5473 183.795 85.2457V84.2614C183.742 84.3144 183.639 84.3641 183.486 84.4105C183.337 84.4536 183.166 84.4917 182.974 84.5249C182.782 84.5547 182.595 84.5829 182.412 84.6094C182.23 84.6326 182.078 84.6525 181.955 84.669C181.667 84.7055 181.403 84.7668 181.165 84.853C180.929 84.9392 180.74 85.0634 180.598 85.2259C180.459 85.3849 180.389 85.5971 180.389 85.8622C180.389 86.2301 180.525 86.5085 180.797 86.6974C181.068 86.883 181.415 86.9759 181.836 86.9759ZM190.463 91.0227C189.856 91.0227 189.334 90.9432 188.897 90.7841C188.462 90.625 188.108 90.4145 187.833 90.1527C187.558 89.8909 187.352 89.6042 187.216 89.2926L188.494 88.7656C188.583 88.9115 188.703 89.0656 188.852 89.228C189.004 89.3937 189.21 89.5346 189.468 89.6506C189.73 89.7666 190.067 89.8246 190.478 89.8246C191.041 89.8246 191.507 89.687 191.875 89.4119C192.243 89.1402 192.426 88.706 192.426 88.1094V86.608H192.332C192.243 86.7704 192.113 86.951 191.944 87.1499C191.779 87.3487 191.55 87.5211 191.258 87.6669C190.967 87.8127 190.587 87.8857 190.12 87.8857C189.516 87.8857 188.973 87.7448 188.489 87.4631C188.008 87.178 187.627 86.7588 187.346 86.2053C187.067 85.6484 186.928 84.964 186.928 84.152C186.928 83.34 187.065 82.6439 187.341 82.0639C187.619 81.4839 188 81.0398 188.484 80.7315C188.968 80.42 189.516 80.2642 190.13 80.2642C190.604 80.2642 190.986 80.3438 191.278 80.5028C191.57 80.6586 191.797 80.8409 191.959 81.0497C192.125 81.2585 192.252 81.4425 192.342 81.6016H192.451V80.3636H193.908V88.169C193.908 88.8253 193.756 89.3639 193.451 89.7848C193.146 90.2057 192.733 90.5173 192.213 90.7195C191.696 90.9216 191.112 91.0227 190.463 91.0227ZM190.448 86.6527C190.875 86.6527 191.237 86.5533 191.532 86.3544C191.83 86.1522 192.055 85.8639 192.208 85.4893C192.364 85.1115 192.441 84.6591 192.441 84.1321C192.441 83.6184 192.365 83.166 192.213 82.7749C192.06 82.3838 191.837 82.0788 191.542 81.8601C191.247 81.638 190.882 81.527 190.448 81.527C190 81.527 189.627 81.643 189.329 81.875C189.031 82.1037 188.806 82.4152 188.653 82.8097C188.504 83.2041 188.429 83.6449 188.429 84.1321C188.429 84.6326 188.506 85.0717 188.658 85.4496C188.81 85.8274 189.036 86.1224 189.334 86.3345C189.636 86.5466 190.007 86.6527 190.448 86.6527ZM198.124 88.169C197.64 88.169 197.203 88.0795 196.811 87.9006C196.42 87.7183 196.11 87.4548 195.882 87.1101C195.656 86.7654 195.544 86.3428 195.544 85.8423C195.544 85.4115 195.627 85.0568 195.792 84.7784C195.958 84.5 196.182 84.2796 196.463 84.1172C196.745 83.9548 197.06 83.8321 197.408 83.7493C197.756 83.6664 198.111 83.6035 198.472 83.5604C198.929 83.5073 199.301 83.4643 199.586 83.4311C199.871 83.3946 200.078 83.3366 200.207 83.2571C200.336 83.1776 200.401 83.0483 200.401 82.8693V82.8345C200.401 82.4003 200.278 82.0639 200.033 81.8253C199.791 81.5866 199.43 81.4673 198.949 81.4673C198.449 81.4673 198.054 81.5784 197.766 81.8004C197.481 82.0192 197.284 82.2628 197.174 82.5312L195.777 82.2131C195.943 81.7491 196.185 81.3745 196.503 81.0895C196.825 80.8011 197.194 80.5923 197.612 80.4631C198.029 80.3305 198.469 80.2642 198.929 80.2642C199.234 80.2642 199.557 80.3007 199.899 80.3736C200.243 80.4432 200.565 80.5724 200.863 80.7614C201.165 80.9503 201.412 81.2204 201.604 81.5717C201.796 81.9197 201.892 82.3722 201.892 82.929V88H200.441V86.956H200.381C200.285 87.1482 200.141 87.3371 199.949 87.5227C199.756 87.7083 199.509 87.8625 199.208 87.9851C198.906 88.1077 198.545 88.169 198.124 88.169ZM198.447 86.9759C198.858 86.9759 199.209 86.8946 199.501 86.7322C199.796 86.5698 200.02 86.3577 200.172 86.0959C200.328 85.8307 200.406 85.5473 200.406 85.2457V84.2614C200.353 84.3144 200.25 84.3641 200.098 84.4105C199.949 84.4536 199.778 84.4917 199.586 84.5249C199.393 84.5547 199.206 84.5829 199.024 84.6094C198.842 84.6326 198.689 84.6525 198.566 84.669C198.278 84.7055 198.015 84.7668 197.776 84.853C197.541 84.9392 197.352 85.0634 197.209 85.2259C197.07 85.3849 197 85.5971 197 85.8622C197 86.2301 197.136 86.5085 197.408 86.6974C197.68 86.883 198.026 86.9759 198.447 86.9759ZM203.872 88V80.3636H205.359V88H203.872ZM204.623 79.1854C204.365 79.1854 204.142 79.0992 203.957 78.9268C203.775 78.7512 203.683 78.5424 203.683 78.3004C203.683 78.0552 203.775 77.8464 203.957 77.674C204.142 77.4983 204.365 77.4105 204.623 77.4105C204.882 77.4105 205.102 77.4983 205.284 77.674C205.47 77.8464 205.563 78.0552 205.563 78.3004C205.563 78.5424 205.47 78.7512 205.284 78.9268C205.102 79.0992 204.882 79.1854 204.623 79.1854ZM34.0092 105.035C33.9131 104.733 33.7839 104.463 33.6214 104.224C33.4624 103.982 33.2718 103.777 33.0497 103.608C32.8277 103.436 32.5741 103.305 32.2891 103.215C32.0073 103.126 31.6974 103.081 31.3594 103.081C30.786 103.081 30.2689 103.228 29.8082 103.523C29.3475 103.818 28.983 104.251 28.7145 104.821C28.4493 105.388 28.3168 106.082 28.3168 106.904C28.3168 107.729 28.451 108.427 28.7195 108.997C28.9879 109.567 29.3558 110 29.8232 110.295C30.2905 110.59 30.8224 110.737 31.419 110.737C31.9725 110.737 32.4548 110.625 32.8658 110.399C33.2801 110.174 33.5999 109.856 33.8253 109.445C34.054 109.03 34.1683 108.543 34.1683 107.983L34.5661 108.058H31.6527V106.79H35.6548V107.948C35.6548 108.803 35.4725 109.546 35.108 110.175C34.7467 110.802 34.2462 111.286 33.6065 111.627C32.9702 111.969 32.241 112.139 31.419 112.139C30.4976 112.139 29.6889 111.927 28.9929 111.503C28.3002 111.079 27.7599 110.477 27.3722 109.698C26.9844 108.916 26.7905 107.988 26.7905 106.914C26.7905 106.102 26.9032 105.373 27.1286 104.727C27.3539 104.08 27.6705 103.532 28.0781 103.081C28.4891 102.627 28.9714 102.281 29.5249 102.042C30.0817 101.8 30.6899 101.679 31.3494 101.679C31.8996 101.679 32.4117 101.76 32.8857 101.923C33.3629 102.085 33.7872 102.315 34.1584 102.614C34.5329 102.912 34.8428 103.267 35.0881 103.678C35.3333 104.085 35.4991 104.538 35.5852 105.035H34.0092ZM37.4856 112V104.364H38.9224V105.577H39.002C39.1412 105.166 39.3864 104.843 39.7377 104.607C40.0924 104.369 40.4934 104.249 40.9409 104.249C41.0337 104.249 41.1431 104.253 41.269 104.259C41.3983 104.266 41.4993 104.274 41.5723 104.284V105.706C41.5126 105.689 41.4065 105.671 41.2541 105.651C41.1016 105.628 40.9492 105.616 40.7967 105.616C40.4454 105.616 40.1322 105.691 39.8571 105.84C39.5853 105.986 39.3699 106.19 39.2108 106.452C39.0517 106.71 38.9721 107.005 38.9721 107.337V112H37.4856ZM45.0126 112.169C44.5287 112.169 44.0912 112.08 43.7001 111.901C43.309 111.718 42.9991 111.455 42.7704 111.11C42.545 110.765 42.4324 110.343 42.4324 109.842C42.4324 109.411 42.5152 109.057 42.6809 108.778C42.8467 108.5 43.0704 108.28 43.3521 108.117C43.6338 107.955 43.9487 107.832 44.2967 107.749C44.6447 107.666 44.9993 107.603 45.3606 107.56C45.818 107.507 46.1892 107.464 46.4743 107.431C46.7593 107.395 46.9664 107.337 47.0957 107.257C47.225 107.178 47.2896 107.048 47.2896 106.869V106.835C47.2896 106.4 47.167 106.064 46.9217 105.825C46.6797 105.587 46.3185 105.467 45.8379 105.467C45.3374 105.467 44.943 105.578 44.6547 105.8C44.3696 106.019 44.1724 106.263 44.063 106.531L42.666 106.213C42.8317 105.749 43.0737 105.375 43.3919 105.089C43.7134 104.801 44.0829 104.592 44.5005 104.463C44.9181 104.33 45.3573 104.264 45.818 104.264C46.1229 104.264 46.4461 104.301 46.7875 104.374C47.1322 104.443 47.4537 104.572 47.752 104.761C48.0536 104.95 48.3005 105.22 48.4927 105.572C48.685 105.92 48.7811 106.372 48.7811 106.929V112H47.3294V110.956H47.2697C47.1736 111.148 47.0294 111.337 46.8372 111.523C46.6449 111.708 46.398 111.862 46.0964 111.985C45.7948 112.108 45.4335 112.169 45.0126 112.169ZM45.3358 110.976C45.7467 110.976 46.0981 110.895 46.3897 110.732C46.6847 110.57 46.9084 110.358 47.0609 110.096C47.2167 109.831 47.2946 109.547 47.2946 109.246V108.261C47.2415 108.314 47.1388 108.364 46.9863 108.411C46.8372 108.454 46.6665 108.492 46.4743 108.525C46.282 108.555 46.0948 108.583 45.9125 108.609C45.7302 108.633 45.5777 108.652 45.4551 108.669C45.1667 108.705 44.9032 108.767 44.6646 108.853C44.4293 108.939 44.2404 109.063 44.0978 109.226C43.9586 109.385 43.889 109.597 43.889 109.862C43.889 110.23 44.0249 110.509 44.2967 110.697C44.5685 110.883 44.9148 110.976 45.3358 110.976ZM50.761 114.864V104.364H52.2127V105.602H52.337C52.4232 105.442 52.5475 105.259 52.7099 105.05C52.8723 104.841 53.0977 104.659 53.386 104.503C53.6744 104.344 54.0555 104.264 54.5295 104.264C55.146 104.264 55.6961 104.42 56.18 104.732C56.6639 105.043 57.0434 105.492 57.3185 106.079C57.5969 106.665 57.7362 107.371 57.7362 108.197C57.7362 109.022 57.5986 109.73 57.3235 110.32C57.0484 110.906 56.6706 111.359 56.19 111.677C55.7094 111.992 55.1609 112.149 54.5444 112.149C54.0804 112.149 53.7009 112.071 53.4059 111.915C53.1142 111.76 52.8855 111.577 52.7198 111.369C52.5541 111.16 52.4265 110.974 52.337 110.812H52.2475V114.864H50.761ZM52.2177 108.182C52.2177 108.719 52.2956 109.189 52.4513 109.594C52.6071 109.998 52.8325 110.315 53.1275 110.543C53.4225 110.769 53.7837 110.881 54.2113 110.881C54.6554 110.881 55.0266 110.764 55.3249 110.528C55.6232 110.29 55.8486 109.967 56.0011 109.559C56.1568 109.151 56.2347 108.692 56.2347 108.182C56.2347 107.678 56.1585 107.226 56.006 106.825C55.8569 106.424 55.6315 106.107 55.3299 105.875C55.0316 105.643 54.6587 105.527 54.2113 105.527C53.7804 105.527 53.4158 105.638 53.1175 105.86C52.8226 106.082 52.5988 106.392 52.4464 106.79C52.2939 107.187 52.2177 107.652 52.2177 108.182ZM60.8881 107.466V112H59.4016V101.818H60.8683V105.607H60.9627C61.1417 105.196 61.4151 104.869 61.783 104.627C62.1509 104.385 62.6315 104.264 63.2248 104.264C63.7485 104.264 64.2058 104.372 64.5969 104.587C64.9914 104.803 65.2963 105.124 65.5117 105.552C65.7305 105.976 65.8398 106.506 65.8398 107.143V112H64.3533V107.322C64.3533 106.762 64.2092 106.327 63.9208 106.019C63.6325 105.708 63.2314 105.552 62.7177 105.552C62.3664 105.552 62.0515 105.626 61.7731 105.776C61.498 105.925 61.2809 106.143 61.1218 106.432C60.966 106.717 60.8881 107.062 60.8881 107.466ZM67.8235 112V104.364H69.31V112H67.8235ZM68.5742 103.185C68.3157 103.185 68.0936 103.099 67.908 102.927C67.7257 102.751 67.6346 102.542 67.6346 102.3C67.6346 102.055 67.7257 101.846 67.908 101.674C68.0936 101.498 68.3157 101.411 68.5742 101.411C68.8327 101.411 69.0531 101.498 69.2354 101.674C69.421 101.846 69.5138 102.055 69.5138 102.3C69.5138 102.542 69.421 102.751 69.2354 102.927C69.0531 103.099 68.8327 103.185 68.5742 103.185ZM74.5265 112.154C73.7873 112.154 73.151 111.987 72.6174 111.652C72.0871 111.314 71.6794 110.848 71.3944 110.255C71.1093 109.662 70.9668 108.982 70.9668 108.217C70.9668 107.441 71.1126 106.757 71.4043 106.163C71.696 105.567 72.1069 105.101 72.6373 104.766C73.1676 104.432 73.7923 104.264 74.5115 104.264C75.0916 104.264 75.6086 104.372 76.0627 104.587C76.5167 104.799 76.883 105.098 77.1614 105.482C77.4431 105.867 77.6105 106.316 77.6635 106.83H76.2168C76.1373 106.472 75.955 106.163 75.6699 105.905C75.3882 105.646 75.0104 105.517 74.5364 105.517C74.1221 105.517 73.7592 105.626 73.4476 105.845C73.1394 106.061 72.8991 106.369 72.7267 106.77C72.5544 107.168 72.4682 107.638 72.4682 108.182C72.4682 108.739 72.5527 109.219 72.7218 109.624C72.8908 110.028 73.1294 110.341 73.4377 110.563C73.7492 110.785 74.1155 110.896 74.5364 110.896C74.8181 110.896 75.0733 110.845 75.302 110.742C75.534 110.636 75.7279 110.485 75.8837 110.29C76.0428 110.094 76.1538 109.859 76.2168 109.584H77.6635C77.6105 110.078 77.4498 110.518 77.1813 110.906C76.9128 111.294 76.5532 111.599 76.1025 111.821C75.655 112.043 75.1297 112.154 74.5265 112.154ZM86.3738 112H83.0776V101.818H86.4782C87.4758 101.818 88.3326 102.022 89.0485 102.43C89.7644 102.834 90.3129 103.416 90.6941 104.175C91.0785 104.93 91.2708 105.837 91.2708 106.894C91.2708 107.955 91.0769 108.866 90.6891 109.629C90.3046 110.391 89.7478 110.978 89.0186 111.388C88.2895 111.796 87.4078 112 86.3738 112ZM84.6138 110.658H86.2892C87.0648 110.658 87.7095 110.512 88.2232 110.22C88.7369 109.925 89.1214 109.499 89.3766 108.942C89.6318 108.382 89.7594 107.7 89.7594 106.894C89.7594 106.095 89.6318 105.418 89.3766 104.861C89.1247 104.304 88.7485 103.881 88.248 103.593C87.7476 103.305 87.1261 103.161 86.3837 103.161H84.6138V110.658ZM96.353 112.154C95.6006 112.154 94.9527 111.993 94.4091 111.672C93.8688 111.347 93.4512 110.891 93.1562 110.305C92.8646 109.715 92.7188 109.024 92.7188 108.232C92.7188 107.449 92.8646 106.76 93.1562 106.163C93.4512 105.567 93.8622 105.101 94.3892 104.766C94.9195 104.432 95.5393 104.264 96.2486 104.264C96.6795 104.264 97.0971 104.335 97.5014 104.478C97.9058 104.621 98.2687 104.844 98.5902 105.149C98.9117 105.454 99.1652 105.85 99.3509 106.337C99.5365 106.821 99.6293 107.41 99.6293 108.102V108.629H93.5589V107.516H98.1726C98.1726 107.125 98.093 106.778 97.9339 106.477C97.7749 106.172 97.5511 105.931 97.2628 105.756C96.9777 105.58 96.643 105.492 96.2585 105.492C95.8409 105.492 95.4763 105.595 95.1648 105.8C94.8565 106.003 94.6179 106.268 94.4489 106.596C94.2831 106.921 94.2003 107.274 94.2003 107.655V108.525C94.2003 109.035 94.2898 109.469 94.4688 109.827C94.651 110.185 94.9046 110.459 95.2294 110.648C95.5542 110.833 95.9337 110.926 96.3679 110.926C96.6496 110.926 96.9065 110.886 97.1385 110.807C97.3705 110.724 97.571 110.601 97.7401 110.439C97.9091 110.277 98.0384 110.076 98.1278 109.837L99.5348 110.091C99.4221 110.505 99.2199 110.868 98.9283 111.18C98.6399 111.488 98.277 111.728 97.8395 111.901C97.4053 112.07 96.9098 112.154 96.353 112.154ZM107.001 106.228L105.654 106.467C105.597 106.294 105.508 106.13 105.385 105.974C105.266 105.819 105.103 105.691 104.898 105.592C104.692 105.492 104.436 105.442 104.127 105.442C103.706 105.442 103.355 105.537 103.073 105.726C102.792 105.911 102.651 106.152 102.651 106.447C102.651 106.702 102.745 106.907 102.934 107.063C103.123 107.219 103.428 107.347 103.849 107.446L105.062 107.724C105.765 107.887 106.288 108.137 106.633 108.475C106.978 108.813 107.15 109.252 107.15 109.793C107.15 110.25 107.017 110.658 106.752 111.016C106.49 111.37 106.124 111.649 105.654 111.851C105.186 112.053 104.644 112.154 104.028 112.154C103.173 112.154 102.475 111.972 101.935 111.607C101.395 111.239 101.063 110.717 100.941 110.041L102.377 109.822C102.467 110.197 102.651 110.48 102.929 110.673C103.208 110.862 103.57 110.956 104.018 110.956C104.505 110.956 104.895 110.855 105.186 110.653C105.478 110.447 105.624 110.197 105.624 109.902C105.624 109.663 105.534 109.463 105.355 109.3C105.18 109.138 104.91 109.015 104.545 108.933L103.252 108.649C102.54 108.487 102.013 108.228 101.671 107.874C101.333 107.519 101.164 107.07 101.164 106.526C101.164 106.076 101.29 105.681 101.542 105.343C101.794 105.005 102.142 104.741 102.586 104.553C103.03 104.36 103.539 104.264 104.112 104.264C104.938 104.264 105.587 104.443 106.061 104.801C106.535 105.156 106.848 105.631 107.001 106.228ZM108.784 112V104.364H110.271V112H108.784ZM109.535 103.185C109.277 103.185 109.055 103.099 108.869 102.927C108.687 102.751 108.596 102.542 108.596 102.3C108.596 102.055 108.687 101.846 108.869 101.674C109.055 101.498 109.277 101.411 109.535 101.411C109.794 101.411 110.014 101.498 110.196 101.674C110.382 101.846 110.475 102.055 110.475 102.3C110.475 102.542 110.382 102.751 110.196 102.927C110.014 103.099 109.794 103.185 109.535 103.185ZM115.472 115.023C114.866 115.023 114.344 114.943 113.906 114.784C113.472 114.625 113.118 114.415 112.843 114.153C112.567 113.891 112.362 113.604 112.226 113.293L113.504 112.766C113.593 112.911 113.713 113.066 113.862 113.228C114.014 113.394 114.22 113.535 114.478 113.651C114.74 113.767 115.076 113.825 115.487 113.825C116.051 113.825 116.517 113.687 116.884 113.412C117.252 113.14 117.436 112.706 117.436 112.109V110.608H117.342C117.252 110.77 117.123 110.951 116.954 111.15C116.788 111.349 116.56 111.521 116.268 111.667C115.976 111.813 115.597 111.886 115.129 111.886C114.526 111.886 113.983 111.745 113.499 111.463C113.018 111.178 112.637 110.759 112.355 110.205C112.077 109.648 111.938 108.964 111.938 108.152C111.938 107.34 112.075 106.644 112.35 106.064C112.629 105.484 113.01 105.04 113.494 104.732C113.978 104.42 114.526 104.264 115.139 104.264C115.613 104.264 115.996 104.344 116.288 104.503C116.579 104.659 116.807 104.841 116.969 105.05C117.135 105.259 117.262 105.442 117.352 105.602H117.461V104.364H118.918V112.169C118.918 112.825 118.765 113.364 118.46 113.785C118.155 114.206 117.743 114.517 117.222 114.719C116.705 114.922 116.122 115.023 115.472 115.023ZM115.458 110.653C115.885 110.653 116.246 110.553 116.541 110.354C116.84 110.152 117.065 109.864 117.218 109.489C117.373 109.112 117.451 108.659 117.451 108.132C117.451 107.618 117.375 107.166 117.222 106.775C117.07 106.384 116.846 106.079 116.551 105.86C116.256 105.638 115.892 105.527 115.458 105.527C115.01 105.527 114.637 105.643 114.339 105.875C114.041 106.104 113.815 106.415 113.663 106.81C113.514 107.204 113.439 107.645 113.439 108.132C113.439 108.633 113.515 109.072 113.668 109.45C113.82 109.827 114.046 110.122 114.344 110.335C114.646 110.547 115.017 110.653 115.458 110.653ZM122.398 107.466V112H120.911V104.364H122.338V105.607H122.433C122.608 105.202 122.883 104.877 123.258 104.632C123.636 104.387 124.111 104.264 124.685 104.264C125.205 104.264 125.661 104.374 126.052 104.592C126.443 104.808 126.746 105.129 126.962 105.557C127.177 105.984 127.285 106.513 127.285 107.143V112H125.798V107.322C125.798 106.768 125.654 106.336 125.366 106.024C125.078 105.709 124.682 105.552 124.178 105.552C123.833 105.552 123.526 105.626 123.258 105.776C122.993 105.925 122.782 106.143 122.627 106.432C122.474 106.717 122.398 107.062 122.398 107.466ZM132.57 112.154C131.817 112.154 131.169 111.993 130.626 111.672C130.086 111.347 129.668 110.891 129.373 110.305C129.081 109.715 128.936 109.024 128.936 108.232C128.936 107.449 129.081 106.76 129.373 106.163C129.668 105.567 130.079 105.101 130.606 104.766C131.136 104.432 131.756 104.264 132.465 104.264C132.896 104.264 133.314 104.335 133.718 104.478C134.123 104.621 134.485 104.844 134.807 105.149C135.128 105.454 135.382 105.85 135.568 106.337C135.753 106.821 135.846 107.41 135.846 108.102V108.629H129.776V107.516H134.389C134.389 107.125 134.31 106.778 134.151 106.477C133.992 106.172 133.768 105.931 133.48 105.756C133.195 105.58 132.86 105.492 132.475 105.492C132.058 105.492 131.693 105.595 131.382 105.8C131.073 106.003 130.835 106.268 130.666 106.596C130.5 106.921 130.417 107.274 130.417 107.655V108.525C130.417 109.035 130.507 109.469 130.686 109.827C130.868 110.185 131.121 110.459 131.446 110.648C131.771 110.833 132.151 110.926 132.585 110.926C132.866 110.926 133.123 110.886 133.355 110.807C133.587 110.724 133.788 110.601 133.957 110.439C134.126 110.277 134.255 110.076 134.345 109.837L135.752 110.091C135.639 110.505 135.437 110.868 135.145 111.18C134.857 111.488 134.494 111.728 134.056 111.901C133.622 112.07 133.127 112.154 132.57 112.154ZM137.495 112V104.364H138.932V105.577H139.012C139.151 105.166 139.396 104.843 139.748 104.607C140.102 104.369 140.503 104.249 140.951 104.249C141.043 104.249 141.153 104.253 141.279 104.259C141.408 104.266 141.509 104.274 141.582 104.284V105.706C141.522 105.689 141.416 105.671 141.264 105.651C141.111 105.628 140.959 105.616 140.806 105.616C140.455 105.616 140.142 105.691 139.867 105.84C139.595 105.986 139.38 106.19 139.221 106.452C139.061 106.71 138.982 107.005 138.982 107.337V112H137.495ZM142.973 112.094C142.701 112.094 142.467 111.998 142.272 111.806C142.076 111.611 141.979 111.375 141.979 111.1C141.979 110.828 142.076 110.596 142.272 110.404C142.467 110.209 142.701 110.111 142.973 110.111C143.245 110.111 143.478 110.209 143.674 110.404C143.869 110.596 143.967 110.828 143.967 111.1C143.967 111.282 143.921 111.45 143.828 111.602C143.738 111.751 143.619 111.871 143.47 111.96C143.321 112.05 143.155 112.094 142.973 112.094Z" fill="#4A5568"/>
</g>
<defs>
<filter id="filter0_d_4277_10282" x="0.217206" y="0.940054" width="369.36" height="163.36" filterUnits="userSpaceOnUse" color-interpolation-filters="sRGB">
<feFlood flood-opacity="0" result="BackgroundImageFix"/>
<feColorMatrix in="SourceAlpha" type="matrix" values="0 0 0 0 0 0 0 0 0 0 0 0 0 0 0 0 0 0 127 0" result="hardAlpha"/>
<feOffset dx="9.39704" dy="10.1199"/>
<feGaussianBlur stdDeviation="7.58992"/>
<feComposite in2="hardAlpha" operator="out"/>
<feColorMatrix type="matrix" values="0 0 0 0 0.0375 0 0 0 0 0.18975 0 0 0 0 0.3 0 0 0 0.06 0"/>
<feBlend mode="normal" in2="BackgroundImageFix" result="effect1_dropShadow_4277_10282"/>
<feBlend mode="normal" in="SourceGraphic" in2="effect1_dropShadow_4277_10282" result="shape"/>
</filter>
</defs>
</svg>
