<svg width="238" height="228" viewBox="0 0 238 228" fill="none" xmlns="http://www.w3.org/2000/svg">
<g filter="url(#filter0_d_3867_9675)">
<rect x="6.23438" y="6" width="207" height="196" rx="16" fill="#FFCF54"/>
<rect x="68.7344" y="38" width="82" height="82" rx="14.9091" fill="#E8ECEF"/>
<path fill-rule="evenodd" clip-rule="evenodd" d="M105.117 76.5849C104.332 76.5687 103.569 76.321 102.923 75.8727C102.278 75.4245 101.78 74.7957 101.491 74.0652C101.202 73.3348 101.135 72.5352 101.298 71.7669C101.462 70.9985 101.849 70.2956 102.411 69.7463C102.972 69.197 103.684 68.8259 104.455 68.6794C105.227 68.5328 106.025 68.6175 106.749 68.9228C107.473 69.228 108.09 69.7403 108.524 70.3952C108.958 71.0501 109.189 71.8186 109.187 72.6042C109.174 73.6712 108.737 74.6892 107.975 75.4354C107.212 76.1815 106.184 76.5948 105.117 76.5849Z" fill="#FFA600"/>
<path fill-rule="evenodd" clip-rule="evenodd" d="M130.085 83.2499L124.666 75.199V74.5281C124.666 69.7999 122.794 65.2639 119.46 61.9114C116.126 58.559 111.6 56.6628 106.872 56.6372C105.446 56.6267 104.025 56.8021 102.645 57.159C98.7609 58.1097 95.3097 60.34 92.8473 63.4907C90.3848 66.6415 89.0544 70.5293 89.0703 74.5281C88.9664 77.883 89.8982 81.1886 91.7391 83.9953C94.8551 88.4681 96.9572 92.0463 95.6676 96.8917C95.515 97.4287 95.4963 97.9949 95.6133 98.5407C95.7302 99.0865 95.9793 99.5954 96.3385 100.023C96.654 100.451 97.0681 100.796 97.5457 101.03C98.0233 101.263 98.5503 101.378 99.0818 101.364H113.693C114.511 101.37 115.305 101.09 115.939 100.573C116.573 100.056 117.007 99.3341 117.167 98.5317C117.252 98.2407 117.303 97.9403 117.316 97.6372C117.382 97.2153 117.599 96.8318 117.927 96.5577C118.254 96.2836 118.67 96.1374 119.097 96.1463H120.148C120.929 96.1707 121.695 95.9349 122.326 95.4761C122.958 95.0172 123.419 94.3613 123.637 93.6117C124.285 91.2779 124.655 88.8759 124.74 86.4553H128.594C128.946 86.4125 129.28 86.2804 129.566 86.0716C129.852 85.8628 130.079 85.5843 130.227 85.2626C130.371 84.9415 130.434 84.5897 130.409 84.2384C130.385 83.8872 130.273 83.5476 130.085 83.2499ZM115.295 77.0104L114.55 78.1808C114.401 78.3919 114.205 78.5652 113.977 78.6869C113.749 78.8085 113.496 78.8752 113.238 78.8815C113.054 78.8699 112.873 78.8297 112.701 78.7623L110.726 78.0168C109.883 78.7423 108.909 79.2991 107.856 79.6568L107.498 81.8261C107.436 82.1748 107.252 82.49 106.979 82.7154C106.706 82.9408 106.361 83.0615 106.007 83.0561H104.516C104.162 83.0615 103.818 82.9408 103.544 82.7154C103.271 82.49 103.087 82.1748 103.025 81.8261L102.667 79.6568C101.655 79.36 100.718 78.8519 99.9167 78.1659L97.822 78.9113C97.6503 78.9788 97.4693 79.019 97.2852 79.0306C97.0215 79.027 96.7629 78.9567 96.5335 78.8264C96.3041 78.6961 96.1114 78.5099 95.9732 78.2852L95.2278 77.0552C95.0506 76.7529 94.9893 76.3965 95.0551 76.0524C95.1209 75.7082 95.3094 75.3997 95.5856 75.1841L97.3225 73.7752C97.2073 73.2562 97.1473 72.7264 97.1436 72.1948C97.1497 71.6929 97.2097 71.193 97.3225 70.7039L95.6229 69.2204C95.344 69.0068 95.1535 68.6981 95.0875 68.3531C95.0215 68.008 95.0847 67.6508 95.2651 67.3493L96.0105 66.1193C96.1431 65.8896 96.3346 65.6994 96.5652 65.5684C96.7959 65.4373 97.0573 65.3702 97.3225 65.3739C97.5065 65.3855 97.6876 65.4258 97.8592 65.4932L99.954 66.2386C100.765 65.5456 101.698 65.0096 102.705 64.6583L103.003 62.6008C103.064 62.2567 103.25 61.9473 103.525 61.7315C103.8 61.5157 104.145 61.4085 104.494 61.4304H105.985C106.325 61.4078 106.662 61.5072 106.935 61.7108C107.208 61.9144 107.4 62.2088 107.476 62.5412L107.833 64.6508C108.835 64.9718 109.768 65.4775 110.584 66.1417L112.679 65.3963C112.851 65.3288 113.032 65.2886 113.216 65.277C113.479 65.2806 113.738 65.3509 113.967 65.4812C114.197 65.6115 114.389 65.7977 114.528 66.0224L115.273 67.2524C115.453 67.5592 115.517 67.92 115.454 68.27C115.391 68.6199 115.205 68.9358 114.93 69.1608L113.193 70.5697C113.312 71.0882 113.372 71.6183 113.372 72.1501C113.366 72.652 113.306 73.1518 113.193 73.641L114.93 75.0797C115.215 75.3026 115.409 75.6212 115.476 75.9764C115.543 76.3315 115.479 76.699 115.295 77.0104Z" fill="#665E66"/>
<mask id="mask0_3867_9675" style="mask-type:alpha" maskUnits="userSpaceOnUse" x="88" y="56" width="43" height="46">
<path fill-rule="evenodd" clip-rule="evenodd" d="M129.89 83.2499L124.47 75.199V74.5281C124.471 69.7999 122.599 65.2639 119.265 61.9114C115.93 58.559 111.405 56.6628 106.676 56.6372C105.251 56.6267 103.83 56.8021 102.45 57.159C98.5656 58.1097 95.1144 60.34 92.6519 63.4907C90.1895 66.6415 88.8591 70.5293 88.875 74.5281C88.7711 77.883 89.7029 81.1886 91.5437 83.9953C94.6597 88.4681 96.7619 92.0463 95.4723 96.8917C95.3196 97.4287 95.301 97.9949 95.418 98.5407C95.5349 99.0865 95.7839 99.5954 96.1432 100.023C96.4587 100.451 96.8728 100.796 97.3504 101.03C97.828 101.263 98.355 101.378 98.8865 101.364H113.497C114.315 101.37 115.11 101.09 115.744 100.573C116.378 100.056 116.812 99.3341 116.971 98.5317C117.057 98.2407 117.107 97.9403 117.12 97.6372C117.187 97.2153 117.404 96.8318 117.732 96.5577C118.059 96.2836 118.475 96.1374 118.902 96.1463H119.953C120.733 96.1707 121.5 95.9349 122.131 95.4761C122.763 95.0172 123.224 94.3613 123.442 93.6117C124.09 91.2779 124.46 88.8759 124.545 86.4553H128.399C128.75 86.4125 129.085 86.2804 129.371 86.0716C129.656 85.8628 129.884 85.5843 130.032 85.2626C130.176 84.9415 130.239 84.5897 130.214 84.2384C130.189 83.8872 130.078 83.5476 129.89 83.2499ZM115.1 77.0104L114.355 78.1808C114.206 78.3919 114.01 78.5652 113.782 78.6869C113.554 78.8085 113.301 78.8752 113.043 78.8815C112.859 78.8699 112.678 78.8297 112.506 78.7623L110.53 78.0168C109.688 78.7423 108.713 79.2991 107.66 79.6568L107.303 81.8261C107.241 82.1748 107.057 82.49 106.784 82.7154C106.51 82.9408 106.166 83.0615 105.812 83.0561H104.321C103.967 83.0615 103.622 82.9408 103.349 82.7154C103.076 82.49 102.892 82.1748 102.83 81.8261L102.472 79.6568C101.46 79.36 100.523 78.8519 99.7214 78.1659L97.6267 78.9113C97.455 78.9788 97.274 79.019 97.0899 79.0306C96.8261 79.027 96.5676 78.9567 96.3382 78.8264C96.1088 78.6961 95.9161 78.5099 95.7779 78.2852L95.0325 77.0552C94.8553 76.7529 94.794 76.3965 94.8598 76.0524C94.9256 75.7082 95.1141 75.3997 95.3903 75.1841L97.1272 73.7752C97.012 73.2562 96.952 72.7264 96.9483 72.1948C96.9544 71.6929 97.0144 71.193 97.1272 70.7039L95.4276 69.2204C95.1487 69.0068 94.9581 68.6981 94.8922 68.3531C94.8262 68.008 94.8894 67.6508 95.0697 67.3493L95.8152 66.1193C95.9478 65.8896 96.1393 65.6994 96.3699 65.5684C96.6006 65.4373 96.862 65.3702 97.1272 65.3739C97.3112 65.3855 97.4923 65.4258 97.6639 65.4932L99.7587 66.2386C100.569 65.5456 101.502 65.0096 102.509 64.6583L102.808 62.6008C102.869 62.2567 103.055 61.9473 103.33 61.7315C103.605 61.5157 103.95 61.4085 104.298 61.4304H105.789C106.129 61.4078 106.466 61.5072 106.74 61.7108C107.013 61.9144 107.205 62.2088 107.28 62.5412L107.638 64.6508C108.64 64.9718 109.573 65.4775 110.389 66.1417L112.484 65.3963C112.655 65.3288 112.836 65.2886 113.02 65.277C113.284 65.2806 113.543 65.3509 113.772 65.4812C114.001 65.6115 114.194 65.7977 114.332 66.0224L115.078 67.2524C115.258 67.5592 115.322 67.92 115.259 68.27C115.196 68.6199 115.01 68.9358 114.735 69.1608L112.998 70.5697C113.116 71.0882 113.176 71.6183 113.177 72.1501C113.171 72.652 113.111 73.1518 112.998 73.641L114.735 75.0797C115.019 75.3026 115.213 75.6212 115.281 75.9764C115.348 76.3315 115.284 76.699 115.1 77.0104Z" fill="#454045"/>
</mask>
<g mask="url(#mask0_3867_9675)">
<rect x="120.922" y="61.8555" width="9.69091" height="36.5273" fill="#454045"/>
</g>
<path d="M91.5241 149C91.4711 148.337 91.2225 147.82 90.7784 147.449C90.3409 147.078 89.6747 146.892 88.7798 146.892C88.2098 146.892 87.7424 146.962 87.3778 147.101C87.0199 147.233 86.7547 147.416 86.5824 147.648C86.41 147.88 86.3205 148.145 86.3139 148.443C86.3007 148.688 86.3438 148.911 86.4432 149.109C86.5492 149.302 86.715 149.477 86.9403 149.636C87.1657 149.789 87.4541 149.928 87.8054 150.054C88.1567 150.18 88.5743 150.293 89.0582 150.392L90.7287 150.75C91.8556 150.989 92.8201 151.304 93.6222 151.695C94.4242 152.086 95.0805 152.546 95.5909 153.077C96.1013 153.6 96.4759 154.19 96.7145 154.847C96.9598 155.503 97.0857 156.219 97.0923 156.994C97.0857 158.333 96.7509 159.467 96.0881 160.395C95.4252 161.323 94.4773 162.029 93.2443 162.513C92.018 162.997 90.5431 163.239 88.8196 163.239C87.0497 163.239 85.5052 162.977 84.1861 162.453C82.8736 161.929 81.8527 161.124 81.1236 160.037C80.401 158.943 80.0365 157.545 80.0298 155.841H85.2798C85.313 156.464 85.4688 156.988 85.7472 157.412C86.0256 157.836 86.4167 158.158 86.9205 158.376C87.4309 158.595 88.0374 158.705 88.7401 158.705C89.33 158.705 89.8239 158.632 90.2216 158.486C90.6193 158.34 90.9209 158.138 91.1264 157.879C91.3319 157.621 91.438 157.326 91.4446 156.994C91.438 156.683 91.3352 156.411 91.1364 156.179C90.9441 155.94 90.6259 155.728 90.1818 155.543C89.7377 155.35 89.1378 155.171 88.3821 155.006L86.3537 154.568C84.5507 154.177 83.1288 153.524 82.0881 152.609C81.054 151.688 80.5402 150.432 80.5469 148.841C80.5402 147.548 80.8849 146.418 81.581 145.45C82.2836 144.476 83.2547 143.717 84.4943 143.173C85.7405 142.63 87.169 142.358 88.7798 142.358C90.4238 142.358 91.8456 142.633 93.0455 143.183C94.2453 143.733 95.17 144.509 95.8196 145.51C96.4759 146.504 96.8073 147.668 96.8139 149H91.5241ZM104.207 159.381L104.246 152.858H104.962L108.661 147.727H114.826L108.621 155.722H107.07L104.207 159.381ZM99.2749 163V142.636H104.763V163H99.2749ZM108.701 163L105.201 156.955L108.781 153.057L114.985 163H108.701ZM116.255 163V147.727H121.744V163H116.255ZM119 146.136C118.257 146.136 117.621 145.891 117.091 145.401C116.56 144.91 116.295 144.32 116.295 143.631C116.295 142.941 116.56 142.351 117.091 141.861C117.621 141.37 118.257 141.125 119 141.125C119.749 141.125 120.385 141.37 120.909 141.861C121.439 142.351 121.704 142.941 121.704 143.631C121.704 144.32 121.439 144.91 120.909 145.401C120.385 145.891 119.749 146.136 119 146.136ZM130.029 142.636V163H124.54V142.636H130.029ZM138.314 142.636V163H132.826V142.636H138.314Z" fill="#4A5568"/>
</g>
<defs>
<filter id="filter0_d_3867_9675" x="0.451581" y="0.940054" width="237.36" height="226.36" filterUnits="userSpaceOnUse" color-interpolation-filters="sRGB">
<feFlood flood-opacity="0" result="BackgroundImageFix"/>
<feColorMatrix in="SourceAlpha" type="matrix" values="0 0 0 0 0 0 0 0 0 0 0 0 0 0 0 0 0 0 127 0" result="hardAlpha"/>
<feOffset dx="9.39704" dy="10.1199"/>
<feGaussianBlur stdDeviation="7.58992"/>
<feComposite in2="hardAlpha" operator="out"/>
<feColorMatrix type="matrix" values="0 0 0 0 0.0375 0 0 0 0 0.18975 0 0 0 0 0.3 0 0 0 0.06 0"/>
<feBlend mode="normal" in2="BackgroundImageFix" result="effect1_dropShadow_3867_9675"/>
<feBlend mode="normal" in="SourceGraphic" in2="effect1_dropShadow_3867_9675" result="shape"/>
</filter>
</defs>
</svg>
